<svg xmlns="http://www.w3.org/2000/svg" width="439" height="227">
  <path fill="#00625e" d="M0 226.85h4.262V0H0Zm0 0"/>
  <path d="M91.447 61.717c-.83 0-1.62-.012-2.004-.038-4.35-.421-8.663-1.633-13.014-2.31-1.25-.19-2.284-.37-3.177-.37-1.838 0-3.1.779-4.58 3.867-.639 1.173 1.48 2.296 1.951 2.347-1.748-1.454-1.135-1.875.243-1.875 1.9 0 5.27.816 5.933.893 3.98.625 8.013 1.735 12.057 2.156.14.013.281.013.409.013 2.973 0 2.832-3.164 4.887-4.734-.37.026-1.583.051-2.705.051M75.05 60.02c-.102.09-.447 2.501-.421 2.73l-.676-.127c.127-.204.28-1.888.28-1.888l-1.148 1.735-.664-1.952s-.268 1.39-.28 1.85l-.651-.09c.204-.331.612-2.807.612-2.807l.677.115c.025.14.536 1.825.536 1.825s.893-1.48.944-1.557l.79.153zm2.45 2.13c-.6 1.979-2.948.894-2.246-.867.587-1.914 2.935-.906 2.246.868m2.31 1.735c-.218-.05-1.315-2.245-1.315-2.245s-.268 1.71-.345 1.824l-.497-.064.574-2.68.561.065c0 .076.88 1.888.88 1.888l.32-1.595.42.115zm2.602.23c-.396.14-.957-.026-1.378-.09l.561-2.768c1.825-.115 2.59 2.207.817 2.858m3.254-1.276c-.077.319-.32.536-.702.65.166.55.268.728.549 1.315v.013l-.447-.064c-.09-.051-.65-.817-.817-1.238-.102.345-.191.778-.153 1.085l-.753-.115c.14-.204.728-2.463.702-2.705.65.09 1.825.191 1.62 1.059m1.455 2.182c-1.684.319-1.684-2.45-.332-2.846 1.685-.344 1.697 2.476.332 2.846m1.748-1.62c-.064.497-.293 1.492-.204 1.964l-.664-.102c.294-.714.485-1.94.447-2.718l.65.103a2.91 2.91 0 0 0-.229.752m1.557-.115s-.383 2.131-.37 2.31l-.65-.115c-.014.013.407-1.863.51-2.271a1.443 1.443 0 0 0-.766.064h-.013l.268-.536 1.773.319.128.587c-.153-.14-.625-.306-.88-.358m-13.78-2.64c-1.034-.281-1.43 1.798-.562 2.156 1.06.28 1.442-1.8.562-2.157m7.949 1.531-.294 1.06c.843.153 1.213-.932.294-1.06m2.603.37c-.996-.242-1.315 1.774-.485 2.106 1.008.23 1.314-1.774.485-2.106m-5.091-.854c-.14.535-.358 1.543-.421 2.092 1.288.28 1.697-1.85.42-2.092m-30.622-2.718c-6.61 0-13.206 2.756-19.815 2.756-.791 0-1.582-.038-2.373-.128 2.041 1.582 1.9 4.747 4.886 4.747.128 0 .256-.013.396-.026 4.057-.42 8.077-1.53 12.058-2.143.689-.102 3.993-.893 5.92-.893.702 0 1.225.102 1.378.37.204.37-1.11 1.454-1.123 1.492 0 .013.013.026.026.026.127 0 .855-.408 1.39-.766 2.157-1.505-2.36-5.435-2.743-5.435m-13.92 5.346c-.358.83-1.442 1.02-2.272 1.161.039-.255-.472-2.667-.637-2.884 1.454-.612 3.534-.025 2.909 1.723m.855.51c.038-.842-.243-2.156-.638-2.909l.854-.165c-.05.829.243 2.143.626 2.896zm3.24-.689-1.722.37c.025-.255-.536-2.615-.676-2.832l1.824-.396-.153.6c-.242-.077-.548-.077-.88-.013l.204.855 1.008-.204.166.408c-.204-.025-.817.115-1.085.166l.204.893a3.535 3.535 0 0 0 1.238-.485v.013zm1.774-.268c-1.25.026-1.442-1.735-1.735-2.59l.612-.115c.294.753.204 2.514 1.506 2.284.944-.408.178-1.863.076-2.564l.613-.09c.23 1.174.765 3.19-1.072 3.075m5.014-.88-1.722.396c.025-.256-.549-2.616-.702-2.833l1.825-.408-.14.6c-.256-.077-.55-.077-.894 0l.217.854 1.008-.23.166.422c-.204-.039-.804.115-1.084.166l.216.893c.498-.102.906-.268 1.225-.485h.013zm1.825-2.87.498 2.449-.574.102-.51-2.437c-.358.064-.562.064-1.047.268l-.013-.549 2.501-.319.166.472c-.23-.089-1.02.013-1.02.013m-13.794 2.794c-.268-.153-.6-.204-.995-.14.09.574.293 1.646.472 2.207 1.097-.153 1.43-1.492.523-2.067m43.089-24.982c-.268-.562-.893-3.726-1.8-3.037 4.135 7.515 1.379 17.416-5.792 22.176-2.105 1.237-4.708 3.292-7.196 1.926 1.607-6.111 9.301-3.534 10.973-15.158-.205-.102-.281-.166-.472-.204a19.69 19.69 0 0 1-1.29 4.695c.677-1.735.243-7.158.37-7.451-.063-.09-.14-.128-.37-.396.04.651 0 .894.014 1.761H62.317V30.367h11.47v6.7c-.012.037.039.356.064.471.166-.242.18-.23.294-.319v-7.196H50.093l-.012 6.073h.344v-5.729h11.547v11.88H50.846c-.038.025 0-.192-.038-.154 0-.038-.077.179-.077.153h-.306c-.013-.561 0-.893 0-.918l-.344-.013c-.268.893.497 8.345 1.748 9.659-2.501-2.373-3.292-6.584-2.833-9.761 0 0-.23-.179-.485-.408-.79 4.478.944 8.88 4.16 12.083.28.293.587-.026.931-.102-.076-.077-.23-.192-.331-.332l.331.332-.178-.485c-2.527-1.876-2.935-7.248-2.999-9.71h11.547s-.012 14.89-.025 14.928c-2.45-.114-4.109-2.717-6.482-2.743 3.407 1.965 9.633 6.712 13.563 4.632.026.038.026.038.051.064-.408.51-1.875 1.467-2.513 1.225-1.072-.638-2.73.51-1.965 1.671.102.14.153.268.038.447-4.249-.396-8.064-2.871-11.65-4.99l-.063.064c1.365 1.812 6.278 4.058 6.278 4.058v2.692s.306.204.51.332v-2.91c1.289.435 3.904 1.226 3.904 1.226v1.824l.498-.319-.026-1.352.69-.192a.891.891 0 0 0 .676-.97.501.501 0 0 1-.294-.586c.102-.523.766-.536 1.034-.217.523.23 1.046-.396 1.57-.549.74-.434 1.658-.816 2.002-1.659.064-.204.18-.319.358-.42 1.492-.83 2.934-1.749 4.16-2.935 5.192-4.3 7.017-11.675 5.282-17.978M62.317 42.59h11.675c.957 8.702-4.275 11.611-11.675 14.648zm.217 15.554c.83-.728 1.39-.97 2.462-1.225-.293.65-.574 1.263-.88 1.914-.523-.243-1.046-.46-1.582-.69m6.099-12.72c-.051-.052-.192.012-.204.038 0 .28-.307.191-.383.383.05.114.14.204.268.191.153-.013.14.179.28.191.69-.306 1.506-.23 2.08-.752-.217-.18-.268-.421-.319-.69-.395.039-.778-.025-1.11.166-.038.166.09.268.179.421-.28.115-.536.166-.791.052m-.779-8.651c-.523-.026-.905-.064-.765.536.025.14.076.574.166.676.038.05.038.115-.013.153-.204.115-.995-.204-.893-.46 0-.216-.23-.267-.294-.114-.038.076-.089.064-.165-.013-.154-.204-.345.064-.268.217.038.064-.013.128-.077.14-.217.077-.204.37.09.383.65.294 1.224.6 1.99.498h-.013c.83-.064.396-.217.37-.779-.153-.6.906-1.008-.127-1.237m1.556-1.136.28.562s.6.267.677.344c.345.242.28.906-.025.83-.485-.205-.792-.881-1.136-1.315-.09-.064-.332-.765-.485-.587-2.054.447.37.957 0 1.71-.076.102-.306.625-.204.702.166.204.561.357.753.612.344.32.038.69-.37.396-.243-.179-.523.076-.28.306.025.038-.141.115-.167.128-.255.331.153.306.37.153.115-.064 0 .28.204.217.37-.077.945-.256 1.047-.83.242-.523-.307-.434-.434-.893-.128-.191-.14-.88.153-.625.268.332.638.523.97.23.306-.281.025-.97-.14-1.276-.294-.6-.639-1.187-.613-1.902.42-.484.893.37 1.186-.97-.97.065-1.926.703-1.441 1.762.293.612.23.561-.345.446m-2.105.408c.115-.114.46-.446.497-.523.039-.076.051-.076.294-.089.676-.102 1.008-.37 1.2-1.072.101-.217-.026-.663-.167-.765-.05-.039-.076-.102-.038-.128.128-.025.383-.115.434-.268-.077-.127-.255-.025-.485-.102-.179-.077-.638-.217-.83-.115-.127.153-.918.166-.778.396.039.089.09.28.09.28l.357.039.013.255s-.256.051-.345.076c-.217.307.51.332.702.09.127-.153.319-.166.319-.013-.102.204-.447.306-.65.408-.294.051-.384.626-.613.817-.651.115-.893.102-1.544-.408-.23-.268-.421-.064-.243.14-.114.038-.727-.293-.446.268l.038.051c-.293.421.153.28.396.408.536.204 1.11.37 1.799.255m-1.85-2.59c.204.128.344.69.459.766.23.293.702 1.059 1.161.893v-.013c.128-.05.255-.434.268-.485a.662.662 0 0 0-.166-.153c-.434-.37-.689-.727-.702-1.059-.012-.115.243-.255.23-.357-.013-.383-.344.038-.472-.025-.064-.103-.306-.422-.46-.268-.089.05.026.268-.05.319-.026.05-.052.05-.154.05-.344 0-.395.205-.114.332M52.364 39.81a.968.968 0 0 1-.14-.178c-.013.166.077.344.038.51-.025.128-.063.306-.089.434.204.191.32.217.549.14-.026-.319-.102-.689-.358-.906m5.079.792c-.039.204.153.293.178.446-.23.153-.497.153-.752.191-.128-.127-.192-.37-.422-.293-.127.026-.063.166-.153.217-.268-.013-.268-.013-.306.23.077.05.166.102.243.14-.192.906 2.335-.026 2.705-.293-.128-.205-.281-.345-.332-.575-.102-.395-.855-.076-1.161-.063m-4.364-1.544c-.408.714-.293 1.365.191 1.977.894.026 1.264-1.174 1.11-1.888.103-.064.18-.128.281-.191-.025-.09-.05-.166-.076-.256-.166-.012-.307-.012-.447-.025-.332-.396-.523-.408-.906-.038-.268-.102-.268-.102-.447.127.064.128.154.23.294.294m7.324 1.071c-.268.115-.613.23-.817-.076.447-.179 1.021-.128 1.327-.549.23-.28.217-.83-.23-.97-1.148-.319-2.36.256-3.534.345-2.182.587-.625-.447-2.348-.447.613 1.736 2.476.626 3.765.498-.09.204-.307.28-.383.46.46-.09 1.059.089 1.39-.269.18-.472 1.34-.523 1.06.128-1.085 1.033-4.492.064-6.023.727-.217.676-.625 1.123-1.289 1.302-.535-.32-.79.05-1.327-.102-.05-.051-.114-.102-.165-.153-.013-.013-.026-.013-.039-.026-.025-.013-.038-.025-.064-.038v.025c.013.306-.063.613-.19.893.714.281 1.48-.05 2.18-.242.282-.09.448-.357.754-.357.74.05 1.16-.549 1.786-.728.791-.14 1.582-.255 2.386-.242.919 1.212 1.085.179 1.901.587-.025.127-.05.242-.076.37.089.025.153.05.217.064-.077.306.382.485.446.102.013-.051-.013-.115.051-.115.498-.255-.255-1.518-.778-1.187m-7.77-3.1c-.026-.32-.116-.69-.37-.906-.281-.294-.384-.69-.09-.995-.14-.128-.345-.026-.485-.217-.179-.204-.293.038-.332.255-.51.064-.217.23-.102.498.166.472.779 1.569 1.378 1.365m4.721-.115c-.038.204.14.293.179.447-.243.153-.498.165-.753.204-.127-.14-.191-.37-.421-.307-.14.039-.064.166-.166.217-.255-.012-.255-.012-.293.243.076.05.166.09.242.14-.204.906 2.322-.038 2.705-.306-.127-.204-.28-.345-.332-.574-.102-.396-.854-.077-1.16-.064m-4.377-1.544c-.409.727-.294 1.365.191 1.978.893.025 1.263-1.161 1.123-1.889.09-.063.179-.114.268-.178-.026-.102-.051-.179-.064-.268-.166-.013-.319-.013-.46-.013-.318-.408-.522-.421-.905-.051-.268-.102-.268-.102-.447.128.077.127.153.23.294.293m7.336 1.072c-.268.115-.612.242-.816-.064.446-.191 1.02-.14 1.327-.561.23-.268.217-.83-.23-.97-1.148-.319-2.373.255-3.534.357-2.182.574-.625-.46-2.36-.446.625 1.722 2.487.612 3.776.485-.09.204-.306.28-.395.472.459-.09 1.071.076 1.403-.268.179-.485 1.34-.536 1.072.115-1.097 1.033-4.517.063-6.035.727-.23.676-.626 1.123-1.302 1.314-.46-.28-.702-.051-1.097-.064.013.128.051.243.09.37.025.128.038.255.05.383.46-.051.919-.217 1.353-.332.293-.089.446-.37.765-.357.728.051 1.149-.561 1.787-.727.778-.153 1.582-.268 2.373-.255.931 1.224 1.097.19 1.914.6-.026.114-.038.229-.077.356.09.026.153.052.217.077-.076.306.383.485.447.09.012-.039-.013-.103.05-.115.498-.256-.254-1.519-.777-1.187m-7.567-3.343c-.025-.32-.102-.676-.357-.906-.28-.28-.383-.676-.09-.982-.14-.128-.331-.026-.471-.217-.192-.205-.294.038-.345.242-.51.077-.217.242-.102.51.179.46.778 1.557 1.365 1.353m4.683-.115c-.038.204.153.294.191.447-.242.14-.497.153-.753.191-.127-.128-.19-.37-.42-.306-.128.038-.052.178-.154.23-.268-.026-.268-.026-.306.23.077.05.166.101.242.14-.19.893 2.31-.039 2.68-.307-.115-.191-.268-.331-.319-.561-.102-.396-.842-.077-1.161-.064m-4.338-1.531c-.396.715-.281 1.352.204 1.952.88.038 1.25-1.148 1.097-1.863.09-.063.179-.127.28-.191-.037-.09-.05-.166-.076-.255-.166 0-.306-.013-.446-.013-.332-.408-.523-.421-.906-.051-.255-.102-.255-.102-.434.128.064.127.153.23.28.293m-1.875 2.616c.115.012.23-.115.345 0-.013.05-.026.115-.039.166.715.306 1.506-.039 2.208-.217.28-.09.446-.37.752-.358.74.051 1.149-.548 1.787-.714.765-.153 1.556-.268 2.347-.255.92 1.212 1.085.178 1.902.587-.026.127-.052.242-.077.37.09.025.153.038.217.063-.09.307.383.485.434.09.012-.039-.013-.102.064-.102.484-.268-.268-1.519-.779-1.187-.268.115-.612.242-.816-.064.446-.178 1.008-.14 1.327-.548.23-.281.204-.83-.23-.97-1.148-.306-2.348.255-3.509.344-2.169.574-.625-.446-2.335-.434.613 1.71 2.463.613 3.739.485-.09.204-.307.281-.383.46.446-.09 1.046.076 1.39-.268.166-.46 1.315-.523 1.047.115-1.085 1.033-4.466.063-5.984.727-.217.676-.625 1.123-1.276 1.301-.549-.319-.791.051-1.327-.102-.153-.153-.306-.331-.536-.166v.256c-.255-.077-.536.267-.268.42M62.84 47.785c.306.447.383 1.161.893 1.416.23 0 .587.204.727-.063-.153-.536-.816-.843-.727-1.442.038-.14-.013-.281-.14-.409-.256.077-.804-.497-.6.192-.166.05-.255.153-.153.306m1.57-2.322c-.04-.69-.856-1.136-.6-1.825.063-.127.038-.268-.09-.383-.242.064-.242.064-.42-.038-.307-.153-.345.179-.32.383-.064.025-.115.05-.204.09.217.599.842 2.066 1.633 1.773m0 8.166c-.255-.498-.663-.944-.855-1.468.23-.319.128-.727-.306-.472-.115-.204-.268-.255-.472-.191-.064.128-.09.268.064.37.012.013 0 .038 0 .064a.71.71 0 0 0-.153.05c-.102.269.178.422.28.639.294.472.74 1.595 1.442 1.008m2.999-4.172c-.179 0-.217.204-.102.306.127.127.23-.013.37.025 0 .077 0 .128.012.192.702.038 1.761-.575 2.131-1.123-.14-.23-.28-.447-.434-.664-.382.115-.816.115-1.046.447.14.14.255.268.396.408-.256.128-.562.37-.843.14-.114-.102-.433-.05-.357.14.013.04 0 .077 0 .103-.05.013-.09.013-.127.025m1.059 2.77c-.383.089-.779.114-1.008.51.089.127.191.242.28.37-.178.46-.65.383-1.097.408.038.14.064.23.09.319-.192.102-.256.268-.218.498.052.012.103.038.166.05.128-.152.345-.305.396-.025.804-.255 1.531-.727 1.914-1.467-.23-.166-.434-.37-.523-.664m2.973-3.113c-1.315-.434-3.369 2.348-4.237 1.531-.216-.446-.867-.408-1.275-.28.497.344.765 1.11 1.505.854.842-.153 1.506-.816 2.233-1.122.026.242-.23.344-.332.574.498-.166.957-.294 1.315-.613-.052-1.34 1.913-.395.025.434.332 0 .561.153.791-.115.434-.383.46-.931-.025-1.263m-5.245-2.105c-.127-.077-.293-.077-.446-.077-.243-.612-.69-.383-1.046-.013-.536-.204-.46.268-.166.524-.268.625-.09 1.569.6 1.85.74-.307.93-1.174.893-1.863.23-.038.408-.28.165-.421m-1.888 5.958c.69 1.608 1.723-.433 1.467-1.301.473-.383.345-.613-.23-.65-.203-.422-.65-.46-.943-.103-.115.128-.268.077-.409.09-.293.14-.127.446.128.523-.14.484-.217.97-.013 1.441m.179-9.084c-.23.65.012 1.505.625 1.863.702-.307 1.161-1.213.919-1.965.166-.14.37-.205.306-.434-.115-.268-.523-.077-.638-.383-.268-.344-.613-.064-.83.179-.165.025-.318-.064-.472.012-.153.281.268.447.09.728m6.622 6.877c-1.467-.191-1.238.791-1.965.561.128-.153.498-.242.37-.484-1.072.459-2.195.79-3.266 1.263-.55.561-.37 1.684-1.595 1.786-.039.587-.88.983-1.404.715-.204.19-.115.242-.09.42-.165.154-.42.511-.038.511.128-.026.217-.204.345-.14-.013.076-.026.153-.026.242.103 0 .23.026.268-.025.166-.205.409-.026.6-.192.625-.408 1.531-.79 1.48-1.646 1.11-.485 1.761-2.245 3.216-1.62.714.383.906-.753 1.543-.779.192.409.268.383.498.243.408.306.345-.179.498-.396.025-.217-.204-.472-.434-.459m-8.243-4.453c.14.051.09.204.153.293.728.039 1.468-.14 2.208-.242.561 0 .536-.472.944-.536.982.051 1.595-.804 2.526-.931.74-.205 1.736-.472 2.386.038.166.166.396.204.626.153.319-.051.689-.115.854.242-.05.052-.102.103-.178.18.038.063.064.14.102.216.166 0 .178.115.242.217.077.128.281.128.307-.013.038-.166.216-.076.28-.23.026-.433-.076-.982-.523-1.212-.23-.204-1.11.217-1.136-.204.664.14 1.914-.689 1.06-1.237-1.468-.332-3.075.357-4.568.523-.587.127-.294-.804-1.583-.549.83 1.697 2.629.498 4.02.472.012.153-.268.153-.204.345.408-.128 1.097.076 1.327-.32.127-.471 1.16-.357.867.192-.778.485-1.94.268-2.858.37-1.123.09-2.335.115-3.381.498-.217.625-.498 1.288-1.25 1.429-.524-.498-1.277.09-1.838-.409-.191.039-.23.14-.306.281-.268.102-.357.255-.077.434m7.732 1.352c.855-.025 2.846-.93 1.391-1.697-.804-.127-1.607.256-2.386.434-3.126 1.212-1.288-.268-3.228-.115.65 1.62 2.31.792 3.547.409.038.178-.191.217-.166.395.421-.089.817-.166 1.212-.242.166-.791 1.66-.804.983-.013-1.723.74-3.739.6-5.538 1.097-1.186 3.063-3.279.97-3.253 1.85-.472.052-.46.485.025.447 0 .893 2.31-.14 2.743-.408.103-.217.192-.421.294-.625.702.331 1.2-.651 1.799-.817.612-.128 1.404-.702 1.914-.166.574.625 1.442-.319 1.952.294-.204.484.051.28.14.587-.012.268.46.268.46-.013 0-.115.013-.192.14-.243.255-.382-.293-.803-.485-1.122-.42-.396-1.123.357-1.544-.051M38.84 16.727c-.268.269-.702-.14-.434-.408.255-.268.689.14.434.409m-.804 1.646-.179.076c-.153-.319-.434-.957-.434-1.506 0-.127.192-.14.192-.012.012.383.153.893.42 1.442m2.234-.562-.256.026c-.638-.51-1.441-.74-2.194-.613-.013-.064-.026-.127-.026-.191.868-.153 1.774.153 2.476.778m-.702-.931c-.255.28-.702-.128-.421-.396.255-.268.689.128.42.396m-1.48-.153c-.254.28-.688-.128-.42-.396.255-.268.689.14.42.396m2.744.944c-.255.28-.689-.128-.421-.396.255-.268.689.14.421.396m-.587-.485c-.268.28-.702-.128-.434-.396.268-.268.702.14.434.396m-5.627 1.25c.383 0 .396-.574.013-.574-.383-.013-.396.574-.013.574m1.723.626.204-.064c-.128-.332-.408-.97-.804-1.365-.09-.077-.242.05-.153.14.28.268.549.727.753 1.289m-1.927 1.135.191-.166c.077-.804.473-1.518 1.098-1.952a.821.821 0 0 0-.128-.166c-.714.51-1.135 1.353-1.16 2.284m38.954 20.696c.012-.179-.205-.306-.37-.255v.038c-.332 1.442-.166-4.466-.205-4.249l.307.115v-.689l-.307.128V31.63c.051-.217.396-.039.205.102v.038c.408.128.523-.51.089-.523l.28-.46-.076-.063s-.485.268-.498.268c0-.409-.689-.307-.561.076h.038c.153-.166.357.14.128.192h-4.121l.127-.281h-.74l.128.28h-4.122c-.242-.038-.038-.357.115-.19h.039c.14-.384-.562-.486-.562-.077-.013 0-.498-.268-.498-.268l-.063.064.268.459c-.434.013-.32.65.089.523v-.038c.332-1.43.179 4.453.204 4.249l-.293-.128v.689l.293-.115c-.025-.102.128 5.653-.204 4.249v-.038c-.408-.128-.523.523-.09.523l-.267.472.063.051s.485-.268.498-.255c0 .395.702.293.562-.09h-.039c-.064.09-.242.052-.23-.063 0-.064.052-.102.103-.115h4.134l-.128.268h.74l-.127-.268h4.108c.064.013.115.051.115.115 0 .115-.166.153-.23.064h-.038c-.14.382.561.484.561.089.013-.013.498.255.498.255l.064-.051-.268-.472c.153 0 .28-.115.28-.268m-4.976-9.378h4.122v9.378h-8.97v-9.378zm3.203 9.046h.561V31.86H63.9v8.702zm-3.981-.255zm4.262-4.466v-.013zm-3.445-3.726zm-4.25 4.479v.09c.013-.167.294-.052.154.063l.05.038c.269.039.307-.37.026-.382l.332-.14v-.103l-.332-.14v-.013c.281-.013.243-.408-.025-.383l-.051.051c.14.102-.14.23-.153.064 0 .013 0 .09.012.102h-.012v-3.47h.28v-.256h3.063c.166.026.025.256-.09.14l-.038.039c-.025.255.421.28.421.013l.153.319h.115l.153-.32c0 .269.447.243.421-.012l-.038-.038c-.115.115-.255-.102-.09-.14h3.063v.255h.28c-.038-.051.116 4.248-.152 3.304l-.039-.05c-.268-.026-.306.37-.038.382v.013l-.332.14v.102l.332.14c-.268.013-.23.422.038.383l.039-.038c.268-.982.127 3.42.153 3.305h-.281v.255h-3.062c-.166-.026-.026-.255.089-.14l.038-.039c.026-.255-.408-.28-.42-.025l-.167-.306h-.102l-.153.306c-.012-.255-.446-.23-.42.025l.037.039c.115-.115.256.114.09.14H64.46v-.255h-.281zm2.042-6.75c.204-.79.485-2.143.944-2.807l-.88-.293c.013.855-.46 2.182-.753 2.985.332.051.332.051.69.115m-4.785-1.582c-.013-.536.063-1.48-.166-1.94h1.122c-.178.498-.51 2.782.46 2.655.383.012.765-.243.753-.638-.013-.536.076-1.544-.166-2.016h1.123c-.256.855-.256 2.36 0 3.215h-.957a.926.926 0 0 0 .038-.319c-.983.689-2.31.345-2.207-.957m-.485 1.378v.013c-.498.395-1.149.23-1.697-.051-1.582.867-3.292-1.161-2.016-2.476 1.34-1.556 3.993.217 2.705 1.927.42.32.752.51 1.008.587m-1.94-.498c1.276-.484.166-2.411-.957-1.952-1.263.46-.178 2.412.957 1.952m-5.5.92h1.06l-.715-1.11c.358-.218 1.136-.524 1.48-.499l-.829-.612-2.539 1.48.28.957.026.013c.204-.408.51-.715.855-.906.077.14.217.383.383.676m-3.79 4.555c-1.518-.089-1.837-2.666 0-2.27v-.626c-2.386-.14-2.347 3.56 0 3.483zm-.676.983c-.548-.421-1.25.331-1.799.46-.957.05-.204-1.111.383-1.188v-.012l-.46-.332c-.867.434-1.518 2.246-.127 2.284.293.013 1.046-.498 1.301-.549.651-.127.447.74.051.944.192-.012.396-.038.587.013.37-.497.6-1.225.064-1.62m20.415 22.546 1.825-1.034c-.23-.166-1.659-2.437-1.71-2.718l-1.735.983.076.689h.013c.28-.332.664-.638 1.161-.919l.536.868c-.28.14-.88.497-1.11.536l.319.382 1.008-.574.523.83c-.344.178-.663.28-.957.293zm7.26-6.278.307-.6-2.629-1.722-.28.536c.101.127 1.811 1.11 1.811 1.11s-2.82.37-2.96.574l2.628 1.76.307-.433a315.44 315.44 0 0 1-1.57-.995s2.31-.256 2.386-.23m1.34-2.565.587-1.94c-.293.026-2.96-.726-3.19-.905l-.561 1.837.561.46.013-.013c-.051-.421.013-.893.166-1.416l1.02.28c-.102.294-.28.945-.42 1.11l.497.077.332-1.059.97.268c-.128.357-.281.638-.485.83zm-5.614 6.941c2.054-.867 1.582-2.858-.727-1.952-.97-.268.255-1.237.893-1.02l.025-.013-.485-.562c-.74.307-1.9 1.264-1.276 2.08.422.536 1.29-.038 1.85-.038.945.179-.063 1.123-.65 1.072v.012M48.09 42.106l.039-.689c-.957.179-2.501.179-3.446-.013l-.05.702c.956-.179 2.5-.179 3.457 0m.32 11.42.573.765c.587-.727 1.838-1.595 2.73-1.926l-.573-.766c-.217.345-.702.69-1.072.944l-.88-1.174c.37-.268.854-.6 1.263-.701l-.562-.753c-.6.714-1.837 1.582-2.73 1.926l.561.753c.217-.344.702-.689 1.072-.931l.868 1.16c-.358.269-.842.613-1.25.703m-2.26-3.573c1.621 1.518 4.186-.919 2.502-2.462-1.62-1.532-4.224.905-2.501 2.462m.191-1.697c.715-1.25 3.088-.498 2.105.932-.74 1.212-3.062.523-2.105-.932m-1.378-2.5.192.714 3.343-.409-.154-.65c-.178-.026-2.27.344-2.27.344s1.99-2.258 1.939-2.526l-3.382.37.077.574c.153-.025 1.99-.268 1.99-.268s-1.658 1.812-1.735 1.85m43.025 3.7c-.842-.523-1.314 1.761-1.633 2.157-.14.332-.013.689.293.804l-.612 1.25c-.345-.05-.626.191-.626.574.128.498-.382 2.629.51 2.654v.587c-2.143.383-1.824 3.675.384 3.624 2.194.05 2.539-3.216.408-3.611v-.574c.332.05.625-.192.625-.574-.115-.473.345-2.527-.447-2.642l.473-.957c.803.421 1.276-1.799 1.582-2.181.14-.307.038-.664-.243-.779l.358-.727a11.794 11.794 0 0 1-.51-.753zm-.396 9.825c-.523 2.935-4.389.026-1.62-1.212.128.28.561.294.689 0 .536.153.931.638.931 1.212m-.88-3.011c.051-.421-.51-.65-.727-.293.063-.154-.154-1.761.153-1.761a.345.345 0 0 0 .434.012c.089.013.166.115.166.217v1.723a.237.237 0 0 1-.026.102m1.633-5.818c-.102.102-.69 1.773-.893 1.71a.414.414 0 0 0-.434-.18c-.09-.038-.128-.165-.077-.28.115-.102.677-1.812.932-1.697.076.166.28.268.446.217a.216.216 0 0 1 .026.23m.153-2.233c-.063-.115-.14-.23-.191-.332a.451.451 0 0 0 .191.332M62.1 2.59c-.102.83-.549 1.455-1.097 1.557v.204h1.072c-.052.051-.09.09-.128.14-1.914.409-2.105 3.254-.28 3.917-.715-.676-.167-1.964.841-1.926.996-.039 1.544 1.25.83 1.926 1.824-.663 1.633-3.508-.281-3.917-.038-.05-.077-.089-.128-.14h1.072v-.204c-.548-.102-.995-.727-1.097-1.557.842.102 1.493.536 1.595 1.072h.217V.752h-.217c-.102.537-.753.958-1.595 1.073.102-.83.549-1.468 1.097-1.57V.051h-2.998v.204c.548.102.995.74 1.097 1.57-.842-.115-1.493-.536-1.595-1.072h-.204v2.909h.204c.102-.536.753-.97 1.595-1.072M63.031 8c.728-1.327-1.786-1.327-1.059 0a1.113 1.113 0 0 1 1.06 0m-.996 1.353c.281-.14.651-.14.932 0 .944-1.417-1.876-1.417-.932 0m.472 1.582c.855.013.855-1.302 0-1.289-.855-.013-.855 1.302 0 1.289m0 1.607c.855.013.855-1.301 0-1.288-.855-.013-.855 1.301 0 1.288m0 1.608c.855.013.855-1.301 0-1.289-.855-.012-.855 1.302 0 1.29m-1.863.012h.804c0-1.518-.14-4.364-1.11-6.43-.217-.473-.957-.141-.74.33.676 1.43 1.046 3.6 1.046 6.1m2.91 0h.803c0-2.5.37-4.67 1.047-6.1.217-.471-.523-.803-.74-.33-.97 2.066-1.11 4.912-1.11 6.43M56.97 8.65c.79.013.79-1.2 0-1.187-.779-.013-.779 1.2 0 1.187m-5.168 3.65c.791.012.791-1.2 0-1.188-.79-.012-.79 1.2 0 1.187m6.686-4.185c.791.013.791-1.2 0-1.187-.791-.012-.791 1.2 0 1.187m-8.574 6.724c.79.013.79-1.2 0-1.186-.791-.013-.791 1.199 0 1.186m.88-1.314c.791.013.791-1.2 0-1.187-.79-.012-.79 1.2 0 1.187m4.747-4.172c.79.012.79-1.2 0-1.187-.791-.013-.791 1.2 0 1.187m-6.367 6.89c.79.012.79-1.2 0-1.187-.791-.013-.791 1.2 0 1.187m3.764-5.053c.79.013.79-1.2 0-1.187-.791-.012-.791 1.2 0 1.187m1.25-.995c.791.013.791-1.2 0-1.187-.79-.013-.79 1.2 0 1.187m19.42 2.73c-.013.779 1.225.779 1.212 0 .013-.765-1.225-.765-1.212 0m-.408-.625c.79.013.79-1.2 0-1.187-.791-.012-.791 1.2 0 1.187m1.288 1.952c-.012.766 1.225.766 1.213 0 .012-.778-1.225-.778-1.213 0m.74 1.391c-.012.778 1.225.778 1.213 0 .012-.766-1.225-.766-1.213 0m-3.164-4.453c.791.013.791-1.2 0-1.187-.791-.012-.791 1.2 0 1.187m-2.603-1.837c.791.012.791-1.2 0-1.187-.79-.013-.79 1.2 0 1.187m-2.947-1.238c.79.013.79-1.2 0-1.187-.791-.012-.791 1.2 0 1.187m1.518.536c.791.013.791-1.2 0-1.187-.79-.012-.79 1.2 0 1.187m2.782 1.544c.79.013.79-1.2 0-1.187-.791-.013-.791 1.2 0 1.187M50.553 16l1.11-.344c1.71-3.024 4.568-5.27 7.949-6.1-.09-.28-.166-.548-.268-.803-3.84.97-7.043 3.662-8.791 7.247m22.788-.344 1.11.344c-1.748-3.585-4.938-6.277-8.791-7.247-.09.255-.179.523-.255.804 3.38.83 6.226 3.075 7.936 6.099M51.344 58.068c.434.791 2.922 2.947 3.598 1.927-1.212-.6-3.28-2.08-2.488-3.968-1.786-1.072-.204-2.782 1.187-1.327 1.492-.906 3.138-.256 4.606.727.523-1.11-2.03-1.876-2.629-2.208-.753-.242-3.126.281-3.917.32a.983.983 0 0 0-.88 1.071c.115.562.102 3.011.523 3.458m2.756-.498c1.952.013 1.697-2.998-.217-2.68.88.473 1.659 1.71.268 2.068-.51.102-1.046-.447-1.43-.715.014.74.626 1.327 1.379 1.327m.23-1.25c.497-.587-1.264-1.352-1.519-1.684-.204-.128-.472-.09-.612.076-.498.562 1.225 1.353 1.467 1.66.217.165.51.14.664-.052m10.27 9.174c-.471 2.565-1.722 3.726-2.832 3.726-1.123 0-2.373-1.161-2.845-3.726.14.128.28.293.447.498l.242.319.344-.217c.14-.09.281-.153.422-.204a1.572 1.572 0 0 0-.14 1.008c.152.778.777 1.314 1.53 1.314.74 0 1.366-.536 1.519-1.314a1.66 1.66 0 0 0-.128-1.008c.128.05.268.114.421.204l.345.217.242-.32c.153-.204.294-.37.434-.497m.549-.702c-.651.064-.996.498-1.34.944-.306-.19-.702-.37-1.085-.37a.894.894 0 0 0-.561.179c1.2.472.765 2.233-.396 2.233-1.174 0-1.595-1.76-.395-2.233a.93.93 0 0 0-.574-.179c-.37 0-.779.179-1.085.37-.344-.446-.676-.88-1.34-.944.358 3.241 1.876 4.862 3.394 4.862 1.506 0 3.024-1.62 3.382-4.862m-6.865-6.265c.166-.701-.983-.931-1.123-.217-.153.715.995.932 1.123.217m3.93 1.902c.153-.702-.995-.945-1.136-.217-.153.701.995.931 1.136.217m-.842 3.445c-.115.574.804.752.918.178.128-.574-.803-.753-.918-.178m.14-18.132c-.434-.025-.893-.114-1.327-.153-.816.702.102 1.098.727 1.047.524.14 1.238-.55.6-.894m-6.852 1.889c.906 1.123 1.8 2.271 2.68 3.407.127.012.383.063.383.063l-3.216-4.146s-.05.42.153.676m3.943 3.368-3.93-5.078s-.077.243-.115.345c.294.37 3.764 4.86 3.764 4.86zm-.383 2.042c-.064-.026-.14-.038-.217-.064-.102.28-.268.791-.012.957l1.275.536 1.634-1.187.446-6.43-.485.038c-.127.013-1.02 7.426-1.492 6.992.102-.498 1.186-6.992 1.186-6.992s-.319-.038-.485-.064a13.01 13.01 0 0 0-.05.345l-1.813-2.323-.242.102 1.94 2.488-.128.447c-.179-.115-2.042-2.654-2.233-2.884l-.383-.025 2.526 3.203-.14.433-2.82-3.623-.37-.013 3.063 3.943-.166.561-3.356-4.453-.447.013 3.726 4.784-.14.447-4.109-5.231-.064.395s3.815 4.913 4.058 5.232c-.204.6-.051.65.217 1.148.153.561-.243 1.429-.919 1.225m-4.415-2.31c.46.268.97.549 1.43.804-1.136 1.353.905 1.94.803.625.753.32 3.764 1.213 2.565-.535-3.955.127-5.959-3.918-3.777-7.005 1.327.6 5.984-1.62 5.602.638.242.242.319.268.867.268 1.353-3.024-3.292-2.119-4.963-1.761-1.493.42-2.858-1.697-4.173-.536-.523.446-.178 1.454.536 1.48.626.025.804-.817.243-1.085 1.225-.395.638 1.519.191 2.004-1.403-.702-1.633 1.505-.242.918.05.396.076.791-.026 1.174-1.518-.319-1.11 1.8.026.944.331.307.485.779.523 1.225-1.519.217-.306 2.118.395.842m-16-30.954c-.013-.293.191-.855.191-.855-.293.115-.905.345-1.212.472 0 0 .562.268.753.485-.255.09-.497.128-.855-.025l.472.906c.102-.396.307-.638.472-.664.51.753-.752 1.595-1.301.944-.166-.268.026-.561.345-.344-.039-.562-.55-.562-.702-.14.012-.588-.128-.932-.753-1.098-.166.574.038.919.625 1.174-.332-.038-.702.28-.242.689 0-.37.319-.408.485-.166.268.676-.55.944-1.213.255.154-.05.307-.025.524.013l-.638-.778c.025.268 0 .472-.051.6-.14-.166-.18-.294-.243-.6l-.485.42c.472.281.995.74 1.62 1.621.856-.816 4.275-2.207 5.59-2.169-.167-1.072-.103-1.748.038-2.258l-.651.025c.179.255.242.383.242.587-.127-.05-.28-.179-.459-.408l.102.995c.115-.179.217-.293.357-.357 0 .944-.778 1.301-1.059.638-.05-.294.204-.485.472-.217.051-.6-.446-.587-.663-.332.255-.587.153-.97-.37-1.289-.332.549-.204.906.23 1.315-.409-.205-.779.14-.422.574.077-.383.422-.294.498.013.064.842-1.455 1.084-1.62.19.14-.088.472-.063.829.167l-.306-.97c-.14.345-.358.485-.6.587m-3.585-.714c.382 0 .395-.575.012-.575-.382-.012-.395.575-.012.575m.931-1.136c.383 0 .383-.574 0-.574-.383-.013-.383.574 0 .574m-1.238 2.565c.383.012.396-.575.013-.575-.383-.012-.395.575-.013.575m.064-.753c.383.013.396-.574.013-.574-.383-.013-.396.574-.013.574m1.697-3.968-.6.05.32.753.408-.472a.184.184 0 0 0 .09.026l.05 1.02c.115.894 1.493.345.944-.37L36.224 16c.013-.025.025-.05.025-.076l.638.063-.306-.752-.46.37-.076-.039-.05-.727c-.192.077-.575.217-.766.294l.485.574c-.026.013-.026.038-.039.064m1.723 3.024c.242-.23-.128-.6-.37-.37-.255.23.127.6.37.37m-.332-.677c.243-.217-.127-.587-.37-.357-.255.23.128.6.37.357m45.105-7.847c.127-.459-.536-1.071-1.021-.88.064.51.612.944 1.02.88M76.2 35.956c.459-.255.93-.46 1.352-.778-.102-.14-.166-.243-.281-.383-.383.37-1.314.498-1.072 1.161m2.59-1.02c.23.395.472.778.69 1.16.905 0 .14-.74-.064-1.046-.128-.128-.37-.128-.562-.179-.026.026-.038.051-.063.064m4.465-23.49c-.344-.727-.523-.816-1.25-.74.293.715.74.983 1.25.74m-.472.434c.255.855.587 1.034 1.48.906-.28-.69-.74-.97-1.48-.906M80.92 21.972c-.982-.447-1.773.127-2.756-.09.28 1.327 1.901.358 2.756.09m2.807-8.74c-.05.829.676 1.314 1.876 1.263-.306-.855-.932-1.315-1.876-1.264m3.19 2.948.076-.115c-.701-.982-1.008-1.187-2.258-1.187.026 1.187 1.289 1.187 2.182 1.302M74.4 34.13c.243-.638 1.506-2.22.817-2.717-.307.191-.957.114-.893.587-.013.701-.013 1.416-.013 2.105.038.013.064.025.09.025m-3.841-4.414c.267-.013.523-.039.765-.064.268-.97-.293-1.072-.982-1.595-.281.804-1.008 1.2-1.43 1.876.677-.039 1.06-.256 1.455-.766.064.191.128.37.192.549m7.783 7.273c-1.672 1.99-1.684 2.283.867 3.151-.026-.23-.05-.383-.063-.549a5.076 5.076 0 0 1-1.43-.625c.32-.383.626-.74.932-1.123a46.64 46.64 0 0 0-.306-.854m1.046 5.856c-.46-.038-.906-.077-1.416-.115.026.243.038.434.05.625.281.064.524.128.78.192.088 1.442-.728 1.467-1.838.867-.332 1.825 2.705 1.646 2.424-1.569m6.24-25.021c.574 0 1.39.357 1.862.038.013-1.76-2.194-1.518-3.445-1.57.383.664.855 1.315 1.582 1.532m4.785 2.182c.523 1.212 1.353.918 1.901 1.71-.459-.154-.855-.268-1.25-.396-.026 1.276 1.633 1.416 2.552 1.914-.153-2.093-1.187-2.871-3.203-3.228m.332 6.635c-.026 0-.051.012-.09.012-.267 1.174.562 2.208 1.098 3.203.906-1.57.868-3.368-.587-4.619-.446.842.179 1.633.396 2.437-.039.013-.064.026-.09.026-.242-.345-.484-.715-.727-1.06m.357-7.668a.235.235 0 0 0-.026.102c-.383-.025-.753-.05-1.148-.063.42 1.327 2.003.689 2.998 1.288-.574-1.059-.982-2.105-2.31-2.31.141-.637-.037-1.237-.446-1.467.013.55-.23.957-.753 1.162-.255 1.11.932 1.046 1.685 1.288m-49.813 10.17c-1.199.063-1.02-1.417-1.378-2.246-.216.242-.408.446-.6.663.256.817.498 1.646.766 2.527.204-.14.37-.268.549-.383.842.574 1.608.179 1.888-.727.256.063.472.165.664-.013l-1.174-2.348c-.242.051-.46-.28-.753-.013.268.728 1.263 2.195.039 2.54m50.042-6.495c-.434.817.816 1.161.83 1.927-.332-.256-.613-.472-.932-.715-.396 1.506 1.429 1.99 1.99 3.177.74-2.194.332-3.534-1.888-4.39M50.668 57.036c.51-.46-.179-.728-.46-1.085-4.542-4.134-6.252-9.506-5.843-15.477a7.051 7.051 0 0 1-.473-.23c-.765 6.329 1.736 12.709 6.776 16.792M35.509 29.627c.281.664.69 1.417 1.378 1.685-.357-1.29.536-2.4.957-3.573 0 2.692-1.569 4.147 2.208 5.13-1.008-1.583-.332-3.497-.97-5.117-.612-.345-1.289-.434-1.71-.919-.115-.242-.319-.332-.536-.37-.701-.153-1.365-.383-1.71-.957-.522.153-.841.14-1.314-.051-.038.574.46 1.148 1.123.931-.536.74-.242 1.417-.05 2.195.382-.778.956-1.238 1.607-1.633-.498.83-1.378 1.659-.983 2.68m7.4-5.321c.192.893-.063 1.633-.663 2.322.893 1.57 2.412 2.756 3.075 4.44 1.506-2.718-.089-3.636-2.156-5.13 1.327.46 2.654.907 3.394 2.132.153-2.335-.919-3.51-3.24-3.866.012-.039.012-.064.025-.09.97-.05 1.926-.05 2.845.536-.242-.727-.842-1.799-1.723-1.71.32-.638.307-1.071-.012-1.454-.153.446-.434.727-.919.74.102.817-.166 1.48-.625 2.08m-7.898.6c.025-.307.038-.6.064-.932-.358-.064-.69-.115-1.06-.179.434-.319.958-.395 1.379-.242-.358 1.505.293 2.552 1.926 2.628.498-.727.944-.83 1.43-.319-2.157-.217-.55 2.004.548 1.263.293-.42 1.225-.778.957-1.365-1.71-1.225-1.595.574-1.914-2.437-.064 0-.153-.013-.217-.013-.166.575-.74 1.008-1.212.473-.166-.18-.306-.345-.574-.396 1.174-.906 2.564.408 2.488-1.748 1.301 1.608 1.416-.179 2.718-.204-.064 1.276-.332 1.174-1.455 1.097.37.28 1.76 1.633.944 1.76-.332-.841-.906-1.67-1.875-1.836-.779.752-.396 1.607-.268 2.475.689-.23 1.288-.664 2.016-.613.242.702-.906 1.085-.256 1.787 1.11.166 2.323.178 1.965-1.366-.357-.204-.714-.357-1.097.039.026-.6.625-.702 1.085-.587 1.033-1.072.689-2.488-.421-3.343.293-.421.612-.715 1.135-.817-.178.37-.548.498-.638.83.243.293.472.574.702.842.587-.255.753-1.161.332-2.093-.74.192-2.029.779-2.029.779-.625-.23-.357.076-.268.37-2.016.357-3.98.867-5.589 2.181-.28.192-.408.077-.51-.319-.191-.293-.28.205-.306.332 0 0-1.2.28-1.735.715.37.612.893 1.556 1.735 1.237m47.86 19c-.561.088-.689.318-.587.854-.625 1.314-.638 2.922-1.71 4.032 2.31-.625 1.8-1.48 2.361-3.177-.115 2.31 0 2.284.868 3.866-1.774 1.212-4.683.191-5.653 2.552.268.306.613 0 .983.076-.23.281-.332.6-.702.83.076-.217.14-.37.179-.498-.664-.23-1.212 1.263-1.71 1.735 4.746-.931-.561-2.283 8.778-3.355 1.66-.753-1.556-1.94 1.685-3.943.28-1.097.459-2.22 1.071-3.203.14-.331-.089-.778-.395-1.008-1.416.97-2.093-.6-5.168 1.238M45.87 54.24c.447.077.932.153 1.365-.025-.663-1.11-1.327-2.195-2.003-3.318-1.187 1.417-3.24.549-4.53-.319-1.046-.765 1.213-1.94.485-4.453 1.021 1.582-.816 2.96 2.016 3.854-.816-1.187-.714-2.73-1.02-4.083-.039-.23-.154-.472.038-.702.102-.332.127-.778-.332-.817-3.164-1.773-2.526-.918-5.614-1.327-.753 1.302.855 2.463.6 3.739-.23.625.74.6.727 1.212.217.944.115 2.284-.995 2.641-.562.332-.115 1.02.37 1.174-.983 1.735-.23 2.003 1.276 2.87 0-.663.012-1.25.306-1.811 2.067 1.34-1.02 1.57 3.088 3.19-.421-.676-.409-1.404-.472-2.067.395.09.765.166 1.16.255.447 1.863 1.468 2.029 3.28 1.863-.638-.638-.83-1.455-1.302-2.105.55.178 1.098-.179 1.557.23m42.63-6.023c.012.025.037.064.05.09l.026-.04zm.637-.268c.09.038.179.102.217.204.064.013.153-.026.192-.102.038-.09 1.122-1.48 1.008-1.582-.128-.039-.243-.115-.268-.243-.115-.102-.255-.14-.358.013-.038.166-1.25 1.506-.944 1.672a.34.34 0 0 1 .153.038m13.104-10.182c-.753.23-1.072.842-1.352 1.544-1.914-2.91-5.55-4.913-6.1-8.473.422-2.845 4.288-2.194 3.51.766 2.003-1.046 1.033-2.998-.855-3.343 2.054.153 3.177 1.85 4.567-.97-1.212.434-3.062.128-3.687.039 2.552-.345 3.943-.32 3.853-3.407-.867 1.85-3.279 1.888-5.027 2.488.115-.83-.153-1.327-.83-1.595.69 4.517-8.089 3.05 1.57 12.798-1.186-.638-2.564-.421-3.713-1.123.893 2.348 2.399 1.94 4.377 2.756-2.118-.013-2.782 2.003-1.212 2.973-.409-1.557 1.786-2.629 2.883-1.416 2.514 3.138-2.08 7.502-6.15-.358.026.434-.28.817-.714.69l-.46 1.25c.932.331-.497 2.08-.6 2.59-.165.332-.523.434-.79.255l-.447.919c.561.497-.957 1.926-1.123 2.373-.179.255-.498.345-.714.204l-.166.332c.026.038.05.064.063.064 1.021 1.186 1.493 2.105 1.225 3.368.83-.702 1.2-2.628.536-3.687.753.765 1.85 1.314 2.284 2.296.434 1.787.102 3.56-1.136 4.964-.535.523-.395.79-.459 1.429-.357 1.008-1.582 1.084-2.054 1.94-.32.752-.868 1.352-1.097 2.143 1.403-.217 1.16-2.118 2.488-2.514-.536.804-1.06 1.531-1.43 2.463 1.11-.28 3.19-.574 2.846-2.105-.255-.702.434-1.162.408-1.825.868-.32.664-.664 1.085-1.327.191.408.204.74.178 1.187-.101-.217-.166-.358-.255-.51-.612.816-.089 1.62-.178 2.487 3.05-2.666-1.008-2.64 2.169-8.561.727-1.174-2.08-1.047-2.284-3.713-.204-1.149.83-2.093 1.059-3.19 1.225 2.118 5.486 2.041 4.9 4.746.867-.625.829-1.786.484-2.654 4.415-1.543.932-5.499 2.348-8.293M91.855 44.58c.013-.166.931-1.646.689-1.773-.166.025-.357-.051-.421-.204-.23-.102-.804 1.518-.906 1.607.293-.166.663.115.561.447.027-.013.051-.051.077-.077m.906-4.261c0 .076.026.14.064.178.165-.14.433-.076.548.09.192-.064.128-.626.166-.766-.217-.23-.446-.447-.676-.65zM68.926 68.046c2.973-.562.345-4.007-3.304-2.603-.32 1.365-.613 2.654-1.787 3.675 2.335.102 4.62-.051 6.801-.945 1.085-.65 1.085-2.947 2.271-4.185-1.34-.268-.714 4.198-3.98 4.058m-11.101-2.552c-3.637-1.416-6.278 2.029-3.305 2.603-3.254.14-2.629-4.326-3.981-4.07 1.187 1.237 1.187 3.547 2.271 4.185 2.195.906 4.466 1.059 6.814.957-1.187-1.034-1.468-2.31-1.8-3.675m19.357-35.305c-.102-.115-.128-.281-.039-.396-.153-.038-.408 1.378-.472 1.455.115.102.204.204.294.293.127.038.357.115.408-.076l.332-1.238c-.153.128-.396.14-.523-.038m16.587 7.808-.192-.012-.51-1.353c.242-.293.37-.765 0-1.008-.498-.191-1.901-1.748-2.31-.74-.178.064-1.288.115-1.377.32-.524-.817-.983-1.685-1.302-2.655.204-1.123 3.267-2.539 3.267-2.539s-.868-1.212-1.213-1.901c-.153.344-.293.204-.638.344 1.697-2.934 2.055-6.8-.178-9.57-.23-.484-.128-1.122-.358-1.594-.382-.498-.65-1.48-1.34-1.595-.012.88-.101 1.735.332 2.54.46.56-.625 1.045-.97.599.651-.077.766-.204.537-.562-2.795-.612-4.364 1.315-7.03 1.608-.243 0-.447.077-.588.294-1.646 2.156 2.055.676 2.374 2.118-.613.497-.702.166-1.276.025-.83.026-1.646.28-.6.97-.638.97-.613 1.314-1.901 1.39.561.779.446 1.889.587 2.757-.919.178-1.544.6-1.557 1.556-.421.09-.855-.115-1.148.32-.587-.473-1.25-.55-1.94-.562a16.797 16.797 0 0 0-2.028-1.263c.165-.638.331-1.225.484-1.787.268-.153 1.187-.74 1.43-.88-.128-.242-.613-1.212-.74-1.467 1.645-5.538 2.181-5.844 3.023-5.972l.039-.153-3.05-.957-.064.204c.779.549 1.034 1.455.677 2.514-.817-.345-1.276-1.097-1.2-1.774-.012 0-.191-.05-.191-.05l-1.034 3.304s.153.038.166.051c.409-.574 1.11-.893 1.914-.753-.944 2.922-5.193 2.016-4.427-.472.536-1.033 1.569-.37 1.071.702 2.386-.817.983-4.16-1.059-2.17.677-1.339 1.06-2.398.205-3.7-1.098.69-1.378 1.927-1.162 3.586-1.352-2.998-3.7.102-1.786 1.659-.357-2.22 2.463-.753.562 1.046-1.825 1.25-4.058-.191-4.122-2.411 1.046.089 1.85.701 1.965 1.467h.179l.14-3.777s-.217-.013-.242-.013c-.166.766-1.008 1.417-2.093 1.43.077-1.162.753-2.068 1.646-2.22v-.218h-4.478v.217c.893.153 1.582 1.06 1.646 2.22-1.072-.012-1.927-.663-2.093-1.429-.025 0-.242.013-.242.013l.127 3.777h.204c.102-.766.906-1.378 1.953-1.467-.064 2.22-2.297 3.661-4.122 2.411-1.9-1.799.919-3.266.574-1.046 1.902-1.57-.446-4.657-1.786-1.659.204-1.659-.077-2.896-1.174-3.585-.842 1.301-.46 2.36.217 3.7-2.041-1.99-3.445 1.365-1.072 2.169-.497-1.072.536-1.735 1.085-.702.753 2.488-3.496 3.394-4.44.472.803-.14 1.505.179 1.914.753.012-.013.165-.05.165-.05L52.2 17.16s-.192.051-.204.051c.089.677-.383 1.43-1.2 1.774-.344-1.059-.102-1.965.676-2.514l-.05-.204-3.063.957.051.153c.83.128 1.365.434 3.024 5.972-.14.268-.625 1.212-.753 1.467.243.14 1.174.727 1.43.88.14.51.293 1.047.446 1.62h.026c-.013.014-.013.026-.026 0-4.109 1.877-3.177 3.152-6.341 2.782-.281.638-.549 1.264-1.187 1.71-.115-.982-.574-1.748-1.161-2.437-.28-.332-.69.038-1.123.077-.855 1.824-1.455.178-2.96 1.123.051.854.191 1.697.676 2.488-1.135-.09-2.054-.383-2.807-.894-3.356 3.662-6.865 7.171-9.735 11.203-1.532 1.978-5.64.83-4.555-1.9.497-1.991 3.445-1.558 3.253.407 1.455-1.57.523-3.151-1.71-2.794 2.042-.855 3.28.766 5.117-1.467-1.404.025-2.603-.409-4.007-.09 1.774-1.033 4.211.498 5.73-2.36-1.328.14-2.514.676-3.88.88 8.205-7.63.307-8 1.315-11.305-.638.536-1.008 1.06-.715 1.774-1.837-.74-4.568-.523-5.308-2.692-.178 3.088 1.225 2.87 3.624 3.509-1.11-.128-2.207-.14-3.24-.51.216 1.39 1.288 1.684 2.564 1.543-1.25.676-.957 2.412.306 2.999-.804-4.479 6.073-2.935 2.935 1.173-1.468 2.131-3.573 3.7-5.347 5.55-.331-.56-.689-1.122-1.467-1.045 1.353 1.518-.166 3.177-.523 4.746-.523 1.94 1.225 3.585 3.113 3.815-.74.868-.804 1.646-.23 2.348.562-2.846 4.81-2.208 5.206-5.283.077-.37.256-.65.664-.816-1.914 2.105 2.68 6.558-1.633 7.081-.613.026-.766.651-.421 1.098-1.787-.09-2.271.574-2.552 2.22.79-.204 1.518-.383 2.258-.574-.778 1.99-2.539-.115-2.245 3.42.714-.345 1.39-.703 2.054-1.098.638 1.977-3.228 1.123-.332 4.287.191-.587.97-1.8 1.365-2.067-.37.995-.28 2.144.868 2.59.051-.268.102-.498.14-.727.051-.013.051-.013.102-.013.166.664.192 1.582.843 1.952.216.09.331.204.408.434.115.357.46.46.804.498.433.089.536-.383.855-.574.089.523.714.612 1.033 1.046.23-2.565-3.266-1.633-2.463-3.33.307 1.033 1.302.803 1.991 1.237.268.421.931.779 1.263.179.332.242.625.46.906.663-.676-3.05-2.31-1.16-3.33-2.756.714.026 1.48 1.047 2.246.345.408.42.74.906 1.046 1.403.127-.982-.243-1.722-1.034-2.27-.893-.524-2.105.408-2.858-.651-1.033-1.25-1.008-2.999-.472-4.454.498-1.11 1.876-1.518 2.514-2.577-.179.932-.077 2.552.995 2.858-.255-1.735.995-3.292 1.25-4.963.332-.421.345-.753.051-1.212-.536-.855-.689-1.889-1.276-2.73-.918-1.264-2.054-1.29-.178-2.617-1.136 1.723-.204 1.098.778 2.718.179-.548 1.02-1.263-.038-1.263-1.646-.791 2.156-2.845 3.024-2.896.842-.064 2.029.025 2.68-.791-.41-.753-.792-.855-.116-1.634-.459-.255-.867-.574-.944-1.16-.446.152-.83.28-1.289.433.422-.46 1.646-1.39 1.774-.357.026.574.612.676 1.072.816-.332.485-.88.957-.383 1.506.357.37.574 1.046 1.123 1.136.14-.536.28-1.047.434-1.583 1.2 1.238-1.212 1.927 2.092 3.024-.115-.663-.23-1.301-.14-1.99 1.595 1.301-.676 2.105 2.998 2.54-.408-.473-.51-.996-.663-1.532.612.102 1.11.676 1.505 1.097.383.562.664.868 1.519.32.038.101.05.229.127.293.383.28.23.638.217 1.02h.115c.51-.51.536-1.084.383-1.71-.357-1.186-1.837-.242-2.36-1.454.701.46 1.403.74 2.169.345.433.395.612.689.816 1.25.357-1.276-.05-2.577-1.429-2.195-.434.14-.612.115-1.046-.255.65.217 1.072-.102 1.48-.395.09.115.14.242.204.242.383.026.638.255.88.536.128-1.097-.982-1.978-2.105-1.697-.28 1.34-1.442.574-2.348.396-1.429-.804-2.169-2.36-3.432-3.369.128-1.506-1.148-2.705-2.692-2.616 1.39-.587 3.037.575 3.152 1.99.05.575.408.945.79 1.379 4.696-9.212 19.854-11.624 28.569-5.78h-.013c.753.663 1.557 1.2 2.322 1.901.307-.88.128-1.927 1.468-1.39l.255-.167c-.28-.74.293-1.582 1.097-1.633v.574c-.357.051-.625.383-.574.74.268-.05.523.294.37.51.255.141.612.09.804-.114.217.013.446.038.663.051-.306.714-1.365.957-1.965.434.115.166-.395 1.722-.42 1.914a.506.506 0 0 1-.511.37c.09.153.166.28.255.408.383-.204.919-.191.868-.715.076-.306-.128-1.671.319-1.556.166.523-.166 1.123.23 1.646 1.263-.306.714-1.416 2.232-1.697.6-.064 1.876-.345 2.208.242-1.327-.344-3.05.013-3.343 1.493-1.391.32-2.552 1.289-4.02 1.276-1.173.064-1.492 1.442-1.543 2.373-.192 1.085-.256 2.208-.74 3.203-.243.383-.039.83.089 1.174.447.242.765 1.748.83 2.296 0 .996 1.747 1.327 2.45 1.94.203-1.238-2.208-.893-1.877-2.629.434 1.149 1.366 1.391 2.4 1.953-.332-1.161-.422-3.088-2.08-2.846-.651-.867.293-.918-.013-1.952.485.14.702.306.83.587-.154-.038-.269-.077-.486-.14.064.727.715.906 1.212 1.403-.076-1.2-.191-1.952-1.34-2.539-.65-.587.103-1.927.052-2.73-.013-.23 1.544-.983 1.773-.92 1.161.154 2.374-.037 3.484.256 1.11.345.153-2.016 1.952-.778-1.302-.37-.498 1.008-1.442 1.084-.663.013-1.225-.063-1.901-.076 2.36 5.129 7.604 3.623 9.046 8.204 1.212-1.033.383-1.02.051-2.105 2.73 1.773-2.539 3.828-.561 6.928-.128-.357 1.11-1.812 1.25-2.105.23-.32.613-.345.855-.102l.396-.804c-.728-.396.587-2.067.689-2.552.14-.28.446-.421.701-.293l.358-.996c-.69-.191-.166-1.824-.23-2.284-.97-.854-1.773-1.94-2.526-2.934l.472-.077a.553.553 0 0 0 .23.6c.331.127 1.607 1.34 2.015 1.059l.205.523c-.332.09-.383.536-.396.83.179.14.37.28.536.42.013-.102 0-.6.102-.663.153.191.42.191.6.038.153.077-.039 1.136-.027 1.276.192.192.37.408.536.613-.076-.485.549-2.335-.306-2.437M80.04 20.696a6.09 6.09 0 0 1 .523-.051c-.344-.255-.013-.587.28-.345.677.51-.688 1.353-.803.396m-27.318 4.848-1.429-.893.753-1.493 2.067.715zm4.696-1.16c-2.246.446-2.718-1.966-.472-2.374 2.258-.447 2.73 1.978.472 2.373m5.078-.191-2.207-1.518 2.22-1.532 2.207 1.532zm7.056-.664c-.255 1.544-3.802.88-3.47-.65.267-1.544 3.814-.88 3.47.65m1.34.345 2.067-.715.752 1.493-1.429.893zM87.95 16.79c.408.434.587.92.587 1.455-.396-.128-.562-.549-.587-1.455m-1.863 2.859c-.549.37-1.034.905-1.595.178-.128.026-.242.038-.37.064.83-1.25.766-1.034 1.965-.242m-4.58 4.542c.37.127.714.306 1.084-.051-.357 0-.46-.243-.562-.472-.178-1.187 1.8-.766 2.54-.677 1.85 1.098 5.001.396 3.904-2.22.868.51.561 1.953-.09 2.514-1.71.906-3.33.217-5.04 1.99-.267-.803-1.25-.765-1.594.128-.332.013-.421.013-.727.038-.051-.472.331-.816.484-1.25m6.47 7.732c-.077.102-.243.294-.243.294-1.416-1.583-6.227-3.407-8.306-3.114 0 0 .026-.23.038-.357h-.013l.79-.485-.675-.536c0-.09-.434-2.756-.434-2.756l1.2-.025s-.435.485-.447.867a.602.602 0 0 1 .166.192c.23-.102.484-.574.484-.574l.115 1.569s-.331-.46-.574-.536a.294.294 0 0 1-.076.153c.344 1.046 1.914 1.11 1.914.217-.064-.472-.587-.395-.562.102-.855-.663.306-1.722.779-.663-.051-.613 0-.957.484-1.263.332.408.281.778-.076 1.378 1.059-.957 1.467.663.472.893.485-.842-.906-.574-.395.319.472.689 1.594.587 1.99-.166-.026-.051-.038-.102-.05-.153-.397-.064-.983.255-.983.255l.548-1.455s.23.626.562.817a.385.385 0 0 1 .217-.102c.063-.383-.332-.995-.332-.995l1.824.701s-.727.179-.957.485a.412.412 0 0 1 .077.23c.383.076.995-.23.995-.23l-.65 1.416s-.192-.625-.537-.829a.282.282 0 0 1-.14.064c-.268.83.498 1.62 1.327 1.416 1.02-.293.217-1.416-.064-.472-.536-.83.932-1.735.996-.357.178-.664.42-.97.944-1.046.14.548-.077.829-.574 1.237 1.135-.472 1.186 1.06.089.983.383-.345.05-.74-.32-.434-.663.663.562 1.62 1.519 1.148 0-.064.026-.127.05-.166-.241-.165-.803-.178-.803-.178l1.174-.855s-.14.51-.026.778a.583.583 0 0 1 .255.026c.255-.243.268-.906.268-.906l.867 1.059s-2.194.995-2.577 1.276l-.612-.064.293.842zm4.733 4.364c-.28-.026-.51.204-.42.497-.027 0-.052-.012-.077-.025l-1.289-.855c-.076-.064-.102-.179-.064-.255.243-.013.51-.14.472-.421.102.115 1.48.842 1.378 1.059M404.664 200.986h5.104v3.624h-5.104v15.554c0 1.926.536 2.22 3.178 2.22h1.926v3.636h-3.228c-4.364 0-6.099-.868-6.099-5.474V204.61h-4.376v-3.624h4.376v-7.515h4.223zm-32.102 0h3.968v3.968h.102c1.786-3.1 4.619-4.555 8.345-4.555 6.75 0 8.842 3.777 8.842 9.149v16.472h-4.224v-16.957c0-3.088-1.99-5.027-5.218-5.027-5.104 0-7.592 3.343-7.592 7.847v14.137h-4.223zm-3.866 17.085c-1.149 5.576-5.168 8.536-10.973 8.536-8.192 0-12.07-5.576-12.313-13.18 0-7.554 5.065-13.028 12.057-13.028 9.085 0 11.88 8.281 11.624 14.342h-19.215c-.154 4.35 2.386 8.23 7.987 8.23 3.534 0 5.92-1.608 6.66-4.9zm-4.07-6.967c-.256-3.93-3.178-7.068-7.401-7.068-4.376 0-7.107 3.19-7.35 7.068zm-58.987-10.118h3.968v3.675h.102c1.926-2.858 4.67-4.262 8.293-4.262 3.178 0 6.01 1.161 7.044 4.262 1.748-2.718 4.72-4.262 8.05-4.262 5.117 0 8.537 2.08 8.537 7.26v18.361h-4.21v-16.421c0-3.1-.856-5.563-4.977-5.563s-6.699 2.513-6.699 6.392v15.592h-4.223V209.6c0-3.241-1.046-5.563-4.81-5.563-4.976 0-6.865 4.453-6.865 6.392v15.592h-4.21zm-26.361 0h3.968v3.968h.102c1.786-3.1 4.619-4.555 8.345-4.555 6.75 0 8.842 3.777 8.842 9.149v16.472h-4.224v-16.957c0-3.088-1.99-5.027-5.218-5.027-5.104 0-7.592 3.343-7.592 7.847v14.137h-4.223zm-15.835 0h3.969v5.27h.101c2.03-4.058 4.862-5.997 9.43-5.857v4.364c-6.801 0-9.29 3.726-9.29 10.118v11.139h-4.21zm-3.802 17.085c-1.148 5.576-5.167 8.536-10.973 8.536-8.192 0-12.07-5.576-12.313-13.18 0-7.554 5.066-13.028 12.058-13.028 9.085 0 11.866 8.281 11.624 14.342H240.82c-.153 4.35 2.386 8.23 7.987 8.23 3.535 0 5.92-1.608 6.66-4.9zm-4.07-6.967c-.255-3.93-3.177-7.068-7.4-7.068-4.377 0-7.108 3.19-7.35 7.068zm-28.926 14.916h-4.517l-9.53-25.034h4.707l7.197 20.875h.102l7.005-20.875h4.414zm-26.833-25.62c8.14 0 12.453 5.766 12.453 13.129 0 7.31-4.312 13.065-12.453 13.065-8.153 0-12.466-5.754-12.466-13.065 0-7.363 4.313-13.13 12.466-13.13m0 22.572c4.415 0 7.988-3.394 7.988-9.442 0-6.061-3.573-9.493-7.988-9.493-4.427 0-8 3.432-8 9.493 0 6.048 3.573 9.442 8 9.442m-20.657-1.264c-2.782 3.586-7.248 5.142-11.369 5.142-10.577 0-16.893-8.383-16.893-17.442 0-10.067 5.665-18.794 16.893-18.794 7.694 0 13.946 3.394 15.248 11.483h-4.721c-.945-5.231-5.219-7.604-10.527-7.604-8.6 0-12.172 7.31-12.172 14.673 0 7.222 4.274 13.806 12.172 13.806 7.35 0 11.611-4.938 11.369-11.293h-11.33v-3.866h15.553v18.208h-2.986zm-50.808-30.265h4.223v34.578h-4.223zm-3.113 34.476c-.753.434-1.8.676-3.037.676-2.182 0-3.573-1.16-3.573-3.866-2.335 2.705-5.46 3.866-9.033 3.866-4.683 0-8.498-1.977-8.498-7.017 0-5.666 4.325-6.929 8.689-7.694 4.619-.919 8.638-.536 8.638-3.688 0-3.636-3.075-4.16-5.703-4.16-3.586 0-6.214 1.06-6.406 4.747h-4.223c.242-6.201 5.117-8.383 10.871-8.383 4.619 0 9.633 1.02 9.633 6.877v12.888c0 1.939 0 2.807 1.34 2.807.396 0 .842-.102 1.302-.243zm-6.865-12.823c-3.28 2.36-12.81.038-12.81 6.188 0 2.718 2.386 3.688 4.976 3.688 5.55 0 7.834-3.343 7.834-5.666zm-24.14-4.07c-.652-3.152-2.833-4.99-6.355-4.99-6.112 0-8 4.747-8 9.774 0 4.657 2.13 9.162 7.502 9.162 4.122 0 6.495-2.284 7.044-6.1h4.325c-.944 6.15-4.823 9.723-11.33 9.723-7.835 0-12.007-5.27-12.007-12.785 0-7.502 3.968-13.41 12.109-13.41 5.856 0 10.437 2.667 11.075 8.626zm-33.839-8.626c8.14 0 12.466 5.767 12.466 13.13 0 7.31-4.325 13.065-12.466 13.065-8.14 0-12.466-5.754-12.466-13.065 0-7.363 4.326-13.13 12.466-13.13m0 22.572c4.415 0 8-3.394 8-9.442 0-6.061-3.585-9.493-8-9.493-4.414 0-8 3.432-8 9.493 0 6.048 3.586 9.442 8 9.442m-36.734-31.529h4.72v30.7h18.757v3.878H23.656Zm312.963-21.831c-2.144 3.24-6.163 4.887-10.042 4.887-9.582 0-11.075-6.635-11.075-9.442 0-5.372 3.777-8.128 8.293-10.463-1.977-2.705-3.917-4.645-3.917-8.128 0-3.738 2.833-7.12 7.988-7.12 4.427 0 8.6 2.374 8.6 7.07 0 4.159-3.229 7.017-6.661 8.956l6.405 7.605c.651-1.748 1.047-3.535 1.149-5.372h4.019c-.396 4.16-.893 5.372-2.386 8.523l6.903 7.796h-5.512zm-10.489-12.402c-3.33 1.799-6.162 3.725-6.162 7.796 0 3.496 3.342 5.869 6.762 5.869 3.228 0 5.806-1.608 7.54-4.121zm6.112-10.552c0-1.99-1.544-3.688-4.07-3.688-1.99 0-4.07 1.161-4.07 3.688 0 2.08 1.888 4.108 3.42 6.01 2.04-1.315 4.72-3.012 4.72-6.01m-50.26 19.368c.154 3.688 3.484 4.849 6.904 4.849 2.628 0 6.213-.587 6.213-3.739 0-6.43-16.79-2.08-16.79-11.713 0-5.04 5.065-7.12 9.581-7.12 5.768 0 10.131 1.736 10.527 7.848h-4.21c-.256-3.203-3.242-4.224-5.96-4.224-2.538 0-5.473.69-5.473 3.203 0 2.909 4.478 3.483 8.396 4.364 4.223.918 8.395 2.322 8.395 7.12 0 5.996-5.716 7.885-10.922 7.885-5.767 0-10.628-2.272-10.884-8.473zm-6.558-.05c-1.135 5.575-5.154 8.523-10.973 8.523-8.191 0-12.057-5.563-12.312-13.168 0-7.554 5.065-13.027 12.07-13.027 9.085 0 11.866 8.28 11.624 14.328h-19.229c-.14 4.364 2.386 8.243 8 8.243 3.522 0 5.908-1.608 6.648-4.9zm-4.07-6.967c-.242-3.93-3.177-7.082-7.387-7.082-4.377 0-7.107 3.203-7.363 7.082zm-23.107-14.635h-4.223v-5.027h4.223zm-4.223 4.517h4.223v25.033h-4.223zm-8.46-.014h5.104v3.637h-5.104v15.54c0 1.94.536 2.234 3.177 2.234h1.927v3.636h-3.215c-4.377 0-6.112-.88-6.112-5.474v-15.936h-4.377v-3.637h4.377v-7.502h4.223zm-11.203-4.504h-4.223v-5.027h4.223zm-4.223 4.517h4.223v25.034h-4.223zm-26.463-.013h3.968v3.981h.102c1.786-3.1 4.619-4.555 8.345-4.555 6.75 0 8.83 3.777 8.83 9.148v16.473h-4.211v-16.957c0-3.101-1.99-5.028-5.219-5.028-5.117 0-7.605 3.33-7.605 7.835v14.15h-4.21zm-5.13 25.047h-3.967v-3.981h-.102c-1.787 3.1-4.62 4.555-8.345 4.555-6.75 0-8.842-3.777-8.842-9.149v-16.472h4.223v16.957c0 3.1 1.99 5.04 5.219 5.04 5.116 0 7.591-3.343 7.591-7.847v-14.15h4.224zm-62.316-25.047h3.98v3.687h.103c1.926-2.858 4.67-4.261 8.28-4.261 3.19 0 6.01 1.161 7.056 4.262 1.748-2.718 4.721-4.262 8.052-4.262 5.116 0 8.536 2.08 8.536 7.26v18.36h-4.224v-16.42c0-3.101-.842-5.564-4.963-5.564s-6.699 2.514-6.699 6.393v15.592h-4.223v-16.421c0-3.241-1.046-5.564-4.81-5.564-4.977 0-6.865 4.453-6.865 6.393v15.592h-4.223zm-41.162 0h3.968v3.687h.102c1.927-2.858 4.67-4.261 8.294-4.261 3.177 0 6.01 1.161 7.043 4.262 1.748-2.718 4.72-4.262 8.051-4.262 5.117 0 8.536 2.08 8.536 7.26v18.36h-4.223v-16.42c0-3.101-.842-5.564-4.964-5.564-4.121 0-6.698 2.514-6.698 6.393v15.592h-4.224v-16.421c0-3.241-1.046-5.564-4.81-5.564-4.976 0-6.852 4.453-6.852 6.393v15.592h-4.223zm-16.268-.574c8.14 0 12.466 5.767 12.466 13.13 0 7.298-4.326 13.065-12.466 13.065-8.154 0-12.466-5.767-12.466-13.066 0-7.362 4.312-13.13 12.466-13.13m0 22.572c4.414 0 7.987-3.394 7.987-9.442 0-6.06-3.573-9.493-7.987-9.493-4.415 0-8 3.433-8 9.493 0 6.048 3.585 9.442 8 9.442m-20.224-21.117c-1.033-4.9-4.963-7.362-9.927-7.362-8.446 0-12.02 6.776-12.02 13.997 0 7.886 3.574 14.482 12.071 14.482 6.163 0 9.838-4.274 10.233-9.978h4.709c-.945 8.664-6.355 13.844-15.337 13.844-10.973 0-16.396-7.936-16.396-18.016 0-10.067 5.87-18.208 16.791-18.208 7.4 0 13.55 3.88 14.597 11.241zm384.913-33.314H439v4.887c0 3.688-1.646 6.495-5.461 7.605v-2.412c2.182-.778 3.024-3.1 2.87-4.695h-2.921zm-5.589 3.254c0 8.179-3.776 12.3-11.917 12.3-4.823 0-10.386-1.94-10.629-7.362h4.224c.14 2.947 3.917 4.07 6.647 4.07 5.513 0 7.694-3.879 7.694-9.493v-1.659h-.089c-1.442 3.063-4.72 4.555-8 4.555-7.643 0-11.47-5.856-11.47-12.682 0-5.908 2.934-13.22 11.866-13.22 3.228 0 6.111 1.404 7.655 4.16h.038V96.78h3.981zm-4.172-10.897c0-4.414-1.99-8.97-7.298-8.97-5.41 0-7.605 4.313-7.605 9.11 0 4.505 1.697 9.545 7.247 9.545 5.563 0 7.656-4.99 7.656-9.685M379.299 96.78h3.98v3.981h.103c1.786-3.1 4.618-4.555 8.344-4.555 6.75 0 8.83 3.777 8.83 9.148v16.473h-4.224V104.87c0-3.101-1.977-5.04-5.205-5.04-5.117 0-7.605 3.343-7.605 7.847v14.15h-4.223zm-5.155-4.504h-4.223v-5.027h4.223zm-4.223 4.504h4.223v25.047h-4.223zM348.6 113.93c.14 3.674 3.47 4.848 6.902 4.848 2.629 0 6.202-.587 6.202-3.738 0-6.444-16.78-2.08-16.78-11.713 0-5.04 5.066-7.12 9.583-7.12 5.755 0 10.131 1.735 10.527 7.834h-4.224c-.242-3.19-3.228-4.21-5.958-4.21-2.527 0-5.461.676-5.461 3.202 0 2.91 4.466 3.484 8.395 4.351 4.211.932 8.383 2.335 8.383 7.12 0 6.01-5.703 7.898-10.922 7.898-5.754 0-10.628-2.271-10.87-8.472zm-7.911 7.898h-3.968v-3.981h-.102c-1.787 3.1-4.62 4.555-8.345 4.555-6.75 0-8.83-3.777-8.83-9.149V96.78h4.211v16.957c0 3.1 1.99 5.028 5.219 5.028 5.116 0 7.604-3.33 7.604-7.835V96.78h4.211zm-37.424-25.621c8.141 0 12.454 5.754 12.454 13.117 0 7.31-4.313 13.078-12.454 13.078-8.153 0-12.465-5.767-12.465-13.078 0-7.363 4.312-13.117 12.465-13.117m0 22.559c4.415 0 7.988-3.382 7.988-9.442 0-6.048-3.573-9.493-7.988-9.493-4.427 0-8 3.445-8 9.493 0 6.06 3.573 9.442 8 9.442m-45.002-31.529h4.721v14.877h18.667V87.237h4.721v34.578h-4.72V105.98h-18.668v15.834h-4.72zm-26.476 13.18h-4.312V96.78h4.312v-3.726c0-4.07 2.488-6.2 7.107-6.2.791 0 1.94.152 2.73.382v3.585c-.74-.242-1.632-.331-2.385-.331-2.029 0-3.228.625-3.228 2.807v3.483h4.976v3.637h-4.976v21.397h-4.224zm-17.557-4.21c8.154 0 12.466 5.754 12.466 13.117 0 7.31-4.312 13.078-12.466 13.078-8.14 0-12.466-5.767-12.466-13.078 0-7.363 4.326-13.117 12.466-13.117m0 22.559c4.428 0 8-3.382 8-9.442 0-6.048-3.572-9.493-8-9.493-4.414 0-8 3.445-8 9.493 0 6.06 3.586 9.442 8 9.442m-38.635 6.392c-1.99 4.849-3.675 6.686-7.452 6.686-.982 0-1.977-.09-2.921-.434v-3.777c.79.243 1.633.587 2.475.587 1.748 0 2.692-.778 3.483-2.284l1.735-4.261-10.182-24.894h4.772l7.503 20.492h.09l7.208-20.492h4.466zM148.2 96.78h3.969v5.282h.102c2.041-4.07 4.874-6.01 9.429-5.856v4.35c-6.801 0-9.276 3.74-9.276 10.132v11.139H148.2zm-8.191 0h5.116v3.636h-5.116v15.541c0 1.94.549 2.233 3.177 2.233h1.94v3.637h-3.229c-4.363 0-6.111-.88-6.111-5.474v-15.937h-4.364V96.78h4.364v-7.502h4.223zm-27.024 17.149c.153 3.674 3.483 4.848 6.902 4.848 2.642 0 6.214-.587 6.214-3.738 0-6.444-16.791-2.08-16.791-11.713 0-5.04 5.065-7.12 9.595-7.12 5.754 0 10.13 1.735 10.526 7.834h-4.223c-.255-3.19-3.228-4.21-5.959-4.21-2.539 0-5.46.676-5.46 3.202 0 2.91 4.465 3.484 8.395 4.351 4.21.932 8.383 2.335 8.383 7.12 0 6.01-5.716 7.898-10.922 7.898-5.755 0-10.629-2.271-10.884-8.472zm-7.911-21.653h-4.224v-5.027h4.224zm-4.224 4.504h4.224v25.047h-4.224zm-26.463 0h3.969v3.981h.101c1.787-3.1 4.62-4.555 8.345-4.555 6.75 0 8.83 3.777 8.83 9.148v16.473H91.42V104.87c0-3.101-1.99-5.04-5.219-5.04-5.116 0-7.591 3.343-7.591 7.847v14.15h-4.224zm-5.167-4.504h-4.224v-5.027h4.224zm-4.224 4.504h4.224v25.047h-4.224zm-41.25-9.544h6.456l11.177 29.066 11.228-29.066h6.456v34.578h-4.478v-28.76h-.09l-11.075 28.76h-4.032l-11.062-28.76h-.102v28.76h-4.479zm0 0"/>
</svg>
