<svg xmlns="http://www.w3.org/2000/svg" width="400" height="237">
  <path fill="#003764" d="M5.964 0c.132.69.103 1.366.103 2.057v233.631c-1.969.03-3.863.044-5.92.102C0 157.218 0 78.602 0 0zm0 0"/>
  <path d="M325.336 195.469h-2.894v-6.89h5.435v6.89zm-2.938 12.706v-6.405h5.464v33.653h-5.464zm-219.47-2.894v1.44c-1.631.235-3.115.352-4.54.69-3.393.764-5.7 2.864-6.786 6.096-.544 1.616-.896 3.378-.955 5.082-.176 5.391-.176 10.782-.25 16.158 0 .206-.03.412-.044.69H84.89v-33.681h5.141v6.404c1.601-2.145 3.012-4.304 5.318-5.64 2.262-1.323 4.715-1.895 7.58-1.558zm79.409-46.374v-27.689h5.347v6.273c1.865-2.703 3.775-5.156 6.933-6.36 2.012-.765 3.467-.985 5.934-.662v5.773c-1.087.103-2.027.176-2.982.294-5.567.705-8.314 4.054-9.15 9.254-.28 1.704-.353 3.467-.383 5.2-.044 4.069-.015 8.152-.015 12.236v1.645h-5.685zm30.862-32.742v4.715h6.86v5.098h-6.772c-.03.587-.088 1.057-.088 1.513 0 6.08 0 12.162.015 18.258 0 .676.117 1.352.205 2.027.192 1.499.735 1.998 2.263 2.1 1.424.089 2.864.177 4.392.28v4.671c-.28.03-.632.117-.985.132-1.762.015-3.525.015-5.302 0-.53-.015-1.073-.044-1.587-.147-2.893-.528-4.333-2.144-4.553-5.082-.03-.47-.015-.94-.015-1.425v-22.181h-5.89v-5.097h5.83v-9.974h5.627zm104.807 107.128v2.145c-2.556 0-5.068.162-7.55-.044-3.203-.28-4.774-1.85-4.98-5.832-.103-2.159-.015-4.333-.015-6.507v-16.422h-5.802v-5.098h5.773v-9.9h5.714v9.856h6.801v5.039h-6.742c-.03.558-.059.97-.059 1.366v18.596c0 .573.044 1.16.117 1.734.147 1.542.764 2.1 2.365 2.203 1.425.088 2.85.191 4.378.294zm39.352-73.886c1.366.279 2.615.5 3.863.631.632.074 1.278.015 2.013.015v4.848c-2.453 0-4.906.162-7.33-.044-3.217-.28-4.936-1.748-5.097-5.876-.118-3.29-.015-6.566-.015-9.856v-13.059h-5.803v-5.097h5.773v-9.886h5.7v9.842h6.8v5.082h-6.683c-.044.441-.102.794-.102 1.146 0 6.287-.03 12.589.015 18.89.015 1.117-.22 2.365.866 3.364M38.956 220.572v14.851h-5.553v-28.79h-5.728v-5.127h5.714c0-1.836.058-3.51-.015-5.185-.206-4.216 2.188-7.565 7.374-8.109 1.88-.205 3.819-.293 5.743.456v4.832c-.94-.102-1.865-.235-2.776-.293-.632-.03-1.293-.03-1.91.073-1.571.264-2.467 1.19-2.614 2.762-.162 1.777-.206 3.54-.309 5.464h6.772v5.024h-6.698zm338.203-.954v15.805h-5.508v-33.667h5.14v4.686c.089.03.177.058.265.102.265-.352.558-.676.823-1.013 2.306-3.041 5.42-4.525 9.21-4.657 1.865-.058 3.746-.073 5.567.426 4.73 1.263 7.212 4.95 7.3 10.136.089 5.92.016 11.854.016 17.788v6.228h-5.48c-.03-.44-.087-.88-.087-1.336 0-6.346.015-12.706-.015-19.067 0-1.307-.103-2.63-.25-3.936-.323-2.63-2.512-4.774-5.362-5.112-5.89-.705-11.017 2.365-11.413 9.21-.073 1.41-.147 2.835-.206 4.407m-160.053 10.65c3.437-1.69 4.92-4.554 5.053-8.006.22-6.228.176-12.471.25-18.714.015-.573 0-1.146 0-1.778h5.479v33.668h-5.17v-4.7c-.089-.03-.162-.06-.25-.074-.368.485-.69.999-1.102 1.454-1.587 1.866-3.526 3.188-5.964 3.775-2.908.72-5.832.69-8.71-.073-3.453-.896-5.612-3.187-6.552-6.537a12.833 12.833 0 0 1-.529-3.584c-.044-7.682-.015-15.35-.015-23.032v-.867h5.567v1.586c0 6.14-.015 12.28.015 18.435 0 1.41.06 2.835.265 4.246.308 2.276 1.6 3.877 3.775 4.7 2.659.999 5.244.632 7.888-.5m25.06-21.035c-1.543 1.851-2.233 3.967-2.542 6.17-.41 3.085-.426 6.17.573 9.18 2.527 7.477 10.077 7.947 14.381 5.347 1.822-1.087 2.923-2.732 3.555-4.715.206-.646.338-1.307.514-2.027h5.743c-.675 7.36-5.258 11.884-11.34 12.897-3.834.632-7.653.456-11.296-1.219-2.981-1.38-5.14-3.57-6.551-6.463-1.204-2.497-1.865-5.156-1.865-7.947-.015-2.967.058-5.89.94-8.784 1.997-6.493 7.344-10.767 14.468-10.811 3.041-.03 5.964.25 8.74 1.557 4.275 2.012 6.287 5.508 6.875 10.106h-5.802c-.632-1.249-1.102-2.556-1.895-3.643-1.587-2.189-3.98-2.967-6.596-2.997-3.04-.03-5.802.794-7.902 3.35m78.205-74.93c2.585-2.864 5.773-4.098 9.489-3.98 1.601.043 3.246.058 4.774.44 4.025 1.014 6.302 3.76 7.05 7.741.221 1.175.31 2.41.31 3.614.03 7.036.014 14.072.014 21.108v1.645h-5.685V143.66c0-.676-.073-1.366-.102-2.056-.147-3.996-2.938-6.302-7.095-6.273-1.205 0-2.439.294-3.6.647-3.07.925-4.846 3.084-5.743 6.066-.499 1.645-.587 3.32-.602 5.01v17.832h-5.596v-33.668h5.258v5.053c.647-.837 1.043-1.366 1.528-1.968M78.778 211.377c1.513 5.273 1.616 10.43-.411 15.468-2.424 5.993-7.844 9.504-14.395 9.504-1.925 0-3.82-.015-5.715-.515-4.759-1.263-8.21-4.098-10.062-8.563-2.54-6.155-2.511-12.398.53-18.376 2.673-5.26 7.3-7.756 13.205-8.02 2.35-.103 4.7 0 6.962.72 4.627 1.468 7.727 4.523 9.548 8.915.103.25.191.5.338.867m-5.097 9.034c.103-2.306.088-4.583-.632-6.83-.734-2.277-1.91-4.26-3.848-5.7-5.215-3.893-12.677-1.85-15.277 4.084-1.131 2.57-1.41 5.229-1.263 7.99.19 3.452 1.292 6.478 3.907 8.887 3.57 3.306 9.71 3.276 13.264-.03 2.38-2.218 3.467-4.98 3.849-8.402m261.041 6.435c-.925-2.35-1.425-4.642-1.41-7.051.015-2.438.03-4.833.676-7.227 1.806-6.801 7.344-11.59 14.997-11.707 2.306-.03 4.583.088 6.801.793 4.51 1.425 7.653 4.421 9.328 8.71 2.115 5.406 2.16 10.959.03 16.379-2.394 6.096-7.815 9.607-14.454 9.607-1.924.015-3.834-.03-5.729-.53-4.495-1.204-7.741-3.877-9.783-8.005-.132-.293-.279-.573-.455-.97m6.243-.954c.866 1.557 1.997 2.879 3.496 3.849 4.73 3.04 11.06 1.703 13.969-3.13 2.762-4.597 2.776-9.518.823-14.41-1.528-3.819-4.877-6.316-9.328-6.316-4.45 0-7.77 2.527-9.313 6.317-1.836 4.495-1.733 9.019.352 13.69M97.081 131.556c4.789 2.35 7.124 6.36 8.329 11.164a23.93 23.93 0 0 1 .705 7.007h-25.78c.103 3.055.676 5.772 2.806 7.976 2.32 2.409 5.23 3.173 8.446 3.055 2.292-.088 4.422-.705 6.096-2.394 1.117-1.131 1.733-2.512 2.174-4.113h5.67c-.426 2.63-1.44 4.965-3.187 6.948-2.806 3.217-6.478 4.51-10.68 4.598-2.247.044-4.465-.088-6.639-.779-4.319-1.366-7.271-4.128-8.93-8.226-2.307-5.714-2.63-11.516-.089-17.23 2.306-5.23 6.434-8.388 12.163-9.166 2.982-.397 5.993-.177 8.916 1.16m1.513 8.579c-.588-.75-1.087-1.587-1.777-2.218-5.17-4.745-14.425-2.997-16.173 5.229-.117.5-.176.999-.25 1.498 2.248.323 18.376.22 19.537-.117-.03-1.484-.544-2.865-1.337-4.392m203.885 23.532c-2.335 1.41-4.788 2.041-7.388 2.115-2.365.073-4.686 0-6.978-.72-4.436-1.395-7.432-4.26-9.107-8.49-2.012-5.083-2.38-10.297-.587-15.483 2.07-6.08 6.375-9.93 12.853-10.693 7.359-.867 13.073 1.88 16.114 9.195.954 2.321 1.527 4.715 1.63 7.213.03.896.162 1.777.279 2.85H283.31c.206 3.055.676 5.772 2.79 8.005 2.307 2.424 5.2 3.173 8.418 3.1.94-.03 1.91-.221 2.82-.47 2.424-.662 4.098-2.19 5.01-4.51.19-.485.381-.985.601-1.557h5.612c-.72 3.966-2.586 7.138-6.082 9.445m-10.737-18.861h11.222c-.323-3.805-1.939-6.654-5.2-8.329-3.599-1.836-7.212-1.616-10.517.823-2.483 1.821-4.055 5.288-3.496 7.506zm7.932 88.179v2.512c-1.792.999-3.658 1.028-5.509.734-1.777-.279-2.761-1.483-3.173-3.158-.102-.44-.132-.896-.22-1.528-.308.25-.529.382-.69.558-2.997 2.968-6.654 4.246-10.856 4.26-2.423.015-4.788-.205-7.006-1.292-3.114-1.543-4.583-4.128-4.686-7.507-.03-.896-.073-1.806.059-2.688.558-3.657 2.746-5.963 6.184-7.197 2.776-.984 5.67-1.44 8.563-1.88 1.69-.25 3.379-.559 5.024-.94 1.719-.412 3.1-1.308 3.188-3.276.088-1.983-.867-3.878-2.57-4.745-1.69-.837-3.482-.925-5.289-.97-.955-.014-1.924.133-2.85.324-3.158.631-4.7 2.247-5.229 5.39-.044.206-.044.412-.073.735h-5.568c-.484-3.687 1.748-7.682 5.171-9.548 2.012-1.087 4.186-1.675 6.42-1.821 3.348-.206 6.712-.265 9.988.852 3.584 1.248 5.582 3.892 5.582 7.623.015 5.406 0 10.797.015 16.202.015 1.308.132 2.63.205 3.937.088 1.44.617 1.866 2.057 1.704.367-.044.734-.117 1.263-.206v1.925m-9.107-9.857v-4.583c-1.91.44-3.702.896-5.509 1.249-1.204.235-2.423.293-3.643.47-1.894.279-3.79.602-5.45 1.66-2.041 1.307-2.643 3.26-2.276 5.493.352 2.13 1.954 3.188 3.966 3.629 2.85.631 5.626.279 8.24-.955 1.984-.94 3.511-2.394 4.216-4.524.235-.69.309-1.425.456-2.439m-115.619-81.7c0 4.656-.015 9.165 0 13.66.015 1.322.132 2.63.22 3.937.088 1.425.617 1.85 2.072 1.69.367-.045.72-.133 1.175-.207v4.466c-1.719.984-3.54.984-5.332.734-1.748-.22-2.82-1.395-3.261-3.084-.118-.456-.133-.94-.206-1.557-.323.22-.632.382-.867.617-2.864 2.761-6.316 4.024-10.267 4.113-2.586.058-5.112-.118-7.492-1.293-2.835-1.396-4.29-3.731-4.627-6.742-.132-1.234.015-2.527.162-3.776.455-3.54 2.717-5.743 5.949-6.786 2.776-.881 5.684-1.337 8.549-1.939 1.719-.367 3.481-.573 5.185-.984 1.645-.382 2.997-1.234 3.144-3.114.132-1.88-.676-3.863-2.453-4.818-1.704-.91-3.57-1.014-5.435-1.028-1.058 0-2.13.161-3.159.396-2.57.588-4.289 2.057-4.759 4.73-.073.411-.162.808-.235 1.249h-5.567c-.397-3.717 1.807-7.639 5.23-9.49 2.1-1.13 4.391-1.718 6.727-1.836 2.394-.117 4.818.044 7.198.294 2.085.22 4.04.94 5.64 2.409 1.572 1.454 2.321 3.261 2.41 5.347.03.955 0 1.91 0 3.011m-9.226 17.51c1.748-1.087 3.056-2.6 3.364-4.613.309-2.1.265-4.274.382-6.434-1.616.426-3.026.882-4.465 1.16-1.616.31-3.276.412-4.907.662-1.894.294-3.79.631-5.435 1.718-1.953 1.323-2.511 3.247-2.174 5.406.324 2.057 1.851 3.188 3.79 3.614 3.247.72 6.36.323 9.445-1.513M110.86 135.39v-4.186h5.523v4.23c.412-.485.573-.66.72-.852 2.13-2.864 5.2-3.937 8.593-4.23a20.12 20.12 0 0 1 4.789.176c5.964.925 9.783 4.48 11.649 10.047 1.997 5.994 1.865 11.987-1.073 17.671-2.6 4.98-6.962 7.374-12.618 7.55-3.129.103-6.096-.41-8.725-2.115-1.131-.749-2.115-1.718-3.217-2.629v16.834h-5.64V135.39m5.772 9.65c-.646 3.365-.337 6.64 1.072 9.74.573 1.263 1.396 2.541 2.424 3.481 4.187 3.878 13.44 3.952 16.158-4.098.676-2.027.984-4.098.984-6.214 0-3.055-.616-5.949-2.394-8.534-3.79-5.48-11.619-4.906-14.91-1.528-1.894 1.954-2.85 4.29-3.334 7.154m76.207 66.307v24.075h-5.655v-3.804c-1.322 1.469-2.614 2.776-4.377 3.452-5.656 2.174-11.135 1.968-16.144-1.616-3.158-2.248-4.965-5.538-5.743-9.254-.97-4.613-.97-9.225.734-13.735 2.072-5.42 5.964-8.725 11.781-9.489 4.275-.558 8.417.103 11.898 2.982.28.235.559.485.808.764.265.264.47.573.705.852a.56.56 0 0 0 .162-.059c.044-.015.088-.044.103-.088.03-.044.03-.103.03-.162v-16.569c1.91-.059 3.746-.015 5.7-.03v22.68m-25.663 1.807c-.72 2.291-.808 4.627-.705 6.992.118 2.644.882 5.068 2.424 7.242 3.951 5.567 12.97 5.097 16.114-.28 3.143-5.39 3.232-10.987.308-16.437-3.187-5.963-11.34-5.772-14.865-2.776-1.601 1.352-2.541 3.1-3.276 5.259m-27.645-19.272h-7.918v14.895h24.502v5.318c-1.572 0-3.144 0-4.73.015h-19.713v16.158h26.367v5.023c-1.087.294-30.642.382-32.86.088v-46.608h32.625v5.111zm87.43-28.908H224.2v-33.712h5.303v4.525c.602-.676.999-1.146 1.424-1.587 2.454-2.63 5.509-3.848 9.122-3.892 1.88-.03 3.731.073 5.494.793 1.704.676 3.011 1.763 3.922 3.334.206.353.397.72.72 1.293l.543-.764c2.512-3.173 5.861-4.627 9.886-4.686 1.88-.015 3.731.103 5.538.69 3.951 1.279 5.979 4.07 6.052 7.874.147 8.623.044 17.245.044 26.103-1.88.03-3.702.058-5.685-.03v-1.631c0-6.404.015-12.809-.015-19.228-.015-1.41-.117-2.835-.367-4.23-.455-2.527-1.924-3.908-4.45-4.334-1.764-.308-3.512-.206-5.2.382-3.335 1.16-4.995 3.614-5.392 6.992-.102.94-.102 1.895-.102 2.85-.015 5.817-.015 11.648-.015 17.465v1.675h-5.685v-1.454c0-6.464.015-12.927-.015-19.39 0-1.249-.162-2.512-.294-3.76-.294-2.718-2.086-4.98-6.155-4.921-5.582.073-8.46 4.392-8.96 8.108-.088.69-.103 1.38-.103 2.071v19.434c-.925.015-1.806.015-2.85.03m-195.07-32.448v-14.322c.528-.044.954-.088 1.366-.088 5.787-.015 11.575-.044 17.362.015 3.35.03 6.566.764 9.621 2.13 5.524 2.482 8.726 6.889 9.99 12.618 1.41 6.448 1.218 12.911-.897 19.198-2.409 7.183-7.653 11.238-15.144 12.471-1.675.28-3.394.382-5.098.397-5.14.059-10.282.015-15.423.015H31.89v-32.434m13.28-9.195h-6.772v36.414c.587 0 1.116.015 1.63 0 3.32-.058 6.625-.117 9.945-.19 6.287-.148 11.31-3.717 13.279-9.607 1.865-5.612 1.85-11.326.25-16.966-1.41-4.995-4.79-8.212-10.048-9.064-2.615-.425-5.317-.41-8.285-.587M120.127 85.795s-.516 2.878-.482 3.13l-.86-.16c-.022.023.528-2.523.666-3.073a1.819 1.819 0 0 0-1.01.091l-.01-.012.343-.722 2.35.424.172.803c-.194-.195-.837-.424-1.169-.482m-2.052.16c-.092.666-.402 2.019-.275 2.65l-.872-.127c.379-.974.642-2.637.585-3.68l.86.126a3.54 3.54 0 0 0-.298 1.032m-2.328 2.201c-2.224.413-2.213-3.336-.435-3.864 2.235-.47 2.247 3.348.435 3.864m-1.914-2.97c-.104.425-.425.723-.94.884.229.733.366.974.745 1.777l-.012.023-.585-.091c-.126-.08-.86-1.113-1.089-1.674-.126.458-.252 1.054-.195 1.467l-.997-.149c.183-.287.951-3.348.929-3.669.86.104 2.419.264 2.144 1.433m-4.311 1.732c-.516.183-1.262-.024-1.812-.138l.734-3.738c2.43-.16 3.44 2.981 1.078 3.876m-3.451-.321c-.264-.058-1.732-3.039-1.732-3.039s-.355 2.316-.447 2.477l-.665-.092.757-3.634.745.091c0 .104 1.17 2.557 1.17 2.557s.378-1.995.412-2.167l.562.15zm-3.05-2.35c-.791 2.682-3.887 1.215-2.958-1.17.78-2.614 3.875-1.239 2.958 1.17m-3.233-2.902c-.126.127-.597 3.394-.562 3.715l-.883-.172c.16-.275.367-2.557.367-2.557l-1.513 2.35-.883-2.648s-.367 1.904-.379 2.511l-.86-.126c.276-.447.815-3.806.815-3.806l.894.16c.023.184.7 2.465.7 2.465s1.192-1.995 1.26-2.098l1.055.195zm21.692 2.316c-1.1 0-2.133-.011-2.649-.057-5.767-.562-11.465-2.213-17.22-3.13-1.663-.252-3.027-.504-4.197-.504-2.442 0-4.104 1.066-6.076 5.25-.837 1.595 1.972 3.12 2.591 3.188-2.305-1.972-1.502-2.557.321-2.557 2.51 0 6.97 1.113 7.854 1.227 5.262.837 10.593 2.34 15.948 2.912.195.024.367.035.539.035 3.944 0 3.749-4.3 6.466-6.432-.482.034-2.075.068-3.577.068m-19.571-1.456c-1.376-.378-1.903 2.454-.757 2.924 1.399.378 1.903-2.442.757-2.924m10.513 2.075-.4 1.445c1.123.206 1.604-1.261.4-1.445m3.428.505c-1.307-.321-1.73 2.408-.642 2.855 1.342.31 1.743-2.408.642-2.855m-6.718-1.158c-.184.722-.47 2.098-.573 2.843 1.72.367 2.247-2.51.573-2.843m-42.123-2.133.653 3.325-.768.138-.665-3.302c-.47.08-.734.08-1.376.355l-.023-.745 3.302-.424.23.63c-.31-.103-1.353.024-1.353.024m-2.42 3.898-2.281.528c.046-.344-.722-3.543-.917-3.841l2.407-.55-.194.813c-.333-.091-.723-.091-1.17 0l.275 1.158 1.342-.31.218.574c-.264-.046-1.067.16-1.434.23l.287 1.215c.654-.15 1.204-.379 1.628-.665h.012zm-6.626 1.193c-1.674.034-1.915-2.35-2.305-3.52l.814-.15c.379 1.021.275 3.417 1.995 3.096 1.238-.55.23-2.522.103-3.474l.803-.114c.298 1.582 1.02 4.322-1.41 4.161m-2.35.367-2.294.505c.046-.356-.688-3.554-.883-3.853l2.42-.538-.207.814c-.332-.092-.722-.092-1.17-.012l.265 1.17 1.341-.299.218.573c-.275-.045-1.078.15-1.445.218l.287 1.216c.653-.15 1.204-.367 1.628-.654l.011.012zm-4.289.929c.046-1.135-.32-2.924-.837-3.933l1.113-.24c-.058 1.135.32 2.923.836 3.932zm-1.135-.688c-.47 1.124-1.903 1.387-3.004 1.582.046-.355-.63-3.623-.837-3.92 1.927-.826 4.678-.035 3.841 2.338m18.413-7.257c-8.736.011-17.45 3.749-26.209 3.749-1.043 0-2.098-.057-3.141-.184 2.705 2.144 2.522 6.432 6.454 6.432.172 0 .356 0 .54-.023 5.354-.573 10.685-2.075 15.959-2.912.906-.138 5.274-1.216 7.83-1.216.918 0 1.606.138 1.812.516.275.505-1.467 1.972-1.479 2.03 0 .011.012.023.023.023.172 0 1.135-.562 1.857-1.032 2.855-2.052-3.13-7.383-3.646-7.383m-19.857 5.365c-.356-.218-.791-.287-1.307-.206.114.79.39 2.235.619 2.992 1.456-.206 1.903-2.03.688-2.786m34.476-6.5c1.1-.975 1.857-1.308 3.256-1.64-.379.87-.757 1.708-1.147 2.58-.7-.31-1.399-.62-2.11-.94m-.275-21.085H98.4c1.262 11.797-5.663 15.753-15.455 19.869zm22.816-6.33c-.355-.756-1.18-5.044-2.373-4.115 5.457 10.204 1.823 23.63-7.67 30.084-2.775 1.686-6.237 4.472-9.528 2.615 2.133-8.278 12.314-4.781 14.526-20.569-.275-.138-.378-.218-.619-.264a27.157 27.157 0 0 1-1.708 6.364c.883-2.35.321-9.7.493-10.101-.092-.126-.195-.172-.493-.55.057.894 0 1.215.012 2.396H82.945v-16.12h15.169v9.091c-.012.046.057.482.092.643.218-.333.229-.321.378-.436v-9.768H66.768l-.023 8.232h.47v-7.762h15.26v16.12H67.754c-.034.034.012-.252-.034-.218 0-.046-.104.252-.104.218h-.412c0-.757.011-1.216.011-1.239l-.47-.023c-.344 1.215.665 11.328 2.328 13.105-3.325-3.222-4.369-8.943-3.75-13.254 0 0-.31-.23-.653-.539-1.032 6.065 1.25 12.039 5.503 16.384.379.401.78-.024 1.238-.138-.103-.103-.298-.252-.435-.447.172.172.32.333.435.447l-.24-.653c-3.337-2.557-3.887-9.837-3.956-13.174h15.26s-.011 20.202-.023 20.248c-3.244-.16-5.446-3.68-8.576-3.715 4.506 2.671 12.738 9.103 17.944 6.283.034.046.022.034.068.091-.55.677-2.476 1.972-3.336 1.651-1.41-.86-3.6.7-2.591 2.27.126.195.206.356.057.597-5.63-.528-10.686-3.887-15.42-6.765-.046.057-.035.046-.08.092 1.81 2.453 8.3 5.503 8.3 5.503v3.646l.688.459v-3.944c1.697.584 5.148 1.662 5.148 1.662l.011 2.465.654-.424-.035-1.846.918-.252c.584-.16.951-.711.882-1.307a.703.703 0 0 1-.378-.803c.138-.722 1.009-.734 1.364-.298.7.31 1.4-.539 2.087-.734.975-.596 2.19-1.123 2.637-2.247a.983.983 0 0 1 .482-.585c1.972-1.123 3.886-2.361 5.491-3.978 6.891-5.824 9.299-15.833 6.994-24.398m-14.469 10.17c-.069-.068-.252.012-.275.058.012.366-.39.263-.504.515.08.15.194.276.355.264.218-.023.195.24.39.252.906-.413 1.972-.31 2.74-1.02-.287-.24-.355-.573-.413-.929-.527.034-1.032-.046-1.479.206-.046.241.115.367.23.574-.367.16-.7.24-1.044.08m-1.032-11.74c-.676-.034-1.192-.092-1.009.722.035.195.115.78.23.917.045.08.034.161-.023.207-.275.16-1.319-.264-1.193-.62 0-.286-.286-.355-.378-.148-.046.091-.115.091-.23-.024-.183-.275-.446.092-.343.298.046.08-.012.172-.103.195-.287.115-.276.505.126.516.86.401 1.616.814 2.625.676h-.023c1.101-.08.54-.298.493-1.054-.195-.826 1.216-1.365-.172-1.686m2.064-1.535.367.756s.802.356.906.47c.447.321.367 1.227-.035 1.124-.653-.275-1.043-1.204-1.502-1.777-.126-.092-.435-1.032-.642-.803-2.717.62.493 1.307 0 2.316-.103.15-.401.849-.275.952.23.287.734.493 1.009.837.436.436.046.94-.504.539-.31-.241-.677.103-.367.412.023.058-.184.15-.23.172-.32.448.218.425.505.195.149-.068-.012.39.252.321.505-.114 1.273-.367 1.41-1.135.298-.71-.412-.596-.584-1.215-.184-.264-.195-1.192.194-.848.356.447.837.71 1.285.31.4-.39.034-1.32-.172-1.732-.402-.814-.849-1.605-.814-2.58.55-.653 1.18.505 1.57-1.307-1.284.092-2.545.952-1.914 2.396.39.814.31.746-.459.597m-2.786.55c.149-.16.62-.608.665-.7.046-.103.057-.114.378-.137.895-.126 1.342-.493 1.594-1.445.126-.286-.034-.905-.218-1.043-.069-.046-.092-.138-.057-.172.172-.024.516-.16.573-.355-.092-.184-.32-.046-.63-.15-.241-.103-.849-.298-1.101-.16-.172.218-1.215.24-1.02.55l.114.379.47.057.012.344-.459.091c-.275.413.677.447.929.127.16-.195.435-.23.424-.012-.126.275-.585.413-.848.55-.402.069-.516.849-.815 1.112-.87.15-1.192.138-2.052-.562-.31-.366-.562-.091-.32.195-.161.046-.952-.4-.597.367l.057.069c-.39.573.195.378.528.55.7.287 1.467.493 2.373.344m-2.442-3.507c.264.172.459.928.608 1.031.298.39.928 1.434 1.524 1.227v-.023c.184-.069.356-.596.367-.665 0-.024-.103-.126-.217-.207-.574-.493-.918-.986-.93-1.444-.022-.15.322-.344.299-.482-.012-.516-.447.057-.62-.023-.091-.15-.412-.574-.607-.367-.126.057.035.367-.069.436-.045.057-.068.068-.206.068-.459-.011-.527.275-.15.447m-17.323 8.612a1.152 1.152 0 0 1-.183-.23c-.023.218.091.47.045.689-.023.16-.068.412-.126.584.275.264.447.298.746.184-.035-.424-.15-.929-.482-1.227m6.719 1.078c-.046.275.206.39.24.607-.31.207-.653.218-.997.264-.172-.184-.24-.505-.562-.413-.172.046-.069.23-.206.31-.344-.035-.344-.035-.39.32.103.058.206.127.32.184-.263 1.227 3.074-.046 3.567-.413-.161-.275-.367-.458-.425-.78-.149-.538-1.135-.09-1.547-.08m-5.779-2.097c-.527.974-.378 1.857.252 2.67 1.193.047 1.674-1.57 1.48-2.544.125-.092.24-.172.366-.252-.034-.127-.069-.241-.103-.356-.206-.012-.413-.023-.585-.023-.435-.55-.7-.562-1.204-.07-.355-.125-.355-.125-.584.173.091.183.195.32.378.401m9.7 1.457c-.356.16-.814.32-1.09-.092.608-.252 1.353-.195 1.766-.757.31-.367.275-1.123-.31-1.318-1.524-.424-3.13.344-4.666.481-2.889.78-.825-.619-3.118-.607.814 2.339 3.279.837 4.987.665-.115.275-.401.378-.516.63.608-.115 1.399.104 1.857-.355.23-.654 1.755-.723 1.4.149-1.445 1.41-5.963.091-7.97.997-.297.918-.836 1.525-1.707 1.777-.723-.447-1.044.058-1.766-.137-.069-.08-.138-.16-.218-.218a.092.092 0 0 1-.046-.046c-.034-.011-.057-.023-.092-.034.012 0 .012.012.012.023.011.425-.092.837-.252 1.216.94.378 1.96-.08 2.878-.333.378-.115.596-.493.997-.481.975.068 1.536-.746 2.373-.986 1.032-.195 2.087-.356 3.142-.333 1.215 1.651 1.433.252 2.522.803-.034.172-.057.32-.092.493.104.046.195.068.275.103-.103.401.505.642.597.126.011-.057-.023-.149.068-.16.654-.344-.343-2.064-1.031-1.605m-10.296-4.198c-.035-.435-.138-.94-.482-1.238-.378-.39-.504-.929-.114-1.341-.195-.184-.447-.035-.63-.298-.253-.275-.39.045-.448.332-.688.103-.298.321-.138.688.218.63 1.032 2.132 1.812 1.857m6.26-.16c-.057.275.195.39.24.607-.32.207-.664.218-.997.264-.183-.183-.252-.504-.573-.401-.172.034-.069.229-.206.298-.344-.035-.344-.035-.39.32.103.058.218.127.32.196-.263 1.227 3.085-.057 3.578-.424-.16-.264-.378-.46-.436-.78-.137-.539-1.135-.092-1.536-.08m-5.79-2.098c-.539.986-.378 1.857.252 2.683 1.193.045 1.674-1.583 1.48-2.557.125-.092.24-.172.366-.252-.046-.127-.069-.23-.103-.356-.218-.011-.413-.011-.596-.023-.425-.55-.688-.562-1.204-.069-.344-.126-.344-.126-.573.172.08.184.194.321.378.401m9.71 1.457c-.354.16-.813.32-1.088-.092.596-.24 1.353-.183 1.754-.756.31-.367.287-1.124-.298-1.319-1.525-.424-3.142.344-4.678.482-2.89.78-.825-.62-3.118-.608.814 2.35 3.279.837 4.998.665-.126.275-.401.378-.516.63.597-.114 1.4.115 1.846-.355.241-.653 1.766-.722 1.399.16-1.433 1.4-5.962.08-7.968.987-.298.917-.837 1.524-1.72 1.777-.608-.379-.929-.069-1.456-.092.023.172.069.344.115.505.045.172.057.344.068.527.608-.069 1.227-.298 1.8-.459.379-.114.585-.493.998-.481.974.069 1.536-.757 2.373-.986 1.043-.195 2.087-.367 3.153-.344 1.215 1.662 1.433.252 2.522.814l-.103.481c.115.046.207.08.287.104-.103.413.504.653.596.126 0-.057-.023-.138.069-.15.642-.355-.344-2.063-1.032-1.616m-10.01-4.54c-.034-.425-.148-.918-.48-1.227-.38-.379-.505-.917-.115-1.33-.195-.184-.447-.035-.63-.298-.242-.264-.39.045-.448.344-.677.091-.287.31-.138.676.23.62 1.032 2.11 1.812 1.835m6.191-.15c-.046.264.195.39.24.597-.309.206-.653.217-.985.263-.184-.183-.252-.493-.562-.401-.172.034-.069.23-.206.298-.344-.034-.344-.034-.39.321.103.057.206.126.32.184-.263 1.215 3.05-.046 3.544-.413-.16-.264-.367-.459-.425-.768-.137-.54-1.123-.104-1.536-.08m-5.733-2.087c-.527.974-.378 1.846.253 2.66 1.18.046 1.65-1.57 1.467-2.534.115-.092.23-.172.356-.252-.035-.126-.058-.23-.092-.356-.218 0-.413-.011-.596-.023-.425-.55-.677-.562-1.193-.057-.344-.138-.344-.138-.573.172a.74.74 0 0 0 .378.39m-2.488 3.554c.15.012.299-.16.448-.012l-.035.241c.94.413 1.972-.046 2.912-.298.379-.115.585-.493.998-.482.963.07 1.513-.745 2.35-.986 1.032-.195 2.064-.355 3.119-.332 1.203 1.64 1.421.24 2.51.802l-.103.482c.115.046.207.069.287.103-.103.413.504.642.585.126.011-.057-.023-.137.068-.149.642-.355-.344-2.052-1.02-1.605-.355.16-.814.321-1.078-.091.596-.241 1.342-.184 1.743-.746.31-.366.275-1.112-.298-1.318-1.513-.413-3.119.344-4.643.481-2.867.78-.826-.619-3.096-.607.814 2.339 3.256.837 4.953.665-.115.275-.39.378-.505.63.597-.114 1.388.104 1.835-.355.23-.642 1.754-.722 1.387.149-1.433 1.399-5.916.092-7.91.986-.299.917-.826 1.525-1.698 1.766-.71-.436-1.032.057-1.754-.138-.195-.218-.39-.459-.71-.218.01.092.01.195.01.321-.332-.091-.71.379-.355.585m15.375 18.608c.401.608.505 1.57 1.181 1.915.31 0 .78.286.963-.08-.195-.723-1.089-1.135-.963-1.96.046-.184-.023-.38-.183-.54-.344.104-1.067-.688-.803.24-.206.081-.332.23-.195.425m2.075-3.153c-.045-.929-1.123-1.525-.79-2.465a.419.419 0 0 0-.127-.516c-.31.08-.31.08-.55-.069-.401-.194-.459.241-.424.54-.08.034-.16.068-.264.114.287.803 1.124 2.798 2.155 2.396m0 11.087c-.344-.677-.882-1.296-1.135-1.995.31-.436.172-.986-.4-.63-.15-.299-.356-.345-.632-.276-.068.184-.114.367.092.505.012.012-.011.057-.011.091-.058.024-.126.035-.184.058-.149.378.218.584.356.871.401.642.997 2.178 1.914 1.376m3.967-5.675c-.229 0-.286.298-.126.424.15.172.298-.012.482.034 0 .104.011.184.011.252.929.058 2.34-.768 2.832-1.525-.195-.298-.39-.584-.585-.894-.504.16-1.077.15-1.375.608l.516.55c-.344.184-.734.505-1.101.195-.16-.126-.585-.069-.482.195.023.046 0 .103-.011.149-.069 0-.115.012-.16.012m1.398 3.76c-.504.127-1.02.172-1.33.688.126.172.24.333.379.516-.241.63-.872.528-1.457.55.046.195.08.31.115.436-.252.138-.344.356-.298.665.069.024.149.046.23.08.16-.206.458-.413.527-.034 1.066-.344 2.018-.998 2.522-1.984-.298-.24-.55-.516-.688-.917m3.944-4.219c-1.743-.585-4.471 3.187-5.618 2.075-.275-.607-1.146-.539-1.685-.378.653.47 1.009 1.502 1.995 1.17 1.123-.218 1.995-1.124 2.958-1.537.023.332-.298.47-.436.768.654-.206 1.25-.39 1.743-.814-.08-1.823 2.522-.539.023.585.447 0 .757.206 1.055-.16.573-.517.596-1.25-.035-1.709m-6.948-2.855c-.172-.103-.39-.115-.596-.091-.32-.849-.906-.528-1.376-.024-.71-.287-.596.356-.229.7-.355.86-.103 2.143.803 2.51.974-.4 1.238-1.582 1.18-2.522.299-.046.54-.39.218-.573m-2.5 8.095c.907 2.178 2.283-.597 1.939-1.778.63-.527.458-.825-.299-.882-.275-.574-.848-.631-1.25-.15-.137.184-.343.115-.538.138-.39.184-.172.608.172.7-.184.665-.287 1.318-.023 1.972m.24-12.337c-.309.883.012 2.052.826 2.534.94-.424 1.536-1.64 1.215-2.672.218-.183.493-.275.413-.596-.149-.355-.7-.091-.848-.504-.356-.482-.814-.092-1.1.24-.219.024-.425-.091-.632.012-.206.378.367.608.127.986m8.759 9.321c-1.938-.24-1.64 1.09-2.591.768.16-.206.642-.332.481-.642-1.41.62-2.912 1.055-4.322 1.697-.722.768-.482 2.293-2.11 2.43-.057.792-1.169 1.32-1.857.975-.275.252-.149.321-.115.562-.229.218-.55.7-.045.7.16-.035.286-.276.447-.195l-.035.32c.126 0 .31.046.356-.023.229-.275.55-.046.79-.263.838-.562 2.03-1.078 1.961-2.236 1.48-.654 2.328-3.038 4.242-2.19.952.504 1.216-1.032 2.064-1.066.241.561.356.516.665.332.528.413.436-.24.642-.539.035-.286-.263-.63-.573-.63m-10.903-6.03c.183.068.114.274.194.39.975.068 1.95-.196 2.936-.31.733 0 .71-.654 1.25-.734 1.295.057 2.109-1.09 3.324-1.273.986-.275 2.305-.642 3.176.046.206.24.505.287.826.23.412-.081.905-.173 1.123.309-.069.08-.137.149-.24.252.045.092.091.195.148.298.195-.012.23.15.31.275.115.184.367.184.413 0 .046-.23.286-.115.355-.31.046-.607-.092-1.34-.688-1.65-.298-.275-1.456.298-1.49-.275.86.194 2.534-.94 1.387-1.674-1.938-.448-4.07.481-6.03.71-.78.172-.39-1.089-2.099-.756 1.1 2.304 3.474.676 5.32.653.012.207-.355.195-.264.459.54-.172 1.445.115 1.755-.424.16-.654 1.536-.493 1.135.252-1.032.665-2.569.367-3.772.493-1.48.126-3.096.16-4.483.676-.275.86-.654 1.743-1.651 1.95-.688-.666-1.697.126-2.442-.562-.241.057-.287.194-.379.378-.367.138-.493.355-.114.596m10.227 1.835c1.135-.024 3.76-1.273 1.845-2.305-1.066-.172-2.12.344-3.152.585-4.14 1.651-1.72-.367-4.288-.149.87 2.201 3.06 1.066 4.7.55.058.241-.252.298-.206.55.55-.114 1.078-.229 1.594-.332.229-1.078 2.19-1.089 1.284-.012-2.259.986-4.93.803-7.304 1.48-1.582 4.15-4.345 1.318-4.31 2.51-.62.058-.62.654.022.608.012 1.204 3.073-.195 3.635-.562.137-.298.264-.562.39-.837.928.447 1.582-.883 2.384-1.123.814-.16 1.846-.94 2.534-.218.757.837 1.903-.447 2.568.401-.252.665.08.367.195.78-.011.367.608.367.608 0 0-.172.023-.264.183-.333.344-.516-.378-1.089-.63-1.513-.562-.539-1.49.481-2.052-.08M51.875 22.62c-.356.367-.93-.183-.574-.55.344-.367.929.183.574.55m-1.055 2.224-.241.127c-.218-.448-.573-1.307-.585-2.053 0-.172.275-.183.275-.011 0 .516.195 1.203.55 1.937m2.947-.745-.332.034c-.849-.687-1.903-1.008-2.912-.825a1.28 1.28 0 0 1-.035-.275c1.147-.195 2.35.206 3.28 1.066m-.918-1.261c-.355.367-.929-.184-.573-.55.344-.367.929.183.573.55m-1.96-.206c-.344.378-.918-.184-.562-.54.332-.366.917.173.562.54m3.634 1.272c-.355.379-.929-.172-.573-.539.344-.367.928.184.573.54m-.791-.654c-.344.378-.917-.172-.562-.54.344-.366.917.184.562.54m-7.44 1.685c.515.012.526-.78.01-.78-.492-.011-.515.78-.01.78m2.292.86.252-.092c-.172-.458-.539-1.307-1.066-1.846-.115-.126-.31.058-.195.172.367.379.722.998 1.01 1.766m-2.57 1.536.265-.218c.103-1.089.619-2.063 1.456-2.66a3.622 3.622 0 0 0-.172-.217c-.952.688-1.502 1.834-1.548 3.095m39.417 22.369v-.012c-.011.012-.011.012 0 .012m5.538-7.005h5.457v12.715H84.573V42.697zm6.592 12.715c.012-.241-.263-.425-.504-.344v.057c-.424 1.949-.218-6.065-.252-5.779l.39.16v-.928l-.39.16v-5.904c.057-.298.516-.046.263.15v.056c.54.172.7-.699.115-.71l.367-.631-.08-.08c-.012 0-.654.355-.665.355 0-.539-.918-.412-.746.115h.058c.195-.24.47.184.16.24h-5.457l.172-.366h-.986l.172.367h-5.458c-.32-.046-.045-.482.16-.24h.058c.172-.528-.745-.654-.757-.116l-.653-.355-.092.08.367.63c-.585.012-.424.883.126.711v-.057c.424-1.937.218 6.031.252 5.756l-.378-.16v.928l.378-.15c-.034-.137.172 7.671-.252 5.768v-.057c-.55-.172-.71.699-.126.71l-.367.631.092.08c.011 0 .653-.355.653-.355.012.539.93.412.757-.115h-.057c-.092.126-.31.057-.31-.092 0-.08.07-.149.15-.16h5.457l-.172.378h.986l-.172-.378h5.446c.08.012.149.08.149.16 0 .15-.218.218-.31.092h-.057c-.172.527.745.653.757.115 0 0 .642.355.653.355l.092-.08-.367-.63c.206 0 .378-.161.378-.367M85.41 49.576v.115c.023-.218.379-.058.207.091l.045.057c.367.046.425-.493.058-.516v-.011l.424-.195v-.126l-.424-.195v-.012c.367-.024.31-.562-.058-.516l-.045.057c.172.15-.184.31-.207.08v.138-4.69h.379v-.355h4.035c.23.046.035.356-.103.184l-.057.057c-.046.355.55.378.55.023l.218.436h.138l.206-.436c0 .356.596.333.55-.023l-.057-.057c-.138.172-.332-.138-.103-.184h4.047v.356h.367c-.034-.08.149 5.755-.195 4.471l-.057-.057c-.356-.046-.402.493-.046.516v.012l-.436.195v.126l.436.195v.011c-.356.012-.31.562.046.516l.057-.057c.344-1.33.16 4.643.195 4.483h-.367v.344h-4.047c-.23-.034-.046-.344.103-.184l.057-.057c.046-.344-.539-.378-.55-.034h-.011l-.207-.424h-.137l-.207.424c-.011-.344-.585-.31-.55.034l.057.057c.15-.16.333.15.103.184H85.79v-.344h-.379zm4.54 5.033h-.011zm1.101 0h-.011.011m4.162.355h.745V43.155H85.043v11.81zm-7.097-14.549c.264-1.066.642-2.9 1.238-3.806l-1.17-.39c.012 1.158-.607 2.946-.997 4.047.459.057.459.057.93.15m-6.353-2.145c-.011-.722.092-2.006-.217-2.625h1.501c-.24.676-.676 3.76.597 3.611.504 0 1.009-.344.997-.871-.023-.746.103-2.11-.218-2.74h1.49c-.343 1.158-.343 3.198 0 4.356h-1.26c.023-.08.034-.229.034-.424-1.295.917-3.038.459-2.923-1.307m-3.2 1.192c1.686-.665.23-3.267-1.272-2.648-1.662.63-.23 3.268 1.273 2.648m2.568.677.011.012c-.676.55-1.524.32-2.247-.07-2.098 1.182-4.368-1.581-2.683-3.347 1.766-2.11 5.286.287 3.589 2.614.55.424.997.688 1.33.791m-9.837.585c.011-.012 1.387 0 1.399 0-.528-.837-.952-1.525-.952-1.525.482-.287 1.513-.7 1.972-.665l-1.1-.837-3.371 2.018.39 1.295h.01c.276-.527.689-.963 1.136-1.215.103.183.287.516.516.929m-5.01 6.168c-2.018-.126-2.442-3.612 0-3.084v-.849c-3.165-.195-3.119 4.827 0 4.724zm-.895 1.33c-.722-.562-1.65.447-2.384.619-1.262.069-.264-1.502.493-1.605l.011-.024-.608-.447c-1.146.585-2.006 3.05-.172 3.107.402.024 1.4-.676 1.72-.745.872-.172.596.997.069 1.273.264-.012.527-.046.78.023.481-.676.79-1.662.091-2.201m27 30.6 2.42-1.41c-.31-.229-2.19-3.313-2.259-3.692l-2.304 1.33.103.94.023.012c.356-.458.871-.871 1.525-1.26l.722 1.168c-.378.195-1.18.688-1.479.734l.424.516 1.342-.768.688 1.112c-.459.252-.872.379-1.273.401zm9.609-8.53.412-.814-3.473-2.327-.39.722c.137.172 2.407 1.514 2.407 1.514s-3.737.493-3.92.78l3.485 2.384.401-.585c-.172-.115-2.087-1.353-2.087-1.353s3.062-.355 3.165-.32m1.777-3.486.768-2.614c-.39.023-3.91-.998-4.22-1.227l-.733 2.477.734.63.011-.012c-.057-.573.023-1.215.23-1.926l1.341.39c-.138.39-.367 1.273-.55 1.502l.665.103.424-1.444 1.284.367c-.16.481-.367.86-.642 1.123zm-7.441 9.436c2.717-1.193 2.11-3.898-.952-2.66-1.295-.367.333-1.674 1.193-1.376l.011-.024-.642-.768c-.963.425-2.5 1.72-1.685 2.82.573.723 1.72-.045 2.465-.034 1.238.218-.092 1.514-.86 1.445l-.012.012M64.12 57.062l.057-.951c-1.261.24-3.313.24-4.575-.012l-.057.952c1.261-.241 3.302-.241 4.575.011m.424 15.478.745 1.044c.791-.986 2.442-2.167 3.612-2.614l-.746-1.044c-.286.482-.928.952-1.433 1.296l-1.146-1.594c.481-.367 1.123-.825 1.674-.951l-.757-1.032c-.791.974-2.43 2.155-3.612 2.614l.757 1.032c.287-.47.917-.94 1.41-1.284l1.158 1.593c-.493.367-1.123.814-1.662.94m-2.729-7.131c.929-1.708 4.07-.688 2.775 1.25-.975 1.65-4.059.722-2.775-1.25m-.252 2.293c2.144 2.052 5.515-1.238 3.302-3.348-2.156-2.075-5.584 1.227-3.302 3.348m-1.582-5.698.24.963 4.449-.55-.218-.872c-.23-.045-2.992.459-2.992.459s2.625-3.061 2.557-3.428l-4.472.504.092.768c.218-.023 2.637-.367 2.637-.367s-2.19 2.477-2.293 2.523m57.395 6.374c-.126.138-.918 2.408-1.181 2.316-.115-.183-.356-.298-.562-.24-.126-.057-.172-.23-.103-.379.149-.149.883-2.465 1.238-2.304.08.218.355.355.585.298.057.08.069.206.023.31m-2.156 7.9c.069-.574-.665-.895-.963-.402.08-.218-.206-2.396.195-2.385a.5.5 0 0 0 .573.012c.126.023.218.137.23.298v2.339c0 .045-.023.091-.035.137m1.158 4.07c-.688 3.99-5.801.046-2.144-1.639.172.378.757.401.929.012.7.206 1.215.86 1.215 1.628m.528-13.334c-1.112-.7-1.732 2.396-2.144 2.924-.207.458-.035.951.378 1.089l-.814 1.72c-.447-.08-.837.263-.837.78.172.664-.493 3.565.688 3.588v.802c-2.843.516-2.42 4.988.504 4.919 2.901.069 3.348-4.368.54-4.907v-.768c.435.068.825-.264.825-.78-.15-.654.447-3.44-.585-3.589l.62-1.307c1.065.585 1.696-2.43 2.097-2.946.184-.424.046-.906-.332-1.066l.481-.986a11.939 11.939 0 0 1-.676-1.02zm.665-1.675.011.012c-.092-.16-.183-.31-.252-.459a.644.644 0 0 0 .24.447M82.66 3.451c-.138 1.112-.723 1.972-1.446 2.11v.286h1.41a.614.614 0 0 0-.171.172c-2.523.562-2.786 4.415-.379 5.32-.94-.917-.217-2.66 1.113-2.614 1.33-.046 2.052 1.697 1.112 2.614 2.407-.905 2.144-4.758-.367-5.32a.862.862 0 0 0-.184-.172h1.422v-.286c-.734-.138-1.318-.998-1.456-2.11 1.112.138 1.972.722 2.11 1.445h.286V.94h-.286c-.138.723-.998 1.307-2.11 1.456.137-1.123.722-1.983 1.456-2.11V0h-3.955v.287c.722.126 1.307.986 1.444 2.11-1.112-.15-1.972-.734-2.11-1.457h-.286v3.956h.287c.137-.723.997-1.307 2.11-1.445m1.226 7.338c.963-1.812-2.362-1.812-1.387 0a1.367 1.367 0 0 1 1.387 0m-1.319 1.834a1.384 1.384 0 0 1 1.239 0c1.25-1.926-2.488-1.926-1.239 0m.62 2.133c1.135.012 1.135-1.766 0-1.743-1.124-.023-1.124 1.766 0 1.743m0 2.19c1.135.011 1.135-1.766 0-1.743-1.124-.024-1.124 1.754 0 1.743m0 2.178c1.135.024 1.135-1.754 0-1.743-1.124-.011-1.124 1.766 0 1.743m-2.454.012h1.066c0-2.064-.195-5.916-1.467-8.725-.287-.631-1.273-.184-.986.447.894 1.949 1.387 4.884 1.387 8.278m3.84 0h1.067c.012-3.394.493-6.33 1.387-8.278.298-.62-.699-1.078-.974-.447-1.284 2.809-1.48 6.66-1.48 8.725m-8.701-7.476c1.055.024 1.055-1.628 0-1.605-1.044-.023-1.044 1.628 0 1.605m-6.845 4.953c1.043.012 1.043-1.628 0-1.605-1.043-.023-1.043 1.617 0 1.605m8.851-5.675c1.043.012 1.043-1.628 0-1.617-1.043-.011-1.043 1.628 0 1.617m-11.35 9.126c1.043.024 1.043-1.628 0-1.605-1.044-.023-1.044 1.628 0 1.605m1.158-1.788c1.054.011 1.054-1.628 0-1.617-1.044-.012-1.044 1.628 0 1.617m6.282-5.664c1.055.012 1.055-1.628 0-1.617-1.043-.011-1.043 1.628 0 1.617m-8.415 9.344c1.043.023 1.043-1.617 0-1.605-1.043-.012-1.043 1.628 0 1.605m4.976-6.845c1.043.012 1.043-1.628 0-1.616-1.043-.012-1.043 1.628 0 1.616m1.65-1.341c1.044.012 1.044-1.628 0-1.617-1.042-.011-1.042 1.628 0 1.617m25.706 3.703c-.023 1.043 1.616 1.043 1.605 0 .012-1.043-1.628-1.043-1.605 0m-.539-.86c1.043.012 1.043-1.628 0-1.605-1.043-.023-1.043 1.617 0 1.605m1.697 2.649c-.012 1.043 1.628 1.043 1.616 0 .012-1.044-1.628-1.044-1.616 0m.974 1.891c-.011 1.044 1.628 1.044 1.617 0 .012-1.043-1.628-1.043-1.617 0m-4.173-6.042c1.043.012 1.043-1.628 0-1.616-1.043-.012-1.043 1.628 0 1.616m-3.44-2.5c1.044.013 1.044-1.627 0-1.616-1.043-.011-1.043 1.628 0 1.617m-3.91-1.674c1.044.012 1.044-1.628 0-1.617-1.042-.011-1.042 1.628 0 1.617m2.007.722c1.044.024 1.044-1.628 0-1.605-1.043-.023-1.043 1.628 0 1.605m3.692 2.11c1.043.012 1.043-1.628 0-1.617-1.043-.011-1.043 1.628 0 1.617m-26.817 7.865 1.468-.459c2.258-4.104 6.042-7.154 10.513-8.278a12.19 12.19 0 0 0-.344-1.089c-5.09 1.307-9.321 4.965-11.637 9.826m30.153-.459 1.468.459c-2.316-4.861-6.547-8.519-11.637-9.826-.126.333-.24.7-.344 1.09 4.483 1.123 8.255 4.173 10.513 8.277M68.42 78.71c.574 1.077 3.876 3.99 4.77 2.614-1.617-.814-4.345-2.832-3.302-5.389-2.373-1.456-.275-3.772 1.582-1.8 1.96-1.215 4.15-.344 6.088.998.7-1.502-2.683-2.546-3.474-2.993-.997-.332-4.139.379-5.194.424a1.352 1.352 0 0 0-1.169 1.445c.16.768.138 4.093.7 4.7m3.657-.676c2.568.012 2.235-4.07-.298-3.634 1.17.642 2.19 2.316.367 2.809-.688.137-1.388-.608-1.904-.975a1.84 1.84 0 0 0 1.835 1.8m.298-1.697c.653-.79-1.663-1.834-2.007-2.281-.275-.172-.619-.126-.802.115-.665.756 1.616 1.823 1.937 2.235.276.218.665.195.872-.068m14.308 11.499c-.86.091-1.307.676-1.765 1.273-.402-.253-.94-.505-1.433-.505-.276 0-.528.069-.757.264 1.594.619 1.02 3.015-.516 3.027-1.548-.012-2.11-2.408-.527-3.027a1.083 1.083 0 0 0-.746-.264c-.504 0-1.032.252-1.433.505-.458-.597-.906-1.181-1.777-1.273.482 4.391 2.477 6.581 4.483 6.581 1.995 0 4.001-2.19 4.471-6.581m-.722.952c-.619 3.474-2.27 5.056-3.749 5.056s-3.141-1.582-3.76-5.056c.194.172.378.4.584.676l.321.424.459-.287c.183-.114.378-.217.55-.275a2.184 2.184 0 0 0-.172 1.365c.195 1.043 1.02 1.777 2.018 1.777.986 0 1.811-.734 2.006-1.777a2.037 2.037 0 0 0-.172-1.365c.184.058.367.161.562.275l.459.287.31-.424c.217-.275.4-.504.584-.676m-8.347-9.448c.207-.963-1.307-1.272-1.49-.31-.218.975 1.307 1.285 1.49.31m5.183 2.58c.218-.963-1.296-1.284-1.49-.31-.207.963 1.318 1.273 1.49.31m-1.101 4.666c-.16.78 1.066 1.032 1.204.252.172-.78-1.055-1.031-1.204-.252m.183-24.593c-.573-.045-1.192-.16-1.754-.217-1.089.951.138 1.49.952 1.421.71.184 1.64-.745.802-1.204m-9.068 2.557a274.727 274.727 0 0 1 3.554 4.62c.172.024.493.092.493.092l-4.242-5.63s-.07.574.195.918m5.216 4.575-5.205-6.89s-.092.32-.138.47c.39.504 4.976 6.603 4.976 6.603zm-.516 2.763c-.08-.034-.172-.057-.275-.092-.137.379-.355 1.067-.023 1.307l1.685.723 2.179-1.605.585-8.725-.642.057c-.172.011-1.353 10.066-1.972 9.481.126-.665 1.57-9.481 1.57-9.481s-.435-.069-.642-.092c-.034.206-.08.459-.08.459L77.5 60.777l-.321.15 2.568 3.37-.16.596c-.241-.149-2.718-3.588-2.959-3.91l-.504-.034 3.336 4.357-.183.573-3.738-4.918h-.481l4.047 5.343-.207.768-4.448-6.054-.585.024 4.919 6.489-.184.596-5.434-7.097-.092.55s5.056 6.65 5.366 7.086c-.252.814-.058.883.298 1.57.195.757-.321 1.938-1.227 1.652m-5.824-3.131c.596.355 1.272.745 1.891 1.09-1.513 1.834 1.193 2.636 1.055.836 1.01.436 4.988 1.662 3.394-.722-5.228.172-7.888-5.297-4.999-9.493 1.754.802 7.923-2.202 7.418.86.321.332.413.366 1.147.366 1.788-4.104-4.369-2.877-6.57-2.396-1.972.585-3.783-2.293-5.515-.722-.7.607-.24 1.972.7 2.018.825.023 1.066-1.124.32-1.48 1.629-.55.85 2.053.264 2.73-1.868-.964-2.167 2.029-.332 1.238.08.538.103 1.066-.023 1.582-2.006-.436-1.468 2.442.034 1.284.436.413.631 1.055.688 1.674-2.018.287-.412 2.866.528 1.135M50.51 26.76c-.023-.39.263-1.17.263-1.17l-1.605.643s.734.366.986.665c-.344.126-.665.183-1.135-.035l.62 1.238c.137-.55.423-.871.63-.917.676 1.043-.998 2.179-1.72 1.296-.218-.379.034-.78.47-.47-.069-.769-.734-.757-.94-.195.023-.78-.172-1.261-.998-1.49-.217.779.046 1.249.837 1.593-.447-.057-.94.378-.332.94.011-.504.424-.562.642-.218.367.918-.71 1.261-1.605.333.206-.069.413-.046.688.023l-.837-1.066c.034.378.011.653-.057.814-.184-.206-.241-.39-.322-.803l-.642.574c.608.378 1.296.986 2.144 2.19 1.124-1.101 5.641-2.981 7.384-2.936-.206-1.456-.126-2.373.057-3.072l-.86.034c.23.344.31.516.321.803-.172-.08-.378-.252-.607-.55l.126 1.352c.16-.24.287-.413.481-.493 0 1.284-1.031 1.777-1.398.86-.07-.401.263-.642.607-.287.07-.825-.584-.802-.871-.458.344-.78.206-1.307-.493-1.732-.436.734-.252 1.216.298 1.778-.539-.275-1.02.183-.539.78.103-.517.562-.402.654.023.092 1.135-1.915 1.456-2.133.24.184-.114.608-.068 1.078.23l-.39-1.319c-.195.47-.47.654-.802.803m-4.747-.976c.516.012.527-.78.011-.78-.493-.011-.515.78-.011.78m1.227-1.536c.516.012.516-.78.011-.78-.504-.011-.516.78-.011.78m-1.628 3.485c.504.012.516-.78.011-.78-.504-.011-.516.78-.011.78m.08-1.02c.516.012.516-.78.011-.78-.504-.011-.515.78-.011.78m2.247-5.389-.78.057.402 1.032.562-.642c.023.024.057.035.103.046 0 0 .069 1.364.08 1.376.138 1.204 1.972.459 1.238-.505l-.882-1.043a.339.339 0 0 0 .045-.115l.849.092-.413-1.032-.608.505c-.034-.024-.068-.035-.103-.046l-.069-.998c-.252.104-.756.298-1.009.402l.631.78a.232.232 0 0 0-.046.09m2.27 4.106c.333-.31-.16-.814-.481-.505-.333.31.16.826.481.505m-.424-.917c.321-.298-.172-.803-.493-.493-.332.31.16.814.493.493m59.676-10.652c.172-.619-.722-1.444-1.352-1.192.08.688.802 1.296 1.352 1.192m-7.9 34.843c.609-.344 1.24-.619 1.778-1.055-.126-.183-.218-.32-.355-.516-.528.516-1.755.677-1.422 1.571m3.428-1.376c.31.528.608 1.055.906 1.56 1.192 0 .183-.986-.092-1.41-.149-.173-.481-.173-.734-.241-.023.023-.057.068-.08.091m5.916-31.873c-.459-.986-.7-1.112-1.674-.997.401.963.986 1.33 1.674.997m-.642.596c.332 1.147.78 1.4 1.972 1.227-.378-.952-.986-1.33-1.972-1.227m-2.465 13.69c-1.284-.608-2.339.16-3.635-.126.367 1.811 2.511.493 3.635.126m3.726-11.867c-.069 1.135.883 1.8 2.477 1.709-.413-1.147-1.239-1.777-2.477-1.709m4.22 4.002c.034-.046.068-.104.103-.15-.94-1.33-1.342-1.605-2.993-1.616.023 1.617 1.697 1.617 2.89 1.766M98.927 46.239c.321-.871 1.984-3.015 1.09-3.68-.413.24-1.285.138-1.205.79v2.856c.046.011.08.023.115.034m-5.09-5.996c.378-.024.699-.057 1.02-.08.355-1.319-.39-1.468-1.296-2.179-.366 1.101-1.341 1.64-1.88 2.557.883-.057 1.399-.344 1.903-1.032.092.264.172.493.253.734m10.307 9.872c-2.213 2.705-2.224 3.095 1.135 4.265-.023-.31-.046-.505-.069-.734-.665-.207-1.307-.447-1.892-.837.424-.528.814-1.02 1.227-1.525-.115-.355-.24-.71-.401-1.17m1.387 7.934c-.62-.045-1.204-.091-1.88-.149.034.333.046.585.069.849.378.091.699.172 1.043.263.103 1.96-.986 1.995-2.442 1.17-.436 2.488 3.577 2.235 3.21-2.133m8.255-33.937c.757 0 1.834.482 2.454.046.011-2.373-2.89-2.063-4.54-2.11.492.883 1.123 1.766 2.086 2.064m6.329 2.958c.688 1.64 1.788 1.25 2.51 2.316-.607-.194-1.134-.366-1.65-.538-.035 1.742 2.155 1.926 3.37 2.59-.194-2.82-1.559-3.886-4.23-4.368m.447 9c-.046 0-.08.012-.126.024-.367 1.594.745 2.981 1.444 4.345 1.204-2.132 1.147-4.574-.78-6.26-.584 1.136.242 2.225.528 3.291-.046.023-.08.034-.114.057-.321-.493-.631-.974-.952-1.456m.459-10.4c-.012.035-.023.092-.035.127-.493-.024-.997-.046-1.525-.08.562 1.811 2.66.94 3.979 1.754-.757-1.445-1.307-2.866-3.061-3.141.183-.86-.046-1.674-.585-1.995.011.756-.298 1.307-.986 1.593-.344 1.502 1.215 1.422 2.213 1.743m-65.89 13.792c-1.606.092-1.365-1.914-1.835-3.038-.298.333-.528.608-.791.894a499.62 499.62 0 0 1 1.009 3.417c.263-.183.492-.344.722-.516 1.123.791 2.132.252 2.5-.986.332.08.641.23.87-.012a415.309 415.309 0 0 0-1.536-3.175c-.32.057-.619-.39-.997-.035.355.998 1.674 2.981.057 3.451m66.189-8.805c-.562 1.112 1.089 1.57 1.1 2.614-.435-.344-.802-.642-1.226-.974-.516 2.04 1.891 2.705 2.637 4.31.974-2.98.447-4.792-2.511-5.95M67.525 77.31c.676-.63-.24-.998-.596-1.48-6.03-5.606-8.267-12.897-7.74-20.992-.148-.069-.332-.16-.63-.31-1.009 8.588 2.305 17.244 8.966 22.782M47.472 40.129c.367.894.917 1.915 1.812 2.282-.459-1.743.722-3.268 1.272-4.839 0 3.635-2.064 5.607 2.924 6.948-1.33-2.144-.447-4.746-1.284-6.948-.803-.458-1.709-.573-2.247-1.25-.15-.31-.425-.424-.711-.493-.94-.206-1.812-.515-2.282-1.295-.688.218-1.1.195-1.731-.069-.057.768.608 1.56 1.479 1.261-.7 1.01-.31 1.927-.057 2.981.504-1.054 1.272-1.685 2.12-2.212-.653 1.112-1.822 2.235-1.295 3.634m9.803-7.223c.24 1.204-.103 2.213-.894 3.164 1.192 2.121 3.198 3.726 4.081 6.02 1.972-3.704-.137-4.942-2.855-6.971 1.743.63 3.509 1.226 4.472 2.889.206-3.165-1.193-4.758-4.265-5.24 0-.046.011-.091.023-.137 1.284-.058 2.556-.046 3.76.733-.32-.986-1.112-2.442-2.281-2.316.424-.87.412-1.444-.012-1.972-.195.608-.573.986-1.204 1.01.127 1.1-.229 2.017-.825 2.82m-10.456.814c.023-.424.045-.826.08-1.261-.47-.08-.906-.16-1.387-.241.561-.436 1.25-.539 1.811-.321-.481 2.03.378 3.451 2.545 3.566.665-.986 1.25-1.135 1.892-.447-2.855-.287-.734 2.728.722 1.708.39-.562 1.629-1.055 1.273-1.846-2.27-1.662-2.11.791-2.534-3.302a2.368 2.368 0 0 0-.286-.024c-.218.769-.975 1.376-1.605.643-.218-.253-.402-.47-.757-.54 1.548-1.238 3.394.551 3.279-2.361 1.731 2.167 1.88-.24 3.6-.275-.08 1.72-.436 1.582-1.915 1.49.482.367 2.328 2.213 1.25 2.385-.447-1.158-1.204-2.282-2.477-2.5-1.031 1.021-.527 2.179-.366 3.36.917-.31 1.696-.894 2.671-.826.321.952-1.204 1.468-.344 2.408 1.479.24 3.084.252 2.614-1.834-.481-.287-.963-.482-1.456.046.023-.815.814-.952 1.433-.803 1.365-1.445.906-3.37-.55-4.529.39-.573.79-.963 1.49-1.1-.229.493-.733.665-.848 1.112.332.4.63.78.94 1.146.78-.344.986-1.582.424-2.832-.963.252-2.671 1.055-2.671 1.055-.826-.321-.47.092-.356.493-2.66.493-5.274 1.192-7.395 2.958-.378.275-.55.103-.676-.436-.252-.378-.367.287-.401.448 0 0-1.605.39-2.293.986.493.814 1.18 2.098 2.293 1.673m63.322 25.775c-.745.126-.906.435-.768 1.17-.837 1.788-.86 3.955-2.27 5.468 3.05-.86 2.373-2.018 3.118-4.322-.16 3.141.012 3.095 1.147 5.24-2.35 1.662-6.191.274-7.476 3.473.356.413.814 0 1.296.103-.31.379-.436.814-.917 1.136.103-.31.172-.505.23-.7-.872-.287-1.595 1.72-2.26 2.373 6.283-1.26-.756-3.107 11.615-4.551 2.178-1.02-2.075-2.637 2.224-5.355.378-1.479.608-3.015 1.41-4.345.195-.447-.103-1.066-.504-1.376-1.88 1.33-2.775-.814-6.845 1.686M61.185 73.516c.584.103 1.238.217 1.8-.046-.883-1.49-1.755-2.97-2.649-4.495-1.57 1.927-4.276.757-5.985-.435-1.398-1.02 1.605-2.614.642-6.03 1.342 2.154-1.089 4.012 2.66 5.216-1.089-1.605-.94-3.692-1.341-5.538-.046-.31-.206-.63.046-.952.126-.435.16-1.043-.447-1.112-4.197-2.396-3.348-1.226-7.43-1.788-.997 1.765 1.135 3.348.791 5.079-.298.848.986.814.975 1.64.286 1.283.149 3.095-1.319 3.588-.734.436-.149 1.376.493 1.594-1.307 2.338-.31 2.717 1.674 3.886.012-.905.035-1.697.401-2.453 2.74 1.811-1.341 2.12 4.093 4.322-.55-.906-.527-1.903-.619-2.809.516.126 1.02.24 1.525.356.596 2.522 1.95 2.74 4.357 2.522-.86-.86-1.1-1.972-1.731-2.855.722.24 1.444-.252 2.064.31m56.397-8.164c.023.035.046.08.069.115l.023-.046zm.837-.378a.56.56 0 0 1 .298.287c.092.011.195-.035.264-.138.034-.138 1.479-2.018 1.318-2.144-.172-.057-.31-.16-.367-.332-.126-.127-.332-.195-.47.011-.046.241-1.65 2.041-1.238 2.27a.38.38 0 0 1 .195.046m17.347-13.804c-1.01.298-1.422 1.146-1.8 2.086-2.523-3.944-7.338-6.66-8.072-11.488.573-3.863 5.687-2.98 4.643 1.044 2.649-1.422 1.376-4.082-1.123-4.552 2.717.218 4.196 2.522 6.053-1.296-1.605.585-4.047.172-4.895.046 3.382-.459 5.217-.436 5.113-4.632-1.146 2.523-4.334 2.568-6.66 3.382.16-1.123-.196-1.8-1.09-2.167.917 6.134-10.72 4.14 2.064 17.37-1.571-.86-3.383-.573-4.908-1.536 1.181 3.187 3.176 2.637 5.79 3.749-2.797-.012-3.668 2.717-1.593 4.036-.54-2.11 2.362-3.566 3.818-1.915 3.313 4.254-2.763 10.181-8.14-.504.034.596-.379 1.123-.952.94l-.608 1.697c1.238.458-.665 2.832-.791 3.52-.218.458-.688.596-1.055.343l-.596 1.239c.757.688-1.25 2.625-1.479 3.233-.24.344-.653.458-.952.275l-.206.447c.034.057.069.092.08.092 1.365 1.616 1.984 2.854 1.617 4.563 1.1-.952 1.594-3.566.71-5 .998 1.044 2.454 1.79 3.028 3.12.573 2.419.126 4.826-1.514 6.74-.7.7-.504 1.067-.596 1.927-.47 1.364-2.098 1.48-2.717 2.637-.436 1.009-1.147 1.846-1.456 2.9 1.857-.286 1.536-2.877 3.29-3.393-.71 1.078-1.399 2.064-1.892 3.325 1.468-.378 4.231-.78 3.772-2.843-.343-.952.574-1.583.528-2.5 1.158-.413.894-.883 1.444-1.788.264.55.276 1.009.241 1.605-.137-.298-.23-.482-.332-.688-.826 1.112-.138 2.19-.252 3.382 4.047-3.623-1.33-3.589 2.877-11.626.963-1.593-2.751-1.421-3.027-5.033-.263-1.56 1.113-2.843 1.4-4.334 1.616 2.878 7.268 2.786 6.5 6.455 1.135-.848 1.09-2.43.63-3.6 5.836-2.098 1.239-7.464 3.108-11.259m-13.747 9.242c.023-.23 1.238-2.225.917-2.408a.508.508 0 0 1-.562-.287c-.298-.115-1.066 2.064-1.204 2.202.39-.241.883.16.746.607a.323.323 0 0 0 .103-.115m1.204-5.778a.259.259 0 0 0 .092.24c.217-.183.561-.102.722.116.24-.07.16-.849.218-1.032-.287-.31-.585-.608-.906-.883zM91.693 92.25c3.922-.78.448-5.446-4.38-3.543-.423 1.857-.802 3.6-2.361 4.987 3.095.15 6.11-.057 9-1.284 1.445-.86 1.433-3.99 2.992-5.675-1.777-.356-.94 5.71-5.25 5.515m-14.687-3.474c-4.804-1.904-8.313 2.763-4.38 3.542-4.311.184-3.474-5.87-5.263-5.514 1.571 1.673 1.56 4.803 3.004 5.675 2.89 1.227 5.905 1.433 9 1.284-1.559-1.387-1.937-3.13-2.361-4.987m25.601-47.89c-.126-.15-.16-.379-.045-.54-.207-.045-.55 1.87-.62 1.984.138.138.264.264.367.401.184.046.493.15.55-.114l.436-1.686c-.195.184-.527.195-.688-.046m20.535 8.278c-.367-.045-.665.287-.54.677-.045-.012-.08-.012-.114-.035l-1.697-1.169c-.114-.069-.149-.23-.08-.355.32-.012.665-.172.619-.562.126.172 1.96 1.146 1.811 1.444m-6.248-5.916c-.103.127-.321.39-.321.39-1.88-2.155-8.244-4.62-10.995-4.219 0 0 .034-.321.057-.493l-.023.012 1.043-.654-.894-.745c.012-.103-.573-3.726-.573-3.726l1.582-.046s-.562.665-.585 1.18a.71.71 0 0 1 .218.264c.31-.137.654-.79.654-.79l.149 2.143s-.436-.619-.757-.733a.5.5 0 0 1-.115.217c.448 1.422 2.523 1.502 2.534.287-.069-.63-.768-.527-.734.138-1.135-.906.402-2.34 1.032-.895-.08-.825-.011-1.307.642-1.72.425.54.367 1.055-.103 1.87 1.399-1.296 1.926.894.62 1.215.641-1.158-1.205-.791-.528.424.619.94 2.121.803 2.648-.23a.417.417 0 0 1-.08-.194c-.516-.092-1.307.355-1.307.355l.734-1.983s.298.848.734 1.112a.579.579 0 0 1 .286-.15c.092-.527-.435-1.34-.435-1.34l2.419.94s-.952.24-1.261.676a.711.711 0 0 1 .103.298c.504.103 1.318-.31 1.318-.31l-.871 1.915s-.252-.837-.7-1.112a1.013 1.013 0 0 1-.194.092c-.344 1.112.665 2.19 1.765 1.914 1.33-.401.275-1.926-.091-.653-.723-1.112 1.226-2.34 1.318-.482.24-.894.55-1.307 1.25-1.41.183.734-.103 1.124-.757 1.674 1.502-.63 1.57 1.445.115 1.341.504-.47.068-.997-.425-.596-.87.906.746 2.202 2.018 1.56 0-.08.023-.161.058-.23-.321-.229-1.067-.252-1.067-.252l1.56-1.146s-.184.699-.046 1.054c.114-.011.24 0 .344.046.332-.332.355-1.238.355-1.238l1.158 1.445s-2.912 1.341-3.428 1.73l-.803-.08.402 1.136zm-8.553-10.502c.481.172.94.424 1.433-.057-.47 0-.62-.332-.757-.642-.229-1.605 2.385-1.043 3.36-.929 2.453 1.49 6.627.55 5.182-3.004 1.135.7.734 2.649-.126 3.406-2.259 1.226-4.414.298-6.673 2.694-.344-1.09-1.65-1.032-2.121.183-.424.024-.539.012-.952.046-.068-.642.448-1.1.654-1.697m6.054-6.157c-.723.493-1.376 1.227-2.11.241-.172.034-.321.057-.493.092 1.1-1.697 1.009-1.4 2.603-.333m2.465-3.875c.538.596.78 1.25.78 1.983-.528-.183-.746-.756-.78-1.983M94.285 32.32l2.74-.975.997 2.03-1.903 1.203zm-1.766-.47c-.344 2.086-5.045 1.192-4.586-.883.344-2.098 5.033-1.193 4.586.883m-9.333.905-2.935-2.063 2.935-2.076 2.935 2.076zm-6.73.252c-2.97.608-3.6-2.67-.619-3.21 2.981-.607 3.612 2.672.62 3.21m-6.203 1.571-1.904-1.204.998-2.029 2.751.975zm36.126-6.57c.241-.034.436-.045.7-.08-.459-.332-.012-.78.367-.458.894.7-.906 1.846-1.067.539m18.173 23.48-.253-.034-.665-1.823c.31-.401.482-1.055-.011-1.376-.665-.263-2.51-2.373-3.061-1.009-.23.092-1.697.172-1.812.448-.7-1.124-1.295-2.294-1.731-3.612.287-1.525 4.322-3.428 4.322-3.428s-1.146-1.651-1.605-2.58c-.206.459-.39.264-.837.459 2.247-3.99 2.729-9.23-.24-12.99-.31-.654-.172-1.525-.47-2.156-.516-.688-.872-2.018-1.778-2.167 0 1.193-.126 2.35.448 3.44.607.768-.826 1.422-1.285.814.86-.103 1.01-.275.711-.757-3.703-.837-5.778 1.766-9.31 2.179-.309 0-.596.103-.768.39-2.178 2.946 2.718.94 3.142 2.877-.814.677-.929.23-1.697.035-1.1.045-2.167.39-.791 1.318-.849 1.319-.803 1.789-2.511 1.892.745 1.043.585 2.557.78 3.738-1.216.229-2.041.814-2.064 2.12-.55.115-1.135-.171-1.536.425-.757-.63-1.64-.757-2.557-.768-.436-.333-1.525-1.112-2.695-1.709.241-.86.46-1.662.665-2.419.344-.218 1.56-.997 1.88-1.204-.16-.332-.802-1.628-.985-1.983 2.19-7.51 2.889-7.934 4.001-8.095l.057-.217-4.035-1.284-.07.263c1.01.734 1.342 1.96.884 3.405-1.078-.458-1.697-1.49-1.583-2.396-.023-.012-.263-.08-.263-.08l-1.353 4.483s.195.069.218.069c.527-.769 1.456-1.204 2.522-1.02-1.25 3.978-6.868 2.74-5.859-.643.711-1.387 2.076-.493 1.422.963 3.153-1.112 1.284-5.652-1.41-2.935.894-1.834 1.399-3.267.286-5.033-1.456.929-1.834 2.614-1.547 4.873-1.789-4.07-4.896.126-2.362 2.247-.47-3.027 3.267-1.02.745 1.41-2.408 1.708-5.366-.252-5.457-3.256 1.387.115 2.453.94 2.59 1.972.035 0 .264.012.264.012l.172-5.137-.32-.012c-.218 1.044-1.342 1.927-2.775 1.95.103-1.583 1.009-2.81 2.19-3.016v-.298h-5.928v.298c1.17.207 2.075 1.433 2.179 3.016-1.434-.024-2.557-.906-2.775-1.95l-.31.012.172 5.137s.23-.012.253-.012c.137-1.032 1.203-1.858 2.59-1.972-.08 3.004-3.049 4.964-5.445 3.256-2.534-2.442 1.204-4.437.745-1.41 2.522-2.133-.585-6.318-2.362-2.247.275-2.26-.092-3.944-1.548-4.873-1.123 1.765-.619 3.199.276 5.033-2.706-2.717-4.552 1.835-1.4 2.935-.664-1.456.7-2.35 1.422-.963 1.01 3.382-4.62 4.62-5.87.642 1.067-.183 1.995.252 2.523 1.02.023 0 .217-.068.217-.068l-1.352-4.483s-.241.069-.264.08c.115.906-.505 1.938-1.57 2.396-.47-1.444-.138-2.671.882-3.405l-.069-.263-4.047 1.284.069.217c1.1.161 1.811.585 3.99 8.095-.172.355-.814 1.65-.986 1.983.31.195 1.547.986 1.88 1.204.195.688.39 1.422.596 2.201.012-.011.023-.011.035-.011-.012.023-.023.034-.035.011-5.434 2.534-4.196 4.266-8.38 3.761-.38.871-.723 1.731-1.583 2.316-.15-1.33-.745-2.35-1.525-3.29-.378-.448-.917.045-1.49.091-1.136 2.477-1.915.24-3.922 1.536.08 1.147.253 2.293.895 3.36-1.49-.104-2.718-.505-3.704-1.204-4.448 4.964-9.091 9.734-12.886 15.203-2.041 2.683-7.464 1.123-6.031-2.58.653-2.694 4.552-2.121 4.31.562 1.927-2.144.689-4.277-2.258-3.795 2.706-1.17 4.323 1.032 6.765-2.007-1.87.046-3.44-.538-5.297-.114 2.35-1.399 5.572.688 7.578-3.199-1.754.183-3.325.917-5.136 1.192 10.846-10.353.413-10.857 1.743-15.329-.849.723-1.342 1.434-.952 2.408-2.43-1.02-6.03-.722-7.017-3.669-.24 4.208 1.617 3.898 4.781 4.77-1.456-.172-2.912-.184-4.276-.7.286 1.892 1.708 2.293 3.393 2.11-1.65.917-1.272 3.256.402 4.07-1.067-6.088 8.037-4.001 3.886 1.582-1.937 2.878-4.735 5.022-7.074 7.533-.447-.768-.905-1.536-1.937-1.422 1.788 2.064-.23 4.311-.7 6.444-.688 2.625 1.64 4.86 4.128 5.17-.998 1.181-1.078 2.225-.31 3.188.757-3.864 6.363-2.993 6.89-7.177.093-.493.322-.872.884-1.101-2.534 2.855 3.542 8.908-2.167 9.608-.814.023-1.01.883-.562 1.49-2.362-.115-3.004.78-3.37 3.004 1.043-.275 2.006-.516 2.992-.768-1.032 2.683-3.371-.16-2.981 4.632a29.4 29.4 0 0 0 2.717-1.49c.848 2.694-4.277 1.536-.424 5.824.24-.803 1.26-2.442 1.788-2.81-.47 1.354-.367 2.913 1.147 3.51.08-.356.137-.677.206-.987.069-.012.057-.012.126-.012.207.895.241 2.144 1.112 2.66.287.115.436.264.528.574.16.493.63.63 1.077.688.562.114.711-.528 1.124-.78.115.7.952.814 1.364 1.422.321-3.497-4.31-2.225-3.256-4.53.413 1.4 1.732 1.101 2.649 1.675.355.584 1.215 1.066 1.662.252.424.332.826.619 1.204.906-.906-4.15-3.05-1.583-4.403-3.761.94.046 1.95 1.445 2.958.493.55.562.975 1.215 1.388 1.88.172-1.318-.333-2.327-1.376-3.072-1.17-.711-2.775.561-3.772-.872-1.376-1.697-1.342-4.081-.62-6.042.654-1.513 2.477-2.075 3.326-3.508-.241 1.26-.115 3.462 1.318 3.875-.355-2.35 1.319-4.46 1.651-6.73.436-.573.459-1.02.069-1.64-.71-1.158-.906-2.568-1.697-3.714-1.215-1.697-2.717-1.743-.23-3.543-1.513 2.339-.274 1.479 1.021 3.68.241-.734 1.353-1.708-.034-1.708-2.19-1.066 2.855-3.864 3.99-3.933 1.123-.091 2.694.035 3.542-1.066-.527-1.02-1.054-1.158-.137-2.213-.62-.355-1.158-.78-1.261-1.582-.585.206-1.101.378-1.697.596.55-.63 2.167-1.891 2.339-.493.034.78.814.929 1.421 1.124-.435.642-1.169 1.284-.504 2.04.47.482.757 1.41 1.479 1.537.195-.734.378-1.433.573-2.144 1.594 1.663-1.605 2.603 2.775 4.105-.16-.906-.298-1.778-.184-2.718 2.11 1.766-.905 2.867 3.956 3.451-.55-.642-.677-1.353-.871-2.075.814.138 1.467.906 1.994 1.49.493.757.86 1.182 2.007.436.057.127.069.31.16.39.516.39.31.86.298 1.387h.138c.676-.687.722-1.467.516-2.316-.47-1.616-2.43-.332-3.119-1.972.93.631 1.846.998 2.867.47.573.54.814.93 1.089 1.686.459-1.731-.069-3.497-1.903-2.981-.574.206-.803.15-1.376-.344.848.298 1.41-.138 1.949-.527.126.149.195.32.264.332.527.024.86.333 1.17.71.171-1.478-1.296-2.67-2.787-2.292-.367 1.811-1.892.78-3.107.539-1.88-1.1-2.866-3.2-4.529-4.575.172-2.04-1.525-3.669-3.565-3.543 1.834-.802 4.024.769 4.161 2.695.07.78.55 1.272 1.044 1.869 6.214-12.498 26.278-15.777 37.8-7.843.975.906 2.053 1.64 3.062 2.58.401-1.192.16-2.614 1.949-1.892l.332-.218c-.367-1.008.39-2.155 1.445-2.224v.78c-.459.08-.826.527-.745 1.009.355-.069.676.39.481.7a.885.885 0 0 0 1.055-.161c.298.023.596.045.894.08-.412.963-1.811 1.284-2.602.584h-.012c.16.207-.527 2.328-.55 2.58a.664.664 0 0 1-.677.505c.127.206.23.378.344.573.505-.287 1.204-.264 1.135-.986.104-.401-.16-2.27.425-2.098.229.7-.207 1.525.31 2.224 1.662-.413.94-1.915 2.946-2.316.802-.069 2.5-.459 2.923.344-1.754-.47-4.035.012-4.425 2.018-1.823.435-3.36 1.743-5.32 1.743-1.548.091-1.96 1.949-2.03 3.221-.252 1.468-.332 2.981-.985 4.346-.321.515-.058 1.112.126 1.593.584.31 1.009 2.374 1.1 3.107-.011 1.342 2.293 1.789 3.234 2.626.263-1.686-2.924-1.204-2.477-3.554.562 1.559 1.8 1.88 3.165 2.648-.436-1.582-.562-4.196-2.752-3.875-.849-1.181.39-1.238-.012-2.649.63.195.929.425 1.101.814a11.006 11.006 0 0 0-.642-.206c.08.998.94 1.227 1.605 1.915-.115-1.628-.264-2.66-1.777-3.451-.86-.791.138-2.603.069-3.692-.023-.321 2.04-1.342 2.35-1.261 1.525.206 3.13-.046 4.598.344 1.479.47.218-2.729 2.59-1.055-1.719-.505-.676 1.376-1.914 1.479-.871.012-1.616-.08-2.51-.103 3.118 6.959 10.054 4.918 11.969 11.132 1.594-1.41.504-1.387.069-2.866 3.6 2.408-3.36 5.194-.745 9.401-.172-.47 1.467-2.442 1.65-2.843.299-.447.815-.481 1.136-.149l.527-1.09c-.975-.527.78-2.808.906-3.45.183-.39.596-.573.928-.413l.482-1.353c-.917-.252-.23-2.476-.31-3.095-1.284-1.158-2.339-2.626-3.336-3.979l.608-.103c-.07.31.045.642.298.814.447.183 2.144 1.811 2.671 1.422l.275.722c-.435.115-.504.722-.516 1.123.23.195.482.379.7.574.034-.15.011-.803.137-.906a.535.535 0 0 0 .791.057c.207.115-.045 1.548-.023 1.731.241.264.482.55.711.837-.103-.653.711-3.176-.412-3.302"/>
</svg>
