<svg xmlns="http://www.w3.org/2000/svg" viewBox="0 0 340.16 141.73"><defs><style>.cls-1{fill:#fff;}.cls-2{fill:#cdd500;}</style></defs><title>TPR_LogoNoStrapline_Negative</title><g id="Type"><path class="cls-1" d="M150.92,27.05h-8.66V22.6h22.17v4.45h-8.66V49.93h-4.85Z"/><path class="cls-1" d="M168.72,21.43h4.73V32.52a7.4,7.4,0,0,1,6.44-3.64c4.65,0,7.34,3.13,7.34,7.93V49.93h-4.72V38.22c0-3.2-1.61-5-4.42-5s-4.64,1.91-4.64,5.11V49.93h-4.73Z"/><path class="cls-1" d="M191.8,39.7v-.08c0-5.89,4.17-10.74,10.07-10.74,6.56,0,9.88,5.16,9.88,11.09,0,.43,0,.86-.08,1.33H196.52a5.76,5.76,0,0,0,5.94,5.23A7.49,7.49,0,0,0,208,44.07l2.77,2.46a10.4,10.4,0,0,1-8.43,3.87A10.28,10.28,0,0,1,191.8,39.7Zm15.26-1.52c-.31-3-2.1-5.43-5.23-5.43-2.89,0-4.92,2.23-5.35,5.43Z"/><path class="cls-1" d="M144.21,57.08H155c6.37,0,10.39,3.63,10.39,9.14v.07c0,6.13-4.92,9.34-10.93,9.34H149v8.78h-4.8Zm10.38,14.21c3.64,0,5.9-2,5.9-4.88v-.08c0-3.2-2.3-4.88-5.9-4.88H149v9.84Z"/><path class="cls-1" d="M168.42,74.18V74.1c0-5.89,4.18-10.73,10.07-10.73,6.56,0,9.88,5.15,9.88,11.09,0,.42,0,.85-.08,1.32H173.14A5.76,5.76,0,0,0,179.08,81a7.48,7.48,0,0,0,5.58-2.45L187.43,81A10.4,10.4,0,0,1,179,84.88,10.29,10.29,0,0,1,168.42,74.18Zm15.27-1.52c-.32-3-2.11-5.43-5.24-5.43-2.89,0-4.92,2.23-5.35,5.43Z"/><path class="cls-1" d="M193.13,63.8h4.73V67a7.39,7.39,0,0,1,6.44-3.63c4.65,0,7.34,3.12,7.34,7.92V84.41h-4.72V72.7c0-3.2-1.6-5-4.42-5s-4.64,1.91-4.64,5.12V84.41h-4.73Z"/><path class="cls-1" d="M215.66,81.72l2.11-3.2a11.57,11.57,0,0,0,6.75,2.53c2,0,3.21-.85,3.21-2.22v-.08c0-1.6-2.19-2.15-4.61-2.89-3.05-.86-6.44-2.11-6.44-6v-.08c0-3.9,3.24-6.29,7.34-6.29a14.24,14.24,0,0,1,7.57,2.35l-1.87,3.36a11.88,11.88,0,0,0-5.82-2c-1.84,0-2.89.86-2.89,2.07v.08c0,1.48,2.23,2.11,4.65,2.89,3,.94,6.4,2.3,6.4,6v.08c0,4.34-3.36,6.48-7.65,6.48A14.49,14.49,0,0,1,215.66,81.72Z"/><path class="cls-1" d="M236.94,56.14H242v4.49h-5.08Zm.2,7.66h4.72V84.41h-4.72Z"/><path class="cls-1" d="M246.9,74.22v-.08a11,11,0,0,1,22-.08v.08a10.78,10.78,0,0,1-11.05,10.74A10.66,10.66,0,0,1,246.9,74.22Zm17.25,0v-.08a6.36,6.36,0,0,0-6.32-6.63c-3.79,0-6.21,3-6.21,6.55v.08a6.39,6.39,0,0,0,6.29,6.64C261.73,80.78,264.15,77.77,264.15,74.22Z"/><path class="cls-1" d="M273.68,63.8h4.72V67a7.41,7.41,0,0,1,6.45-3.63c4.64,0,7.34,3.12,7.34,7.92V84.41h-4.73V72.7c0-3.2-1.6-5-4.41-5s-4.65,1.91-4.65,5.12V84.41h-4.72Z"/><path class="cls-1" d="M296.21,81.72l2.1-3.2a11.57,11.57,0,0,0,6.76,2.53c2,0,3.2-.85,3.2-2.22v-.08c0-1.6-2.18-2.15-4.61-2.89-3-.86-6.44-2.11-6.44-6v-.08c0-3.9,3.24-6.29,7.34-6.29a14.27,14.27,0,0,1,7.58,2.35l-1.88,3.36a11.88,11.88,0,0,0-5.82-2c-1.83,0-2.88.86-2.88,2.07v.08c0,1.48,2.22,2.11,4.64,2.89,3,.94,6.41,2.3,6.41,6v.08c0,4.34-3.36,6.48-7.66,6.48A14.44,14.44,0,0,1,296.21,81.72Z"/><path class="cls-1" d="M144.21,91.77h12.18c3.44,0,6.13,1,7.89,2.73a8.27,8.27,0,0,1,2.26,5.9v.07c0,4.49-2.69,7.19-6.52,8.28l7.38,10.35h-5.66L155,109.57h-6v9.53h-4.8ZM156,105.31c3.43,0,5.62-1.79,5.62-4.56v-.08c0-2.93-2.11-4.53-5.66-4.53h-7v9.17Z"/><path class="cls-1" d="M170.37,108.87v-.08c0-5.9,4.17-10.74,10.07-10.74,6.56,0,9.88,5.16,9.88,11.09,0,.43,0,.86-.08,1.33H175.09A5.75,5.75,0,0,0,181,115.7a7.49,7.49,0,0,0,5.59-2.46l2.77,2.46a10.44,10.44,0,0,1-8.43,3.87A10.29,10.29,0,0,1,170.37,108.87Zm15.26-1.52c-.31-3-2.11-5.43-5.23-5.43-2.89,0-4.92,2.22-5.35,5.43Z"/><path class="cls-1" d="M195,123l1.76-3.55a13.37,13.37,0,0,0,7.34,2.19c4.22,0,6.52-2.19,6.52-6.33v-1.6a8.63,8.63,0,0,1-7.26,3.79,9.26,9.26,0,0,1-9.37-9.65v-.07a9.29,9.29,0,0,1,9.37-9.69,8.88,8.88,0,0,1,7.22,3.52V98.48h4.72v16.4c0,3.48-.89,6.05-2.61,7.77-1.88,1.88-4.77,2.77-8.47,2.77A17.79,17.79,0,0,1,195,123Zm15.66-15.15v-.07a5.76,5.76,0,0,0-6-5.7,5.57,5.57,0,0,0-5.86,5.66v.07a5.63,5.63,0,0,0,5.86,5.71A5.79,5.79,0,0,0,210.7,107.81Z"/><path class="cls-1" d="M221,111.6V98.48h4.73V110.2c0,3.2,1.6,5,4.41,5s4.65-1.91,4.65-5.11V98.48h4.72V119.1h-4.72v-3.2a7.42,7.42,0,0,1-6.44,3.63C223.7,119.53,221,116.4,221,111.6Z"/><path class="cls-1" d="M245.72,90.59h4.72V119.1h-4.72Z"/><path class="cls-1" d="M269.22,119.1v-2.54a8.31,8.31,0,0,1-6.67,3c-3.91,0-7.34-2.23-7.34-6.37v-.07c0-4.57,3.55-6.76,8.35-6.76a17.27,17.27,0,0,1,5.7.86v-.39c0-2.85-1.79-4.41-5.07-4.41a14.38,14.38,0,0,0-5.9,1.28L257,99.89a17.63,17.63,0,0,1,7.85-1.72c6.09,0,9.06,3.2,9.06,8.71V119.1Zm.12-8.63a13.46,13.46,0,0,0-4.72-.82c-3,0-4.73,1.21-4.73,3.2v.08c0,1.95,1.76,3,4,3,3.13,0,5.47-1.75,5.47-4.33Z"/><path class="cls-1" d="M280.32,113.4V102.54H277.7V98.48h2.62V92.82H285v5.66h5.54v4.06H285v10.12a2.25,2.25,0,0,0,2.54,2.57,6.36,6.36,0,0,0,2.93-.7v3.87a8.31,8.31,0,0,1-4.26,1C282.78,119.45,280.32,117.93,280.32,113.4Z"/><path class="cls-1" d="M293.63,108.91v-.08a11,11,0,0,1,22-.08v.08a10.78,10.78,0,0,1-11.05,10.74A10.67,10.67,0,0,1,293.63,108.91Zm17.26,0v-.08a6.37,6.37,0,0,0-6.32-6.64c-3.79,0-6.21,3-6.21,6.56v.08a6.39,6.39,0,0,0,6.28,6.64C308.47,115.47,310.89,112.46,310.89,108.91Z"/><path class="cls-1" d="M320.42,98.48h4.72v4.65c1.29-3.09,3.67-5.19,7.3-5v5h-.27c-4.14,0-7,2.69-7,8.16v7.85h-4.72Z"/></g><g id="Symbol"><path class="cls-2" d="M68.1,10.48a60.39,60.39,0,0,0-46.44,99l8.6-8.63a48.18,48.18,0,1,1,7.27,7.4h0l-.19-.15-8.52,8.62.12.11h0A60.38,60.38,0,1,0,68.1,10.48Z"/><path class="cls-1" d="M68.1,43.79A27.08,27.08,0,1,0,95.18,70.87,27.08,27.08,0,0,0,68.1,43.79Zm0,45.73A18.66,18.66,0,1,1,86.76,70.87,18.66,18.66,0,0,1,68.1,89.52Z"/><path class="cls-1" d="M19.79,111.34a4.1,4.1,0,0,0,0,5.78l1.53,1.52a4.1,4.1,0,0,0,5.78,0L50.82,95a27.21,27.21,0,0,1-7.4-7.34Z"/></g></svg>