<svg xmlns="http://www.w3.org/2000/svg" width="437" height="228">
  <path fill="#00a33b" d="M0 227.678h4.183V0H0Zm0 0"/>
  <path d="M88.72 63.68s-.377 2.139-.354 2.316l-.638-.116c-.016.016.392-1.868.492-2.276-.23-.054-.5-.03-.746.07l-.008-.009.254-.538 1.745.315.123.592c-.146-.146-.623-.307-.869-.353m-1.522.115c-.07.5-.293 1.5-.208 1.969l-.646-.093c.285-.73.485-1.953.438-2.737l.639.1c-.1.215-.177.469-.223.761m-1.723 1.63c-1.646.316-1.646-2.476-.323-2.86 1.661-.346 1.669 2.484.323 2.86m-1.423-2.191c-.076.315-.307.53-.692.646.162.546.262.73.546 1.322v.016l-.438-.07c-.092-.053-.638-.822-.807-1.237-.093.346-.193.776-.154 1.092l-.738-.116c.138-.215.715-2.484.692-2.722.646.077 1.791.192 1.591 1.069m-3.19 1.276c-.393.139-.94-.015-1.347-.092l.539-2.776c1.807-.123 2.553 2.207.807 2.868m-2.56-.238c-.2-.038-1.285-2.253-1.285-2.253s-.261 1.722-.33 1.838l-.493-.07.562-2.691.546.07c.008.069.86 1.891.86 1.891s.293-1.476.316-1.607l.415.115zm-2.262-1.738c-.584 1.992-2.883.9-2.199-.877.577-1.93 2.876-.907 2.2.877m-2.4-2.145c-.1.084-.446 2.514-.423 2.753l-.653-.131c.123-.208.276-1.9.276-1.9l-1.122 1.738-.654-1.96s-.27 1.407-.284 1.86l-.639-.084c.208-.339.608-2.83.608-2.83l.661.123c.023.13.523 1.83.523 1.83s.877-1.484.93-1.561l.777.146zm16.088 1.707c-.815 0-1.584-.008-1.961-.039-4.284-.415-8.513-1.638-12.781-2.314-1.23-.2-2.238-.377-3.107-.377-1.815-.008-3.045.784-4.506 3.891-.623 1.184 1.46 2.307 1.922 2.36-1.715-1.46-1.115-1.899.239-1.899 1.86 0 5.167.83 5.821.908 3.907.623 7.86 1.745 11.827 2.168.139.016.277.023.4.023 2.922 0 2.784-3.19 4.791-4.775-.354.03-1.538.054-2.645.054m-14.52-1.085c-1.014-.277-1.406 1.823-.553 2.177 1.038.276 1.408-1.808.554-2.177m7.798 1.546-.293 1.069c.823.154 1.185-.938.293-1.069m2.545.377c-.969-.239-1.284 1.784-.477 2.115.992.23 1.292-1.785.477-2.115m-4.983-.861c-.139.538-.354 1.56-.423 2.107 1.276.276 1.669-1.861.423-2.107M49.33 60.497l.485 2.469-.57.1-.5-2.461c-.345.07-.545.07-1.014.277l-.016-.554 2.446-.315.169.469c-.223-.085-1 .015-1 .015M47.54 63.39l-1.691.392c.03-.261-.539-2.638-.685-2.853l1.784-.415-.138.607c-.246-.069-.539-.069-.87 0l.208.862.985-.231.169.423c-.2-.03-.8.123-1.069.169l.215.907c.493-.115.892-.276 1.208-.5l.007.009zm-4.921.877c-1.238.03-1.415-1.738-1.707-2.607l.6-.116c.292.762.207 2.538 1.484 2.307.922-.415.176-1.876.076-2.584l.593-.084c.223 1.169.76 3.206-1.046 3.083m-1.738.27-1.7.376c.031-.261-.515-2.637-.653-2.853l1.784-.4-.146.6c-.246-.069-.539-.069-.87-.008l.2.87.993-.224.161.423c-.2-.03-.792.116-1.069.162l.208.907c.484-.108.892-.27 1.207-.492l.008.008zm-3.184.692c.039-.846-.238-2.169-.623-2.915l.83-.177c-.038.839.24 2.161.624 2.915zm-.838-.516c-.354.839-1.407 1.03-2.23 1.177.038-.261-.462-2.684-.615-2.907 1.422-.607 3.46-.016 2.845 1.73m13.657-5.375c-6.49.008-12.95 2.776-19.44 2.776-.777 0-1.553-.038-2.33-.13 2.007 1.584 1.869 4.775 4.79 4.775.124 0 .262-.008.4-.023 3.969-.423 7.921-1.546 11.828-2.16.677-.109 3.914-.893 5.806-.9.684 0 1.192.107 1.346.376.207.377-1.085 1.461-1.092 1.507 0 .016 0 .016.015.016.13 0 .846-.407 1.377-.761 2.114-1.523-2.323-5.475-2.7-5.475M35.79 63.312c-.261-.162-.584-.208-.969-.147.077.577.292 1.654.461 2.215 1.077-.154 1.4-1.5.508-2.068m25.57-4.814c.807-.723 1.368-.97 2.414-1.223-.292.646-.57 1.269-.854 1.915-.523-.231-1.038-.462-1.56-.692m-.208-15.642H72.6c.938 8.759-4.191 11.689-11.45 14.742zm16.918-4.69c-.262-.562-.877-3.738-1.761-3.046 4.052 7.56 1.345 17.51-5.683 22.301-2.069 1.246-4.63 3.322-7.067 1.938 1.576-6.137 9.128-3.545 10.766-15.25-.2-.1-.277-.16-.462-.192a20.127 20.127 0 0 1-1.261 4.714c.661-1.738.238-7.19.361-7.498-.069-.084-.138-.123-.361-.4.038.662 0 .9.008 1.777H61.151V30.552h11.243v6.744c-.008.039.046.362.069.477.161-.246.17-.238.284-.315v-7.252H49.155l-.024 6.106h.354v-5.76h11.312V42.51H49.885c-.03.03.008-.192-.03-.161 0-.031-.07.192-.07.161h-.308c-.007-.561.008-.9.008-.923l-.354-.008c-.253.892.5 8.398 1.73 9.713-2.468-2.392-3.244-6.63-2.783-9.82 0 0-.23-.177-.477-.408-.777 4.499.923 8.928 4.076 12.15.277.292.577-.023.915-.108-.07-.069-.215-.184-.315-.322.123.123.23.238.315.322l-.177-.484c-2.468-1.892-2.876-7.29-2.93-9.766h11.312s-.007 14.988-.015 15.018c-2.407-.115-4.03-2.73-6.36-2.76 3.345 1.984 9.444 6.751 13.304 4.66l.054.069c-.408.508-1.83 1.469-2.469 1.223-1.053-.63-2.676.523-1.93 1.692.1.138.154.261.046.438-4.175-.392-7.92-2.884-11.435-5.014-.038.038-.03.03-.061.07 1.345 1.814 6.16 4.075 6.16 4.075l-.008 2.707s.307.2.515.338v-2.93c1.261.439 3.814 1.238 3.814 1.238l.008 1.83.492-.315-.03-1.368.684-.185a.9.9 0 0 0 .653-.977.514.514 0 0 1-.284-.592c.1-.53.746-.546 1.007-.223.523.231 1.038-.392 1.554-.546.722-.438 1.622-.83 1.953-1.66a.727.727 0 0 1 .354-.44c1.468-.83 2.883-1.752 4.075-2.952 5.114-4.314 6.89-11.735 5.191-18.087M67.341 45.71c-.053-.046-.192.008-.207.038.007.277-.285.193-.37.385.054.115.14.208.262.192.154-.016.146.177.285.193.669-.308 1.468-.231 2.038-.762-.216-.177-.27-.43-.316-.692-.384.03-.761-.023-1.092.162-.038.176.085.269.17.423-.27.115-.516.176-.77.06m-.769-8.704c-.5-.023-.892-.07-.746.53.024.147.077.585.162.685.038.054.03.115-.008.154-.207.115-.976-.2-.884-.462 0-.215-.215-.269-.285-.115-.03.07-.084.07-.161-.016-.146-.2-.346.07-.262.223.031.062-.007.13-.084.139-.208.084-.192.376.1.392.638.292 1.2.6 1.945.492l-.007.008c.807-.07.392-.215.353-.784-.138-.608.9-1.008-.123-1.246m1.53-1.146.278.57s.584.26.669.338c.33.238.276.915-.024.838-.492-.2-.784-.892-1.115-1.315-.092-.07-.33-.77-.484-.592-2.007.453.37.961 0 1.715-.07.107-.292.63-.2.707.17.208.546.354.746.623.33.315.038.684-.37.384-.23-.169-.507.085-.268.316.015.046-.139.107-.17.13-.238.331.154.308.37.147.115-.062 0 .284.192.23.369-.084.938-.269 1.038-.846.23-.523-.3-.438-.43-.9-.131-.184-.139-.884.146-.63.261.338.622.53.945.23.308-.284.031-.968-.123-1.276-.292-.607-.63-1.192-.607-1.915.407-.484.884.377 1.169-.968-.954.06-1.892.7-1.415 1.768.284.608.223.562-.346.446m-2.069.408c.115-.116.461-.446.492-.515.039-.077.046-.085.292-.1.654-.093.992-.362 1.177-1.077.092-.208-.023-.67-.161-.769-.054-.038-.077-.108-.039-.13.115-.016.377-.116.423-.262-.077-.139-.246-.03-.477-.108-.169-.077-.623-.223-.807-.115-.13.154-.908.169-.762.4.024.084.085.284.085.284l.346.039.008.253s-.254.054-.339.07c-.207.307.5.33.693.092.123-.146.323-.17.315 0-.1.2-.438.3-.638.4-.293.054-.37.63-.6.823-.646.123-.877.107-1.515-.416-.23-.269-.415-.069-.246.146-.108.039-.708-.3-.439.277l.047.046c-.293.423.146.285.384.416.523.2 1.092.361 1.761.246m-1.807-2.6c.192.124.338.693.454.77.223.292.676 1.06 1.13.907v-.016c.13-.053.262-.446.27-.5a.818.818 0 0 0-.162-.146c-.43-.369-.685-.73-.692-1.068-.016-.116.238-.262.223-.362-.008-.384-.331.046-.454-.016-.07-.115-.308-.43-.454-.276-.092.046.023.269-.054.33-.03.039-.053.046-.153.046-.339-.008-.385.208-.108.331m-12.85 6.391a1.388 1.388 0 0 1-.138-.177c-.016.162.069.354.046.508-.023.13-.062.315-.1.438.207.2.33.216.553.139-.03-.316-.107-.685-.361-.908m4.99.8c-.038.2.147.284.178.446-.239.154-.493.161-.739.192-.13-.13-.184-.369-.415-.3-.13.031-.061.17-.161.223-.254-.023-.254-.023-.293.239.077.046.162.092.239.138-.192.908 2.284-.03 2.653-.3-.123-.207-.277-.346-.323-.584-.1-.392-.838-.07-1.138-.054m-4.291-1.561c-.392.73-.277 1.376.192 1.984.877.03 1.238-1.169 1.092-1.892.092-.061.177-.123.27-.184l-.07-.262-.446-.023c-.315-.407-.508-.415-.884-.046-.262-.1-.262-.1-.431.13a.57.57 0 0 0 .277.293m7.19 1.076c-.262.123-.6.247-.8-.069.446-.177 1-.13 1.3-.554.23-.276.207-.83-.223-.976-1.13-.315-2.323.254-3.46.354-2.146.576-.616-.462-2.315-.454.607 1.745 2.43.623 3.698.5-.092.2-.3.277-.384.461.454-.084 1.046.085 1.376-.261.17-.477 1.308-.531 1.039.115-1.07 1.046-4.422.07-5.906.738-.223.677-.623 1.13-1.27 1.315-.537-.33-.776.046-1.306-.1a1.602 1.602 0 0 0-.162-.161.177.177 0 0 1-.038-.03.221.221 0 0 0-.062-.032c0 .008.008.016.008.023.007.308-.07.616-.193.9.693.27 1.454-.061 2.138-.246.277-.085.439-.361.739-.361.722.053 1.138-.554 1.76-.723.77-.154 1.546-.27 2.33-.254.9 1.223 1.062.184 1.87.6-.024.115-.047.23-.07.361.077.03.146.046.208.07-.077.307.377.484.438.1.008-.047-.015-.108.054-.116.477-.261-.262-1.53-.77-1.2m-7.628-3.114c-.03-.315-.107-.684-.361-.907-.277-.293-.37-.693-.085-1-.138-.139-.33-.023-.469-.223-.184-.2-.292.038-.33.254-.508.069-.216.238-.1.507.161.462.761 1.584 1.345 1.369m4.637-.108c-.038.2.147.285.177.446-.238.154-.492.162-.738.193-.138-.131-.192-.37-.415-.3-.13.03-.062.169-.162.23-.253-.022-.253-.022-.292.231l.239.146c-.193.908 2.283-.038 2.653-.307-.123-.208-.277-.346-.323-.585-.1-.392-.839-.07-1.139-.054m-4.29-1.56c-.4.73-.285 1.383.184 1.99.884.032 1.238-1.168 1.1-1.899.092-.06.177-.123.269-.184-.03-.1-.054-.177-.077-.261l-.438-.023c-.323-.408-.516-.416-.892-.047-.254-.1-.254-.1-.431.131.061.13.146.23.284.292m7.198 1.077c-.261.123-.6.246-.807-.062.446-.184 1-.138 1.307-.561.23-.277.208-.83-.23-.977-1.123-.315-2.323.254-3.461.354-2.146.577-.615-.461-2.315-.454.608 1.746 2.438.623 3.707.5-.092.2-.3.277-.385.462.446-.085 1.039.084 1.37-.262.176-.477 1.314-.53 1.045.116-1.077 1.045-4.43.061-5.921.738-.216.677-.615 1.13-1.27 1.315-.453-.277-.691-.054-1.083-.062.015.123.053.247.084.37.03.13.046.253.062.384.446-.046.9-.223 1.33-.338.277-.085.43-.362.738-.354.723.046 1.138-.554 1.761-.73.77-.147 1.546-.27 2.33-.254.908 1.23 1.07.184 1.877.6a6.053 6.053 0 0 1-.077.36c.084.032.154.055.215.078-.084.3.377.484.438.092.008-.046-.015-.108.047-.115.484-.262-.254-1.53-.762-1.2m-7.42-3.36c-.031-.316-.108-.685-.354-.908-.285-.285-.377-.685-.085-.992-.146-.13-.338-.023-.477-.215-.177-.2-.284.03-.323.246-.507.069-.215.238-.1.5.162.469.754 1.576 1.338 1.368m4.6-.115c-.047.2.137.292.176.446-.238.154-.492.161-.738.192-.131-.13-.185-.361-.416-.3-.13.031-.053.17-.153.223-.254-.015-.254-.015-.285.239.07.046.154.092.23.138-.191.9 2.27-.038 2.63-.3-.115-.207-.268-.346-.315-.576-.1-.4-.83-.077-1.13-.062m-4.26-1.546c-.392.723-.277 1.37.192 1.977.869.03 1.223-1.162 1.084-1.884.085-.062.177-.123.262-.185-.023-.092-.046-.169-.07-.261-.16-.008-.3-.016-.438-.016-.315-.408-.507-.415-.884-.054-.254-.092-.254-.092-.43.131.068.13.145.23.284.292m-1.846 2.638c.116.008.223-.123.339-.008a1.423 1.423 0 0 0-.031.177c.7.307 1.469-.039 2.16-.223.278-.085.439-.37.739-.362.715.054 1.13-.546 1.746-.722.76-.147 1.53-.27 2.314-.254.892 1.222 1.054.184 1.854.6-.024.115-.047.238-.07.361.085.03.146.054.208.07-.077.307.377.484.43.1.016-.047-.007-.108.054-.116.485-.262-.253-1.523-.753-1.192-.262.123-.6.238-.8-.07.438-.176.992-.13 1.292-.545.23-.277.208-.83-.223-.977-1.123-.308-2.307.254-3.437.354-2.13.577-.608-.454-2.3-.446.608 1.722 2.423.615 3.676.492-.085.2-.292.277-.377.461.446-.084 1.03.085 1.361-.261.17-.477 1.3-.53 1.03.115-1.06 1.03-4.39.062-5.867.73-.223.678-.615 1.124-1.26 1.308-.531-.33-.77.046-1.293-.1-.154-.161-.3-.346-.53-.169 0 .07.007.154.007.246-.253-.077-.538.277-.269.43m11.404 13.804c.293.447.377 1.154.877 1.415.23 0 .577.208.715-.06-.146-.532-.807-.84-.715-1.447.03-.146-.015-.284-.138-.407-.254.07-.785-.508-.592.184-.162.054-.254.162-.146.316m1.545-2.346c-.038-.692-.838-1.13-.592-1.822.054-.131.039-.285-.092-.385-.23.054-.23.054-.408-.054-.3-.146-.346.185-.315.393-.062.03-.115.053-.2.092.208.592.83 2.076 1.607 1.776m0 8.22c-.261-.5-.661-.953-.846-1.476.223-.323.123-.73-.3-.469-.107-.215-.269-.261-.469-.2-.054.13-.084.27.07.37.007.007-.008.045-.008.069l-.139.046c-.107.269.17.43.27.646.292.469.73 1.607 1.422 1.015m2.93-4.207c-.17 0-.2.216-.085.316.108.13.223-.008.347.03.007.07.007.131.015.185.692.038 1.73-.577 2.1-1.13-.147-.231-.285-.447-.431-.67-.377.123-.8.116-1.023.454l.384.408c-.253.138-.546.376-.822.146-.108-.1-.423-.054-.347.146.008.03-.007.069-.015.1-.046.008-.084.015-.123.015m1.046 2.792c-.385.092-.761.123-.992.507.092.131.184.246.277.385-.177.461-.639.384-1.077.407.039.146.062.223.092.323-.184.1-.261.262-.223.492.054.016.108.039.17.054.123-.146.338-.3.392-.016.784-.261 1.492-.738 1.868-1.476-.223-.177-.415-.385-.507-.677m2.914-3.137c-1.284-.43-3.306 2.369-4.16 1.546-.208-.454-.846-.4-1.246-.277.485.346.746 1.107 1.477.861.83-.161 1.476-.83 2.191-1.138.024.246-.223.346-.323.577.493-.154.931-.292 1.292-.608-.061-1.353 1.877-.407.016.431.33.008.561.154.784-.115.423-.385.446-.93-.03-1.277m-5.145-2.115c-.13-.077-.292-.077-.438-.069-.239-.623-.677-.384-1.023-.016-.53-.207-.446.262-.17.516-.269.646-.084 1.592.593 1.868.723-.3.922-1.169.876-1.876.223-.03.4-.285.162-.423M63.097 53.3c.676 1.615 1.691-.438 1.438-1.315.469-.392.338-.615-.223-.653-.2-.423-.631-.47-.93-.108-.1.13-.255.085-.393.092-.292.139-.13.454.123.523-.138.492-.208.977-.015 1.461m.176-9.15c-.23.653.008 1.522.616 1.883.692-.315 1.138-1.222.892-1.984.169-.138.376-.207.315-.438-.115-.261-.523-.07-.63-.377-.262-.354-.608-.061-.823.177-.154.016-.316-.061-.462.016-.154.276.27.438.092.723m6.498 6.92c-1.438-.192-1.222.8-1.93.57.131-.154.485-.247.37-.485-1.054.461-2.161.784-3.215 1.261-.53.569-.354 1.7-1.561 1.8-.039.584-.861.984-1.377.722-.2.193-.115.239-.084.423-.17.154-.408.515-.031.515.115-.023.208-.2.33-.146-.007.077-.022.154-.03.239.1 0 .23.03.27-.016.16-.2.399-.03.584-.192.622-.416 1.5-.8 1.453-1.661 1.092-.485 1.73-2.253 3.145-1.63.708.384.9-.754 1.53-.785.177.415.262.385.493.246.392.308.323-.177.484-.4.015-.215-.208-.469-.43-.461m-8.09-4.475c.138.046.084.207.146.292.723.046 1.453-.146 2.176-.238.546 0 .523-.477.923-.546.969.053 1.569-.8 2.476-.939.723-.207 1.707-.469 2.345.039.162.169.385.207.616.161.307-.054.669-.123.83.239a3.29 3.29 0 0 1-.169.176c.03.07.061.146.1.223.154-.008.177.116.23.208.085.138.278.138.308 0 .039-.17.216-.085.27-.23.03-.447-.07-1-.516-1.223-.215-.2-1.076.215-1.1-.208.639.146 1.877-.692 1.023-1.238-1.43-.339-3.014.361-4.468.523-.576.13-.292-.808-1.553-.554.815 1.7 2.568.5 3.937.485.008.146-.253.138-.192.33.392-.123 1.069.093 1.3-.307.123-.485 1.138-.37.838.192-.761.484-1.9.261-2.792.361-1.1.093-2.299.123-3.33.5-.2.639-.484 1.292-1.214 1.446-.516-.5-1.262.092-1.815-.415-.177.038-.216.146-.285.284-.269.1-.361.254-.084.439m7.59 1.353c.838-.016 2.783-.938 1.369-1.7-.793-.13-1.585.254-2.346.431-3.068 1.215-1.269-.277-3.176-.107.646 1.622 2.269.784 3.484.407.038.177-.185.223-.154.4.407-.085.8-.169 1.184-.246.17-.8 1.623-.807.954-.008-1.677.73-3.66.592-5.414 1.092-1.177 3.084-3.222.984-3.2 1.869-.46.046-.453.484.016.446.008.9 2.276-.139 2.7-.416l.284-.615c.692.33 1.176-.661 1.769-.83.6-.123 1.376-.708 1.884-.17.561.623 1.407-.322 1.9.3-.185.493.06.277.145.577-.008.277.446.277.454 0 0-.123.015-.2.13-.246.254-.384-.284-.8-.468-1.123-.416-.4-1.1.362-1.515-.061M38.104 16.833c-.254.277-.684-.138-.415-.4.253-.276.676.131.415.4m-.777 1.654-.177.092c-.161-.33-.423-.969-.43-1.523-.008-.13.192-.138.192-.015 0 .384.154.9.415 1.445m2.184-.56-.246.03c-.63-.515-1.415-.746-2.16-.615-.008-.07-.024-.138-.031-.2.86-.146 1.753.154 2.437.784m-.684-.93c-.262.277-.685-.13-.423-.4.254-.277.684.13.423.4m-1.454-.154c-.253.277-.684-.13-.415-.4.254-.269.677.13.415.4m2.692.946c-.254.277-.684-.13-.415-.4.253-.27.684.138.415.4m-.577-.484c-.261.276-.684-.131-.423-.4.254-.27.685.138.423.4m-5.521 1.245c.384.016.384-.576.007-.576-.369-.008-.384.584-.007.576m1.7.639.184-.062c-.123-.346-.392-.976-.785-1.369-.084-.092-.23.039-.146.131.277.27.539.73.746 1.3m-1.9 1.138.193-.162c.077-.807.461-1.53 1.077-1.968-.046-.062-.085-.108-.123-.162-.708.508-1.115 1.361-1.146 2.292M70.51 35.95v.008c.008 0 .008 0 0-.008m-3.415-4.23h4.053v9.436H62.35V31.72zm4.891 9.428c.008-.177-.192-.315-.369-.254v.039c-.323 1.446-.161-4.499-.192-4.283l.292.123v-.693l-.292.124V31.82c.038-.215.384-.03.2.116v.038c.4.123.515-.523.084-.523l.27-.47-.062-.06c-.008 0-.485.261-.485.261-.008-.4-.692-.3-.56.085h.045c.139-.17.354.138.116.184h-4.038l.123-.269h-.738l.13.27h-4.036c-.246-.032-.039-.362.107-.185h.039c.138-.385-.546-.485-.554-.085 0 .008-.477-.261-.484-.261l-.062.06.27.47c-.431.008-.316.646.084.523v-.038c.315-1.446.169 4.467.192 4.268l-.284-.124v.693l.284-.116c-.023-.107.123 5.683-.192 4.276v-.039c-.4-.123-.523.523-.085.523l-.269.47.062.06c.007 0 .484-.268.484-.26.008.4.692.3.554-.085h-.039c-.061.092-.23.046-.223-.07 0-.061.046-.107.108-.115h4.045l-.13.277h.737l-.123-.277h4.038c.053.008.107.054.107.115 0 .116-.169.162-.23.07h-.039c-.13.384.546.484.554.084.008-.008.484.262.484.262l.07-.062-.27-.469a.27.27 0 0 0 .277-.269m-9.005-4.322v-.008c-.008.008 0 .085 0 .093.016-.17.277-.046.146.069l.039.038c.269.031.307-.369.038-.384v-.008l.323-.146v-.092l-.323-.147v-.008c.27-.015.23-.415-.038-.384l-.039.038c.131.116-.138.239-.146.07 0 .015-.008.092 0 .1v-3.484h.27v-.254h2.998c.17.023.031.254-.076.139l-.047.038c-.03.262.416.277.416.016l.153.315h.108l.146-.315c0 .261.446.246.415-.016l-.038-.038c-.108.115-.254-.116-.085-.139h3v.254h.276c-.03-.054.116 4.276-.138 3.315l-.046-.039c-.27-.03-.3.37-.039.385v.008l-.323.146v.092l.323.146v.008c-.261.008-.23.415.039.385l.046-.039c.246-.984.108 3.438.138 3.315h-.276v.261h-2.992c-.177-.023-.038-.261.077-.138l.038-.039c.031-.261-.4-.284-.407-.03h-.008l-.154-.308h-.1l-.153.307h-.008c-.008-.253-.43-.23-.408.031l.046.039c.108-.123.247.115.077.138H63.25v-.261h-.269zm4.16-4.506zm3.376 3.737zm-4.175 4.5h-.008zm.815 0h-.008.008m3.084.26h.553V32.06h-8.09v8.759zM64.98 30.03c.2-.792.476-2.153.915-2.822l-.862-.292c.008.861-.446 2.192-.738 3.007.33.046.33.046.685.107m-4.707-1.591c-.007-.539.07-1.485-.161-1.946h1.107c-.177.5-.5 2.792.446 2.676.377.008.754-.254.738-.646-.015-.546.077-1.56-.161-2.03h1.115c-.261.861-.261 2.376 0 3.238h-.946c.023-.07.03-.177.03-.323-.96.684-2.26.346-2.168-.97m-2.368.885c1.246-.484.161-2.422-.946-1.969-1.238.477-.17 2.43.946 1.969m1.9.5.007.016c-.5.4-1.13.238-1.669-.046-1.553.869-3.237-1.177-1.984-2.492 1.307-1.561 3.914.215 2.66 1.938.408.315.74.507.985.584m-7.298.43h1.039c-.393-.615-.708-1.122-.708-1.122.362-.216 1.123-.515 1.461-.492l-.807-.623-2.5 1.492.285.96.015.009c.2-.4.508-.723.839-.908.076.139.207.385.376.685m-3.714 4.583c-1.5-.092-1.815-2.684 0-2.292v-.63c-2.345-.139-2.315 3.583 0 3.506zm-.661.984c-.539-.423-1.23.339-1.769.462-.938.053-.2-1.115.37-1.192l.007-.016-.454-.33c-.846.43-1.492 2.26-.123 2.299.292.015 1.03-.5 1.277-.554.638-.123.438.738.054.946.192-.008.384-.039.569.015.361-.5.584-1.23.069-1.63m20.017 22.686 1.8-1.038c-.231-.17-1.63-2.461-1.677-2.738l-1.707.984.077.7h.015c.27-.33.646-.646 1.138-.923l.53.861c-.276.147-.868.508-1.099.546l.315.385 1-.577.508.83c-.339.185-.654.285-.939.3zm7.129-6.321.307-.6-2.576-1.73-.285.538c.093.13 1.777 1.122 1.777 1.122s-2.776.362-2.9.577l2.577 1.769.3-.43-1.546-1.008s2.269-.262 2.346-.238M76.6 49.6l.57-1.938c-.293.023-2.908-.738-3.138-.915l-.539 1.845.546.462.008-.008c-.038-.423.016-.9.17-1.43l.992.292c-.1.284-.27.945-.408 1.115l.492.077.316-1.077.953.277c-.115.354-.27.63-.469.838zm-5.521 6.99c2.015-.877 1.56-2.884-.708-1.969-.953-.269.254-1.238.885-1.023l.015-.015-.484-.562c-.708.308-1.854 1.27-1.246 2.092.423.538 1.269-.038 1.822-.03.923.168-.061 1.122-.638 1.068l-.008.016M47.186 42.372l.046-.7c-.938.177-2.461.177-3.391-.008l-.047.7c.939-.177 2.453-.177 3.392.008m.315 11.481.554.77c.592-.724 1.807-1.6 2.683-1.939l-.56-.769c-.216.354-.685.7-1.054.954l-.854-1.177c.361-.269.83-.615 1.238-.707l-.561-.77c-.585.731-1.8 1.608-2.676 1.939l.553.769c.216-.346.685-.692 1.054-.946l.853 1.176c-.361.27-.83.608-1.23.7m-2.023-5.29c.693-1.27 3.023-.516 2.061.93-.722 1.223-3.006.53-2.06-.93m-.185 1.699c1.584 1.523 4.091-.915 2.438-2.484-1.584-1.538-4.13.915-2.438 2.484m-1.177-4.222.185.715 3.291-.407-.161-.646c-.17-.039-2.223.338-2.223.338s1.954-2.268 1.907-2.537l-3.322.369.07.576 1.953-.276s-1.623 1.837-1.7 1.868m42.565 4.73c-.093.1-.685 1.776-.877 1.714-.085-.138-.27-.223-.423-.176-.085-.046-.123-.17-.077-.277.115-.116.661-1.83.923-1.715a.38.38 0 0 0 .43.223c.047.061.054.146.024.23m-1.6 5.853c.054-.423-.5-.662-.715-.3.054-.162-.154-1.769.146-1.769a.358.358 0 0 0 .423.016c.092.016.17.108.17.215v1.738c0 .03-.009.07-.024.1m.861 3.022c-.515 2.953-4.306.031-1.592-1.215.131.277.562.293.685.008.523.154.907.639.907 1.208m.393-9.89c-.831-.515-1.292 1.777-1.6 2.177-.146.33-.015.692.292.8L84.413 54c-.33-.054-.615.2-.615.585.123.492-.37 2.637.507 2.668v.592c-2.107.377-1.791 3.691.377 3.645 2.146.054 2.484-3.237.4-3.637v-.577c.323.054.608-.192.615-.577-.115-.476.33-2.553-.438-2.66l.461-.962c.792.423 1.254-1.814 1.554-2.191.138-.316.03-.67-.246-.785l.353-.738c-.1-.123-.3-.43-.5-.754zm.492-1.239h.008c-.07-.115-.139-.23-.193-.338a.469.469 0 0 0 .185.338M60.936 2.615c-.108.83-.539 1.468-1.077 1.568v.208h1.054c-.054.038-.093.085-.131.13-1.877.416-2.061 3.269-.277 3.946-.7-.677-.162-1.969.823-1.938.984-.03 1.522 1.261.823 1.938 1.791-.677 1.591-3.53-.277-3.945-.039-.046-.077-.093-.131-.131h1.054v-.208c-.539-.1-.977-.738-1.077-1.568.823.107 1.461.538 1.561 1.076h.215V.761h-.215c-.1.539-.738.97-1.561 1.077.1-.83.538-1.469 1.077-1.569V.062h-2.938v.207c.538.1.969.738 1.077 1.569-.823-.108-1.461-.538-1.561-1.077h-.216v2.93h.216c.1-.538.738-.969 1.56-1.076m.908 5.444c.723-1.338-1.753-1.338-1.03 0 .3-.184.73-.184 1.03 0m-.969 1.361a1.01 1.01 0 0 1 .915 0c.923-1.43-1.845-1.422-.915 0m.454 1.584c.838.008.838-1.307 0-1.3-.838-.007-.838 1.308 0 1.3m0 1.615c.838.016.838-1.3 0-1.292-.838-.008-.838 1.308 0 1.292m0 1.623c.838.016.838-1.307 0-1.292-.838-.016-.838 1.307 0 1.292m-1.823.008h.792c0-1.523-.146-4.384-1.092-6.468-.207-.469-.946-.13-.723.331.662 1.446 1.023 3.622 1.023 6.137m2.853 0h.792c0-2.515.362-4.691 1.023-6.137.223-.461-.515-.8-.723-.33-.953 2.083-1.092 4.944-1.092 6.467m-6.452-5.537c.777.008.777-1.208 0-1.2-.776-.008-.776 1.207 0 1.2m-5.075 3.668c.769.008.769-1.207 0-1.2-.777-.008-.777 1.208 0 1.2m6.56-4.214c.776.016.776-1.2 0-1.192-.777-.008-.777 1.207 0 1.192m-8.421 6.775c.777.008.777-1.208 0-1.192-.769-.016-.769 1.2 0 1.192m.869-1.33c.769.015.769-1.208 0-1.193-.777-.015-.777 1.208 0 1.192m4.652-4.198c.777.007.777-1.208 0-1.2-.769-.008-.769 1.207 0 1.2m-6.244 6.928c.777.016.777-1.2 0-1.192-.769-.008-.769 1.208 0 1.192m3.699-5.083c.769.016.769-1.2 0-1.192-.777-.008-.777 1.208 0 1.192m1.223-.992c.776.016.776-1.2 0-1.192-.777-.008-.777 1.208 0 1.192m19.056 2.746c-.016.776 1.207.776 1.191 0 .016-.77-1.207-.77-1.191 0m-.4-.631c.776.008.776-1.207 0-1.2-.777-.008-.777 1.208 0 1.2m1.26 1.96c-.007.778 1.208.778 1.193 0 .015-.768-1.2-.768-1.192 0m.723 1.408c-.016.77 1.207.77 1.192 0 .015-.777-1.208-.777-1.192 0m-3.1-4.49c.777.015.777-1.2 0-1.193-.768-.008-.768 1.208 0 1.192m-2.545-1.845c.77.007.77-1.208 0-1.2-.776-.008-.776 1.207 0 1.2m-2.899-1.246c.777.016.777-1.2 0-1.192-.777-.008-.777 1.207 0 1.192m1.484.546c.777.008.777-1.208 0-1.2-.769-.008-.769 1.207 0 1.2m2.738 1.553c.777.016.777-1.2 0-1.192-.777-.008-.777 1.208 0 1.192m-19.879 5.837 1.085-.346c1.676-3.045 4.475-5.299 7.79-6.137a8.924 8.924 0 0 0-.254-.8c-3.776.97-6.914 3.676-8.62 7.283m22.362-.346 1.076.346c-1.707-3.607-4.844-6.314-8.62-7.283a8.93 8.93 0 0 0-.254.8c3.314.838 6.114 3.1 7.798 6.137M50.377 58.429c.423.792 2.869 2.96 3.538 1.938-1.2-.608-3.222-2.1-2.446-4-1.76-1.076-.207-2.798 1.161-1.337 1.462-.9 3.084-.254 4.522.746.515-1.123-1.992-1.892-2.576-2.223-.738-.246-3.068.277-3.853.315a.992.992 0 0 0-.861 1.077c.115.561.1 3.03.515 3.484m2.707-.508c1.907.008 1.661-3.007-.215-2.691.869.469 1.622 1.714.269 2.084-.508.1-1.03-.454-1.407-.723.015.738.615 1.33 1.353 1.33m.223-1.253c.492-.592-1.23-1.37-1.484-1.7-.208-.115-.461-.092-.6.085-.492.569 1.207 1.353 1.438 1.669.208.16.5.138.646-.054m10.62 8.528c-.646.061-.977.5-1.315.946-.3-.193-.7-.377-1.069-.377-.2 0-.384.054-.554.192 1.177.462.754 2.238-.384 2.246-1.146-.008-1.569-1.784-.392-2.246a.826.826 0 0 0-.554-.192c-.37 0-.769.184-1.061.377-.346-.446-.677-.885-1.315-.946.346 3.253 1.838 4.883 3.322 4.883s2.968-1.63 3.322-4.883m-.538.7c-.462 2.583-1.692 3.745-2.784 3.745-1.1 0-2.33-1.162-2.784-3.745.139.13.27.3.43.507l.24.315.33-.207c.146-.092.284-.162.415-.215-.146.3-.2.653-.13 1.015.145.776.76 1.315 1.499 1.322.73-.008 1.346-.546 1.492-1.322.069-.362.015-.716-.13-1.015.13.053.268.123.414.215l.339.207.238-.315c.154-.207.285-.377.43-.507m-6.19-6.998c.154-.715-.969-.946-1.107-.231-.162.715.969.946 1.107.23m3.845 1.908c.154-.715-.969-.946-1.107-.23-.162.714.969.945 1.107.23m-.815 3.46c-.13.577.777.77.892.185.123-.577-.784-.761-.892-.185m.13-18.233c-.43-.038-.883-.123-1.299-.161-.815.707.1 1.107.708 1.053.515.139 1.215-.553.592-.892m-6.729 1.9a192.286 192.286 0 0 1 2.638 3.422c.123.016.369.061.369.061l-3.145-4.168s-.054.423.138.685m3.868 3.383-3.853-5.106s-.076.239-.107.346l3.691 4.899zm-.377 2.054c-.061-.023-.13-.039-.207-.07-.108.285-.27.792-.016.97l1.254.538 1.607-1.192.438-6.468-.476.039c-.123.015-1 7.467-1.461 7.028.092-.492 1.16-7.028 1.16-7.028l-.476-.07c-.023.154-.054.346-.054.346l-1.784-2.337-.23.115 1.906 2.5-.123.445c-.176-.115-2.014-2.668-2.199-2.906l-.377-.023 2.476 3.23-.13.43-2.776-3.653h-.354l3.007 3.96-.162.57-3.299-4.484-.438.008 3.653 4.822-.131.446-4.03-5.268-.069.408s3.753 4.93 3.983 5.252c-.2.608-.046.662.216 1.161.146.562-.246 1.438-.908 1.23M52.8 51.047c.446.262.945.554 1.4.808-1.116 1.36.891 1.953.776.623.753.323 3.706 1.23 2.522-.539-3.876.131-5.844-3.93-3.699-7.036 1.3.592 5.875-1.63 5.491.63.246.254.308.277.854.27 1.322-3.038-3.238-2.13-4.868-1.769-1.461.43-2.807-1.707-4.091-.538-.516.453-.185 1.46.515 1.5.615.015.792-.831.246-1.1 1.2-.408.623 1.522.185 2.022-1.377-.715-1.608 1.507-.239.923.054.4.077.792-.023 1.169-1.484-.323-1.092 1.815.03.961.316.3.47.777.508 1.23-1.5.216-.307 2.13.393.846M37.097 19.902c-.016-.292.192-.862.192-.862-.292.116-.892.354-1.184.477 0 0 .538.27.73.492-.254.093-.492.131-.838-.03l.454.922c.1-.407.315-.645.469-.684.5.77-.739 1.615-1.277.961-.161-.277.03-.576.346-.346-.046-.569-.538-.569-.692-.146.015-.584-.13-.938-.746-1.107-.161.584.039.93.615 1.184-.33-.046-.684.285-.23.692 0-.369.307-.407.469-.161.269.684-.53.946-1.184.254.146-.054.3-.031.507.015l-.63-.792c.038.285.015.485-.039.608-.138-.154-.177-.293-.238-.6l-.477.423c.454.284.969.738 1.6 1.63.83-.815 4.175-2.215 5.467-2.176-.154-1.084-.092-1.761.038-2.284l-.63.023c.169.261.223.392.238.6-.13-.054-.277-.185-.446-.415l.085 1.007c.115-.177.215-.3.361-.362-.007.954-.761 1.315-1.038.639-.054-.3.2-.477.454-.216.046-.607-.439-.6-.654-.338.254-.584.154-.969-.361-1.284-.323.546-.193.9.223 1.315-.4-.2-.762.138-.408.584.077-.384.415-.3.492.008.062.846-1.422 1.084-1.584.185.139-.085.454-.054.808.169l-.3-.985a1.008 1.008 0 0 1-.592.6m-3.515-.723c.377.016.385-.577.008-.577-.377-.008-.385.577-.008.577m.908-1.138c.376.008.384-.585.007-.585-.376-.008-.384.585-.007.585m-1.215 2.584c.384.008.384-.577.015-.577-.377-.016-.384.577-.015.577m.061-.754c.385.008.385-.584.008-.584-.37-.008-.377.584-.008.584m1.669-3.999v.008l-.585.038.308.77.408-.485c.023.016.046.03.077.03l.061 1.023c.1.9 1.461.347.923-.369l-.654-.776c.008-.031.023-.054.031-.077l.623.061-.3-.761-.454.369a.223.223 0 0 0-.077-.03l-.053-.739c-.185.07-.562.223-.746.292l.469.577c-.008.023-.023.046-.031.07m1.684 3.044c.246-.23-.123-.6-.361-.369-.246.231.123.6.361.37m-.323-.677c.246-.23-.123-.6-.354-.37-.246.231.116.608.354.37m44.256-7.898c.13-.461-.53-1.076-1-.892.062.515.6.961 1 .892M74.77 36.182c.446-.262.915-.462 1.323-.785-.1-.138-.17-.238-.27-.384-.392.376-1.3.5-1.053 1.169m2.538-1.023c.23.392.453.776.676 1.153.885 0 .139-.73-.069-1.046-.115-.123-.361-.123-.546-.184-.023.03-.038.054-.061.077m4.383-23.64c-.338-.722-.515-.814-1.23-.738.292.716.722.985 1.23.739m-.47.446c.247.846.585 1.03 1.462.907-.285-.7-.73-.984-1.461-.907m-1.823 10.143c-.96-.446-1.745.123-2.699-.085.27 1.338 1.861.362 2.7.085m2.752-8.798c-.046.846.662 1.339 1.838 1.27-.307-.854-.915-1.316-1.838-1.27m3.13 2.969c.023-.039.054-.07.077-.108-.692-.992-.992-1.192-2.215-1.2.016 1.2 1.262 1.2 2.138 1.308M73.002 34.35c.238-.646 1.468-2.237.807-2.73-.308.177-.954.1-.892.585v2.122c.03.008.053.016.084.023m-3.776-4.445c.277-.023.516-.046.754-.06.27-.978-.292-1.085-.961-1.616-.27.815-.984 1.208-1.392 1.892.654-.038 1.038-.254 1.415-.77.061.2.123.378.184.555m7.644 7.313c-1.638 2.007-1.653 2.299.846 3.168-.023-.23-.038-.377-.061-.554-.485-.138-.961-.323-1.4-.615.315-.392.608-.754.915-1.13a48.28 48.28 0 0 1-.3-.87m1.03 5.891c-.46-.038-.891-.077-1.391-.115.015.246.03.43.046.63.277.07.515.131.77.193.076 1.453-.724 1.476-1.808.869-.323 1.845 2.653 1.66 2.384-1.577m6.121-25.17c.561 0 1.353.355 1.815.032.015-1.761-2.138-1.53-3.36-1.57.36.662.83 1.316 1.545 1.539m4.691 2.191c.507 1.216 1.33.923 1.86 1.723-.445-.146-.837-.277-1.222-.408-.03 1.3 1.6 1.43 2.5 1.93-.147-2.099-1.162-2.89-3.138-3.245m.33 6.675c-.03 0-.06.008-.092.016-.269 1.177.554 2.215 1.07 3.222.891-1.584.853-3.383-.578-4.645-.43.846.177 1.654.393 2.446-.031.016-.062.023-.093.038-.23-.361-.469-.723-.7-1.076m.339-7.714-.023.1c-.37-.023-.738-.046-1.13-.061.415 1.338 1.976.692 2.952 1.3-.561-1.077-.969-2.123-2.276-2.33.139-.639-.03-1.239-.43-1.477.007.561-.224.969-.731 1.177-.254 1.115.9 1.053 1.638 1.291M40.519 29.322c-1.185.07-1.015-1.415-1.361-2.253-.216.246-.393.446-.585.669l.754 2.53c.192-.139.361-.254.538-.385.823.585 1.576.185 1.853-.73.246.061.47.169.646-.008-.392-.8-.761-1.569-1.146-2.361-.238.054-.453-.285-.738-.016.262.739 1.238 2.207.039 2.553m49.093-6.52c-.431.815.8 1.153.815 1.93-.323-.254-.6-.477-.908-.723-.392 1.515 1.4 2.007 1.946 3.2.723-2.208.33-3.554-1.853-4.407M49.716 57.39c.5-.47-.177-.739-.446-1.1-4.468-4.16-6.13-9.559-5.745-15.565-.107-.053-.238-.123-.461-.23-.746 6.367 1.707 12.788 6.652 16.895M34.843 29.82c.277.654.677 1.416 1.346 1.693-.346-1.3.53-2.423.938-3.6.008 2.7-1.53 4.169 2.177 5.16-.985-1.591-.331-3.521-.962-5.152-.592-.338-1.26-.423-1.668-.922-.108-.239-.308-.323-.523-.37-.692-.153-1.338-.384-1.692-.96-.508.16-.815.138-1.277-.054-.046.576.446 1.153 1.092.93-.515.761-.23 1.438-.038 2.215.369-.777.93-1.246 1.569-1.638-.485.823-1.354 1.66-.962 2.699m7.267-5.36c.177.892-.069 1.638-.66 2.345.883 1.57 2.368 2.761 3.021 4.46 1.47-2.745-.092-3.66-2.114-5.167 1.291.469 2.599.915 3.322 2.145.153-2.353-.892-3.53-3.169-3.883l.023-.1c.946-.046 1.892-.038 2.784.538-.238-.73-.823-1.807-1.692-1.715.316-.646.308-1.076-.007-1.46-.146.445-.43.73-.9.745.1.815-.17 1.492-.608 2.092m-7.751.6c.015-.308.038-.608.061-.938-.353-.054-.676-.116-1.038-.177.423-.316.938-.4 1.354-.239-.362 1.508.277 2.561 1.884 2.646.492-.73.93-.846 1.407-.323-2.122-.223-.546 2.015.538 1.26.285-.414 1.2-.783.939-1.368-1.685-1.23-1.57.585-1.877-2.453-.077-.008-.154-.008-.215-.016-.162.577-.73 1.023-1.192.477-.162-.184-.3-.346-.561-.392 1.153-.923 2.522.4 2.437-1.753 1.284 1.607 1.392-.177 2.661-.208-.062 1.276-.323 1.176-1.415 1.107.354.27 1.723 1.638.923 1.761-.33-.853-.885-1.684-1.83-1.853-.77.761-.393 1.615-.277 2.5.684-.231 1.26-.67 1.976-.616.239.7-.884 1.092-.246 1.792 1.092.177 2.284.184 1.93-1.369-.354-.215-.707-.354-1.076.03.015-.6.607-.7 1.069-.584 1.007-1.076.669-2.499-.416-3.368.285-.415.592-.707 1.115-.815-.177.369-.546.5-.63.83.238.3.469.577.684.846.585-.253.738-1.169.323-2.099-.715.184-1.976.777-1.976.777-.623-.231-.354.069-.27.369-1.976.361-3.914.884-5.482 2.2-.277.199-.408.076-.5-.324-.185-.284-.277.208-.3.33 0 0-1.184.293-1.707.731.369.6.884 1.554 1.707 1.238M81.322 44.18c-.554.092-.677.323-.577.861-.615 1.33-.63 2.938-1.684 4.06 2.26-.638 1.76-1.491 2.307-3.206-.108 2.33.015 2.292.854 3.891-1.738 1.223-4.584.192-5.537 2.569.261.307.6 0 .953.084-.223.277-.315.592-.676.83.076-.222.123-.368.176-.507-.653-.223-1.192 1.269-1.676 1.753 4.652-.938-.561-2.307 8.605-3.375 1.623-.762-1.53-1.954 1.653-3.969.277-1.1.454-2.23 1.046-3.222.146-.33-.077-.792-.377-1.022-1.391.984-2.053-.6-5.067 1.253M45.01 54.576c.438.077.915.161 1.33-.03-.646-1.108-1.292-2.2-1.961-3.338-1.161 1.43-3.176.553-4.437-.323-1.03-.762 1.192-1.938.477-4.476.992 1.6-.808 2.984 1.976 3.876-.807-1.192-.7-2.738-1-4.107-.038-.238-.154-.469.039-.707.092-.33.115-.769-.33-.823-3.108-1.784-2.485-.915-5.507-1.33-.746 1.315.83 2.484.584 3.768-.223.623.731.6.723 1.215.208.953.1 2.292-.984 2.66-.546.324-.108 1.016.361 1.177-.96 1.746-.223 2.023 1.254 2.892.008-.677.015-1.261.292-1.83 2.038 1.353-.992 1.576 3.038 3.214-.408-.677-.4-1.407-.462-2.084.385.085.754.177 1.138.261.431 1.869 1.438 2.03 3.222 1.869-.638-.638-.815-1.461-1.284-2.115.539.185 1.07-.184 1.53.231m41.827-6.06c.015.03.03.062.053.092l.016-.038zm.622-.277c.093.046.177.108.216.216a.197.197 0 0 0 .192-.1c.03-.1 1.1-1.5.977-1.592-.116-.039-.231-.123-.262-.246-.1-.1-.246-.146-.354.008-.038.177-1.222 1.515-.915 1.684.046 0 .1.008.146.03m12.858-10.235c-.746.223-1.053.846-1.33 1.553-1.877-2.93-5.445-4.944-5.983-8.528.415-2.86 4.206-2.207 3.437.777 1.969-1.061 1.015-3.022-.838-3.368 2.015.153 3.122 1.86 4.491-.97-1.192.431-2.999.124-3.63.031 2.507-.338 3.876-.315 3.8-3.43-.854 1.87-3.223 1.9-4.938 2.508.108-.83-.146-1.338-.815-1.6.677 4.545-7.944 3.06 1.53 12.873-1.16-.638-2.514-.423-3.637-1.138.877 2.369 2.36 1.961 4.299 2.784-2.084-.016-2.73 2.015-1.184 2.984-.408-1.561 1.745-2.646 2.822-1.415 2.46 3.16-2.038 7.551-6.037-.37.03.439-.277.831-.7.693l-.446 1.253c.908.346-.492 2.107-.592 2.615-.154.338-.515.438-.777.253l-.446.923c.554.508-.93 1.946-1.1 2.392-.176.261-.484.346-.699.207l-.161.331c.03.046.053.07.061.07 1.007 1.2 1.469 2.114 1.2 3.383.822-.7 1.184-2.645.53-3.707.739.77 1.823 1.323 2.246 2.307.423 1.8.092 3.584-1.123 4.999-.515.523-.377.8-.446 1.438-.346 1.007-1.553 1.092-2.015 1.946-.323.753-.846 1.368-1.076 2.16 1.376-.215 1.138-2.137 2.437-2.522-.53.8-1.038 1.538-1.4 2.469 1.085-.285 3.138-.577 2.792-2.107-.254-.708.43-1.177.4-1.854.854-.307.661-.653 1.069-1.322.192.407.2.746.177 1.184-.108-.215-.17-.354-.246-.515-.608.83-.1 1.63-.192 2.514 2.999-2.684-.985-2.668 2.13-8.62.715-1.184-2.03-1.054-2.238-3.73-.192-1.161.823-2.107 1.038-3.214 1.2 2.138 5.39 2.06 4.814 4.783.846-.638.807-1.8.477-2.676 4.322-1.554.915-5.53 2.3-8.344m-10.198 6.852c.023-.17.923-1.654.685-1.784-.162.03-.354-.054-.416-.208-.223-.092-.792 1.53-.892 1.63.285-.176.654.116.554.446a.187.187 0 0 0 .07-.084m.899-4.283c-.008.077.015.138.061.176.162-.138.416-.077.539.085.184-.054.123-.63.161-.761a8.906 8.906 0 0 0-.669-.654zM67.634 68.472c2.906-.577.338-4.045-3.246-2.63-.315 1.376-.6 2.668-1.753 3.699 2.3.107 4.53-.039 6.675-.954 1.069-.646 1.069-2.96 2.222-4.206-1.315-.27-.7 4.23-3.898 4.09m-10.89-2.575c-3.568-1.415-6.16 2.038-3.252 2.622-3.192.138-2.576-4.353-3.891-4.091 1.153 1.246 1.153 3.568 2.222 4.206 2.145.915 4.376 1.062 6.675.962-1.154-1.03-1.438-2.33-1.753-3.7m18.986-35.52a.325.325 0 0 1-.038-.4c-.154-.03-.408 1.393-.462 1.47.1.107.193.2.277.3.139.038.362.115.408-.078l.323-1.253c-.146.13-.392.146-.508-.038m15.226 6.136a.387.387 0 0 0-.407.508c-.023-.008-.046-.016-.077-.031l-1.261-.861c-.085-.054-.108-.17-.062-.262.239-.008.492-.13.462-.423.1.123 1.453.854 1.345 1.07m-4.637-4.384c-.077.092-.23.292-.23.292-1.4-1.6-6.114-3.43-8.152-3.13 0 0 .023-.238.031-.361l-.015.008.776-.492-.66-.554c.007-.077-.424-2.76-.424-2.76l1.17-.031s-.416.484-.44.876c.07.046.124.108.162.193.239-.1.485-.585.485-.585l.115 1.584s-.323-.453-.561-.538a.333.333 0 0 1-.085.154c.338 1.053 1.876 1.122 1.876.215-.053-.469-.569-.392-.538.108-.846-.67.292-1.738.761-.662-.061-.622-.008-.976.477-1.276.316.4.27.777-.077 1.376 1.038-.96 1.43.67.462.908.477-.854-.892-.585-.392.315.46.7 1.568.592 1.96-.169a.833.833 0 0 1-.061-.146c-.385-.07-.961.261-.961.261l.538-1.468s.223.63.546.822a.585.585 0 0 1 .215-.115c.062-.384-.33-.984-.33-.984l1.8.692s-.708.177-.939.5a.41.41 0 0 1 .077.223c.369.077.976-.231.976-.231l-.638 1.423s-.192-.623-.523-.83a.518.518 0 0 1-.146.068c-.254.823.492 1.63 1.307 1.423.992-.3.208-1.423-.061-.484-.538-.823.907-1.738.977-.354.176-.661.407-.97.922-1.046.131.538-.076.83-.561 1.238 1.115-.469 1.161 1.077.092.992.37-.346.046-.738-.323-.438-.638.669.562 1.63 1.5 1.153 0-.061.015-.115.038-.169-.23-.161-.784-.184-.784-.184l1.153-.854s-.138.523-.03.792a.474.474 0 0 1 .253.023c.246-.246.262-.915.262-.915l.861 1.069s-2.16.992-2.538 1.284l-.6-.061.293.846zm-6.344-7.79c.362.13.7.315 1.061-.038-.346-.008-.453-.247-.553-.485-.17-1.184 1.768-.761 2.491-.677 1.815 1.1 4.914.4 3.838-2.23.838.515.553 1.961-.085 2.523-1.684.907-3.276.223-4.952 1.999-.254-.808-1.223-.769-1.57.13-.322.024-.407.016-.707.04-.061-.478.323-.816.477-1.262m4.491-4.56c-.538.361-1.015.907-1.561.169-.13.03-.238.046-.37.077.816-1.261.747-1.046 1.931-.246m1.83-2.876c.4.438.577.922.577 1.468-.384-.138-.554-.553-.577-1.468m-16.74 7.128 2.03-.723.745 1.5-1.415.9zm-1.308-.353c-.262 1.545-3.745.876-3.407-.662.262-1.545 3.745-.876 3.407.662m-6.929.676-2.168-1.538 2.176-1.538 2.176 1.538zm-4.983.185c-2.207.446-2.668-1.977-.454-2.384 2.207-.446 2.669 1.984.454 2.384m-4.599 1.169-1.415-.9.746-1.5 2.03.723zm26.792-4.884c.177-.015.316-.03.516-.053-.339-.246-.008-.585.269-.339.669.516-.67 1.362-.785.393m13.473 17.417-.184-.023-.5-1.353c.23-.3.361-.777-.008-1.023-.485-.192-1.861-1.76-2.269-.746-.169.062-1.253.123-1.338.33a12.296 12.296 0 0 1-1.292-2.675c.216-1.13 3.207-2.546 3.207-2.546s-.846-1.222-1.184-1.914c-.154.338-.292.192-.623.346 1.669-2.953 2.022-6.844-.185-9.636-.223-.492-.123-1.13-.338-1.6-.384-.507-.646-1.499-1.323-1.607 0 .885-.092 1.738.331 2.553.454.57-.615 1.054-.954.6.646-.069.746-.2.531-.561-2.753-.615-4.283 1.315-6.906 1.622-.23-.007-.438.077-.569.285-1.615 2.184 2.015.692 2.33 2.138-.607.5-.692.169-1.26.023-.816.03-1.608.292-.593.977-.615.976-.592 1.322-1.853 1.407.554.776.43 1.892.577 2.768-.9.17-1.515.608-1.53 1.569-.408.092-.847-.123-1.139.315-.561-.469-1.215-.553-1.892-.569a15.013 15.013 0 0 0-1.999-1.261c.17-.638.338-1.238.484-1.8.254-.16 1.162-.738 1.4-.891l-.73-1.47c1.622-5.575 2.145-5.882 2.968-6.005l.038-.154-2.991-.961-.054.192c.754.554 1 1.461.661 2.53-.807-.346-1.26-1.1-1.176-1.776a4.796 4.796 0 0 0-.2-.062l-1 3.33s.146.046.162.046c.392-.569 1.076-.884 1.876-.753-.93 2.945-5.098 2.03-4.353-.477.531-1.03 1.538-.37 1.054.715 2.338-.823.961-4.191-1.038-2.184.661-1.353 1.038-2.415.208-3.73-1.085.692-1.354 1.946-1.154 3.622-1.315-3.022-3.622.085-1.746 1.661-.346-2.237 2.423-.76.546 1.046-1.776 1.261-3.975-.184-4.037-2.414 1.03.092 1.815.7 1.923 1.46l.192.009.123-3.8-.23-.015c-.162.769-1 1.423-2.054 1.446.07-1.177.738-2.092 1.607-2.238v-.215h-4.383v.215c.869.146 1.538 1.061 1.607 2.238-1.053-.023-1.892-.677-2.053-1.446-.015 0-.23.016-.23.016l.122 3.799.192-.008c.108-.762.892-1.37 1.923-1.461-.062 2.23-2.26 3.675-4.037 2.414-1.877-1.807.892-3.283.546-1.046 1.876-1.576-.43-4.683-1.746-1.66.2-1.677-.07-2.93-1.146-3.623-.83 1.315-.461 2.377.2 3.73-2-2.007-3.376 1.369-1.038 2.184-.484-1.084.523-1.746 1.054-.715.746 2.507-3.422 3.422-4.353.477.8-.131 1.484.184 1.876.753.016 0 .162-.046.162-.046l-1-3.33s-.184.054-.2.062c.085.676-.369 1.43-1.169 1.776-.346-1.069-.1-1.976.654-2.53l-.046-.192-3 .96.047.155c.815.123 1.338.43 2.96 6.006-.13.269-.607 1.222-.73 1.468.23.146 1.153.73 1.4.892.138.508.284 1.054.438 1.63.008 0 .015-.007.015-.007 0 .015-.007.023-.015.008-4.03 1.884-3.115 3.168-6.221 2.799-.277.638-.539 1.276-1.17 1.715-.115-.985-.553-1.754-1.13-2.446-.284-.33-.676.039-1.107.07-.838 1.83-1.423.176-2.907 1.138.062.853.192 1.707.662 2.491-1.108-.077-2.015-.377-2.746-.892-3.299 3.684-6.736 7.221-9.558 11.274-1.508 1.992-5.537.83-4.468-1.907.484-2.007 3.376-1.577 3.191.407 1.43-1.592.508-3.168-1.669-2.814 2-.87 3.207.769 5.014-1.484-1.384.038-2.553-.4-3.93-.085 1.738-1.046 4.13.507 5.622-2.369-1.3.139-2.469.677-3.807.877 8.044-7.667.3-8.044 1.285-11.366-.631.539-.985 1.07-.7 1.784-1.8-.753-4.468-.53-5.199-2.714-.176 3.114 1.192 2.891 3.545 3.53-1.084-.131-2.16-.139-3.176-.508.208 1.392 1.27 1.692 2.515 1.561-1.223.677-.938 2.415.3 3.014-.792-4.514 5.96-2.968 2.876 1.177-1.43 2.13-3.499 3.722-5.244 5.583-.323-.57-.67-1.138-1.43-1.054 1.33 1.53-.17 3.192-.524 4.776-.507 1.953 1.215 3.614 3.06 3.837-.737.877-.791 1.654-.222 2.369.554-2.869 4.714-2.223 5.106-5.33.07-.36.246-.645.654-.815-1.877 2.123 2.63 6.606-1.608 7.13-.6.015-.753.653-.415 1.099-1.745-.085-2.23.577-2.499 2.23.769-.2 1.492-.385 2.215-.577-.762 2-2.492-.115-2.207 3.438.707-.339 1.368-.7 2.014-1.1.631 1.992-3.168 1.13-.315 4.314.177-.592.938-1.815 1.33-2.084-.353 1-.269 2.16.854 2.607.054-.262.1-.5.146-.738h.092c.162.661.185 1.584.823 1.968.216.085.331.2.4.423.116.37.462.47.792.515.423.085.53-.392.838-.584.085.53.708.608 1.008 1.054.238-2.584-3.2-1.646-2.407-3.353.3 1.038 1.276.815 1.953 1.238.27.438.908.792 1.238.192.323.239.608.454.892.67-.669-3.077-2.26-1.177-3.268-2.785.7.031 1.446 1.07 2.2.354.407.423.722.908 1.03 1.407.123-.984-.246-1.738-1.023-2.284-.869-.53-2.053.423-2.8-.645-1.014-1.262-.991-3.023-.46-4.484.492-1.115 1.845-1.538 2.468-2.599-.17.938-.085 2.568.977 2.876-.262-1.746.976-3.307 1.23-4.99.323-.424.338-.754.046-1.216-.53-.861-.677-1.907-1.253-2.753-.908-1.269-2.015-1.3-.177-2.637-1.115 1.738-.208 1.107.761 2.737.177-.546 1-1.269-.03-1.269-1.623-.792 2.114-2.86 2.96-2.914.83-.07 2 .023 2.63-.792-.4-.754-.777-.862-.108-1.638-.453-.27-.853-.585-.93-1.177-.43.146-.815.285-1.261.439.407-.462 1.607-1.4 1.738-.362.03.577.607.685 1.053.83-.33.477-.876.954-.377 1.516.346.361.562 1.045 1.1 1.138.138-.539.277-1.062.423-1.592 1.184 1.238-1.184 1.93 2.06 3.045-.122-.669-.222-1.315-.138-2.015 1.57 1.308-.676 2.13 2.93 2.561-.4-.477-.492-1.007-.646-1.538.608.092 1.092.677 1.477 1.107.377.562.646.87 1.492.316.038.1.054.238.123.292.377.292.23.638.223 1.03h.1c.5-.507.538-1.092.384-1.722-.353-1.192-1.807-.246-2.322-1.461.692.469 1.376.738 2.13.346.423.4.6.692.807 1.253.347-1.284-.053-2.591-1.407-2.207-.423.146-.6.116-1.023-.254.631.216 1.046-.107 1.446-.392.092.108.146.239.2.246.385.023.63.254.87.531.122-1.1-.97-1.992-2.07-1.707-.276 1.346-1.407.584-2.307.407-1.391-.815-2.122-2.384-3.352-3.399.115-1.515-1.138-2.714-2.653-2.63 1.36-.592 2.983.577 3.091 2 .046.584.4.953.777 1.384 4.606-9.266 19.478-11.689 28.022-5.806.73.661 1.523 1.207 2.276 1.907.292-.884.123-1.938 1.438-1.4l.246-.169c-.269-.745.293-1.591 1.077-1.645v.584c-.346.054-.615.392-.554.746.262-.054.5.292.354.515.254.146.6.085.792-.115.215.008.438.03.654.054-.3.715-1.338.953-1.923.43l-.008.008c.116.154-.392 1.723-.415 1.915a.495.495 0 0 1-.5.37l.254.422c.377-.207.9-.2.846-.723.077-.307-.123-1.691.307-1.56.177.522-.153 1.13.239 1.645 1.23-.3.692-1.423 2.184-1.707.592-.054 1.845-.346 2.168.246-1.307-.346-2.991.016-3.283 1.5-1.354.322-2.5 1.291-3.945 1.291-1.146.062-1.454 1.446-1.507 2.392-.193 1.084-.247 2.207-.731 3.214-.238.385-.038.83.092 1.185.439.238.754 1.76.815 2.307 0 .992 1.708 1.33 2.4 1.945.192-1.246-2.169-.892-1.838-2.637.423 1.16 1.338 1.391 2.345 1.96-.315-1.168-.407-3.106-2.038-2.868-.63-.869.285-.923-.008-1.96.47.145.692.307.816.599-.147-.046-.277-.085-.477-.154.054.738.7.915 1.192 1.423-.085-1.207-.193-1.976-1.315-2.56-.646-.585.092-1.931.053-2.739-.023-.238 1.5-1 1.738-.93 1.13.146 2.315-.03 3.415.254 1.092.338.154-2.03 1.915-.785-1.277-.369-.5 1.023-1.423 1.092-.638.008-1.192-.053-1.861-.077 2.315 5.16 7.467 3.653 8.874 8.26 1.192-1.046.385-1.031.054-2.123 2.668 1.784-2.492 3.845-.554 6.967-.123-.346 1.092-1.807 1.23-2.107.224-.33.593-.354.839-.115l.384-.8c-.715-.392.585-2.084.677-2.56.139-.293.446-.431.685-.308l.361-1c-.684-.185-.17-1.838-.223-2.3-.961-.86-1.738-1.945-2.484-2.945l.462-.077c-.054.223.03.47.215.6.33.13 1.592 1.346 1.984 1.061l.2.53c-.323.086-.377.532-.377.831.17.147.346.277.515.431.023-.108.008-.6.1-.677.154.2.423.2.585.046.154.077-.031 1.146-.016 1.277.185.2.362.408.523.63-.069-.492.539-2.36-.3-2.453M419.751 219.457c.146 3.7 3.407 4.868 6.775 4.868 2.584 0 6.083-.584 6.083-3.745 0-6.483-16.464-2.1-16.464-11.796 0-5.068 4.967-7.16 9.405-7.16 5.652 0 9.935 1.754 10.327 7.89h-4.137c-.246-3.214-3.168-4.237-5.852-4.237-2.484 0-5.36.684-5.36 3.214 0 2.923 4.391 3.507 8.236 4.384 4.145.93 8.236 2.338 8.236 7.167 0 6.036-5.606 7.936-10.72 7.936-5.652 0-10.428-2.284-10.674-8.52zm-18.463-17.248h3.898v5.306h.1c2-4.091 4.776-6.037 9.26-5.89v4.383c-6.676 0-9.113 3.752-9.113 10.181v11.204h-4.145zm-9.136 0h4.137V227.4h-4.137zm4.137-4.53h-4.137v-5.067h4.137zm-13.927 16.71c-3.214 2.385-12.573.047-12.573 6.237 0 2.723 2.338 3.7 4.876 3.7 5.452 0 7.697-3.361 7.697-5.7zm6.722 12.912c-.731.439-1.754.677-2.969.677-2.145 0-3.514-1.169-3.514-3.891-2.284 2.722-5.352 3.89-8.867 3.89-4.575 0-8.328-1.99-8.328-7.059 0-5.705 4.237-6.967 8.528-7.751 4.53-.923 8.475-.53 8.475-3.699 0-3.66-3.023-4.191-5.606-4.191-3.507 0-6.09 1.069-6.283 4.776h-4.137c.238-6.237 5.014-8.429 10.666-8.429 4.537 0 9.45 1.023 9.45 6.914v12.965c0 1.946 0 2.822 1.323 2.822.385 0 .823-.1 1.262-.238zm-33.706-21.44h-4.245v-3.652h4.245v-3.753c0-4.091 2.43-6.237 6.96-6.237.784 0 1.907.146 2.684.385v3.607c-.731-.239-1.608-.339-2.338-.339-2 0-3.169.63-3.169 2.83v3.507h4.868v3.652h-4.868v21.532h-4.137zm-14.626 0h-4.245v-3.652h4.245v-3.753c0-4.091 2.43-6.237 6.96-6.237.784 0 1.906.146 2.683.385v3.607c-.73-.239-1.607-.339-2.338-.339-1.999 0-3.168.63-3.168 2.83v3.507h4.868v3.652h-4.868v21.532h-4.137zm-25.146 7.16h11.788l-5.798-16.226h-.1zm3.452-20.41h5.122l13.588 34.782h-5.114l-3.799-10.473h-14.718l-3.9 10.473h-4.767zm-33.274 0h4.145v34.79h-4.145zm-9.79 21.779c-3.214 2.384-12.573.046-12.573 6.236 0 2.723 2.338 3.7 4.876 3.7 5.46 0 7.697-3.361 7.697-5.7zm6.721 12.911c-.73.439-1.753.677-2.968.677-2.145 0-3.507-1.169-3.507-3.891-2.291 2.722-5.36 3.89-8.866 3.89-4.583 0-8.336-1.99-8.336-7.059 0-5.705 4.237-6.967 8.528-7.751 4.53-.923 8.482-.53 8.482-3.699 0-3.66-3.022-4.191-5.606-4.191-3.506 0-6.09 1.069-6.283 4.776h-4.145c.247-6.237 5.014-8.429 10.667-8.429 4.537 0 9.458 1.023 9.458 6.914v12.965c0 1.946 0 2.822 1.315 2.822.385 0 .83-.1 1.261-.238zm-37.673-25.092h3.899v5.306h.092c2-4.091 4.776-6.037 9.259-5.89v4.383c-6.675 0-9.113 3.752-9.113 10.181v11.204h-4.137zm-4.96 25.184h-3.899v-3.99h-.1c-1.753 3.114-4.53 4.575-8.182 4.575-6.629 0-8.674-3.799-8.674-9.205v-16.564h4.145v17.048c0 3.123 1.945 5.068 5.113 5.068 5.014 0 7.452-3.36 7.452-7.89V202.21h4.145zm-38.012-18.755c4.291 0 8.044-1.123 8.044-6.19 0-3.454-1.853-5.945-6.19-5.945h-11.497v12.135zm-14.272-16.026h16.372c6.575 0 10.573 3.506 10.573 9.105 0 4.244-1.807 7.651-6.044 8.82v.1c4.045.777 4.822 3.799 5.214 7.16.246 3.36.1 7.259 2.045 9.597h-5.167c-1.315-1.408-.585-5.16-1.261-8.575-.539-3.36-1.323-6.283-5.799-6.283h-11.304v14.858h-4.63zm-29.038 7.351c0-1.991-1.515-3.699-3.999-3.699-1.945 0-3.99 1.17-3.99 3.7 0 2.099 1.845 4.144 3.36 6.044 1.992-1.315 4.63-3.023 4.63-6.045m-5.999 10.628c-3.26 1.8-6.037 3.753-6.037 7.844 0 3.506 3.26 5.89 6.621 5.89 3.169 0 5.706-1.607 7.406-4.137zm10.282 12.473c-2.092 3.26-6.037 4.914-9.844 4.914-9.397 0-10.866-6.667-10.866-9.497 0-5.406 3.707-8.19 8.136-10.528-1.945-2.722-3.845-4.675-3.845-8.182 0-3.753 2.776-7.16 7.844-7.16 4.337 0 8.428 2.384 8.428 7.106 0 4.199-3.168 7.067-6.528 9.02l6.29 7.652c.63-1.76 1.023-3.56 1.115-5.414h3.945c-.384 4.191-.877 5.414-2.338 8.575l6.775 7.843h-5.406zm-49.84 1.261c5.599 0 7.69-4.821 7.69-9.497 0-4.922-2.237-9.551-7.935-9.551-5.653 0-7.552 4.822-7.552 9.743 0 4.73 2.43 9.305 7.798 9.305m11.688 3.068h-4.137v-3.406h-.1c-1.369 2.776-4.53 3.99-8.044 3.99-7.743 0-11.588-6.136-11.588-13.249s3.798-13.104 11.496-13.104c2.53 0 6.329.977 8.136 3.945h.1v-12.957h4.137zm-38.603-3.068c4.337 0 7.843-3.406 7.843-9.497 0-6.09-3.506-9.551-7.843-9.551-4.338 0-7.844 3.46-7.844 9.551 0 6.09 3.506 9.497 7.844 9.497m0-22.7c7.99 0 12.227 5.79 12.227 13.203 0 7.352-4.238 13.15-12.227 13.15-7.99 0-12.228-5.798-12.228-13.15 0-7.413 4.238-13.204 12.228-13.204m-26.954 22.701c4.33 0 7.836-3.406 7.836-9.497 0-6.09-3.506-9.551-7.836-9.551-4.337 0-7.851 3.46-7.851 9.551 0 6.09 3.514 9.497 7.851 9.497m0-22.7c7.99 0 12.227 5.79 12.227 13.203 0 7.352-4.237 13.15-12.227 13.15-7.998 0-12.235-5.798-12.235-13.15 0-7.413 4.237-13.204 12.235-13.204m-36.128-9.02h22.847v3.899H27.838v11.066h15.98v3.89h-15.98v15.934h-4.63zm318.351-42.81h5.014v3.652h-5.014v15.642c0 1.945.53 2.238 3.115 2.238h1.9v3.652h-3.17c-4.282 0-5.99-.876-5.99-5.506v-16.026h-4.283v-3.652h4.283v-7.56h4.145zm-31.49 0h3.899v3.99h.092c1.753-3.114 4.537-4.582 8.19-4.582 6.62 0 8.674 3.806 8.674 9.212v16.564h-4.145V157.93c0-3.122-1.945-5.068-5.114-5.068-5.021 0-7.459 3.36-7.459 7.89v14.226h-4.137zm-7.79 10.181c-.246-3.945-3.122-7.113-7.26-7.113-4.29 0-6.967 3.214-7.213 7.113zm3.99 7.013c-1.114 5.607-5.067 8.575-10.765 8.575-8.036 0-11.843-5.598-12.081-13.25 0-7.598 4.968-13.104 11.835-13.104 8.92 0 11.65 8.328 11.404 14.419h-18.856c-.146 4.383 2.338 8.282 7.844 8.282 3.46 0 5.798-1.607 6.529-4.922zm-61.865-17.194h3.899v3.699h.092c1.9-2.877 4.583-4.291 8.136-4.291 3.122 0 5.898 1.176 6.92 4.29 1.708-2.73 4.63-4.29 7.899-4.29 5.013 0 8.374 2.099 8.374 7.313v18.463h-4.137V158.46c0-3.114-.83-5.598-4.876-5.598-4.045 0-6.575 2.53-6.575 6.429v15.687h-4.145V158.46c0-3.26-1.022-5.598-4.721-5.598-4.876 0-6.729 4.483-6.729 6.429v15.687h-4.137zm-25.862 0h3.9v3.99h.1c1.752-3.114 4.529-4.582 8.181-4.582 6.63 0 8.675 3.806 8.675 9.212v16.564h-4.138V157.93c0-3.122-1.953-5.068-5.121-5.068-5.014 0-7.452 3.36-7.452 7.89v14.226h-4.145zm-15.956 22.116c4.337 0 7.843-3.407 7.843-9.497s-3.506-9.551-7.843-9.551c-4.338 0-7.844 3.46-7.844 9.55 0 6.091 3.506 9.498 7.844 9.498m0-22.7c7.99 0 12.234 5.79 12.234 13.203 0 7.352-4.245 13.15-12.234 13.15-7.99 0-12.228-5.798-12.228-13.15 0-7.413 4.238-13.204 12.228-13.204m-25.947.585h3.9v5.306h.092c1.999-4.091 4.775-6.045 9.258-5.898v4.39c-6.675 0-9.112 3.753-9.112 10.182v11.204h-4.138zm-9.143 0h4.145v25.192h-4.145zm4.145-4.53h-4.145v-5.068h4.145zm-16.095 29.714h-4.43l-9.358-25.184h4.629l7.067 20.993h.092l6.875-20.993h4.33zm-36.32-25.184h3.899v3.99h.1c1.753-3.114 4.53-4.582 8.182-4.582 6.629 0 8.674 3.806 8.674 9.212v16.564h-4.145V157.93c0-3.122-1.945-5.068-5.114-5.068-5.013 0-7.451 3.36-7.451 7.89v14.226h-4.145zm-27.5-9.605h24.016v3.899H96.356v11.066h18.071v3.89H96.356v12.043h19.532v3.891H91.726Zm-29.63 9.605h3.9v5.306h.1c1.999-4.091 4.775-6.045 9.258-5.898v4.39c-6.675 0-9.112 3.753-9.112 10.182v11.204h-4.145ZM46.21 171.91c4.337 0 7.844-3.407 7.844-9.497s-3.507-9.551-7.844-9.551-7.844 3.46-7.844 9.55c0 6.091 3.507 9.498 7.844 9.498m0-22.7c7.99 0 12.235 5.79 12.235 13.203 0 7.352-4.245 13.15-12.235 13.15-7.99 0-12.227-5.798-12.227-13.15 0-7.413 4.237-13.204 12.227-13.204m-21.978 4.237h-4.237v-3.652h4.237v-3.753c0-4.091 2.438-6.237 6.967-6.237.785 0 1.9.146 2.684.385v3.606c-.73-.238-1.615-.338-2.345-.338-1.992 0-3.16.63-3.16 2.83v3.507h4.867v3.652h-4.868v21.532h-4.145zM261.768 97.38h5.014v3.652h-5.014v15.642c0 1.945.538 2.238 3.114 2.238h1.9v3.652h-3.16c-4.292 0-6-.876-6-5.506v-16.026h-4.282V97.38h4.283v-7.56h4.145zm-31.49 0h3.898v3.99h.092c1.761-3.114 4.537-4.575 8.19-4.575 6.629 0 8.675 3.799 8.675 9.205v16.564h-4.145v-17.048c0-3.123-1.946-5.068-5.114-5.068-5.022 0-7.46 3.36-7.46 7.89v14.226h-4.137zm-7.79 10.181c-.247-3.945-3.123-7.113-7.26-7.113-4.291 0-6.967 3.214-7.213 7.113zm3.99 7.013c-1.115 5.606-5.067 8.575-10.766 8.575-8.036 0-11.842-5.599-12.08-13.25 0-7.598 4.967-13.104 11.842-13.104 8.913 0 11.643 8.328 11.397 14.419h-18.856c-.146 4.383 2.337 8.282 7.843 8.282 3.461 0 5.799-1.607 6.53-4.922zM164.612 97.38h3.9v3.698h.1c1.899-2.876 4.575-4.283 8.135-4.283 3.115 0 5.89 1.169 6.913 4.283 1.708-2.73 4.63-4.283 7.898-4.283 5.022 0 8.382 2.092 8.382 7.306v18.463h-4.145v-16.518c0-3.114-.83-5.598-4.875-5.598s-6.575 2.53-6.575 6.429v15.687h-4.137v-16.518c0-3.26-1.023-5.598-4.73-5.598-4.875 0-6.72 4.483-6.72 6.429v15.687h-4.146zm-8.105 0h5.022v3.652h-5.022v15.642c0 1.945.538 2.238 3.122 2.238h1.9v3.652h-3.169c-4.283 0-5.99-.876-5.99-5.506v-16.026h-4.284V97.38h4.284v-7.56h4.137zm-22.709 0h3.9v5.306h.092c1.999-4.091 4.775-6.045 9.258-5.89v4.382c-6.675 0-9.112 3.753-9.112 10.182v11.204h-4.138zm-9.535 12.18c-3.215 2.384-12.566.047-12.566 6.237 0 2.722 2.338 3.699 4.868 3.699 5.46 0 7.698-3.36 7.698-5.698zm6.729 12.912c-.731.438-1.754.677-2.976.677-2.146 0-3.507-1.17-3.507-3.891-2.292 2.722-5.36 3.89-8.867 3.89-4.583 0-8.336-1.991-8.336-7.059 0-5.706 4.245-6.967 8.529-7.751 4.537-.923 8.482-.53 8.482-3.7 0-3.66-3.023-4.19-5.606-4.19-3.507 0-6.09 1.069-6.283 4.775h-4.145c.246-6.236 5.022-8.428 10.674-8.428 4.53 0 9.45 1.023 9.45 6.913v12.966c0 1.945 0 2.822 1.316 2.822.392 0 .83-.1 1.269-.238zm-38.127-22.024c-5.606 0-7.698 4.822-7.698 9.497 0 4.922 2.238 9.551 7.944 9.551 5.652 0 7.551-4.822 7.551-9.743 0-4.73-2.438-9.305-7.797-9.305m-11.697-3.068h4.145v3.406h.092c1.37-2.776 4.537-3.99 8.044-3.99 7.744 0 11.596 6.136 11.596 13.249 0 7.16-3.798 13.104-11.504 13.104-2.53 0-6.329-.97-8.136-3.945h-.092v13.011h-4.145zm-7.86 10.181c-.238-3.945-3.114-7.113-7.259-7.113-4.283 0-6.967 3.214-7.205 7.113zm4 7.013c-1.123 5.606-5.068 8.575-10.766 8.575-8.044 0-11.843-5.599-12.09-13.25 0-7.598 4.976-13.104 11.844-13.104 8.912 0 11.642 8.328 11.404 14.419H58.844c-.146 4.383 2.338 8.282 7.844 8.282 3.453 0 5.798-1.607 6.529-4.922zm-49.47 4.091h7.698c3.168 0 11.696-.868 11.696-13.688 0-8.282-3.068-13.303-11.597-13.303h-7.797Zm-4.63-30.883h11.943c10.712 0 16.71 5.406 16.71 16.565 0 11.642-5.121 18.217-16.71 18.217H23.208Zm0 0"/>
</svg>
