<svg width="313" height="100" xmlns="http://www.w3.org/2000/svg">
  <path d="M269.713 62.53h-19.084V37.755h19.084z" fill="#fff"/>
  <path d="m226.777 41.306-4.771-8.263 4.771-8.263h9.545l4.764 8.263-4.77 8.263zM255.4 24.78l-4.771-8.262 4.771-8.26h9.545l4.766 8.258-1.745 3.025-3.025 5.24zm-28.623 49.58-4.771-8.265 4.771-8.263h-.002 9.547l4.764 8.267-4.77 8.264zm57.246-33.054-4.771-8.263 4.771-8.263h9.545l4.764 8.263-4.768 8.263zM255.4 90.884l-4.771-8.265 4.771-8.26h9.545l4.768 8.26-4.771 8.265zm28.623-16.524-4.771-8.265 4.771-8.266h9.545l4.764 8.266-4.767 8.265z" fill="#66c430"/>
  <path d="m241.09 16.517-4.768-8.259L241.09 0h9.539l4.771 8.258-4.771 8.26zm28.622-.004-4.767-8.254 4.767-8.26h9.54l4.771 8.26-4.771 8.254zm-57.245 49.583-4.772-8.265 4.772-8.263h9.539l4.77 8.263-4.77 8.265zm14.31 24.788-4.771-8.265 4.771-8.26h9.545l4.764 8.26-4.77 8.265zm71.56-24.788-4.77-8.268 4.77-8.263h9.538l4.768 8.263-4.772 8.268zm-14.314 24.788-4.771-8.265 4.771-8.26h9.545l4.764 8.26-4.768 8.265zm-33.394-41.319h-9.54l-4.767-8.259 4.768-8.263h9.539l4.771 8.263zm28.623 0h-9.54l-4.767-8.259 4.768-8.263h9.539l4.771 8.263zM255.4 74.36l-4.771-8.265 4.771-8.266h9.545l4.767 8.266-4.77 8.265z" fill="#a6d71c"/>
  <path d="M250.629 33.043h-9.54l-4.767-8.263 4.768-8.263h9.539l4.771 8.263zm-23.852 24.785-4.771-8.259 4.771-8.263h9.545l4.764 8.263-4.77 8.26zm52.475-24.785h-9.54l-4.767-8.263 3.021-5.24 1.747-3.023h-.002 9.541l4.771 8.266zM250.629 82.62h-9.54l-4.767-8.261 4.768-8.263h9.539l4.771 8.263zm33.394-24.792-4.771-8.263 4.771-8.259h9.545l4.764 8.26-4.768 8.262zm-4.771 24.792h-9.54l-4.767-8.261 4.768-8.263h9.539l4.771 8.263z" fill="#e6ea08"/>
  <path d="m226.777 24.78-4.771-8.262 4.771-8.26h9.545l4.764 8.26-4.77 8.262zm-14.31 24.789-4.772-8.263 4.772-8.263h9.539l4.771 8.263-4.771 8.263zm71.556-24.789-4.771-8.268 4.771-8.254h9.545l4.764 8.254-4.768 8.268zm14.314 24.785-4.77-8.259 4.77-8.263h9.538l4.768 8.263-4.772 8.26zM241.09 99.147l-4.768-8.264 4.768-8.263h9.539l4.771 8.263-4.771 8.265zm28.622 0-4.767-8.264 4.767-8.263h9.54l4.771 8.263-4.771 8.265zM255.4 41.306l-4.771-8.263 4.771-8.263h9.545l4.768 8.263-4.771 8.263zm-14.31 24.79-4.768-8.268 4.768-8.263h9.539l4.771 8.263-4.771 8.268zm28.622 0-4.767-8.268 4.767-8.263h9.54l4.771 8.263-4.771 8.268zM168.755 96.737l-2.173 1.916c-.93.775-2.018 1.346-3.88 1.346h-11.49v-3.262h9.988c1.553 0 2.07-.257 3.312-1.241l.984-.775c.724-.57 1.344-1.346 1.344-2.432v-3.158h-8.485c-1.81 0-2.896-.414-3.934-1.346l-3.312-3c-.982-.934-1.447-1.658-1.447-3.21V62.893h3.827v16.715c0 1.762.622 2.69 1.862 3.83l1.09.983c.828.777 1.861 1.45 3.776 1.45h6.624V62.893h3.831v29.705c0 1.863-.313 2.691-1.916 4.139m-33.185-30.583v22.979h-3.83V65.015l1.966-2.122h11.282v3.26zm-12.539 22.978c-1.862 0-3.053-.414-3.985-1.19l-2.122-1.864c-1.553-1.399-1.81-2.33-1.81-4.244V57.201h3.83v5.691h8.124v3.261h-8.125v15.32c0 .877.312 1.758 1.5 2.793l.621.52c1.193.98 1.864 1.085 3.416 1.085h2.588v3.261zm-13.986-2.588-2.07 1.603c-.778.57-2.018.984-3.417.984H89.483v-3.26h13.197c1.138 0 1.759-.207 2.329-.62l.88-.674c.464-.362.931-1.088.931-1.862v-2.021c0-1.705-.829-2.483-3.107-2.691l-9.314-.928c-3.986-.415-5.434-2.642-5.434-5.333v-2.796c0-1.912.57-2.843 1.4-3.465l2.068-1.605c.776-.568 2.017-.983 3.414-.983h12.99v3.261H96.728c-1.138 0-1.759.206-2.329.619l-.879.673c-.467.362-.932 1.088-.932 1.864v1.603c0 1.605.829 2.383 3.002 2.59l8.798.879c4.45.465 6.055 2.381 6.055 5.278v3.417c0 1.914-.57 2.844-1.397 3.467M80.361 62.892h3.829v26.24h-3.83zm-.103-9.055h4.035v4.915h-4.035zm-8.501 12.317h-7.142c-1.812 0-2.794.466-3.726 1.192l-1.397 1.032c-.621.466-1.605 1.552-1.605 3.677v7.914c0 2.125.984 3.21 1.605 3.677l1.397 1.034c.932.724 1.914 1.19 3.726 1.19h7.142zm1.914 30.583-2.173 1.916c-.934.774-2.02 1.346-3.881 1.346h-11.23v-3.262h9.728c1.552 0 2.07-.256 3.313-1.242l.982-.774c.726-.569 1.347-1.347 1.347-2.432v-3.156h-8.849c-1.554 0-2.951-.416-4.66-1.815l-2.587-2.119c-1.033-.881-1.605-2.072-1.605-4.506v-9.364c0-2.432.572-3.62 1.605-4.502l2.588-2.123c1.708-1.397 3.054-1.811 4.607-1.811h12.73v29.705c0 1.862-.312 2.691-1.915 4.139M45.659 71.329c0-2.123-.88-3.208-1.5-3.675l-1.294-1.033c-.88-.726-1.759-1.242-3.518-1.242h-1.192c-1.76 0-2.639.516-3.518 1.242l-1.294 1.033c-.62.467-1.45 1.552-1.45 3.675v2.74h13.766zm1.759 5.847H31.894v2.848c0 2.122.828 3.208 1.45 3.673l1.293.983c.93.673 1.759 1.19 3.518 1.19h9.782v3.263H36.395c-1.45 0-2.691-.416-4.347-1.813l-2.486-2.121c-.983-.881-1.448-2.072-1.448-4.506v-9.726c0-2.434.465-3.62 1.448-4.502l2.486-2.124c1.656-1.396 2.897-1.81 4.347-1.81h4.657c1.45 0 2.693.414 4.349 1.81l2.482 2.124c.985.881 1.5 2.068 1.5 4.502v4.139zm-28.58-16.56c0-1.398-.465-2.38-1.346-3.105l-1.345-1.19c-.88-.724-1.605-.985-3.726-.985H3.779V70.5h8.642c2.121 0 2.847-.258 3.726-.982l1.345-1.14c.88-.724 1.346-1.757 1.346-3.156zm.517 28.517v-3.624c0-1.034-.155-2.123-.827-3.312l-4.503-8.436H3.779v15.372H.001V54.2l2.07-2.123h11.384c3.778 0 4.503 1.139 7.194 3.468 1.708 1.449 2.173 2.638 2.173 4.348v6.21c0 1.759-.465 2.95-2.225 4.347l-2.742 2.224 4.709 8.591c.724 1.345.88 2.743.88 4.037v3.83zm147.486-74.355h-7.142c-1.811 0-2.792.467-3.726 1.191l-1.395 1.035c-.622.467-1.605 1.553-1.605 3.675v7.919c0 2.12.983 3.206 1.605 3.671l1.395 1.039c.934.724 1.915 1.189 3.726 1.189h7.142zm1.864 22.978h-10.712c-1.553 0-2.952-.415-4.658-1.81l-2.588-2.122c-1.035-.88-1.605-2.07-1.605-4.502v-9.368c0-2.432.57-3.623 1.605-4.502l2.588-2.121c1.706-1.397 3.053-1.812 4.605-1.812h8.901V.702h3.831v34.935zm-27.788 0V21.04c0-1.757-.621-2.691-1.862-3.83l-1.088-.982c-.829-.776-1.862-1.45-3.778-1.45h-6.625v22.978h-3.829V13.641l1.967-2.121h10.35c1.812 0 2.898.412 3.933 1.344l3.313 3.002c.98.932 1.448 1.656 1.448 3.208v18.682zM114.991 24.87h-8.693c-1.19 0-1.914.156-2.588.726l-.984.827c-.568.517-.983 1.037-.983 1.862v2.899c0 .776.362 1.348.932 1.81l1.19.985c.519.415 1.242.62 2.433.62h8.693zm1.864 12.886h-11.644c-1.709 0-3.106-.57-4.088-1.448l-1.397-1.295c-1.243-1.139-1.708-2.172-1.708-3.777v-3.002c0-1.603.465-2.638 1.708-3.778l1.55-1.397c1.036-.932 2.434-1.345 4.14-1.345h9.575v-2.587c0-1.086-.619-1.813-1.346-2.434l-.878-.776c-1.19-1.034-1.76-1.242-3.315-1.242h-8.744v-3.156h10.195c1.864 0 2.95.569 3.882 1.345l2.12 1.862c1.606 1.4 1.917 2.278 1.917 4.142v16.769zm-39.382 0V.702h3.882v33.64h14.593v3.414zm-18.168 0V6.396l-9.574 20.65a9.401 9.401 0 0 0-.88 3.932v3.364h-3.88v-3.364c0-1.656-.466-3.002-.88-3.932l-9.678-20.65v31.36h-3.675V.702h4.71l11.59 24.169L58.426.702h4.708v37.054zm-38.137 0V19.54H3.881v18.216H.001V.703h3.88v15.422h17.287V.703h3.88v37.053z" fill="#a7a5a6"/>
</svg>