<svg width="296" height="200" xmlns="http://www.w3.org/2000/svg">
  <path fill="#00685c" d="M0 191.26h3.497V.821H0z"/>
  <path d="M86.8 24.51c.57 1.605 1.748 2.212 2.676 1.784-2.034-.214-.393-3.675-2.997-3.675-.143 0-.285 0-.429.037-.428-.464-.927-.678-1.676-.678-1.106 0-2.997 1.07-2.997 3.282 0 4.71 5.494 5.138 5.494 9.312 0 1.213-.928 1.962-1.962 1.962-.928 0-1.677-1.035-2.426-2.64-.393-.785-1.177-1.82-2.034-2.926.25.178.536.285.82.285.285 0 .571-.107.75-.285.213-.178.32-.464.32-.749v-.036c0-.393-.142-.749-.427-1.07a1.446 1.446 0 0 0-1.07-.5c-.286 0-.572.073-.785.285-.178.178-.285.428-.322.713v.073c0 .143.037.322.107.464-1.177-1.534-2.283-3.032-2.283-3.888 0-.714.5-1.356 1.141-2.14l.214.106.143-.178c.25-.25.677-.749 1.64-1.748l.074-.073h-.037l.25-.25-.607-.465c.178-.357.322-.713.393-1.141.178.749.57 1.248 1.106 1.07-.321-.784.393-1.82-.107-3.746.464.749 1.106 1.142 1.57.999-1.213-1.07.357-2.569-1.213-4.923.5.178.856.073 1.07-.178-1.427-.178-.784-2.034-3.318-2.712.642-.107 1-.464.928-.784-.678.464-1.249-.892-3.46-.856-.143-.82-.892-1.712-1.749-2.105.143.607 0 1.177-.178 1.677l-7.135-7.028c-.214-.178-.322-.25-.393-.178-.036.073-.036.213.073.357l6.172 7.706c-.464.142-.927.357-1.391.535-.322.107-.57.393-.535.785-1.142.57-2.14 1.284-2.64 1.712-.393.357-.678.428-.357 1.213.142.285-.25 1.035.606.464.606-.32 1.927-1.07 2.105-.606.107.249-.535.57-.999.713-.428.178-.928.535-.856.713.073.178.429-.036.464.178.037.178.143.357.357.357.143 0 .393-.357.536-.25.142.143-.074.964-.214 1.178.677-.073 1.141-.749 1.177-1.248 0-.536.143-.643.25-.714.107-.073.214.535.107.928.357-.073.75-.571.678-1.463.178-.142.357-.25.535-.25.214 0 .678.643 1.32.643 1.249 0 1.89-1 1.998-1.463.036-.357 0-.713-.178-.999.428.357.57.892.57 1.32 0 1.713-3.032 2.497-4.316 3.71a.481.481 0 0 0-.107.143l-1.463-.57-.073.32s-.036.073-.073.25c-.178.5-.464 1.534-.678 2.105l-.073.25.143.072c-.856 1.106-1.534 2.39-1.677 3.675a8.663 8.663 0 0 0-1.07-.928c.036-.142.073-.285.073-.428a1.307 1.307 0 0 0-.322-.999c-.178-.178-.392-.32-.642-.32s-.5.072-.713.249a.481.481 0 0 0-.107.142c-.073-.036-.107-.073-.142-.107-.5-.392-1.07-.82-1.427-1.213-.143-.142-.285-.25-.607-.25h-.642c-.214 0-.357.143-.57.357-.143.107-.465.357-.82.642.177.178.356.357.534.571.073.107.178.214.25.32.106-.072.178-.142.249-.213.142-.107.357-.143.535-.143.178 0 .428.143.607.429.142.178 1.284 1.677 2.247 2.747l-.285.107c-.428.178-1.356.142-1.748.107-.428-.037-.5-.143-.784.321a7.25 7.25 0 0 0-.358.535c-.142.143-.25.357.037.821.428.714 1.463 2.605 1.82 3.46.32.857.748.964 1.427 1.25.642.284 1.783.927 1.926 1.07l.037-.642c-.179-.214-.82-.429-1.07-.535-.25-.074-.286-.179 0-.179.284 0 1.07.285 1.64.5-.142-.606-.784-1.32-1.141-1.712-.464-.143-.963-.143-1.142 0 0 .142-.107.321-.285.321s-.321-.178-.25-.321c.074-.214.322-.285.286-.642-.073-.358-.535-.429-.82-.464-.393-.571-.856-1.427-1.07-1.784-.214-.357-.108-.535.036-.678.357-.285 1.07.143 2.533.25.5.036 1.141.072 1.82.106.177 1.677.855 3.282 3.21 3.853 1.142.285 2.319 1.142 2.747 2.248-4.71-.073-5.458 1.748-5.458 3.46 0 1.963 1.676 1.856 1.676 3.318 0 1.285-3.96 1.82-5.137 1.998-1.034.143-1.605.393-2.07.856-.499.5-.998.963-1.854 1.855 0 0 .357.073.749.073l.642-.891c.213-.285.357-.535.464-.5.142.037.073.25-.107.535l-.535.928c2.319.178 2.461-.678 2.461-1.035 0-.357-.57-.606-.25-.82.357-.213.607-.073.892.25.25.285.357.57 1 .321 0 0 5.03-2.105 5.672-2.39.57-.25.428-.5.073-.785-.357-.32-.428-.82-.428-1.355 0-1.499.927-1.998 2.533-1.963 0 .25-.037.536-.037.75 0 2.39 3.603 4.709 4.567 4.709.464 0 1.034-.322 1.07 1.105.036 1.07.25 1.82.073 3.033-.214 1.213-.57 1.391-1.284 1.926-.75.5-1.427 2.105-1.748 2.462.321.214.677.25.963-.535.214-.642.464-1.106.749-1.285-.285.714-.5 1.784-.607 2.105.928.143 2.39-.677 2.39-1.355 0-.642-.499-.571-.499-1 0-.213.214-.428.5-.428.357 0 .642.285.677.429.429-.214.678-.607.642-1.57 0-.357 0-.749-.036-1.142.036.037.073.107.107.143.178.285.464.428.82.464.321.036.678-.073.999-.285.357-.214.642-.571.713-.963v-.214c0-.214-.036-.393-.178-.57-.142-.215-.393-.394-.642-.43-.393-.106-.821 0-1.177.214-.322.25-.571.571-.678.892-.073-1.284-.178-2.497-.142-2.997.073-.713.106-1.07-.143-1.177-.25-.107-.5.321-.856.321-.357 0-1.427-.999-1.427-2.033 0-1.035 1.106-2.355 1.07-3.746-.036-.464.25-.678.429-.285.214.5.535 1.141.999 1.677-.285 1.783 1.677 3.496 3.282 2.211-.82.107-1.356-.57-1.712-1.284.142 0 .285.037.428.037h.25c.57.677 2.354.642 2.818-1.106-.322.357-.964.642-1.427.57.677-.5 1.034-1.391 1.034-2.283 0-4.495-5.458-5.03-5.458-9.133 0-1.498 1.32-2.497 2.247-2.497.358 0 .607.107.856.285-.357.357-.57.891-.535 1.57.142 3.21 5.423 3.068 5.494 4.637.607-2.354-3.318-1.64-3.46-4.78M72.748 12.1c.25-.5 0-1.248.892-1.248.428 0 .82.464 1.355.606-.855.073-1.64.285-2.247.642m-4.852 9.918c0 .25-.107.5-.285.642-.073.073-.178.143-.322.107-.321 0-.57-.357-.57-.749v-.073c.036-.25.106-.5.285-.642a.54.54 0 0 1 .357-.142.41.41 0 0 1 .321.178c.178.142.25.428.214.677m15.626 22.69c.036-.249.214-.5.464-.677.25-.143.57-.214.82-.178.107.036.285.106.357.25.143.178.107.32.107.464-.073.25-.25.5-.5.642-.428.321-.963.285-1.177-.037a.572.572 0 0 1-.073-.464m-3.282-15.055a.57.57 0 0 1 .178-.428c.107-.107.285-.143.428-.143.25 0 .5.143.714.357.213.214.357.5.321.785a.502.502 0 0 1-.178.393c-.107.142-.285.142-.428.142a.992.992 0 0 1-.75-.357c-.177-.214-.32-.5-.284-.749m-8.955-10.168c.25-.784.713-2.354.713-2.354l.82.285c-.213.107-.535.357-.784.57.178.107.535.107.749-.036l-.32.82c-.074-.107-.322-.428-.536-.464-.178.642.25.893.535 1.07.5.25.856.285 1 .074.142-.285-.179-.714-.607-.536-.037-.428.178-.642.464-.642.25 0 .428.214.5.464-.037-.677.284-1.248.927-1.462.25.713.036 1.177-.464 1.676.25-.106.57-.106.713.107.143.214.107.535-.285.75-.107-.465-.606-.5-.784-.179-.143.285.107.57.57.82.536.285.964.107 1.25-.357-.179-.073-.5-.036-.785.178l.57-1.07c.037.178.107.428.358.642.073-.25.178-.642.036-1.035l1.178.714c-.393.036-.714.321-.856.535.285.073.57.036.713-.037l-.642 1a.951.951 0 0 0-.25-.75c-.25.5-.177.964.321 1.285.5.285.821.32 1 .073a.41.41 0 0 0-.536-.57c-.036-.43.214-.679.535-.643.214 0 .393.285.429.57.178-.712.464-1.105 1.177-1.248.178.678-.143 1.213-.785 1.57.285-.107.536-.073.678.142.143.25.037.571-.357.75-.037-.43-.57-.536-.749-.25-.107.25.073.5.57.82.286.178.714.428 1.214-.073-.178-.178-.571-.214-.713-.214l.57-.713c-.036.25.178.57.322.678.073-.357.142-.714.107-.964l.677.536s-1.106 1.213-1.676 1.82zm7.385 18.623c-.32.429-.82.571-1.142.357-.357-.249-.392-.784-.073-1.177.285-.428.82-.606 1.142-.357.321.25.357.785.073 1.177m2.14-3.389c-.284.428-.784.57-1.141.322-.322-.214-.357-.75-.037-1.178.285-.428.785-.57 1.142-.32.322.213.357.749.037 1.177m-13.275-8.353a1.447 1.447 0 0 0-.603.535c-.288.606.075 1.356.785 1.677.39.178.82.213 1.177.107.288-.107.5-.285.61-.535.143-.25.143-.535 0-.82-.11-.357-.425-.678-.82-.856a1.677 1.677 0 0 0-1.178-.107m.39 1.82c-.5-.25-.748-.714-.568-1.071.075-.178.253-.25.356-.285.247-.107.534-.073.82.073.247.143.467.357.57.607.067.106.074.25 0 .428-.11.178-.247.249-.357.32-.253.074-.534.034-.821-.073m8.594 12.986c-.247.249-.425.677-.425 1.106v.034c0 .392.144.784.39 1.07.213.214.466.321.749.321.288 0 .534-.107.75-.285.287-.285.424-.677.465-1.106 0-.392-.11-.713-.322-.999-.212-.285-.5-.463-.82-.463a1.11 1.11 0 0 0-.785.32m.713 2.07a.57.57 0 0 1-.39-.178 1.25 1.25 0 0 1-.288-.785c0-.32.11-.606.322-.784a.575.575 0 0 1 .39-.178c.391 0 .714.464.714.999 0 .285-.143.57-.322.749a.595.595 0 0 1-.424.178m0 .464zM68.57 18.516c-.569.464-.75 1.213-.356 1.677.356.464 1.105.464 1.676.034.322-.25.535-.57.569-.927 0-.25-.068-.535-.212-.714-.144-.213-.357-.32-.644-.357-.322-.073-.714.074-1.035.285m-.11 1.07c0-.213.144-.499.39-.677a.898.898 0 0 1 .714-.214c.11 0 .213.035.322.179.11.106.11.285.11.356 0 .25-.178.464-.39.642-.357.285-.822.285-1.036.034a.551.551 0 0 1-.11-.32m10.208 24.62c-.247.177-.425.427-.466.677-.075.32 0 .641.288.927.212.25.534.428.927.5.356.034.714 0 1.035-.143.322-.178.5-.464.569-.785.11-.641-.425-1.248-1.213-1.39-.425-.074-.82 0-1.142.213m.82 1.64c-.533-.106-.892-.498-.82-.89.069-.179.144-.286.253-.357.212-.143.5-.214.82-.143.467.073.82.428.82.749v.107c-.074.392-.534.606-1.07.535m5.993-3.318c0 1 .82 1.82 1.855 1.82 1 0 1.82-.82 1.82-1.82 0-.999-.82-1.82-1.82-1.82-1.034 0-1.855.822-1.855 1.82m.466 0c0-.749.61-1.355 1.39-1.355.75 0 1.322.606 1.322 1.355 0 .75-.569 1.356-1.321 1.356-.784 0-1.391-.606-1.391-1.356M43.989 32.073c.178-.464-.678-.999-.75-1.64-.106-.643-.036-1.25-.784-2.141-.713-.856-3.246-3.568-4.031-4.424.214-.037.642-.107 1.106.321.285.25.82.785 1.355 1.249.643-1.677 1.499-2.961 2.676-4.317.143-.142.285-.32.464-.5-.428.143-1.106.25-1.498.5-.037-.749.036-1.356-.5-1.82.214-1.034.037-2.318-2.283-3.852 1.177.284 1.89 1.39 2.818.535-.82 0-.855-1.82-3.817-3.282 1.142-.037 1.998 1.783 3.318.748-1.249-.142-1.641-2.318-3.853-2.996.749.073 1.57.464 2.212-.464-.75.178-1.213-.536-2.034-.571.285-.963.214-1.57-.107-2.283-.57.036-1.177.213-1.605.57-.073-.535-.606-.57-1.106-.535.037.25.142.571-.107.607-.428.107-1.748.464-2.747.855-1.034.393-2.212 1.106-2.533 1.356-.214.143-.393-.214-.535-.357-.357.321-.678.713-.428 1.106-.571.036-1.213.178-1.749.606 0 .678.571 1.32 1.392 1.677-1.392 1.356-.143 2.64-1.356 3.817 1.713.073 1.391-2.318 2.248-2.64-.073 1.677-1 1.963-1 3.746 0 .964.572 1.998.074 2.64 1.427-.392 1.035-3.532 1.926-4.495.143.535.074 1.07-.106 1.606-.5 1.462.036 3.496-.714 4.138 1.427-.142 1.606-2.462 2.783-3.318-.999 2.105-2.07 6.565-3.603 8.776-2.462 3.354-3.925 7.421-6.208 7.421-.999 0-1.748-.606-1.748-1.855 0-3.817 6.529-6.422 6.529-10.489 0-1.784-1.463-2.461-2.39-2.461-.643 0-1.392.285-1.999.82-.284-.107-.535-.178-.784-.178-2.283 0-1.677 4.138-3.675 4.102.785.464 2.14-.428 2.961-1.57-.321 2.676-4.21 1.963-3.888 5.174.535-2.533 6.671-2.14 6.671-5.958 0-.464-.214-.82-.5-1.106.465-.285.893-.393 1.285-.393.749 0 1.391.535 1.391 1.641 0 3.39-6.457 6.244-6.457 10.418 0 .677.214 1.284.535 1.712-.464.214-.927.143-1.32-.321-.036 1.07 1.498 1.748 2.462 1.213.213.073.428.106.677.106-.285.822-1.284 1.035-1.783 1 1.57 1.248 4.352-.358 4.174-1.784 1.284-1.035 2.069-2.747 2.996-3.889-.073.25-.106.5-.142.785-.928 1.676-1.82 3.175-2.07 5.422-.177 1.856-1.14 3.532-2.425 3.532-.285 0-.75-.392-1-.178-.392.322 0 .713 0 1.035 0 .535-1.034 1.07-1.034 2.711 0 .75.429 1.606.285 2.105.393-.214.963-.928 1.178-1.82.463 2.141-.928 2.07.073 3.96.106-.606.749-.892 1.141-.606.393.25.214.428-.073.713-.285.285-.57 1.749.75 1.642-.25-.143-.25-.536.392-.678.892-.178 1.141.25 2.105.25.606 0 .784-.785 1.248-.785.464 0 .464.357.285.642.785-.214.893-.607.893-1.07 0-.393-.322-.678-.073-.82.284-.179 1.141 0 .784.713.464-.074.713-.393.713-.964 0-.535-.642-.855-1.213-.784-.107-.32-.642-.5-1.106-.5-1.034 0-.892.82-1.605.82-1.177 0-2.319-1.498-2.319-4.067 0-1.355 1.463-1.712 2.533-2.176 1.035-.428 2.854-1.57 3.96-3.39.856-1.426.892-3.032.749-4.887 1.463.856 1.641 2.07 1.641 2.961 0 1.142-.57 1.57-1.035 1.784-.392.178-.535.107-.57.357-.073.285.142.464.32.535.535.285.393.785.571 1.32.143.571.607 1.428 1.463 2.07.073-.357.036-.893 0-1.606 1.141.571.214 2.819 2.426 2.819-.429-.214-.322-.82-.073-.893.213-.106.535.143.927.714.429.606.322.57 1.356.57 1.035 0 .57-.357 1.142-.357.535 0 .5.642.178 1.106.927-.285 1.213-.999.927-1.712.785-.464 1.213.178 1.356.606.784-.784 0-1.748-.642-1.82.036-.32-.25-.606-.607-.641-.321-.037-.642-.037-1.034-.037-.357.037-.571.571-1 .571-1.39 0-4.102-2.462-4.102-3.532 0-1.106 2.605-1.748 2.605-3.425 0-2.176-2.177-2.925-3.96-4.317.642-.713 2.533-.891 3.567-.392.143-.571.535-.429.678-1.499.393.928-.037 1.713.357 2.105.321-.428 1.106-.357 1.034-1.498.25.713-.284 1.82.25 2.283.107-.606.428-.713.678-.713.213 0 .392.178.392.5 0 .892-1.07.499-1.07 1.462 0 .428.535.57.535.82 0 .285-.428.678-.963.322.178.392.535.713.963.713.5 0 .999-.357 1.177-.856.25.607.073 1.32-.392 1.427.5.214 1.605 0 1.498-1.427.642.073.963.5.57 1.285.536-.107 1-.393 1-.928 0-.428-.464-.57-.25-1.106M31.678 12.377c-.57.073-.57-.5-1.605-.75.713-.177 1.677-.534 2.497-.855.143.678-.142 1.534-.892 1.606m4.21 4.459c-.75.322-1.356-.32-1.499-.785-.142-.463-.285-.855-.107-1.034.358-.32.429-.571.25-.963-.25-.464-.714-.25-1.249-.107.214-.464.25-.785-.107-.75-.393.037-.393.714-.606.643-.25-.073-.107-.464-.107-.678 0-.285.178-.357.464-.5l2.212-.82c.285-.106.464-.178.678.037.142.142.5.322.392.535-.107.214-.57-.25-.892 0-.285.214-.037.429.428.571-.464.285-.963.464-.82.963.143.429.393.535.856.535.25 0 .428.358.642.785.214.428.285 1.213-.535 1.57m.142-6.172c-.606.464-1.391.073-1.748-.571.82-.32 1.748-.713 2.39-1.106-.57.928-.178 1.32-.642 1.677m-1.353-5.6c.178.249.214.392.25.57-.143-.036-.285-.178-.429-.392l.073.998a.867.867 0 0 1 .357-.357c-.036.642-.284.893-.5.928-.284.073-.499-.107-.534-.285-.037-.321.213-.5.464-.214.036-.606-.429-.606-.642-.357.249-.57.142-.927-.358-1.248-.321.535-.178.891.214 1.284-.393-.178-.749.142-.393.57.074-.356.393-.284.464.037.074.25-.178.571-.606.713-.606.179-.785-.213-.928-.535.107-.107.429-.073.785.143l-.285-.963c-.142.357-.357.5-.606.606 0-.285.213-.856.213-.856l-1.177.464s.535.25.713.5a1.09 1.09 0 0 1-.82-.037l.464.892c.107-.393.285-.607.464-.678.107.357.25.784-.32 1.07-.393.214-.785.143-.928-.107-.178-.249 0-.57.321-.32-.036-.571-.535-.571-.677-.143 0-.57-.143-.927-.75-1.07-.142.57.074.892.643 1.142-.357-.037-.678.285-.25.677 0-.357.322-.392.464-.142.143.178.107.428-.106.57-.214.108-.571.108-1.035-.32.142-.074.285-.037.5 0l-.643-.75c.037.25.037.464-.036.607-.143-.178-.178-.322-.214-.607l-.5.429c.465.285.964.713 1.606 1.57.678-.393 1.855-.964 2.604-1.285.714-.285 1.963-.713 2.748-.891-.179-1.07-.074-1.713.036-2.248zm-4.887-1.32.321.748.428-.535c.037 0 .037.037.074.037.036.25.036.677.036.927 0 .285.25.535.535.535a.548.548 0 0 0 .535-.535.57.57 0 0 0-.285-.5 8.169 8.169 0 0 1-.606-.535c.037-.036.037-.036.037-.073l.713.073-.25-.784-.57.464-.037-.785-.749.285.464.571v.073zm2.675.57a.372.372 0 0 0 0-.57c-.142-.179-.428-.179-.606 0a.435.435 0 0 0 0 .57c.178.178.464.178.606 0m.964-.713a.372.372 0 0 0 0-.571c-.143-.178-.429-.178-.607 0a.435.435 0 0 0 0 .57c.178.179.464.179.607 0m1.141.215a.484.484 0 0 0 0-.607c-.178-.178-.464-.178-.606 0-.178.143-.178.429 0 .607a.484.484 0 0 0 .606 0m.072.892c.178.178.463.178.606 0a.41.41 0 0 0 0-.607.411.411 0 0 0-.606 0 .484.484 0 0 0 0 .607m-4.817.785c.25 0 .429-.179.429-.429a.412.412 0 0 0-.429-.428c-.213 0-.392.178-.392.428s.178.429.392.429m-1.106.07a.434.434 0 0 0 .429-.427.46.46 0 0 0-.429-.429.434.434 0 0 0-.428.429c0 .25.178.428.428.428m-.25.5a.412.412 0 0 0-.428-.429.434.434 0 0 0-.428.428c0 .25.214.429.428.429.25 0 .429-.178.429-.429m.142 1.142a.412.412 0 0 0-.428-.428.434.434 0 0 0-.428.428c0 .214.213.393.428.393.25 0 .428-.178.428-.393M56.975 37.71c0 .034.07.034.11.073.678.178 1.462-.32 1.855-.213-.535-.178-.856.142-1.392.034.322 0 .644-.034.644-.143-.212.143-.892-.106-1.177.074v.034c-.212.073-.39.178-.39.321 0 .464 1.748.107 1.748.25 0 .106-.357.25-.82.25-.322 0-.929-.25-1.677-.074 0-.107.212-.321.144-.392.075-.035.11-.074.11-.107-.069-.034-.076-.073-.11-.073 0-.035-.068-.074-.068-.107v-.074c-.07-.034-.075-.073-.178-.106-.075-.035-.11-.035-.144-.035l-.075.035c0-.035-.075-.035-.075 0 0 0-.11-.035-.144-.035v.178c-.075 0-.11.178-.178.143 0 .034 0 .073.075.073-.075.073-.075.178-.144.178.069.034.069.073.075.073 0 .143-.075.322 0 .429-.11-.107-.288-.357-.356-.429-.11-.073-.144-.106-.144-.213 0-.074.075-.143.075-.25v-.073c-.068-.034-.11-.073-.144-.073 0 0 .075.034.075.073v.034c-.069.035-.069.074 0 .107v.069h-.069c0-.074 0-.178-.11-.178 0-.074-.074-.107-.143-.035l.075.035v.034c0 .073.075.107.144.107v.034c0 .034 0 0 0 0-.11-.034-.144 0-.178.073 0 0 0 .034.068.034-.075.035-.075.074 0 .143v-.073h.069c0 .034 0 0 .075 0h.069v.034c-.075.073-.075.142 0 .178 0 .142-.179.107-.179-.034-.11.178.075.285.213.213 0 .035 0 .035.069.074v-.035c0 .035.069.107.075.107 0-.034 0-.073.069-.073 0 0-.07.214.178.32.069.143.144.214.247.179 0 .106.075.178.075.178s-.288-.035-.357 0c-.069.034-.11.073-.212.073v.034-.034c-.075 0-.144 0-.178-.034 0-.035 0-.074-.07-.107 0-.034 0-.073-.074-.073-.07-.035-.144-.035-.178 0 .069 0 .075 0 .075.034v.073c0 .034 0 .073.144.107 0 0 .069.034 0 .034h-.075c-.075-.073-.075-.107-.144-.073h-.068s-.144.073-.11.178c0-.034 0-.073.075-.107v.073c0 .074.068.143.178.035h.07c-.076.073-.145.142-.076.178v.034c0 .107.075.143.11.143v-.143.034c.075-.034.068-.107.075-.142h.069c0 .034 0 .107.11.107.074 0 .143-.074.109-.107 0 0 0-.034.068 0v.073s.069-.034.069-.073c0 .034 0 .107-.069.142.069 0 .144-.034.144-.142.069.034.069.034.069.073 0 0 .11 0 .178-.034.069 0 .069.034.069.034-.069.034-.069.073 0 .073l.069-.034v.143c.068-.214.144-.143.288-.214 0-.034 0-.034 0 0 0 0 0 .034-.068.073.068 0 .178-.073.178-.142 0-.034.11-.143.144-.393h.075c.178 0 .246-.142.424-.178-.069.073-.069.214-.069.285 0 .107.11.214.144.25.07 0 0 0 0 0 0 .034-.11.034-.11.034-.178.107-.178-.214-.321-.143v.034a.153.153 0 0 0-.144.143c0-.034 0-.073.11-.073v.034c0 .034 0 .034.068.034h.143c0 .073-.212-.034-.178.143 0 0 .068.034.068.073 0 .034 0 .073.11.073 0-.034-.068-.034-.068-.073h.068s.069 0 .069-.034v.107c0 .034.075.107.144.034 0 0-.075 0-.075-.034h.068v-.073h.069c.068.034.075.073.11.034.109-.034.067-.107.109-.142h.075c.075.034.144.034.178 0 0-.035 0-.179-.075-.25-.075 0 .075-.357-.178-.5.11.035.5.074.569 0 .11 0 .246.108.246.108v.073c-.11.073-.11.107-.144.107h-.069s0-.073-.075-.073c-.068-.035-.075-.035-.11 0 0-.035-.143 0-.143.034h.11v.103c-.076 0-.179 0-.179.034v.073c0 .035-.075.107 0 .107 0 0 0-.034.075-.034 0 0 .07 0 .07.034s.109-.073.143-.034c-.068.034-.11.073-.075.107v.034c0 .034 0 .107.075.142v-.073c0-.034.075-.034.075-.034.11-.034 0-.107.075-.143.068-.034.11.074.178-.034.07 0 .07-.034.07-.073v-.034c0 .034 0 .073.074.073-.075-.073.068-.107.068-.143l.068-.034c0 .034.075 0 .11-.034-.068 0-.178-.073-.11-.107.144-.034.144-.107.11-.178-.11-.107-.288-.107-.288-.25h.178c.569 0 .963-.178.928-.356 0-.393-1.749.034-1.749-.25 0-.073.11-.142.247-.178m-1.284.035c0 .034.144.073.178.073-.075.034 0 .073-.11.073-.075 0-.075-.073-.075-.142m-.137-.062c0 .034-.11.073-.144.034v-.142c0 .034.144.073.179.107m-.213.392c.07-.034.07-.073.075-.073l.075-.034c0-.035-.069-.074-.075-.074 0-.034.075-.034 0-.073 0 0-.075.034-.075 0v-.034h.07l.177.073c0 .034.068.034.068.034 0 .035 0 .074-.068.074v-.074.074c-.068 0-.075-.035-.11 0v.18c0 .034-.074.073-.143.034v-.107m1.752-2.817c0 .035.075.074.144.107.678.178 1.427-.321 1.855-.213-.534-.179-.892.142-1.391.034.287 0 .61-.073.643-.143-.246.143-.892-.107-1.177.074v.034c-.39 0-.678 0-.678.214 0 .535 1.391.213 1.855.213.425 0 .391.074.391.143 0 .107-.5.178-.785.178-.356 0-1.498-.214-2.212-.073 0-.107.178-.25.11-.357.075-.034.11-.074.11-.143 0-.034-.076-.034-.145-.034.07-.034 0-.073 0-.107v-.073c-.068-.034-.11-.073-.178-.107-.075-.034-.11-.034-.143-.073a.18.18 0 0 0-.11.034c-.069 0-.075 0-.075.034-.069-.034-.075-.034-.11-.073-.069.073-.075.107-.069.214-.075 0-.143.142-.178.142 0 .034.068.073.068.073-.068.074-.075.214-.11.214v.248l-.074-.034c-.11 0-.144 0-.288-.074-.11-.073-.11-.106-.11-.213v-.356c0-.035-.074-.107-.143-.074 0 0 .075.035.075.074 0 .034-.07.073-.07.073v.146c0-.073-.068-.178-.109-.178 0-.073-.075-.142-.144-.034l.075.034s-.068.035-.068.074c0 .034.075.073.144.073v.034c.068.034 0 .034 0 .034-.11-.073-.144 0-.178.035 0 0 0 .034.07.073-.076 0-.076.073 0 .143 0-.035 0-.074.067-.074v-.034.034h.075v-.034c0 .034.07.034.07.034v.035c-.076.073-.076.142 0 .142v.034c0 .143-.179.143-.179-.034-.11.178.075.32.247.214v.073l.068-.034v.034c0 .034 0 .073.069.073v-.034c.069 0 .069-.073.212.034 0 0 0 .035.075.035h.11v.25c-.07 0-.247-.035-.288 0-.11.073-.356.142-.425.073v-.142c-.069-.035-.075-.035-.075-.035h-.075c-.069-.073-.144-.073-.178-.034.07 0 .075 0 .11.073v.035c0 .034 0 .073.144.142 0 .034-.07.034-.075 0-.075-.034-.075-.107-.144-.073v.034h-.07c-.074-.034-.143.073-.109.142 0-.034 0-.073.075-.073v.034c0 .107.07.143.213.035v.034c-.07.073-.144.107-.075.178v.034c0 .074.075.178.144.143 0 0-.075-.073-.075-.143.069.035.069.035.075.035.075-.035.068-.143.075-.143 0-.034 0 0 0 0 .068.034.068.107.143.107.075 0 .11-.073.11-.143.068.035.075.074.075.107 0 0 .068-.034.068-.073 0 .034 0 .107-.068.178.068-.034.144-.073.144-.178.068.034.068.034.068.073v-.034c.069.034.075.034.178 0v.108s0-.035.068-.035c0 0-.068.074 0 .143.07-.25.212-.178.356-.285v.034s-.069.035-.069.074c.144.073.322-.143.356-.25v-.034.073c.144 0 .144-.107.213-.107.466.035.11-.392.82-.25.075 0 .143-.073.178-.106 0 .106 0 .32.075.32 0 0 .144.035.178.074v.034c-.075 0-.144 0-.178.035-.144.106-.144-.25-.322-.178v.034a.153.153 0 0 0-.144.142c0-.034.075-.073.11-.073v.034c0 .034 0 .074.075.074 0 0 0-.035.075-.035v.035c0 .073-.213-.035-.178.142v.034c0 .074.075.107.143.074v-.069h.07v.108c0 .034.11.106.178.073-.068-.034-.075-.034-.075-.073v-.074h.069v-.034c.068 0 .068.034.068.034 0 .035.075.074.143.035.11-.035 0-.143.11-.143h.075c.075.034.212 0 .212-.034.068-.034.068-.178-.075-.25v-.178a.743.743 0 0 0 .322.074c.247 0 .357 0 .466-.074.144-.106.247-.034.288-.034.068 0 .075.034.068.073-.068.107 0 .107-.075.178-.068.035-.11 0-.178 0l-.075.035c-.075 0-.178.073-.178.142 0-.034.075-.073.143-.073v.034c-.069.074.075.107.11.074 0-.035 0 0 0 0-.075.034-.178.106-.11.142 0 0 .068 0 .068.034v.107c0-.034 0-.073.07-.107.074 0 .074-.107.143-.142 0 .073-.075.142 0 .142 0 0 0 .034.068.034 0 .035.075.074.144.035-.069 0-.075-.035-.075-.035 0-.034.075-.073.075-.073.075-.142-.069-.142-.069-.178.07-.073.144-.034.178-.142 0-.035 0-.074-.069-.107.07 0 .075 0 .11-.035-.11 0-.075-.073-.075-.106v-.035c.075-.034.11-.073.11-.142 0 .034-.179.107-.144 0 0 0 0-.073-.11-.034-.178 0-.39-.035-.678-.035-.069-.034-.069-.034 0-.034.288-.034.928-.073.928-.25s-.075-.284-.568-.284c-.535 0-1.713.214-1.713-.107 0-.142.212-.107.5-.107m-1.712-.034c-.07.034-.075.073-.144.034-.07-.034 0-.034-.07-.142.07.034.145.107.179.107m.11.32V35.5c-.07-.035-.07 0 0 .034-.075 0-.11-.034-.11 0v.107c.069 0 0 .034 0 .073 0 .034-.075.073-.11.073-.075-.034-.075-.107 0-.142v-.074c.07 0 .075 0 .075-.034s0-.073-.075-.073c.07-.034.075-.034.07-.073 0 0-.07.034-.076 0v-.035h.075l.178.074s.07.034 0 .073c0 0 .07.034 0 .034m.11-.107c-.075 0-.11-.107-.075-.142 0 0 .144.073.178.073-.075.034-.075.073-.103.073m4.018-1.577c.07-.034.075-.073.07-.178-.07.073-.144.107-.144.034 0 0 0-.073-.11-.073-.144.034-.322 0-.644-.035v-.034c.322 0 .892-.073.892-.25s-.178-.284-.713-.284c-.569 0-2.283.178-2.283-.107 0-.214.61-.142.999-.107 0 .035.075.035.143.074.713.213 1.498-.322 1.927-.214-.535-.178-.892.142-1.427.034.322 0 .644-.073.644-.142-.213.142-.928-.107-1.213.073v.034c-.535 0-1.178-.073-1.178.25 0 .534 1.927.213 2.39.213.466 0 .57.034.57.143 0 .142-.467.178-.715.178-.424 0-2.247-.25-2.96-.035.068-.106.212-.32.144-.392.075-.034.11-.073.11-.143 0-.034-.076-.073-.144-.073.068-.034 0-.073 0-.107 0 0 0-.073-.07-.073 0-.034-.074-.073-.143-.107-.11-.073-.144-.073-.178-.073 0 0-.075.034-.11.034 0 0-.075 0-.075.034-.069-.034-.11-.073-.144-.073-.069.073-.069.143 0 .214-.075 0-.144.178-.212.142.069.035.069.074.075.074-.075.106-.075.213-.144.213 0 .074.075.074.11.074v.178l-.075-.035h-.22c-.075-.034-.144-.178-.287-.249-.11-.073-.11-.107-.11-.25 0-.073.07-.142.07-.25 0 0 0-.073-.07-.073 0-.073-.11-.106-.144-.106.07 0 .075.034.075.106v.035c-.068.034-.068.073 0 .107v.073h-.068c0-.073 0-.178-.11-.178h-.068v-.035c0-.073-.075-.106-.179-.034 0 0 .075 0 .075.034v.074c0 .073.068.107.11.107v.034c-.144-.034-.178 0-.178.073v.034c0 .035-.075.107.069.179-.069-.035-.069-.074 0-.107 0 .034.068.034.068.034l.075-.034v.034c.069 0 .069 0 .069.034-.11.073-.075.143 0 .178 0 .178-.212.143-.212-.034-.11.214.11.321.246.25h.068v.073c0-.034 0-.034.07-.034 0 .034 0 .107.074.107v-.073c.07 0 .144.25.356.357 0 0 .075-.035.144-.074 0 .035 0 .074.075.107l.068-.034c0 .107.11.214.075.214 0 0-.212-.035-.288 0-.11.073-.39.142-.465.073 0-.073 0-.107-.068-.143 0-.034-.075-.073-.075-.073h-.075c-.068-.034-.144-.034-.178-.034.069.034.075.034.11.073v.074c0 .034 0 .073.143.142v.034s-.075 0-.11-.034c-.075-.034-.075-.107-.143-.073v.034h-.07c-.074 0-.177.073-.109.142 0 0 0-.073.075-.073v.034c0 .107.075.179.212.035.068 0 .068.034.068.034-.068.073-.143.142-.075.178v.069c0 .073.075.142.144.142 0-.034-.075-.073-.075-.142 0 0 .075.034.075 0 .075 0 .07-.107.075-.143h.07c0 .034 0 .143.109.143.11-.035.144-.107.144-.143v-.034c0 .034.075.073 0 .142.068-.034.075-.034.075-.106.069.073.069.142 0 .178 0 0 .143-.035.178-.178 0 .034 0 .073.068.073 0 0 .11.034.178 0v.107l.068-.074v.179c.069-.25.178-.143.322-.25 0-.034 0-.034 0 0s0 .073-.075.073c0 .074.287-.106.287-.178 0-.034.075-.034.144-.034.144 0 .144-.107.213-.107.89.107.356-.392 1.426-.285.075 0 .075-.073.144-.106-.075.106-.075.32 0 .32.07 0 .144.034.178.073v.035a.366.366 0 0 0-.143.034c-.179.107-.179-.25-.357-.178l-.069.034c-.075 0-.178.073-.144.143 0 0 .068-.035.11-.074v.035c0 .034 0 .073.068.073h.075c0 .073-.212-.034-.178.142v.074c0 .034.068.107.144.073-.07 0-.075-.034-.075-.073h.069v-.035c.069 0 .069.035.069.035v.068c0 .074.11.143.178.074 0 0-.075 0-.075-.035v-.034l.069-.034v-.035h.068c0 .074.075.107.144.074.11-.035 0-.143.11-.178h.074c.11.034.213.034.247 0 0-.074 0-.214-.075-.285-.075 0 0-.107-.075-.178.11.034.212.073.356.073.247 0 .322-.034.466-.107.11-.073.246-.034.288-.034.069.034.075.034.069.073-.07.143 0 .143 0 .214-.07.034-.144 0-.213 0-.068 0-.11.034-.11.034s-.109.073-.143.143c.068 0 .075-.035.144-.074v.035c0 .106.075.106.143.073 0-.034.07 0 .07 0-.076.034-.179.142-.11.178h.075c0 .073 0 .107.075.142v-.106h.069c.075 0 0-.107.11-.179 0 .107-.076.179 0 .179h.068c0 .073.075.106.144.073 0-.034-.068-.034-.068-.073l.068-.035c0-.142-.075-.142-.075-.213 0-.074.144-.035.144-.143v-.107s.075.034.11-.035c-.11 0-.075-.073-.075-.142m-3.996-1.035c.068.035.144.074.213.107-.11 0-.075.034-.144.034-.075 0-.075-.073-.075-.142m-.144-.073c-.068.073-.075.106-.144.073-.069-.073 0-.073-.069-.178.075.034.144.107.178.107m-.178.463c0-.034.07-.073.07-.073s.074 0 .074-.034-.069-.074-.075-.107c0 0 .075-.034 0-.034 0-.035 0 0 0 0-.069-.035 0-.035 0-.035 0-.034 0-.034.075 0l.178.074s.07 0 .07.034 0 .073-.07.073v-.073c-.068 0-.068.034 0 .073-.068 0-.075-.034-.11 0v.18c0 .035-.074.107-.109.074-.075-.035-.075-.107 0-.143m-.178-.25zm.075-.213c-.07 0-.07 0-.07.034 0-.034 0-.034.07-.034m-3.597-3.153c0-.179-.178-.285-.713-.285-.569 0-2.248.213-2.248-.107 0-.178.569-.107.999-.107 0 .034.069.073.11.073.713.214 1.462-.25 1.961-.073-.39-.393-.927.034-1.462-.107.322 0 .644-.034.678-.142-.247.178-.963-.107-1.249.073 0 .034-.069.034-.069.034-.534 0-1.177-.073-1.177.25 0 .57 1.962.25 2.426.25.425 0 .534.034.534.106 0 .143-.466.178-.713.178-.425 0-2.248-.25-2.961-.034 0-.107.212-.285.144-.392.075-.035.11-.074.11-.143-.07-.034-.076-.034-.144-.073 0 0 0-.034-.068-.073v-.107c0-.035-.075-.074-.144-.107-.075-.034-.144-.034-.178-.034h-.11c-.068 0-.075 0-.075.034 0-.034-.075-.034-.144-.034v.178c-.075 0-.144.178-.212.178 0 .034 0 .034.075.034-.075.107-.075.25-.144.25 0 .034 0 .034.075.073v.142h-.075c-.068 0-.075 0-.075-.034h-.075c-.11 0-.178-.143-.322-.25-.11-.034-.11-.106-.11-.213s.07-.178.07-.285c0 0 0-.034-.07-.073 0-.074-.11-.107-.143-.107.068.034.075.073.075.107v.034c-.07.034-.07.073 0 .107v.068h-.07c0-.073 0-.178-.109-.178h-.069c0-.073-.075-.142-.178-.034h.075v.073c0 .074 0 .107.11.107v.068c-.144-.073-.178 0-.178.035v.073c-.075.034-.075.073 0 .143v-.074c.069 0 .069 0 .069-.034v.034c0 .035.069 0 .075 0 0-.034 0-.034 0 0h.069v.035c-.11.073-.075.178.068.178v.034c0 .142-.213.107-.179-.034-.143.178.075.32.213.213h.069v.074l.069-.035c0 .074 0 .107.075.107v-.073c.068 0 .144.214.356.357 0 0 .11 0 .144-.073v.073c0 .073.075.214.075.214-.069 0-.39 0-.466.034-.11.034-.356.142-.425.034 0-.034 0-.073-.075-.142 0-.035 0-.074-.075-.074h-.075c-.068-.034-.11-.034-.178 0 .068 0 .075 0 .11.074v.034c0 .034 0 .107.178.142v.035h-.075c-.075-.074-.11-.143-.178-.107 0 0 0 .034-.069.034s-.144.073-.11.142c0 0 0-.034.075-.073v.073c0 .074.07.143.213.035 0-.035 0 0 0 0 0 .073-.144.142-.075.213v.035c0 .073.11.178.144.178v-.178.034c.075-.034.068-.143.11-.178v.034c0 .034.068.107.143.107.075 0 .11-.073.11-.143 0 .035.075.074.075.107 0 0 .069-.034.075-.073v.178c0-.034.11-.073.143-.178v.034c.07.034.11.034.213 0v.107-.034c.068 0 0 .073.075.142 0-.249.288-.107.466-.213 0 .034-.07.073-.075.073a.438.438 0 0 0 .212-.073v.034l.247-.107v-.073c.069-.035.069-.035.075-.035.143.035.143-.106.212-.106.892.142.356-.393 1.427-.285.075 0 .075-.035.11-.074-.069.107-.069.285.074.322 0 0 .144.034.178.073a.366.366 0 0 0-.143.034c-.179.107-.179-.25-.357-.178l-.069.034c-.075 0-.178.074-.178.143 0 0 .075-.034.144-.034-.069 0-.069.034-.069.034 0 .034.07.034.075.034h.075v.034c0 .035-.212-.073-.178.143v.034c0 .073.068.107.144.073l-.075-.034h.075v-.034h.068v.108c0 .034.11.142.178.073 0-.034-.075-.034-.075-.073v-.074c.068 0 .068-.034.068-.034.069 0 .069.034.069.034 0 .034.075.074.144.034.11-.034 0-.142.11-.142h.074c.11 0 .247 0 .247-.034 0-.035 0-.214-.075-.285-.075 0 0-.073-.075-.178a.59.59 0 0 0 .356.107c.247 0 .322-.035.425-.107.11-.107.288-.034.322-.034v.251c0 .073-.144.034-.213 0-.075 0-.075.034-.075.034-.075.034-.143.073-.143.178 0-.034.075-.073.11-.073v.034c0 .073.109.107.177.034v.035c-.068.034-.144.106-.075.142l.075.034c-.068.035 0 .107.075.107 0-.034-.069-.073 0-.107.075 0 .068-.107.11-.142 0 .073 0 .142.068.142v.035c.069.034.075.073.178.034 0 0-.075-.034-.11-.034 0-.035.075-.074.075-.074 0-.142-.075-.142-.075-.178 0-.073.11-.034.11-.178v-.073c-.069 0-.069 0-.069-.034v.034c.075-.034.11 0 .11-.073-.11 0 0-.074-.076-.143.07-.034.075-.073.075-.142 0 .034-.178.106-.178 0 0 0 0-.074-.11-.035-.177 0-.287-.034-.602-.073.322 0 .892-.073.892-.285m-4.032-.464c0 .035.144.074.212.107-.11 0-.075.035-.143.035-.075 0-.075-.074-.075-.143m-.144-.073c0 .073-.075.107-.144.073 0-.073.069-.073 0-.178.075.034.178.107.178.107m-.178.464v-.074c.069 0 .075 0 .075-.034.068-.073 0-.073-.075-.107.075 0 .075-.034.075-.034 0-.034-.075 0-.11 0v-.034c.068-.035.068-.035.075-.035l.178.107v.108s0-.073-.075-.073v.073c-.068 0-.075-.034-.11 0 0 .034 0 .073.07.073 0 .034 0 .073-.07.107 0 .034-.074.073-.109.073-.075-.034-.075-.107 0-.142m5.03-2.431c0-.214-.213-.322-.785-.322-.61 0-1.891.25-1.891-.107 0-.142.246-.142.568-.106 0 .034.07.034.11.073.749.214 1.641-.178 2.07-.073-.535-.393-.964.034-1.535-.107.322 0 .466-.074.466-.178-.247.178-.749-.074-1.07.107 0 0 0 .034-.068.034-.39 0-.75 0-.75.25 0 .57 1.57.25 2.07.25.465 0 .568.033.568.142 0 .142-.466.178-.748.178-.425 0-1.713-.214-2.462-.074 0-.106.178-.284.11-.392.074 0 .109-.073.143-.143-.075-.034-.11-.034-.144-.034 0-.034-.069-.107-.069-.142v-.074c-.068-.034-.11-.073-.178-.106-.11-.074-.144-.074-.178-.074l-.11.035c0-.035-.109-.035-.109.034-.068-.034-.075-.073-.144-.073 0 .073-.068.106 0 .213-.075 0-.144.178-.212.178 0 .035 0 .035.075.074-.075.073-.075.213-.144.213.069.074.075.074.075.074v.25l-.11-.074h-.143.075l-.075-.034c-.075-.034-.144-.142-.246-.214-.11-.073-.144-.106-.11-.213 0-.107.07-.214.07-.285v-.107c-.07-.073-.11-.107-.179-.107.07.034.075.034.075.107-.069.034-.069.034-.075.073v.074l.07.034s0 .034-.07.034c0 .034 0 0 0 0 0-.073 0-.178-.11-.178h-.068c0-.073-.075-.142-.178-.034h.075v.107c0 .073.075.073.144.073v.068c-.11-.073-.178 0-.178.074v.034c-.075.034-.075.107.068.178 0-.034-.068-.073 0-.107l.07.034.074-.034.07.034v.035c-.11.073-.076.178 0 .178v.034c0 .143-.213.107-.213-.034-.11.178.11.321.246.214v.034s0 .034.075.034v-.034.034c0 .034.068.107.075.107 0-.034.068-.073.068-.073s.11.142.247.213c.11.035.178.143.247.074-.07.107.075.249.069.249-.07 0-.322-.034-.39 0-.11.073-.391.178-.467.073 0-.034 0-.073-.068-.142-.069-.034-.075-.073-.11-.073h-.068c0-.074-.144-.074-.178-.035 0 0 0 .035.075.074v.073c0 .034 0 .073.144.142 0 0 .069 0 0 .035l-.075-.035c-.075-.034-.075-.106-.179-.073 0 0 0 .034-.069.034-.075 0-.178.074-.11.143 0 0 0-.034.076-.074 0 .035.069.074.069.074 0 .073 0 .142.212.034.07-.034.07 0 .07 0-.076.073-.179.143-.11.214l.075.034c0 .107.11.178.178.178-.07-.034-.075-.073-.075-.142.11-.035.075-.143.11-.143 0-.034 0 0 0 0 0 .034 0 .143.109.107.11 0 .144-.073.144-.142.069.034.075.073.075.106 0 0 .069-.034.075-.073 0 .073 0 .107-.07.178.07 0 .11-.073.145-.178.068.034.068.034.068.073h.178c0-.034.069 0 .069 0-.07.035-.07.074 0 .107v-.073c.068 0 0 .107.075.178 0-.285.144-.178.322-.285v.034c0 .035-.068.035-.075.074.178.034.465-.214.5-.357h.178c.5.034.144-.464.964-.321a.437.437 0 0 0 .212-.074c-.075.074-.075.32 0 .32.069.035.178.035.212.108h-.069a.366.366 0 0 0-.144.034c-.178.143-.178-.25-.356-.178-.069 0-.069.034-.075.034a.153.153 0 0 0-.144.143c.07 0 .075-.034.11-.034v.034s.07.073.075.073c.07 0 .07-.034.075-.034v.034c0 .073-.247-.073-.178.143v.034c0 .073.068.142.11.107v-.074c.068 0 .068 0 .068-.034v.108c0 .073.11.142.212.073-.07 0-.11 0-.11-.034v-.035c.068 0 .068-.034.068-.073h.075c0 .034.075.073.178.073.11-.034 0-.142.11-.178h.075c.11.035.253.035.253-.034 0-.034 0-.214-.075-.285-.075-.034 0-.107-.075-.178.11.034.213.073.356.073.288 0 .357-.034.466-.107.144-.073.288-.034.322-.034 0 0 .075.034.075.073-.069.143 0 .143-.069.214 0 .073-.144 0-.212 0-.069 0-.075.034-.075.034-.075.035-.144.074-.144.179 0-.035.075-.074.11-.074v.035c.068.073.11.106.178.034v.034c-.075.034-.178.107-.075.143v.034c0 .073.069.107.075.142v-.142h.069c.075 0 0-.107.11-.143 0 .074 0 .143.068.178.068.074.075.107.144.074v-.147c.07-.142-.11-.142-.11-.178 0-.073.179-.034.179-.178 0-.034-.07-.073-.075-.107h-.068.068s.075.034.11-.034c-.144 0-.11-.073-.11-.143v-.034s.075-.073.075-.142c-.075.034-.178.106-.178 0 0 0 0-.074-.11-.035-.178 0-.322-.034-.644-.073.39 0 .963-.107.963-.285m-3.638-.5c.068 0 .178.074.246.074-.144.034-.075.073-.178.073-.068 0-.075-.107-.075-.143m-.144-.073c0 .034-.075.073-.144.034-.069-.034 0-.073-.069-.142a.822.822 0 0 1 .179.107m-.213.464c0-.035 0-.074.075-.074.07 0 .07-.034.075-.073.068-.034 0-.034-.075-.073.07 0 .075-.034.07-.074-.07 0-.076.035-.076 0l.068-.034h.075l.178.073c.07.035.07.035.07.074v.034c-.07.034-.07-.034-.076-.034-.069 0-.069 0 0 .073-.069-.034-.075-.034-.11 0-.068.034 0 .073 0 .073v.107c0 .034-.074.107-.143.073-.075-.034-.07-.106-.07-.142m3.462-2.094c.568 0 .855-.214.855-.393 0-.642-1.605-.25-1.605-.642 0-.073.07-.142.11-.178.82-.073.82-.642 1.391-.749-.678-.106-.784.464-1.106.464a.352.352 0 0 0 .212-.321c-.144.178-.466.214-.644.428v.107c-.144.073-.178.142-.178.25 0 .606 1.641.178 1.641.642 0 .142-.287.249-.748.249-.322 0-.569-.25-1.213-.073 0-.107.212-.32.144-.393.075-.034.11-.073.11-.142-.069-.034-.076-.034-.11-.034 0-.035-.07-.074-.07-.107v-.074c-.067-.034-.109-.073-.178-.106-.069-.035-.11-.035-.143-.035h-.075s-.075 0-.11.035c0-.035-.075-.035-.11-.035 0 .035-.069.074 0 .178-.075 0-.144.143-.178.143v.034c0 .107-.075.214-.11.214 0 .034.07.034.07.034a.965.965 0 0 0-.075.393.543.543 0 0 1-.144-.107c-.11-.074-.075-.107-.075-.178 0-.107.075-.179.075-.25v-.073c-.07-.073-.11-.107-.144-.073.068 0 .068.034.068.073l-.068.034v.142a.21.21 0 0 0-.075-.142h-.075v-.035c0-.034-.068-.107-.144-.034 0 0 .075 0 .075.034 0 0-.069.035-.069.074 0 .034.07.073.11.073h.069v.068c-.144-.073-.178 0-.178.035v.034c-.068.034-.075.073 0 .142 0-.034 0-.073.069-.073h.143v.034c-.075.074-.075.143 0 .143v.034c0 .142-.213.107-.178-.034-.144.142.069.285.178.178.068 0 .068 0 .068.034v.034s0-.034.069-.034v.034c0 .035 0 .074.075.074v-.035s.069.107.144.179c-.144.073-.357.106-.357.106s-.246 0-.322.035c-.075.034-.287.106-.39.034v-.107c0-.034-.068-.073-.075-.073-.069-.034-.144-.034-.178 0 0 0 .075 0 .11.034v.034c0 .035 0 .107.143.143v.034s-.068 0-.075-.034c-.075-.034-.075-.107-.144-.074l-.068.035c-.069 0-.143.073-.11.142 0-.034 0-.073.076-.073 0 .034.068.034.068.034 0 .107 0 .143.178.034v.035c0 .034-.144.106-.075.178h.068v.034c-.068.073.075.142.11.142 0-.034-.069-.073-.069-.142h.068c.075 0 .07-.107.075-.143v.035c0 .034 0 .107.11.107.075-.035.11-.074.11-.143 0 .034.075.073.075.107v-.073c.068.034.068.107 0 .142 0 0 .143-.034.178-.142v.034h.069c0 .034.075.034.144 0v.107c0-.034.068-.034.068-.034v.142c.069-.25.143-.142.287-.25.07 0 .07 0 0 0v.074s.144-.034.144-.107c0-.034.075-.034.11-.073 0 0 .144-.034.144-.073v.106c.143 0 .322-.178.356-.178.322-.073-.178-.285.466-.25a.26.26 0 0 0 .178-.073c-.075.107-.075.285 0 .285.068.034.143.034.178.073v.035c-.068 0-.11 0-.11.034-.178.107-.178-.214-.322-.178l-.069.034a.153.153 0 0 0-.144.143c.07-.035.075-.035.11-.074v.035c0 .034 0 .073.075.073h.068c0 .073-.212-.034-.178.142l.068.034c0 .035 0 .107.11.074v-.074h.068v-.034.103c0 .073.075.143.179.073-.068 0-.11 0-.11-.034v-.034c.069 0 .069-.034.069-.034v-.035h.069c0 .074.075.074.144.074.075-.035 0-.143.075-.143h.075c.11 0 .212 0 .246-.034 0-.034 0-.178-.11-.25 0 0 .07-.073 0-.142.11.034.179.073.323.073.212 0 0-.034.11-.106a.27.27 0 0 1 .287 0v.212c0 .034-.144 0-.212 0-.07 0-.075.034-.075.034-.07 0-.11.074-.11.143 0-.035.075-.035.11-.074v.035c0 .073.11.107.144.073 0-.034.069 0 .069 0-.075.034-.144.107-.075.142 0 .074.068.107.075.107v-.073h.069c.075 0 0-.107.11-.142 0 .073-.07.142 0 .142h.067c0 .073.075.107.144.034-.069 0-.075 0-.075-.034v-.034c.068-.143-.075-.143-.075-.178 0-.074.144-.035.144-.143 0-.034-.068-.073-.075-.073v-.034s.075.034.075-.035c-.075.035-.068-.073-.075-.106 0-.035.069-.074.069-.143-.069.034-.144.073-.144 0-.068 0-.068-.073-.11-.034-.143 0-.212-.073-.5-.107m-1.394-.784c0 .034.144.073.178.073-.075.034-.075.073-.11.073-.075 0-.11-.073-.075-.142m-.143-.074c0 .074-.075.107-.11.035v-.107c0 .034.144.073.144.073m-.178.428c.069-.034.069-.073.075-.073 0 0 .069 0 .069-.034 0-.035 0-.074-.07-.107.07 0 .07 0 .07-.034-.07 0-.075.034-.075 0v-.035h.069l.178.074.069.034c0 .034 0 .034-.07.073v-.073c-.068 0-.068.034 0 .073-.068-.034-.074-.034-.109 0v.147c0 .034-.068.107-.11.073-.074-.034 0-.073 0-.107m1.984 9.26h-.11v-.142c0-.5-.287-.856-.82-.856-.465 0-1.355.607-2.604.607-.568 0-1.177-.25-1.57-.5l-.178.393v-.035a.32.32 0 0 0-.322-.32c-.144 0-.287.142-.287.32 0 .143.143.285.287.285.11 0 .213-.034.247-.106l-.144.392c.068 0 .11.034.144.073-.178 1.891 1.249 4.317 3.746 5.066.356-.107.749-.034.749.357 0 .25-.144.357-.357.357-.143 0-.246-.073-.246-.178 0-.178.288-.073.322-.178 0-.143-.068-.214-.213-.214-.178 0-.465.107-.465.393 0 .357.287.535.568.535.288 0 .893-.143.785-.821.144 0 .288 0 .322-.143v-.392l-.144-.035.11-4.352h.11c.143 0 .287-.073.321-.25 0-.178-.143-.25-.287-.25m-4.496.322 3.033 4.388c-1.642-.642-3.247-2.105-3.033-4.388m3.104 3.96-2.747-3.996c.075.034.178.034.247.034.144 0 .287-.034.424-.034l2.212 3.175c0 .322-.11.607-.144.82m.213-1.248-1.962-2.819c.212-.034.425-.106.644-.178l1.462 2.105a6.73 6.73 0 0 0-.144.892m.466-3.104h-.11c-.109 0-.287.073-.321.214 0 .178.143.285.287.285h.075v.142c0 .25-.11.642-.178 1.106l-1.249-1.748c.61-.25 1.071-.5 1.32-.5.178 0 .213.107.178.5m7.605-4.5a.58.58 0 0 0 .212-.214c-.11.035-.178-.034-.212-.034.075-.034.178 0 .075-.142-.075-.143-.144-.143-.247-.035-.11.107-.748-.034-.748-.535 0 .107.143.143.212.178s.075.035.11.074h.075a.412.412 0 0 0 .178.034v-.034a.24.24 0 0 0 .246-.25c.07-.25-.212-.393-.5-.607a8.573 8.573 0 0 1-.246-.25c-.11-.178-.07-.356-.288-.713 0-.073-.069-.178-.075-.321-.144.25-.178.677.144 1.035.287.32.855.57.82.82 0 .074-.075.143-.144.143h-.11s0-.034-.069-.034c0 0-.075-.034-.11-.034a.445.445 0 0 1-.212-.179c-.246-.213-.465-.534-.61-.713-.246-.357-.143-.677-.074-.963.178-.25-.144-.785-.322-.928 0 0 .069-.106 0-.249h-.178c-.07-.107-.075-.107-.11-.107-.144-.034-.144-.107-.144-.142-.075.073-.11.107-.144.107-.11.034-.144 0-.178.034-.075.073-.11.073-.212.073-.11 0-.11.073-.11.143.07.073.07.142.11.178l.11.107.074-.107c.068-.035.178-.074.213.034 0 .073 0 .107-.075.107h-.213c-.075 0-.075.107-.075.142 0 .073.075.107.213.073.11-.034.356-.073.356.035 0 .285-.356.285-.425.642a9.572 9.572 0 0 1-.212-.214c0-.073-.11-.178-.212-.285-.075-.073-.179-.143-.247-.214-.11-.073-.11-.107-.11-.25 0-.073.068-.178.068-.25 0-.033-.068-.072-.068-.106 0-.073-.11-.107-.178-.107 0 .034.075.034.075.107v.034c-.068.035-.068.074 0 .107v.073c0 .035 0 .035 0 0-.068-.073-.075-.178-.144-.178h-.068c0-.073-.075-.142-.178-.073 0 .034.075.034.075.034v.107c0 .073 0 .107.11.107v.034c-.144-.073-.178 0-.213.074v.034c-.075.034-.075.107.07.178 0-.034-.07-.073 0-.107l.067.034.075-.034.07.034v.035c-.076.073-.076.142 0 .178-.076.073-.213.034-.213-.074-.11.179.075.285.247.214v.214l.068-.034c0 .034.069.107.075.107v-.035c0 .035.068.074.075.107.075.143.212.5.568.642-.178.073-.287.25-.424.357-.075.107-.213.213-.322.142 0 0 0-.034-.11-.073 0-.034-.075-.034-.11-.034h-.068c-.075 0-.178.034-.178.073h.11v.073c0 .034.069.107.212.074 0 0 .07.034 0 .034 0 0 0 .034-.075.034-.075-.034-.11-.107-.178-.034 0 0 0 .034-.069.073-.075 0-.11.143-.069.214 0-.034 0-.107.07-.107v.034c.074.074.109.107.253-.073 0 .107-.075.214 0 .214 0 0 0 .034.068.034 0 .107.143.142.212.107 0-.035-.11-.035-.11-.107v-.034c.075-.035 0-.143.068-.178.07.034.11.106.178.073 0-.034.075-.073.075-.107.144-.073.247-.107.322-.073 0-.074.068-.143.178-.178.144-.035.179 0 .213.034.068-.073.075-.143.144-.214 0 .5.678.5.821.785a1.87 1.87 0 0 0-.569-.107c-.143.034-.424.178-.465.392 0 .143.11.428.287.535-.212.035-.287-.034-.465.035v-.035c-.179.035-.179-.249-.357-.178 0 0-.069.034-.075.034-.075 0-.178.107-.143.179 0-.035.075-.074.11-.074v.034c0 .035 0 .074.074.074.068 0 .075-.035.075-.035v.035c0 .073-.246-.035-.212.142 0 0 0 .034.075.074-.07.034 0 .106.144.073-.068 0-.075-.034-.075-.073.069 0 .069 0 .069-.035v.103c0 .073.11.178.212.073-.068 0-.11 0-.11-.034v-.034l.07-.034v-.035h.074c.07.074.11.107.144.074.075 0 .075-.035.075-.035.07 0 .075 0 .075.035 0-.074.07-.143.212-.035l.11-.073s.144.073.212 0c.11-.107.07-.107.07-.178-.076-.143-.11-.143-.144-.285-.07-.25.321-.393.5-.357.069.178.287.57.643.713.247.074.322-.178.425-.142v.358c-.069.034-.144 0-.246 0l-.075.034a.153.153 0 0 0-.144.143s.075-.035.11-.074v.035c0 .106.109.142.177.073 0 0 .07 0 0 .034 0 .034-.143.107-.075.143 0 0 .068.034.075.034a.21.21 0 0 0 .075.142c0-.034-.068-.073 0-.142h.07c.074 0 .067-.107.11-.142 0 .073 0 .142.067.178.07.073.11.106.212.073-.069 0-.11-.034-.11-.073.069-.035.069-.035.076-.074.069-.142-.11-.142-.11-.213 0-.074.144 0 .144-.178.075-.035.144-.107.144-.143-.075 0-.144-.034-.178-.034zm1.427.856c.144.107.075.322-.075.285a9.91 9.91 0 0 0-1.57-4.103v-.034c.179-.034.322-.178.357-.428-.247-.034-.425.107-.535.25 0-.073-.11-.142-.178-.25a7.626 7.626 0 0 0-1.748-1.641c-.61-.393-1.284-.713-1.962-.892.069-.143.246-.178.322-.034 0-.25-.213-.393-.322-.321-.075 0-.144.073-.144.178-.11-.107-.213-.178-.39-.178a.72.72 0 0 0 .143.392c-.11 0-.212.035-.246.107-.075.107 0 .357.287.357-.11-.107-.075-.285.11-.285v3.175c-.178-.034-.356-.034-.534.143.178.178.356.178.534.142v3.425c-.178.034-.212-.178-.11-.285-.246 0-.356.25-.287.357 0 .073.11.143.246.143a.466.466 0 0 0-.144.356c.178 0 .288-.073.39-.142a.31.31 0 0 0 .11.25c.11.073.357-.035.357-.321-.11.142-.288.107-.288-.035h2.39c-.074.143-.068.322.144.5.144-.178.178-.357.11-.5h2.675c0 .143-.178.214-.287.074 0 .25.246.357.356.285.075-.035.144-.107.144-.25a.474.474 0 0 0 .356.143c0-.178-.075-.285-.178-.393.178.035.253-.034.288-.107.069-.142-.075-.356-.322-.356m-2.283-4.21a.375.375 0 0 0-.11.25c.07.072.11.142.247.142a.638.638 0 0 0-.178.357.69.69 0 0 0 .39-.107c0 .142 0 .249.075.285 0 .034.144.034.212 0a9.081 9.081 0 0 1 1.213 3.282.708.708 0 0 0-.287-.074c0 .179.075.285.144.357h-2.034c.069-.107 0-.213-.11-.249-.11-.034-.178 0-.287.107 0-.107 0-.25-.144-.357a.43.43 0 0 0-.178.357c-.11-.107-.179-.143-.288-.107a.215.215 0 0 0-.11.25h-1.748c.075-.074.11-.179.144-.321a.478.478 0 0 0-.356.142v-2.818c.11.034.246-.073.288-.143 0-.073 0-.178-.11-.285.11 0 .247-.034.356-.142a.51.51 0 0 0-.356-.142c.11-.107.11-.214.11-.285-.07-.074-.179-.179-.288-.143v-2.355c.075.035.178.107.288.107 0-.142 0-.249-.075-.32.534.142 1.07.428 1.569.749a8.859 8.859 0 0 1 1.605 1.462m7.582 5.168c-.288-.214-.75-.642-.999-1.142-.287-.642-1.57-3.175-1.784-3.532-.178-.285-.247-.535-.247-.749 0-.285.11-.5.247-.677.11-.143.39-.393.5-.571.075-.107.144-.214.212-.285-.465-.82-.927-1.427-1.57-2.14a12.025 12.025 0 0 0-2.496-2.177c.5-.32.998-.784.998-1.57 0-.428-.212-.784-.534-1.105.534-1.642 1.463-3.675 2.248-4.531l-1.677-.714c.424.642.466 1.427.39 1.891-.466-.321-.82-.713-.963-1.284-.075.5-.322 1.32-.603 1.82.5-.214.893-.321 1.356-.108-.247.357-.999.964-2.069.678-.61-.143-1.213-.428-1.177-.891 0-.285.212-.607.568-.571.39.034.39.57.288.82.466-.25.963-1.677.247-1.855-.61-.178-1.142.642-1.356 1.249-.11-.75-.39-1.463-1-1.427-.748.073-.5 1.462-.246 1.855.068-.5.322-.785.534-.75.213 0 .5.143.466.607-.075.464-.713.713-1.462.713-.678 0-1.927-.213-2.07-1.57.466.074 1.178.429 1.5.892a7.968 7.968 0 0 1 0-2.283c-.391.535-1 .82-1.464.892.144-.57.644-1.177 1.213-1.57h-3.032c.568.393 1.07 1 1.213 1.57-.425-.073-1.07-.357-1.428-.892.075.856.075 1.462 0 2.283.288-.464 1-.785 1.463-.891-.11 1.355-1.355 1.57-2.069 1.57-.749 0-1.391-.25-1.427-.714 0-.464.213-.606.425-.606.212-.035.5.25.534.749.288-.393.534-1.784-.253-1.855-.569-.035-.892.677-1 1.427-.212-.607-.748-1.427-1.32-1.25-.748.179-.246 1.606.213 1.856-.11-.25-.075-.784.287-.82.357-.034.569.285.569.57 0 .464-.569.75-1.141.892a1.99 1.99 0 0 1-2.105-.678c.5-.213.891-.106 1.391.107a9.635 9.635 0 0 1-.644-1.82c-.11.572-.5 1-.927 1.285-.11-.464-.075-1.213.356-1.89l-1.677.713c.784.855 1.748 2.89 2.247 4.566-.321.285-.5.642-.5 1.07 0 .785.5 1.25 1 1.57a13.21 13.21 0 0 0-2.534 2.176 13.694 13.694 0 0 0-2.64 4.46c.213.214 1.213 1.32 1.463 1.605.39.535.644 1.07.678 1.463 0 .785.179 1.07.569 1.57.144.142.322.749.322 1.106h8.312v9.026c-.322.034-.678.142-.963.464.963.392 1.89.749 2.782 1.034.11-.606.213-.963.5-1.32 0 0-1.176-.142-1.819-.178v-9.026h8.099c0 1.249-.247 2.462-.678 3.603-.425 1.178-1.035 2.248-1.82 3.14-.785.927-1.677 1.64-2.676 2.14-.178.074-.178.179-.322.25a2.32 2.32 0 0 0-.39.75c-.11.249-.144.463-.213.82.39.106.61.178.964.249 2.854.713 3.567.535 3.71.392.644-.5 1.249-1.07 1.784-1.676 1.177-1.285 2.069-2.819 2.676-4.496.644-1.712.963-3.567.963-5.458 0-.357.069-.464 0-.821m-12.593.642H44.73c0-1.285.246-2.533.678-3.71.39-1.214 1.035-2.248 1.82-3.176a8.072 8.072 0 0 1 2.675-2.14 7.949 7.949 0 0 1 3.14-.75zm.143-13.843c-2.783 0-4.673.82-5.78 1.57-.643-.393-.927-.75-.927-1.213 0-1.57 4.46-1.713 6.707-1.713 2.248 0 6.707.143 6.707 1.713 0 .463-.288.82-.927 1.213-1.106-.75-3.033-1.57-5.78-1.57m.357 13.842v-9.775c.998.073 1.997.285 2.925.749.999.5 1.89 1.213 2.676 2.14a9.98 9.98 0 0 1 1.82 3.176c.424 1.177.643 2.425.677 3.71zM81.27 51.766c0-.142-.178-.178-.288-.142-2.604.749-5.815-1.392-8.955-3.496-2.604-1.748-5.1-3.39-7.205-3.39a4.47 4.47 0 0 0-2.105.5c-.75.392-1.285 1.034-1.642 1.89a9.412 9.412 0 0 1-1.07 1.963c-.356.57-.61.963-.61 1.498 0 .428.178.785.534 1.177.322.285.75.571 1.392.928.11.073.247.107.39.178.5.25.82.428.893.713-1.035.464-2.355.82-3.889 1.106-1.713.285-3.567.428-5.53.428-1.997 0-3.853-.142-5.565-.428-1.498-.285-2.854-.642-3.889-1.106.075-.428.39-.606.927-.855.144-.074.288-.143.425-.214.5-.285 1-.535 1.32-.856.357-.285.535-.642.535-1.07 0-.5-.253-.928-.61-1.499a9.539 9.539 0 0 1-1.034-1.962c-.356-.856-.927-1.498-1.677-1.89-.568-.322-1.284-.5-2.069-.5-2.14 0-4.602 1.641-7.242 3.39-3.104 2.104-6.35 4.245-8.954 3.496-.11-.035-.213.034-.288.142 0 .107.069.25.144.285.784.357 1.498.892 2.176 1.427.927.749 1.784 1.427 2.782 1.427.928 0 1.927-.285 3.104-.927 1.07-.535 2.14-1.285 3.211-1.998 2.034-1.427 4.174-2.854 6.172-3.033-.213.214-.39.428-.61.57-.568.536-1.105 1-1.105 1.927 0 .75.246 1.285.61 1.998.109.214.212.464.321.713.247.5.322.893.466 1.463.075.214.11.5.212.82.144.464.356 1.356 1.855 2.105 1.713.893 4.674 1.32 8.777 1.32 4.102 0 7.063-.428 8.776-1.32 1.463-.749 1.712-1.64 1.82-2.105.103-.32.178-.606.212-.82.144-.57.213-.963.466-1.463a7.48 7.48 0 0 1 .466-.927c.287-.57.534-1.035.534-1.677 0-.963-.534-1.427-1.141-1.998a5.528 5.528 0 0 1-.644-.606c2.033.178 4.138 1.605 6.207 3.032 1.035.714 2.14 1.463 3.176 1.998 1.212.642 2.212.928 3.14.928.962 0 1.854-.713 2.782-1.427.678-.535 1.356-1.07 2.176-1.427.11-.035.144-.178.11-.285m-26.068-2.676c-.144 0-.247 0-.357.034v-2.212a14.035 14.035 0 0 1-3.246-.5v2.748c-.143-.074-.246-.074-.39-.074a1.27 1.27 0 0 0-1.284 1.249c0 .57.356 1.106.643 1.427.144-.32.288-.606.466-.606.39 0 .213 1.926 1.356 1.962a.55.55 0 0 0-.075.321c0 .5.39.892.892.892.5 0 .892-.393.892-.892 0-.107 0-.213-.075-.321 1.142-.034.964-1.962 1.32-1.962.213 0 .323.25.5.606.289-.32.61-.856.61-1.427 0-.606-.465-1.249-1.248-1.249m-1.998 4.852a.508.508 0 0 1-.5-.499c0-.285.212-.5.5-.5.287 0 .5.214.5.5 0 .25-.213.5-.5.5m2.64-2.819c-.144-.25-.322-.393-.5-.393-.749 0-.466 1.998-1.356 1.998-.39 0-.61-.249-.61-.535 0-.25.178-.357.178-.57 0-.25-.178-.321-.356-.321-.212 0-.39.073-.39.32 0 .214.212.321.212.571 0 .285-.212.535-.603.535-.891 0-.61-1.998-1.355-1.998-.178 0-.39.143-.5.393-.144-.285-.247-.57-.247-.785 0-.356.288-.855.892-.855 1 0 .785 1.391 1.249 1.391.212 0 .356-.142.356-.357 0-.392-.678-.749-.678-1.32 0-.57.5-1.034 1.07-1.498.569.464 1.07.927 1.07 1.498 0 .57-.713.928-.713 1.32 0 .214.178.357.39.357.467 0 .254-1.391 1.25-1.391.602 0 .892.499.892.855 0 .214-.11.5-.247.785m.527-7.524c-1.855-.464-4.067-1.25-6.136-2.177v-.034c0-.428-.11-.891-.425-1.249a1.5 1.5 0 0 0-1.177-.57 1.72 1.72 0 0 0-.569.107 9.602 9.602 0 0 1-.82-.892c-.785-.892-1.391-1.962-1.855-3.14a14.434 14.434 0 0 1-.5-2.104c-.11.606-.784 1.391-1.962 1.391.07-.107 0-.428-.075-.464-.322.357-.784.714-1.82.357.145.821.391 1.606.679 2.39a13.73 13.73 0 0 0 2.675 4.496c.357.428.75.82 1.177 1.177v.25c0 .428.425 1.105 1.035 1.427.5.213 1.034.178 1.498-.179.927.464 2.069.928 3.318 1.25 1.39.392 2.712.605 3.781.605.893 0 2.105-.428 3.283-1.177a6.63 6.63 0 0 0 1.212-.928c.075-.034.11-.073.144-.106-.927.106-2.319-.143-3.425-.429m-6.814-2.782-.178-.143c-.356-.285-.678-.285-.999 0-.144.143-.287.285-.424.464l-.213.214.144.107c.39.32.425.641.322.855-.069.074-.075.107-.178.143-.178.034-.466 0-.749-.178l-.144-.107-.075.142c-.069.034-.069.074-.075.107-.068.073-.075.107-.11.178-.143.285-.212.5-.212.678v.142c.075.214.213.285.39.357l.076.073c.178.107.425.25.61.357-.357.178-.679.214-1.036.034-.5-.249-.82-.82-.82-1.105 0-.464.179-1 .535-1.57l.075-.107v-.073c-.144-.178-.212-.357-.288-.535.213.034.39.073.569.142h.11l.074-.073c.213-.25 1-1.035 1.713-1.035.356 0 .678.178.927.464.178.214.288.464.322.713a2.481 2.481 0 0 0-.322-.25m1.213 3.532c-.465 0-.82-.357-.82-.784 0-.464.356-.82.82-.82.425 0 .785.356.785.82a.791.791 0 0 1-.785.784m3.46 1.07a.717.717 0 0 1-.712-.713c0-.428.322-.713.713-.713.425 0 .75.285.75.713 0 .393-.323.714-.75.714m-.118-42.309c-.428-.321-.749-.82-.821-1.32.5.073 1.035.429 1.356.856V.607c-.322.428-.856.784-1.356.856.073-.5.357-.928.784-1.463h-1.962c.429.535.714.963.785 1.463-.5-.073-1.035-.429-1.356-.856V2.64c.32-.428.856-.784 1.356-.855-.073.5-.393.999-.82 1.32zm-2.818 2.462c.178.82.927 1.427 1.783 1.427.893 0 1.641-.607 1.82-1.427zm2.176-.75h1.427c-.107-.748-.678-1.32-1.427-1.498zm-.75 0V3.318c-.748.178-1.32.75-1.462 1.499zm1.392 2.82a3.618 3.618 0 0 1-.678.177v2.533h.678zm-2.034 2.71h.678V7.813a2.177 2.177 0 0 1-.678-.213zm2.177-3.175c0 .322.249.571.57.571.322 0 .607-.25.607-.57a.6.6 0 0 0-.606-.607c-.322 0-.571.25-.571.606m1.962-.071c.321 0 .57-.25.57-.606a.562.562 0 0 0-.57-.571c-.322 0-.607.25-.607.57a.6.6 0 0 0 .607.607m1.463-.428c.321 0 .57-.25.57-.571 0-.32-.249-.606-.57-.606a.6.6 0 0 0-.607.606c0 .322.25.57.607.57m4.138 1.32c.32 0 .606-.248.606-.57a.625.625 0 0 0-.606-.606.625.625 0 0 0-.606.606c0 .322.285.57.606.57m-1.142-.998c.321 0 .571-.285.571-.606s-.25-.571-.57-.571c-.322 0-.607.25-.607.57 0 .322.285.607.606.607m-1.462-.464c.321 0 .57-.25.57-.57 0-.322-.249-.607-.57-.607a.625.625 0 0 0-.607.606c0 .32.285.571.607.571m3.175 4.495a.604.604 0 0 0-.61.607c0 .32.247.57.61.57a.56.56 0 0 0 .568-.57c0-.322-.246-.607-.568-.607m.285-1.427a.604.604 0 0 0-.61.606c0 .322.247.571.61.571a.56.56 0 0 0 .569-.57c0-.322-.247-.607-.569-.607m-.785-.856c0 .357.25.606.571.606a.6.6 0 0 0 .607-.606c0-.32-.285-.57-.607-.57-.321 0-.57.25-.57.57m-10.525-.999c.321 0 .57-.25.57-.57 0-.322-.249-.607-.57-.607a.625.625 0 0 0-.607.606c0 .322.285.571.607.571M50.054 7.1c.321 0 .606-.25.606-.606 0-.322-.285-.571-.606-.571a.563.563 0 0 0-.571.57c0 .358.25.607.57.607m-1.462-.428c.321 0 .606-.25.606-.571a.625.625 0 0 0-.606-.606c-.322 0-.571.285-.571.606 0 .322.25.57.57.57m-4.138 1.32a.562.562 0 0 0 .571-.57c0-.32-.25-.606-.57-.606a.6.6 0 0 0-.607.606c0 .322.25.57.606.57m1.142-.998c.322 0 .57-.285.57-.606s-.248-.571-.57-.571c-.321 0-.606.25-.606.57 0 .322.285.607.606.607m1.463-.464c.32 0 .606-.25.606-.57a.625.625 0 0 0-.606-.607.625.625 0 0 0-.607.606c0 .32.285.571.607.571m-2.57 5.102a.603.603 0 0 0-.609-.606c-.322 0-.568.25-.568.606 0 .321.246.57.568.57.322 0 .61-.249.61-.57m-.285-1.427a.603.603 0 0 0-.61-.606c-.322 0-.568.25-.568.606 0 .321.246.57.568.57.322 0 .61-.249.61-.57m-.393-.856c.32 0 .571-.25.571-.607 0-.32-.25-.57-.57-.57-.358 0-.607.25-.607.57 0 .357.25.607.606.607m13.736.392c.322.642.644.999.568 1.534 0 .5-.568.856-.82 1.356-.213-.606-.61-1.035-.535-1.499 0-.463.678-1.07.785-1.391m-8.74 0c-.321.642-.609.999-.568 1.534 0 .5.569.856.821 1.356.213-.606.61-1.035.569-1.499-.075-.463-.713-1.07-.821-1.391m93.65 184.374c-1.642 4.21-3.104 5.78-6.279 5.78-.82 0-1.641-.107-2.426-.393v-3.247c.644.214 1.355.5 2.07.5 1.461 0 2.246-.714 2.925-1.962l1.462-3.675-8.562-21.406h3.995l6.28 17.624h.11l6.028-17.624h3.746zm-14.949-17.481c-.534-2.712-2.425-4.281-5.315-4.281-5.138 0-6.708 4.03-6.708 8.383 0 3.96 1.784 7.885 6.28 7.885 3.424 0 5.458-1.998 5.922-5.245h3.639c-.82 5.245-4.103 8.384-9.526 8.384-6.564 0-10.06-4.602-10.06-11.024 0-6.421 3.317-11.523 10.167-11.523 4.852 0 8.777 2.283 9.276 7.42zm-36.782-6.922h3.318v3.425h.075c1.499-2.675 3.924-3.924 7.029-3.924 5.672 0 7.384 3.247 7.384 7.884v14.164h-3.531v-14.592c0-2.64-1.642-4.316-4.389-4.316-4.281 0-6.35 2.854-6.35 6.742v12.166h-3.532zm-6.67 8.705c-.179-3.353-2.713-6.064-6.209-6.064-3.71 0-5.922 2.782-6.172 6.064zm3.424 5.994c-.963 4.745-4.388 7.35-9.205 7.35-6.885 0-10.131-4.746-10.346-11.346 0-6.457 4.246-11.202 10.132-11.202 7.635 0 9.954 7.135 9.74 12.344H71.673c-.11 3.746 1.998 7.064 6.708 7.064 2.925 0 4.958-1.427 5.6-4.21zm-26.222-4.352c0-3.818-1.677-7.706-6.137-7.706-4.53 0-6.35 3.71-6.35 7.813 0 3.888 1.392 8.205 6.065 8.205s6.421-4.281 6.421-8.312m3.497 9.347c0 7.028-3.21 10.595-10.025 10.595-4.031 0-8.67-1.64-8.884-6.314h3.533c.178 2.568 3.246 3.496 5.565 3.496 4.638 0 6.458-3.354 6.458-8.17v-1.427h-.075c-1.178 2.64-3.996 3.925-6.708 3.925-6.421 0-9.632-5.066-9.632-10.917 0-5.102 2.498-11.38 9.954-11.38 2.71 0 5.137 1.212 6.421 3.567h.07v-3.069h3.353zm-38.637-10.453h10.06l-4.959-13.878h-.075zm2.96-17.446h4.354l11.63 29.754h-4.388l-3.247-8.955H24.867l-3.354 8.955h-4.067zm157.404-20.8c.11 3.176 2.854 4.175 5.78 4.175 2.211 0 5.208-.535 5.208-3.21 0-2.748-3.496-3.212-7.028-3.997-3.496-.82-7.064-1.962-7.064-6.1 0-4.317 4.317-6.1 8.063-6.1 4.745 0 8.527 1.498 8.812 6.742h-3.532c-.247-2.747-2.676-3.639-4.995-3.639-2.14 0-4.602.606-4.602 2.747 0 2.533 3.746 2.961 7.064 3.746 3.532.785 7.028 1.962 7.028 6.136 0 5.138-4.78 6.779-9.169 6.779-4.816 0-8.919-1.962-9.133-7.278zm-16.697 4.175c4.745 0 6.6-4.103 6.6-8.134 0-4.246-1.926-8.17-6.813-8.17-4.817 0-6.458 4.138-6.458 8.348 0 4.032 2.105 7.956 6.671 7.956m9.99 2.604h-3.532v-2.925h-.075c-1.177 2.39-3.924 3.425-6.886 3.425-6.635 0-9.917-5.245-9.917-11.345 0-6.065 3.246-11.167 9.846-11.167 2.212 0 5.352.821 6.957 3.354h.075v-11.06h3.531zm-32.18-21.548h3.318v4.567h.075c1.712-3.461 4.103-5.174 7.92-5.066v3.781c-5.708 0-7.778 3.247-7.778 8.705v9.561h-3.531zm-8.17 10.417c-1.356 1-4.031 1.07-6.386 1.463-2.354.428-4.352 1.249-4.352 3.889 0 2.319 1.998 3.14 4.174 3.14 4.673 0 6.564-2.89 6.564-4.853zm5.744 11.06c-.603.357-1.392.57-2.533.57-1.82 0-2.996-.998-2.996-3.317-1.963 2.283-4.567 3.318-7.564 3.318-3.924 0-7.135-1.749-7.135-6.03 0-4.887 3.639-5.922 7.277-6.635 3.925-.75 7.278-.5 7.278-3.176 0-3.068-2.568-3.567-4.816-3.567-2.997 0-5.208.927-5.35 4.067h-3.569c.212-5.316 4.353-7.207 9.134-7.207 3.888 0 8.098.892 8.098 5.923v11.095c0 1.676 0 2.39 1.106 2.39.287 0 .644-.034 1.07-.178zm-33.464-2.533c4.745 0 6.565-4.103 6.565-8.134 0-4.246-1.892-8.17-6.78-8.17-4.85 0-6.456 4.138-6.456 8.348 0 4.032 2.069 7.956 6.67 7.956m9.99 2.604h-3.532v-2.925h-.11c-1.14 2.39-3.888 3.425-6.85 3.425-6.635 0-9.917-5.245-9.917-11.345 0-6.065 3.247-11.167 9.81-11.167 2.213 0 5.388.821 6.957 3.354h.11v-11.06h3.532zm-41.42-21.547h3.318v3.425h.11c1.498-2.676 3.889-3.924 6.992-3.924 5.637 0 7.421 3.282 7.421 7.884v14.163h-3.568V132.93c0-2.64-1.641-4.352-4.352-4.352-4.281 0-6.386 2.89-6.386 6.743v12.165h-3.532zm-8.205 10.417c-1.391 1-4.032 1.07-6.422 1.463-2.32.428-4.316 1.249-4.316 3.889 0 2.319 1.997 3.14 4.137 3.14 4.674 0 6.6-2.89 6.6-4.853zm5.744 11.06c-.644.357-1.427.57-2.534.57-1.854 0-2.996-.998-2.996-3.317-1.962 2.283-4.602 3.318-7.599 3.318-3.925 0-7.1-1.749-7.1-6.03 0-4.887 3.603-5.922 7.278-6.635 3.925-.75 7.243-.5 7.243-3.176 0-3.068-2.533-3.567-4.781-3.567-2.997 0-5.208.927-5.387 4.067h-3.532c.212-5.316 4.317-7.207 9.133-7.207 3.853 0 8.063.892 8.063 5.923v11.095c0 1.676 0 2.39 1.142 2.39.287 0 .61-.034 1.07-.178zm-26.437-21.477h4.318v3.14h-4.318v13.378c0 1.605.466 1.927 2.677 1.927h1.64v3.103h-2.711c-3.674 0-5.137-.749-5.137-4.709v-13.7h-3.639v-3.139h3.639v-6.422h3.531zm-13.2.535c-.465-4.281-3.282-6.1-7.35-6.1-3.352 0-6.67 1.212-6.67 5.101 0 3.64 4.745 4.174 9.525 5.28 4.745 1.07 9.49 2.747 9.49 8.562 0 6.35-6.207 8.884-11.595 8.884-6.67 0-12.307-3.247-12.307-10.489h3.745c0 4.995 4.174 7.17 8.67 7.17 3.603 0 7.527-1.14 7.527-5.422 0-4.103-4.745-4.78-9.49-5.85-4.744-1.035-9.525-2.391-9.525-7.85 0-6.064 5.351-8.704 10.774-8.704 6.1 0 10.703 2.854 10.952 9.418zm253.3-35.569c-.178-3.354-2.71-6.1-6.207-6.1-3.71 0-5.922 2.818-6.172 6.1zm3.425 5.994c-.963 4.745-4.388 7.349-9.204 7.349-6.885 0-10.132-4.745-10.346-11.345 0-6.457 4.245-11.202 10.132-11.202 7.599 0 9.954 7.135 9.74 12.344h-16.126c-.107 3.745 1.998 7.063 6.707 7.063 2.925 0 4.959-1.427 5.601-4.21zm-26.364 6.814h3.532V73.994h-3.532zm-6.957-14.592c-.534-2.711-2.426-4.317-5.316-4.317-5.137 0-6.707 4.067-6.707 8.42 0 3.96 1.784 7.884 6.28 7.884 3.424 0 5.458-1.997 5.922-5.244h3.603c-.785 5.244-4.067 8.384-9.49 8.384-6.564 0-10.06-4.602-10.06-11.024 0-6.457 3.317-11.523 10.167-11.523 4.852 0 8.776 2.283 9.276 7.42zm-22.654-6.92h3.532v21.547h-3.532zm3.532-3.854h-3.532v-4.352h3.532zm-25.723-4.352h3.532v11.38h.075c1.178-2.604 4.21-3.674 6.779-3.674 5.672 0 7.42 3.246 7.42 7.884v14.163h-3.532V89.156c0-2.64-1.676-4.317-4.388-4.317-4.28 0-6.35 2.854-6.35 6.743v12.165h-3.532zm-6.671 16.91c-.178-3.353-2.711-6.1-6.208-6.1-3.71 0-5.922 2.818-6.172 6.1zm3.425 5.994c-.963 4.745-4.388 7.349-9.204 7.349-6.886 0-10.133-4.745-10.346-11.345 0-6.457 4.244-11.202 10.131-11.202 7.635 0 9.954 7.135 9.74 12.344h-16.126c-.11 3.745 1.998 7.063 6.707 7.063 2.926 0 4.96-1.427 5.601-4.21zm-28.613 6.85h-4.495l-10.489-29.754h4.282l8.49 25.793h.076l8.597-25.793h4.103zm-36.532-23.475c0-1.713-1.284-3.176-3.425-3.176-1.64 0-3.425 1.035-3.425 3.176 0 1.783 1.606 3.567 2.89 5.173 1.713-1.07 3.96-2.676 3.96-5.173m-5.137 9.097c-2.783 1.57-5.173 3.14-5.173 6.707 0 2.997 2.819 5.03 5.672 5.03 2.711 0 4.888-1.39 6.35-3.532zm8.812 10.667c-1.82 2.783-5.173 4.21-8.42 4.21-8.027 0-9.311-5.708-9.311-8.134 0-4.674 3.175-6.993 6.992-8.99-1.676-2.39-3.317-3.96-3.317-6.993 0-3.282 2.425-6.136 6.706-6.136 3.71 0 7.207 2.033 7.207 6.065 0 3.567-2.711 6.1-5.565 7.706l5.351 6.564c.535-1.463.892-3.068.963-4.638h3.39c-.288 3.496-.75 4.71-1.998 7.314l5.78 6.742h-4.639zm-41.17-17.838h3.353v4.531h.075c1.712-3.46 4.067-5.137 7.92-5.03v3.746c-5.708 0-7.812 3.246-7.812 8.705v9.596h-3.533zm-6.6 8.705c-.178-3.353-2.712-6.1-6.208-6.1-3.71 0-5.922 2.818-6.172 6.1zm3.425 5.994c-.964 4.745-4.388 7.349-9.205 7.349-6.886 0-10.132-4.745-10.346-11.345 0-6.457 4.245-11.202 10.132-11.202 7.635 0 9.954 7.135 9.74 12.344H91.866c-.11 3.745 1.998 7.063 6.707 7.063 2.926 0 4.959-1.427 5.601-4.21zm-27.65 6.85h-3.817l-7.991-21.549h3.96l6.065 17.945h.075l5.85-17.945h3.711zM62.397 82.199h3.532v21.548h-3.532zm3.532-3.853h-3.532v-4.352h3.532zm-16.91 3.853h3.318v4.531h.11c1.677-3.46 4.066-5.137 7.92-5.03v3.746c-5.708 0-7.813 3.246-7.813 8.705v9.596h-3.533zm-24.081 18.195h6.6c2.675 0 9.99-.75 9.99-11.702 0-7.064-2.641-11.38-9.92-11.38h-6.67zm-3.96-26.4h10.203c9.169 0 14.306 4.566 14.306 14.163 0 9.954-4.388 15.59-14.306 15.59H20.978z"/>
</svg>