<svg xmlns="http://www.w3.org/2000/svg" width="460" height="217">
  <path d="M459.504 205.624c-1.33 6.914-6.183 10.554-13.215 10.554-9.94 0-14.546-6.914-14.911-16.372 0-9.328 6.066-16.124 14.546-16.124 11.036 0 14.31 10.306 14.063 17.82h-23.274c-.118 5.453 2.91 10.188 9.694 10.188 4.252 0 7.161-1.943 8.01-6.066zm-4.97-8.61c-.236-4.84-3.875-8.727-8.975-8.727-5.324 0-8.598 4.004-8.846 8.728zm-31.4-2.544c-.731-3.875-3.393-6.183-7.633-6.183-7.397 0-9.705 5.948-9.705 12.131 0 5.819 2.544 11.39 9.092 11.39 4.97 0 7.88-2.791 8.492-7.515h5.206c-1.083 7.633-5.818 12.002-13.698 12.002-9.458 0-14.546-6.548-14.546-15.877 0-9.34 4.853-16.619 14.664-16.619 7.032 0 12.615 3.275 13.345 10.671zM395.49 178.83H390.4v-6.184h5.089zm-5.089 5.583h5.089v31.035H390.4zm-14.675 31.035h-5.454l-11.519-31.035h5.7l8.729 25.818h.117l8.493-25.818h5.335zm-34.675-31.035h4.852v6.548h.118c2.426-5.1 5.948-7.396 11.401-7.278v5.453c-8.244 0-11.271 4.605-11.271 12.497v13.815h-5.1zm-4.606 21.212c-1.33 6.914-6.183 10.554-13.215 10.554-9.94 0-14.546-6.914-14.911-16.372 0-9.328 6.066-16.124 14.546-16.124 11.036 0 14.31 10.306 14.063 17.82h-23.274c-.13 5.453 2.91 10.188 9.694 10.188 4.252 0 7.161-1.943 8.01-6.066zm-4.97-8.61c-.247-4.84-3.875-8.727-8.975-8.727-5.336 0-8.61 4.004-8.846 8.728zm-33.462-11.872c-.613-6.184-4.735-8.74-10.671-8.74-4.853 0-9.576 1.708-9.576 7.28 0 10.553 27.396 3.156 27.396 19.999 0 9.105-8.963 12.732-16.725 12.732-9.576 0-17.702-4.723-17.702-15.147h5.453c0 7.15 5.936 10.306 12.485 10.306 5.217 0 10.918-1.578 10.918-7.761 0-11.767-27.408-4.005-27.408-19.764 0-8.61 7.644-12.485 15.524-12.485 8.728 0 15.524 4.122 15.76 13.58zm-68.02 20.612c.118 4.605 4.24 6.054 8.363 6.054 3.157 0 7.526-.73 7.526-4.605 0-7.998-20.258-2.544-20.258-14.546 0-6.184 6.066-8.858 11.649-8.858 6.913 0 12.237 2.191 12.732 9.706h-5.218c-.247-4.005-3.875-5.218-7.15-5.218-3.038 0-6.548.848-6.548 4.004 0 3.64 5.453 4.358 10.176 5.454 5.1 1.095 10.189 2.909 10.189 8.845 0 7.397-6.914 9.823-13.216 9.823-6.913 0-12.85-2.78-13.097-10.541h4.853zm-14.675-33.109h5.1v42.802h-5.1zm-3.757 42.685c-.848.483-2.18.848-3.628.848-2.674 0-4.37-1.46-4.37-4.853-2.791 3.392-6.548 4.853-10.906 4.853-5.701 0-10.306-2.427-10.306-8.728 0-7.032 5.206-8.61 10.541-9.587 5.583-1.084 10.436-.601 10.436-4.606 0-4.487-3.77-5.206-6.914-5.206-4.37 0-7.515 1.331-7.762 5.937h-5.1c.247-7.633 6.184-10.424 13.097-10.424 5.583 0 11.637 1.213 11.637 8.48v16.007c0 2.426 0 3.51 1.579 3.51.494 0 .977-.118 1.578-.236v4.005zm-8.363-15.89c-3.993 2.91-15.512 0-15.512 7.645 0 3.392 2.91 4.605 6.054 4.605 6.667 0 9.458-4.122 9.458-7.031zm-51.047-15.028h4.853v4.97h.13c2.178-3.887 5.57-5.7 10.058-5.7 8.127 0 10.671 4.734 10.671 11.4v20.365h-5.1V194.47c0-3.875-2.414-6.183-6.301-6.183-6.184 0-9.21 4.122-9.21 9.705v17.573h-5.1zm-6.183 31.035h-4.841v-4.97h-.13c-2.179 3.875-5.57 5.7-10.058 5.7-8.127 0-10.672-4.734-10.672-11.4v-20.365h5.089v20.977c0 3.875 2.426 6.183 6.313 6.183 6.183 0 9.21-4.122 9.21-9.705v-17.573h5.089zm-59.645-42.802h5.088v16.007h.13c1.696-3.392 5.57-4.97 9.94-4.97 9.576 0 14.3 7.514 14.3 16.371 0 8.846-4.724 16.125-14.182 16.125-3.156 0-7.762-1.213-10.058-4.853h-.13v4.122h-5.088zm14.428 15.642c-6.914 0-9.458 5.936-9.458 11.766 0 6.054 2.792 11.755 9.823 11.755 6.914 0 9.329-5.936 9.329-12.002-.118-5.936-3.145-11.52-9.694-11.52m-20.73-9.457h-5.1v-6.184h5.1zm-5.1 5.583h5.1v31.035h-5.1zm-19.269 0h4.841v6.549h.13c2.426-5.1 5.936-7.397 11.39-7.28v5.454c-8.246 0-11.273 4.605-11.273 12.497v13.815h-5.088zm-17.337-7.032h-14.31v-4.852h34.309v4.852h-14.31v38.067h-5.69zm312.924-31.766c-2.544 4.005-7.397 6.054-12.132 6.054-11.637 0-13.333-8.244-13.333-11.754 0-6.667 4.605-10.059 10.059-12.968-2.415-3.404-4.723-5.819-4.723-10.07 0-4.606 3.392-8.846 9.705-8.846 5.324 0 10.424 2.91 10.424 8.728 0 5.206-3.887 8.727-8.01 11.154l7.762 9.458c.73-2.18 1.214-4.37 1.343-6.667h4.841c-.483 5.206-1.084 6.667-2.91 10.542l8.375 9.705h-6.678zm-12.615-15.406c-3.993 2.191-7.396 4.617-7.396 9.706 0 4.37 4.004 7.279 8.126 7.279 3.876 0 7.032-1.944 9.093-5.1zm7.397-13.085c0-2.427-1.814-4.606-4.97-4.606-2.427 0-4.97 1.45-4.97 4.606 0 2.544 2.308 5.088 4.122 7.396 2.544-1.578 5.818-3.639 5.818-7.396m-60.74 24.004c.118 4.605 4.24 6.066 8.362 6.066 3.157 0 7.526-.73 7.526-4.606 0-8.009-20.258-2.556-20.258-14.558 0-6.183 6.066-8.845 11.649-8.845 6.913 0 12.237 2.179 12.732 9.693h-5.1c-.247-3.992-3.875-5.206-7.15-5.206-3.038 0-6.548.848-6.548 3.993 0 3.64 5.453 4.37 10.188 5.454 5.088 1.095 10.176 2.92 10.176 8.857 0 7.397-6.913 9.823-13.215 9.823-6.902 0-12.85-2.792-13.085-10.553h4.723zm-13.463-21.225h6.184v4.488h-6.184v19.28c0 2.427.613 2.792 3.887 2.792h2.297v4.488h-3.875c-5.336 0-7.397-1.096-7.397-6.796V124.39h-5.336v-4.488h5.336v-9.328h5.088zm-27.997 0h4.841v6.55h.13c2.426-5.09 5.936-7.386 11.39-7.268v5.453c-8.245 0-11.272 4.606-11.272 12.485v13.828h-5.089zm-6.183 31.048h-4.853v-4.97h-.13c-2.179 3.874-5.57 5.688-10.058 5.688-8.115 0-10.671-4.723-10.671-11.39v-20.376h5.1v20.977c0 3.887 2.414 6.184 6.301 6.184 6.184 0 9.21-4.122 9.21-9.693v-17.468h5.1zm-45.229-31.766c9.823 0 15.03 7.15 15.03 16.242 0 9.093-5.207 16.242-15.03 16.242s-15.029-7.15-15.029-16.242c0-9.093 5.206-16.242 15.03-16.242m0 28.009c5.335 0 9.705-4.252 9.705-11.767 0-7.514-4.37-11.755-9.706-11.755-5.335 0-9.705 4.24-9.705 11.755 0 7.515 4.37 11.767 9.705 11.767m-24.369-26.195c-1.213-6.054-6.066-9.093-12.002-9.093-10.188 0-14.546 8.363-14.546 17.338 0 9.823 4.358 17.938 14.546 17.938 7.397 0 11.884-5.324 12.367-12.356h5.7c-1.095 10.79-7.643 17.208-18.55 17.208-13.215 0-19.764-9.81-19.764-22.308 0-12.484 7.032-22.543 20.247-22.543 8.975 0 16.372 4.84 17.703 13.934h-5.7zM70.198 108.03h7.762l13.45 36.006 13.581-36.006h7.762v42.79H107.3v-35.64h-.13l-13.333 35.64h-4.853l-13.332-35.64h-.118v35.64h-5.336zm-41.706 0h5.7v18.421h22.662V108.03h5.7v42.79h-5.7v-19.634H34.31v19.634h-5.7v-42.79zm81.953-31.648h-2.415c-5.218-.483-10.436-2.061-15.771-2.91-1.567-.235-2.78-.482-3.875-.482-2.18 0-3.757.966-5.583 4.84-.718 1.461 1.826 2.792 2.426 2.922-2.06-1.826-1.33-2.309.248-2.309 2.308 0 6.419.966 7.149 1.095 4.853.73 9.705 2.18 14.546 2.662h.495c3.627 0 3.392-3.875 5.936-5.818zM90.692 74.32c-.13.117-.612 3.156-.494 3.392l-.848-.118c.13-.247.365-2.309.365-2.309l-1.331 2.191-.848-2.426s-.365 1.696-.365 2.297l-.848-.118c.247-.365.73-3.522.73-3.522l.848.13c0 .118.6 2.308.6 2.308s1.096-1.825 1.096-1.943zm2.91 2.662c-.73 2.426-3.522 1.095-2.674-1.084.73-2.426 3.522-1.095 2.674 1.084m2.78 2.19c-.236 0-1.567-2.791-1.567-2.791s-.365 2.061-.365 2.308l-.613-.13.73-3.274.73.13c0 .118 1.084 2.297 1.084 2.297s.365-1.814.365-1.932l.483.118zm3.156.236c-.483.13-1.213 0-1.696-.118l.718-3.392c2.191-.118 3.157 2.662.978 3.51m4.004-1.578c-.13.365-.365.612-.848.86.236.718.354.847.719 1.578l-.483-.13c-.118-.118-.73-.966-.966-1.578-.13.365-.247.977-.247 1.343l-.966-.13c.118-.236.848-3.027.848-3.392.73.247 2.18.365 1.944 1.449m1.696 2.673c-2.062.365-2.062-3.027-.365-3.521 2.06-.354 2.06 3.038.365 3.521m2.179-1.943c-.118.612-.366 1.825-.248 2.426l-.848-.118c.365-.848.613-2.426.495-3.392l.848.118c-.13.236-.247.6-.247.966m1.814-.118s-.483 2.662-.483 2.91l-.848-.118s.483-2.309.612-2.792c-.247 0-.612 0-.977.118l.365-.6 2.179.364.13.73c-.13-.365-.613-.612-.978-.612m-16.608-3.392c-1.213-.365-1.696 2.179-.73 2.662 1.343.365 1.708-2.18.73-2.662m9.576 1.932-.365 1.342c.977.236 1.46-1.213.365-1.342m3.156.494c-1.213-.247-1.578 2.18-.6 2.544 1.201.365 1.566-2.179.6-2.544m-6.183-1.095c-.118.6-.483 1.943-.483 2.544 1.578.365 2.061-2.179.483-2.544M62.189 72.99c-7.997 0-15.995 3.392-23.874 3.392-.978 0-1.944 0-2.91-.118 2.415 1.932 2.297 5.819 5.937 5.819h.483c4.852-.483 9.823-1.944 14.546-2.674.848-.118 4.852-1.084 7.16-1.084.849 0 1.45.118 1.697.483.235.483-1.331 1.814-1.331 1.814.118 0 1.084-.483 1.696-.966 2.544-1.696-2.91-6.666-3.404-6.666m-16.843 6.666c-.494 1.084-1.696 1.213-2.791 1.449 0-.365-.613-3.274-.73-3.628 1.825-.73 4.24 0 3.521 2.18m1.084.612c0-1.096-.236-2.674-.73-3.64l.977-.247c0 1.095.247 2.662.73 3.64zm3.887-.86-2.062.495c0-.366-.612-3.275-.848-3.522l2.18-.483-.119.73c-.365-.13-.612-.13-1.095 0l.236 1.084 1.225-.236.235.483c-.235 0-.966.118-1.33.236l.235 1.095a4.102 4.102 0 0 0 1.46-.6zm2.179-.365c-1.579 0-1.696-2.18-2.062-3.263l.73-.13c.366.978.236 3.157 1.815 2.792 1.095-.483.247-2.309.117-3.157l.73-.117c.248 1.578.849 4.122-1.33 3.875m6.066-.966-2.062.483c0-.365-.612-3.275-.848-3.51l2.18-.483-.119.718c-.365-.117-.612-.117-1.095 0l.247 1.096 1.213-.247.236.494c-.236 0-.966.118-1.331.236l.235 1.095a4.101 4.101 0 0 0 1.46-.612zm2.178-3.64.613 3.04-.73.117-.613-3.027c-.483.118-.73.118-1.213.353v-.718l3.027-.365.247.6c-.365-.117-1.33 0-1.33 0M44.002 77.96c-.365-.247-.718-.247-1.213-.247.13.73.365 2.061.613 2.791 1.33-.247 1.696-1.814.6-2.544m52.143-31.036c-.365-.73-1.096-4.617-2.191-3.769 4.982 9.34 1.696 21.59-7.032 27.526-2.544 1.578-5.689 4.123-8.727 2.426 1.943-7.514 11.271-4.357 13.215-18.786-.236-.13-.365-.247-.6-.247-.248 2.061-.849 4.004-1.58 5.818.849-2.179.236-8.845.484-9.21-.118-.13-.118-.13-.483-.483v2.179H75.169V37.702h13.816v8.374s0 .483.13.601c.235-.247.235-.247.353-.365v-8.975H60.375v7.526h.483v-7.16h13.946v14.675H61.34v-.248l-.118.248h-.365v-1.096h-.483c-.365 1.096.6 10.306 2.18 12.002-3.028-2.909-3.994-8.115-3.393-12.12 0 0-.247-.247-.6-.482-.978 5.57 1.083 11.036 4.97 14.911.365.365.73 0 1.083-.118l-.235-.612c-3.039-2.309-3.522-8.975-3.64-12.002h13.946v18.55c-2.91-.117-4.97-3.392-7.88-3.392 4.123 2.427 11.637 8.363 16.36 5.69l.13.129c-.495.6-2.309 1.814-3.039 1.448-1.33-.718-3.274.613-2.426 2.062.13.13.247.365 0 .494-5.089-.494-9.694-3.521-14.064-6.183l-.117.118c1.696 2.179 7.632 4.97 7.632 4.97v3.274s.365.236.612.365v-3.639c1.579.483 4.723 1.578 4.723 1.578v2.297l.613-.365V78.56l.848-.236c.483-.13.848-.612.848-1.213-.247-.13-.365-.365-.365-.73.118-.6.966-.73 1.213-.236.612.236 1.33-.494 1.943-.73.848-.483 1.932-.978 2.427-2.061a.883.883 0 0 1 .483-.483c1.813-.978 3.51-2.19 4.97-3.64 6.42-5.335 8.61-14.428 6.549-22.308m-20.86 5.819H89.35c1.213 10.789-5.206 14.428-14.064 18.185zm.248 19.28c.966-.859 1.696-1.224 3.027-1.46-.365.848-.73 1.579-1.084 2.309-.612-.247-1.343-.613-1.943-.848m7.397-15.771h-.248c0 .365-.365.247-.483.483.118.13.118.247.366.247.235 0 .117.247.365.247.848-.365 1.813-.247 2.544-.977a1.073 1.073 0 0 1-.365-.848c-.483 0-.966 0-1.331.247 0 .236.118.365.235.483-.483.236-.848.236-1.083.118m-.978-10.789c-.6 0-1.084-.118-.966.612 0 .118.118.719.247.837v.247c-.247.118-1.213-.247-1.095-.6 0-.248-.247-.366-.365-.118 0 .117-.118.117-.236 0-.13-.248-.365.117-.365.235 0 .118 0 .118-.13.118-.235.118-.235.483.13.483.848.365 1.449.73 2.415.612.977-.117.494-.247.494-.977-.13-.601 1.084-1.084-.13-1.449m1.944-1.331.366.73s.73.365.848.365c.365.236.365 1.084 0 .966-.613-.247-.966-1.095-1.331-1.578-.118-.118-.366-.966-.613-.73-2.414.612.495 1.213 0 2.06-.118.119-.365.731-.235.849.235.247.73.483.965.73.366.365 0 .848-.482.483-.248-.236-.613.13-.366.365 0 0-.117.13-.247.13-.235.353.247.353.495.118.118-.118 0 .365.235.235.483-.118 1.214-.353 1.331-1.083.248-.613-.365-.495-.483-1.096-.118-.247-.118-1.095.118-.73.365.365.73.612 1.213.247.366-.365 0-1.213-.117-1.578-.366-.73-.73-1.46-.73-2.297.494-.612 1.095.483 1.46-1.213-1.213.118-2.309.848-1.696 2.179 0 1.084-.13.966-.73.848m-2.545.483.601-.6c0-.13 0-.13.365-.13.848-.118 1.213-.483 1.46-1.331.118-.248 0-.848-.247-.966-.118 0-.118-.118 0-.118s.483-.13.483-.365c-.118-.13-.235 0-.6-.13-.248-.117-.73-.235-.966-.117-.13.247-1.096.247-.978.483 0 .13.118.365.118.365h.495v.365l-.365.118c-.248.365.6.365.848.117.118-.235.365-.235.365 0-.118.248-.483.366-.73.495-.366.118-.483.719-.73.966-.849.118-1.096.118-1.815-.483-.247-.365-.482-.118-.247.118-.118 0-.848-.365-.483.365v.118c-.365.494.118.365.483.494.365.236 1.096.354 1.944.236m-2.31-3.157c.248.13.366.848.613.978.236.365.848 1.33 1.331 1.084.118-.118.365-.483.365-.601l-.247-.247c-.483-.483-.848-.848-.848-1.331 0-.118.247-.366.247-.483 0-.483-.365 0-.612 0-.118-.118-.354-.483-.6-.365-.119 0 0 .365-.119.365 0 0-.13.117-.247.117-.118 0-.247.248.118.483m-15.76 7.762c-.117-.118-.117-.118-.117-.235 0 .235.117.483 0 .6 0 .118-.118.365-.118.483.235.248.353.248.718.13-.118-.13-.235-.613-.483-.978m6.066 1.096c0 .235.118.365.236.6-.236.248-.6.248-.966.248-.118-.118-.247-.483-.483-.365-.118 0-.118.247-.247.247-.365 0-.365 0-.365.235.13 0 .247.13.247.13-.247 1.084 2.791 0 3.274-.365-.118-.247-.365-.365-.365-.73 0-.483-.966-.118-1.33 0m-5.218-1.944c-.483.848-.366 1.696.247 2.427 1.083 0 1.578-1.45 1.33-2.309.119-.118.248-.118.366-.236 0-.117 0-.247-.118-.365h-.495c-.353-.483-.6-.483-1.083 0-.366-.117-.366-.117-.483.118 0 .13 0 .247.235.365m8.858 1.331c-.365.13-.73.247-.978-.118.613-.247 1.213-.117 1.578-.73.248-.365.248-.966-.235-1.213-1.343-.353-2.91.365-4.252.483-2.662.73-.73-.6-2.791-.6.73 2.178 3.038.73 4.605.6-.118.247-.354.365-.471.612.6-.117 1.33.118 1.696-.365.235-.6 1.566-.6 1.33.118-1.33 1.343-5.464.13-7.278.848-.236.86-.73 1.46-1.579 1.578-.6-.365-.965 0-1.566-.117-.13-.118-.13-.118-.247-.248h-.118c0 .365-.13.73-.247 1.096.848.365 1.813-.118 2.661-.366.366-.117.495-.482.978-.482.848.117 1.449-.73 2.179-.849.966-.117 1.943-.365 2.91-.365 1.095 1.46 1.33.248 2.308.73 0 .118 0 .236-.118.484.118 0 .118.117.235.117-.118.365.483.613.483.13 0 0 0-.13.13-.13.235-.117-.613-1.696-1.213-1.213m-9.458-3.875c0-.365-.13-.848-.495-1.095-.353-.365-.483-.848-.118-1.213-.118-.118-.365 0-.6-.236-.248-.247-.366 0-.366.365-.612.118-.247.236-.117.6.235.484.965 1.815 1.696 1.58m5.689-.119c0 .236.13.365.247.601-.247.247-.6.247-.966.247-.118-.13-.247-.483-.483-.365-.13 0-.13.236-.247.236-.365 0-.365 0-.365.247.118 0 .247.118.247.118-.247 1.095 2.78 0 3.274-.365-.13-.236-.365-.354-.365-.719s-.977 0-1.342 0m-5.206-1.943c-.483.848-.365 1.696.235 2.426 1.096 0 1.578-1.46 1.343-2.308.118-.118.235-.118.353-.236 0-.13 0-.247-.118-.365h-.483c-.365-.483-.6-.483-1.095-.118-.353-.13-.353-.13-.483.118 0 .236 0 .365.247.483m8.846 1.33c-.365.119-.718.248-.966-.117.601-.247 1.214-.118 1.579-.73.235-.365.235-.966-.248-1.213-1.33-.365-2.909.365-4.24.483-2.662.73-.73-.601-2.909-.601.73 2.179 3.027.73 4.605.6-.118.248-.365.366-.483.613.601-.118 1.331.118 1.696-.365.248-.6 1.579-.6 1.331.118-1.33 1.33-5.453.13-7.267.848-.247.848-.73 1.46-1.578 1.578-.613-.365-.848-.118-1.331-.118 0 .118.118.365.118.483s0 .365.118.483c.6 0 1.095-.236 1.696-.365.365-.118.483-.483.977-.483.848.118 1.45-.73 2.18-.848.965-.118 1.943-.365 2.909-.365 1.095 1.46 1.33.247 2.308.73 0 .118 0 .247-.13.483.13 0 .13.118.248.118-.118.365.483.612.483.13 0 0 0-.13.118-.13.365-.118-.601-1.696-1.214-1.331m-9.093-4.123c0-.365-.118-.848-.483-1.083-.365-.365-.482-.848-.117-1.213-.118-.13-.366 0-.613-.248-.235-.247-.365 0-.365.366-.6.117-.236.247-.118.6.247.495.978 1.826 1.696 1.578m5.583-.117c0 .235.118.365.236.6-.236.248-.6.248-.848.248-.118-.118-.236-.483-.483-.365-.118 0-.118.247-.236.247-.365 0-.365 0-.365.236.118 0 .236.13.236.13-.236 1.083 2.791 0 3.274-.366-.118-.247-.365-.365-.365-.73-.118-.483-1.084 0-1.449 0m-5.217-1.944c-.483.848-.366 1.696.247 2.427 1.083 0 1.448-1.45 1.33-2.309.119-.118.248-.118.366-.236 0-.117 0-.247-.118-.365h-.495c-.353-.483-.6-.483-1.083 0-.366-.117-.366-.117-.483.118 0 .13.118.247.235.365m-2.296 3.275c.118 0 .235-.118.365 0v.247c.836.365 1.814 0 2.662-.247.365-.118.483-.483.848-.483.848.118 1.33-.73 2.179-.848.977-.118 1.943-.365 2.909-.365 1.095 1.46 1.343.247 2.309.73 0 .118 0 .235-.118.483.118 0 .118.118.235.118-.118.365.483.612.483.13 0 0 0-.13.13-.13.6-.366-.365-1.814-.978-1.45-.365.119-.718.236-.966-.117.6-.247 1.213-.13 1.579-.73.235-.365.235-.978-.248-1.213-1.33-.366-2.791.365-4.24.483-2.662.73-.73-.613-2.791-.613.73 2.19 3.038.73 4.487.613-.118.247-.365.365-.483.6.601-.118 1.213.13 1.696-.353.248-.613 1.579-.613 1.214.118-1.331 1.33-5.454.117-7.28.848-.235.848-.718 1.33-1.578 1.578-.6-.365-.966 0-1.566-.13-.13-.235-.365-.483-.613-.235v.235c-.235.13-.483.495-.235.73m14.063 16.973c.365.613.483 1.46 1.084 1.696.247 0 .73.247.848-.118-.118-.6-.966-1.083-.848-1.813 0-.13 0-.366-.118-.483-.365.117-.966-.613-.73.235-.236.118-.366.365-.236.483m1.932-2.91c0-.847-.966-1.448-.719-2.296.118-.13 0-.365-.13-.495-.235.13-.235.13-.482 0-.366-.235-.366.248-.366.495-.117 0-.117.118-.235.118.235.73.966 2.544 1.932 2.179m0 10.188c-.366-.612-.848-1.213-1.084-1.814.235-.365.118-.86-.365-.612-.13-.248-.365-.365-.613-.248-.118.13-.118.365.13.495v.118h-.13c-.118.365.248.483.366.848.247.483.848 1.943 1.696 1.213m3.64-5.218c-.236 0-.236.248-.119.365.118.13.236 0 .483 0v.248c.848 0 2.18-.73 2.544-1.331-.118-.248-.365-.495-.483-.86-.483.13-.966.13-1.213.612l.483.483c-.365.118-.718.483-.966.248-.118-.13-.483-.13-.483.117v.118zm1.212 3.404c-.483.118-.966.118-1.213.6.118.119.247.366.365.484-.247.612-.848.483-1.33.483 0 .13.117.247.117.365-.235.13-.365.365-.235.612 0 0 .118 0 .235.118.118-.247.365-.365.483 0 .978-.365 1.826-.966 2.309-1.826-.366-.235-.613-.47-.73-.836m3.639-3.769c-1.579-.483-4.123 2.91-5.089 1.944-.247-.601-1.095-.483-1.578-.366.6.495.966 1.331 1.814 1.096.966-.248 1.826-.966 2.674-1.46 0 .247-.248.364-.365.73.6-.236 1.083-.366 1.566-.73-.118-1.697 2.309-.484 0 .494.365 0 .73.236.978-.13.483-.482.6-1.213 0-1.578m-6.302-2.662c-.13-.118-.365-.118-.494-.118-.236-.73-.848-.494-1.202 0-.612-.247-.612.354-.247.601-.365.73-.118 1.944.73 2.309.848-.365 1.084-1.46 1.084-2.309.13 0 .365-.365.13-.483m-2.31 7.397c.849 1.932 2.062-.483 1.815-1.578.612-.483.365-.73-.236-.848-.247-.483-.73-.601-1.095-.118-.118.118-.365.118-.483.118-.365.117-.118.612.118.612-.354.6-.354 1.202-.118 1.814m.118-11.272c-.236.836 0 1.814.73 2.297.848-.365 1.46-1.46 1.095-2.426.236-.118.483-.236.365-.483-.13-.365-.612-.118-.73-.483-.365-.483-.73-.118-.966.247-.247 0-.365-.13-.612 0-.118.354.365.483.118.848m8.127 8.48c-1.814-.235-1.46.978-2.427.73.118-.247.613-.247.483-.612-1.33.613-2.662.978-3.993 1.579-.612.73-.483 2.06-1.943 2.19 0 .719-1.095 1.214-1.696.848-.247.236-.13.236-.13.483-.235.236-.483.601 0 .601.13 0 .247-.236.365-.118v.236h.365c.248-.236.483 0 .73-.236.731-.483 1.826-.966 1.826-2.061 1.331-.612 2.18-2.791 3.875-1.943.848.483 1.084-.966 1.814-.966.247.483.365.483.613.247.483.353.365-.247.6-.495 0-.117-.235-.482-.483-.482M75.9 57.348c.118 0 .118.236.235.365.848 0 1.826-.13 2.674-.247.719 0 .6-.6 1.084-.73 1.213.13 1.943-.966 3.039-1.202.848-.247 2.06-.612 2.909 0 .235.236.483.236.718.236.365-.118.86-.118.978.247-.118.118-.118.118-.247.236 0 .118.13.118.13.247.235 0 .235.118.235.236.13.13.365.13.365 0 0-.236.235-.118.365-.236 0-.612-.13-1.213-.6-1.46-.248-.236-1.343.247-1.343-.236.848.118 2.308-.848 1.213-1.578-1.814-.365-3.758.483-5.454.6-.73.13-.365-.965-1.943-.718.978 2.061 3.157.6 4.853.6 0 .248-.366.119-.248.366.483-.118 1.343.118 1.579-.365.118-.6 1.46-.483 1.095.247-.978.6-2.309.365-3.392.483-1.343.118-2.792.118-4.123.6-.247.731-.612 1.579-1.46 1.826-.6-.612-1.578.118-2.179-.494-.247 0-.247.13-.365.365-.365.13-.483.365-.118.612m9.328 1.696c1.096 0 3.404-1.213 1.696-2.06-.965-.119-1.931.364-2.909.482-3.757 1.46-1.578-.365-3.875-.118.848 2.061 2.792.966 4.24.483 0 .247-.235.247-.235.483.483-.118.966-.236 1.449-.236.247-.977 2.06-.977 1.213 0-2.062.848-4.488.73-6.667 1.331-1.46 3.758-4.004 1.214-4.004 2.309-.601 0-.601.6 0 .6 0 1.096 2.791-.117 3.274-.482.118-.248.247-.483.365-.73.848.365 1.46-.849 2.18-.966.73-.13 1.695-.86 2.308-.248.73.73 1.696-.365 2.296.365-.235.601.13.366.13.73 0 .366.6.366.6 0 0-.129 0-.247.13-.247.354-.483-.365-.965-.612-1.33-.118-.849-.966.117-1.578-.366M46.913 20.73c-.365.365-.848-.118-.483-.483.247-.365.73.118.483.483m-.966 1.943-.236.118c-.247-.365-.494-1.213-.494-1.814 0-.118.247-.118.247 0 0 .483.118 1.084.483 1.696m2.674-.612h-.366c-.73-.601-1.707-.966-2.673-.719v-.247c1.095-.248 2.19.118 3.039.966m-.86-1.214c-.354.366-.837-.117-.483-.482.247-.354.848.117.483.482m-1.814-.117c-.365.365-.848-.118-.483-.483s.848.118.483.483m3.392 1.095c-.365.365-.848-.118-.483-.483.247-.365.73.236.483.483m-.718-.612c-.366.365-.848-.118-.495-.483.247-.236.86.247.495.483m-6.796 1.578c.482 0 .482-.73 0-.73-.483 0-.483.73 0 .73m2.06.848.248-.118c-.13-.483-.483-1.213-.978-1.696-.118-.118-.235 0-.118.118.248.365.613.977.849 1.696m-2.297 1.33.235-.235c.118-.966.601-1.943 1.331-2.426 0-.118-.118-.118-.118-.247a3.634 3.634 0 0 0-1.448 2.909m47.03 25.712c0-.248-.235-.365-.482-.365-.354 1.813-.236-5.583-.236-5.218l.365.13v-.86l-.365.13v-5.454c0-.247.483 0 .236.118.482.117.612-.613.13-.613l.353-.6-.118-.118-.601.353c0-.483-.848-.353-.73.13.118-.248.483.117.118.235h-4.97l.117-.365H81.6l.118.365h-4.97c-.248 0 0-.483.117-.235.118-.483-.73-.613-.73-.13l-.6-.353-.13.117.365.601c-.483 0-.365.848.13.613.365-1.826.235 5.453.235 5.206l-.365-.118v.848l.365-.118c0-.118.13 7.032-.236 5.218-.494-.13-.612.6-.13.6l-.364.601.13.13.6-.365c0 .483.848.365.73-.118-.118.118-.247 0-.247-.13 0-.117 0-.117.13-.117h4.97l-.118.365h.836l-.118-.365h4.97c.13 0 .13.117.13.117 0 .13-.247.248-.247.13-.118.483.73.6.73.118l.601.365.118-.13-.353-.6c.235.117.353 0 .353-.118m-6.054-11.637h4.97v11.637H76.749V38.915c1.213.13 4.723.13 5.818.13m3.874 11.154h.73v-10.8h-9.94v10.8zm-3.757-.248zm-.966 0zm5.089-5.582zm-4.123-4.606zm-5.218 5.583s.13.118 0 0c0-.13.366 0 .248.236.365 0 .365-.483 0-.483l.365-.118v-.247l-.365-.118c.365 0 .247-.483 0-.483.118.118-.118.236-.118.118v.118-4.24h.365v-.366h3.64c.235 0 0 .365-.13.13 0 .365.483.365.483 0l.247.365h.118l.247-.365c0 .365.483.235.483 0-.118.118-.365-.13-.118-.13h3.757v.365h.365c0-.117.118 5.218-.13 4.123-.364 0-.364.483 0 .483l-.364.13v.117l.365.118c-.365 0-.236.483 0 .483.365-1.213.13 4.252.13 4.122h-.366v.365h-3.64c-.246 0 0-.365.119-.118 0-.365-.483-.365-.483 0l-.247-.365h-.118l-.236.365c0-.365-.483-.247-.483 0 .118-.117.354.118.118.118h-3.64v-.483h-.612zm2.556-8.362c.236-.978.601-2.674 1.084-3.522l-1.084-.365c0 1.095-.612 2.673-.848 3.757.354 0 .354 0 .848.13m-5.818-2.062c0-.612.118-1.825-.247-2.426h1.33c-.247.6-.6 3.392.613 3.263.483 0 .966-.354.848-.837 0-.73.118-1.943-.247-2.555h1.33c-.353 1.095-.353 2.92 0 4.004h-1.212v-.365c-.966.978-2.544.613-2.415-1.084m-.613 1.814c-.6.483-1.33.365-2.06 0-1.944 1.096-4.005-1.46-2.427-3.027 1.578-1.943 4.853.236 3.274 2.427.483.235.978.483 1.213.6m-2.308-.73c1.578-.6.247-3.027-1.201-2.426-1.461.612-.13 3.039 1.2 2.426m-6.666 1.213h1.331a33.35 33.35 0 0 1-.836-1.33c.483-.248 1.331-.601 1.814-.601l-.978-.73-3.027 1.813.365 1.213a2.463 2.463 0 0 1 1.096-1.095c-.13 0 0 .365.235.73m-4.605 5.583c-1.814-.13-2.179-3.274 0-2.791v-.73c-2.91-.118-2.791 4.37 0 4.37zm-.73 1.213c-.6-.494-1.449.365-2.18.6-1.094.119-.235-1.33.484-1.448l-.6-.365c-1.096.483-1.827 2.78-.119 2.78.354 0 1.202-.6 1.567-.73.848-.118.483.977.13 1.224h.718c.365-.612.612-1.578 0-2.06m24.616 27.996 2.18-1.33c-.236-.236-2.062-3.028-2.062-3.393l-2.061 1.213.13.848c.353-.365.848-.848 1.448-1.095l.613 1.095c-.365.118-1.096.6-1.343.73l.365.483 1.213-.73.613.978a2.41 2.41 0 0 1-1.213.365zm8.728-7.75.365-.73-3.156-2.18-.354.602c.118.117 2.18 1.33 2.18 1.33s-3.405.483-3.64.73l3.156 2.18.365-.483c-.13-.118-1.943-1.213-1.943-1.213s3.027-.366 3.027-.236m1.696-3.274.73-2.427c-.365 0-3.64-.977-3.875-1.095l-.73 2.309.73.6c0-.483 0-1.083.236-1.814l1.213.366c-.118.365-.365 1.213-.483 1.33l.6.118.366-1.33 1.213.364c-.118.483-.365.73-.6.966zm-6.784 8.727c2.426-1.095 1.931-3.521-.848-2.426-1.213-.365.365-1.578 1.083-1.213l-.6-.73c-.848.365-2.309 1.578-1.579 2.544.483.612 1.579 0 2.309 0 1.095.247-.13 1.342-.73 1.342M58.067 52.13v-.848c-1.202.248-3.027.248-4.123 0v.848c1.096-.235 3.04-.235 4.123 0m.365 14.193.73.966c.73-.848 2.179-1.943 3.274-2.426l-.73-.966c-.235.483-.848.848-1.33 1.213l-1.096-1.46c.495-.366.977-.73 1.578-.848l-.73-.966c-.719.848-2.18 1.943-3.274 2.426l.73.966c.247-.483.848-.848 1.343-1.213l1.083 1.46c-.483.236-1.083.719-1.578.848m-2.662-4.487c1.932 1.814 5.088-1.096 3.027-3.04-2.061-1.93-5.088 1.096-3.027 3.04m.235-2.061c.86-1.579 3.77-.613 2.556 1.083-.977 1.578-3.769.73-2.556-1.083m-1.696-3.157.248.848 4.004-.483-.247-.848c-.235 0-2.791.365-2.791.365s2.426-2.791 2.308-3.156l-4.122.483.118.73c.247 0 2.426-.365 2.426-.365s-1.814 2.426-1.943 2.426m52.012 4.605c-.966-.6-1.566 2.191-1.932 2.674-.247.365 0 .848.366.966l-.73 1.578c-.366-.118-.73.236-.73.73.117.601-.484 3.275.612 3.275v.718c-2.556.495-2.191 4.605.482 4.488 2.662.117 3.027-3.993.483-4.488v-.718c.366.117.73-.248.73-.73-.129-.613.354-3.157-.494-3.275l.612-1.213c.966.483 1.579-2.18 1.944-2.674.118-.353 0-.836-.247-.966l.482-.848c-.117-.117-.365-.483-.6-.965zm-.483 12.25c-.6 3.64-5.335 0-1.931-1.45.117.354.718.354.848 0 .6.119 1.083.72 1.083 1.45m-1.083-3.758c.118-.483-.613-.848-.848-.365.117-.247-.248-2.179.235-2.179.118.118.365.118.483 0 .13 0 .247.118.247.236v2.179c-.118 0-.118 0-.118.13m1.932-7.28c-.118.118-.848 2.191-1.084 2.062-.13-.118-.365-.236-.494-.236-.118 0-.118-.247-.118-.365.118-.13.848-2.309 1.095-2.061.118.235.365.365.483.235.247.248.247.365.118.365m.248-2.791c-.118-.118-.118-.236-.248-.353 0 .117.13.353.248.353M75.05 3.157c-.13.965-.613 1.813-1.343 1.931v.248h1.343c-.13 0-.13.117-.13.117-2.296.483-2.544 4.005-.365 4.853-.848-.848-.235-2.426.978-2.426s1.814 1.578.966 2.426c2.179-.848 1.943-4.37-.366-4.853l-.117-.117h1.33v-.248c-.6-.118-1.213-.966-1.33-1.931.965.117 1.813.6 1.943 1.33h.235V.849h-.235c-.13.6-.978 1.213-1.943 1.331.117-.966.6-1.814 1.33-1.932V0h-3.639v.247c.612.118 1.213.966 1.343 1.932-.978-.118-1.826-.6-1.944-1.331h-.247v3.64h.247c.118-.613.848-1.214 1.944-1.331m1.083 6.666c.849-1.696-2.178-1.696-1.213 0 .365-.13.848-.13 1.213 0m-1.213 1.696c.365-.118.848-.118 1.096 0 1.213-1.696-2.18-1.696-1.096 0m.613 1.944c1.083 0 1.083-1.579 0-1.579-1.096 0-1.096 1.579 0 1.579m0 2.06c1.083 0 1.083-1.578 0-1.578-1.096 0-1.096 1.579 0 1.579m0 1.931c1.083 0 1.083-1.578 0-1.578-1.096 0-1.096 1.578 0 1.578m-2.309 0h.978c0-1.931-.13-5.453-1.343-7.997-.235-.613-1.213-.118-.848.365.848 1.932 1.213 4.605 1.213 7.632m3.522 0h.966c0-3.144.483-5.818 1.213-7.514.247-.6-.6-.966-.848-.365-1.095 2.544-1.331 6.065-1.331 7.88m-7.88-6.785c.966 0 .966-1.46 0-1.46-.977 0-.977 1.46 0 1.46m-6.313 4.488c.978 0 .978-1.46 0-1.46-.966 0-.966 1.46 0 1.46m8.127-5.1c.966 0 .966-1.45 0-1.45-.966-.129-.966 1.45 0 1.45m-10.424 8.244c.966 0 .966-1.448 0-1.448-.977 0-.977 1.448 0 1.448m1.084-1.578c.978 0 .978-1.449 0-1.449-.966 0-.966 1.45 0 1.45m5.7-5.207c.978 0 .978-1.46 0-1.46-.965 0-.965 1.46 0 1.46m-7.632 8.61c.966 0 .966-1.46 0-1.46-.977-.118-.977 1.46 0 1.46m4.488-6.313c.966 0 .966-1.449 0-1.449-.848 0-.848 1.449 0 1.449m1.566-1.213c.978 0 .978-1.449 0-1.449-.965 0-.965 1.449 0 1.449m23.404 3.404c0 .965 1.46.965 1.46 0 .118-.978-1.46-.978-1.46 0m-.483-.848c.966 0 .966-1.46 0-1.46-.848 0-.848 1.46 0 1.46m1.578 2.426c0 .966 1.449.966 1.449 0 0-.978-1.449-.978-1.449 0m.966 1.814c0 .966 1.46.966 1.46 0s-1.578-.966-1.46 0m-3.875-5.583c.966 0 .966-1.449 0-1.449-.978 0-.978 1.449 0 1.449m-3.157-2.297c.966 0 .966-1.46 0-1.46-.965 0-.965 1.46 0 1.46m-3.51-1.46c.966 0 .966-1.45 0-1.45-.977-.129-.977 1.45 0 1.45m1.814.612c.966 0 .966-1.46 0-1.46s-.966 1.46 0 1.46m3.392 1.932c.978 0 .978-1.449 0-1.449-.965 0-.965 1.449 0 1.449m-24.487 7.16 1.331-.482c2.062-3.757 5.583-6.549 9.576-7.526-.118-.354-.235-.719-.365-.966-4.605 1.213-8.48 4.605-10.542 8.975m27.514-.365 1.343.483c-2.061-4.488-5.948-7.762-10.67-8.975-.119.365-.248.612-.366.977 4.122.966 7.632 3.757 9.693 7.515M62.071 71.894c.483.978 3.522 3.64 4.37 2.427-1.46-.73-4.005-2.544-3.039-4.97-2.179-1.332-.235-3.393 1.46-1.697 1.815-1.095 3.758-.365 5.584.966.6-1.331-2.438-2.297-3.157-2.78-.848-.365-3.757.354-4.735.354-.6.13-1.083.73-1.083 1.33 0 .86 0 3.887.6 4.37m3.275-.6c2.308 0 2.06-3.77-.236-3.275 1.084.601 2.05 2.061.354 2.544-.601.118-1.214-.6-1.697-.848-.117.848.613 1.579 1.579 1.579m.247-1.579c.6-.73-1.578-1.696-1.826-2.06-.235-.119-.6-.119-.718.117-.613.73 1.449 1.696 1.814 2.061.235.118.6.118.73-.118m12.485 11.39c-.613 3.156-2.061 4.617-3.392 4.617s-2.91-1.46-3.404-4.617c.13.13.365.365.495.612l.235.366.365-.248c.118-.118.365-.235.483-.235-.118.353-.235.848-.118 1.213.118.966.966 1.578 1.814 1.578.848 0 1.708-.73 1.826-1.578.118-.495 0-.86-.118-1.213.118.117.353.117.483.235l.365.248.235-.366c.365-.247.483-.483.73-.612m.601-.836c-.848.117-1.213.6-1.566 1.201-.365-.236-.848-.483-1.343-.483-.235 0-.483.118-.718.247 1.448.601.965 2.792-.495 2.792-1.449 0-1.932-2.19-.483-2.792-.236-.13-.483-.247-.719-.247-.494 0-.977.247-1.342.483-.365-.6-.848-1.084-1.579-1.201.495 3.992 2.309 6.054 4.123 6.054 1.825 0 3.757-2.062 4.122-6.054m-8.244-7.762c.247-.848-1.202-1.213-1.331-.248-.236.848 1.095 1.096 1.33.248m4.736 2.297c.235-.848-1.213-1.214-1.331-.236-.247.848 1.083 1.213 1.33.236m-.965 4.24c-.13.73.966.977 1.083.247.118-.73-.965-.848-1.083-.247m.118-22.426c-.483 0-1.096-.118-1.579-.236-.965.848.118 1.331.848 1.331.613.236 1.46-.612.73-1.095m-8.244 2.309c1.095 1.33 2.179 2.79 3.274 4.24.118 0 .483.117.483.117l-3.875-5.088c-.13 0-.13.483.118.73m4.723 4.24-4.723-6.3s-.118.235-.118.482c.353.483 4.605 6.054 4.605 6.054zm-.483 2.545c-.118 0-.118 0-.235-.118-.13.365-.366.966 0 1.213l1.566.6 1.944-1.448.482-8.01h-.6c-.13 0-1.213 9.223-1.826 8.61.13-.6 1.46-8.61 1.46-8.61s-.365 0-.612-.117c0 .247-.118.483-.118.483l-2.179-2.91-.247.119 2.309 3.038-.118.483c-.248-.117-2.427-3.274-2.674-3.521h-.483l3.027 4.004-.118.483-3.392-4.487h-.483l3.757 4.852-.247.73-4.122-5.582h-.483l4.487 5.948-.118.6-4.982-6.419-.118.483s4.606 6.066 4.853 6.431c-.247.718 0 .848.247 1.449.354.848-.13 1.943-.977 1.696M64.98 62.8c.612.366 1.213.73 1.696.978-1.331 1.696 1.095 2.415.977.719.966.365 4.605 1.46 3.145-.601-4.723.118-7.15-4.853-4.605-8.728 1.578.719 7.279-2.06 6.796.719.235.365.365.365 1.083.365 1.579-3.757-3.992-2.662-5.936-2.18-1.826.484-3.392-2.06-5.088-.6-.613.6-.247 1.814.6 1.814.73 0 .966-.978.248-1.33 1.449-.484.718 1.813.235 2.425-1.696-.86-1.943 1.814-.235 1.084a3.06 3.06 0 0 1 0 1.46c-1.826-.365-1.343 2.18 0 1.214.365.365.6.965.6 1.566-1.813.365-.365 2.674.483 1.096M45.7 24.487c0-.365.247-1.084.247-1.084-.365.118-1.084.483-1.449.601 0 0 .719.365.848.613-.365.117-.612.117-1.095 0l.612 1.083c.118-.483.354-.848.6-.848.602.966-.965 1.943-1.577 1.213-.248-.365 0-.73.483-.365 0-.73-.601-.73-.848-.118 0-.73-.118-1.213-.966-1.33-.248.718 0 1.083.73 1.448-.365 0-.86.365-.247.848 0-.483.365-.483.6-.235.366.848-.6 1.213-1.448.365.118-.13.365 0 .6 0l-.718-.978v.73c-.13-.247-.247-.365-.247-.73l-.601.483c.6.365 1.201.848 1.932 2.073.977-.978 5.1-2.791 6.796-2.674-.248-1.33-.13-2.179 0-2.791h-.73c.247.365.247.483.247.73-.13-.118-.366-.247-.613-.483l.13 1.213a.883.883 0 0 1 .483-.483c0 1.202-.978 1.567-1.343.719-.118-.365.247-.6.612-.236 0-.73-.482-.73-.848-.365.366-.73.236-1.213-.483-1.578-.365.73-.247 1.095.236 1.578-.483-.247-.966.118-.483.73.118-.494.483-.365.613 0 .117 1.084-1.708 1.331-1.944.236.118-.118.6-.118.966.247l-.365-1.213c-.236.236-.483.483-.73.6m-4.358-.965c.483 0 .483-.73 0-.73s-.483.73 0 .73m1.095-1.33c.483 0 .483-.731 0-.731-.495 0-.495.73 0 .73m-1.46 3.145c.482 0 .482-.718 0-.718-.483 0-.483.718 0 .718m0-.966c.482 0 .482-.73 0-.73-.366 0-.366.73 0 .73m2.06-4.852h-.73l.366.977.482-.612h.13l.118 1.213c.118 1.095 1.814.365 1.095-.483l-.86-.978v-.117l.73.117-.364-.965-.601.482h-.118l-.13-.965c-.235.117-.718.247-.965.365l.848.966c.118-.118 0 0 0 0m2.06 3.757c.236-.236-.117-.719-.482-.483-.247.247.247.73.483.483m-.365-.848c.247-.236-.118-.719-.483-.483-.247.247.247.73.483.483m54.557-9.694c.13-.612-.601-1.33-1.214-1.095 0 .612.73 1.095 1.214 1.095m-7.268 31.766c.601-.365 1.084-.612 1.579-.977a1.393 1.393 0 0 1-.365-.483c-.366.483-1.461.612-1.214 1.46m3.145-1.213c.247.483.613.966.848 1.449 1.096 0 .13-.848-.118-1.331-.118-.118-.365-.118-.73-.118 0-.118 0 0 0 0m5.465-29.104c-.365-.848-.612-.966-1.578-.966.365.848.848 1.213 1.578.966m-.612.483c.365 1.095.73 1.343 1.814 1.095-.354-.848-.966-1.213-1.814-1.095M97.724 27.16c-1.213-.613-2.19.117-3.274-.13.365 1.708 2.296.495 3.274.13m3.392-10.79c0 1.084.848 1.697 2.297 1.567-.365-1.083-1.084-1.696-2.297-1.566m3.875 3.627.118-.117c-.848-1.213-1.213-1.45-2.78-1.45.118 1.45 1.567 1.45 2.662 1.567M89.833 42.307c.247-.836 1.825-2.78.977-3.392-.365.248-1.213.118-1.095.73 0 .849 0 1.697.118 2.662 0-.117 0-.117 0 0m-4.606-5.57c.365 0 .613 0 .978-.118.353-1.214-.365-1.343-1.213-1.944-.365.966-1.213 1.46-1.696 2.297.848 0 1.33-.353 1.696-.966.118.365.118.613.235.73m9.458 9.093c-2.061 2.426-2.061 2.792 1.096 3.875 0-.235 0-.483-.118-.718-.613-.13-1.213-.365-1.708-.73.365-.483.73-.966 1.095-1.332-.118-.365-.247-.73-.365-1.095m1.213 7.15c-.6 0-1.095-.118-1.696-.118v.73c.365.118.601.118.966.236.13 1.825-.848 1.825-2.179 1.095-.365 2.308 3.275 2.061 2.91-1.943m7.514-30.918c.73 0 1.696.494 2.19 0 0-2.18-2.673-1.932-4.122-1.932.483.848 1.084 1.696 1.932 1.932m5.818 2.673c.613 1.449 1.579 1.096 2.309 2.061-.6-.13-.966-.365-1.46-.482 0 1.566 1.943 1.813 3.038 2.426-.247-2.556-1.46-3.522-3.887-4.005m.365 8.245c-.482 1.449.613 2.791 1.214 4.005 1.095-1.944 1.095-4.123-.719-5.701-.495 1.084.236 2.061.483 3.027h-.13c-.235-.483-.482-.848-.848-1.33m.495-9.459v.118c-.495 0-.977 0-1.343-.118.495 1.696 2.427.848 3.64 1.578-.73-1.342-1.213-2.673-2.792-2.909.13-.73 0-1.578-.482-1.825 0 .73-.236 1.213-.848 1.46-.483 1.449.848 1.331 1.825 1.696m-60.27 12.485c-1.448.118-1.2-1.696-1.695-2.791-.236.247-.483.612-.719.86.236.965.601 2.049.966 3.144.247-.118.483-.365.613-.483.965.73 1.931.248 2.296-.848.248.118.613.236.848 0-.482-.966-.965-1.943-1.46-2.909-.236 0-.6-.365-.966 0 .483.848 1.696 2.662.118 3.027m60.505-7.997c-.483.965.977 1.448.977 2.426-.365-.365-.73-.613-1.095-.848-.483 1.814 1.696 2.426 2.426 3.875.848-2.662.365-4.37-2.308-5.453M61.223 70.68c.613-.6-.235-.848-.6-1.33-5.466-5.089-7.527-11.767-7.032-19.164-.13-.118-.247-.118-.612-.236-.849 7.762 2.178 15.642 8.244 20.73M42.92 36.736c.365.848.848 1.696 1.696 2.062-.483-1.579.6-3.028 1.213-4.488 0 3.274-1.943 5.1 2.662 6.301-1.213-1.931-.365-4.358-1.213-6.301-.73-.365-1.567-.483-2.061-1.095-.118-.236-.365-.366-.601-.483-.848-.236-1.696-.483-2.061-1.213-.613.247-.966.13-1.579-.118 0 .73.613 1.449 1.331 1.095-.6.966-.235 1.814 0 2.662.495-.966 1.214-1.578 1.944-2.061-.73 1.213-1.814 2.308-1.331 3.64m8.845-6.667c.248 1.083-.118 2.061-.848 2.91 1.096 1.93 2.91 3.391 3.758 5.452 1.825-3.392-.118-4.487-2.662-6.301 1.578.6 3.144 1.084 4.122 2.662.236-2.91-1.095-4.358-3.887-4.723v-.118c1.213 0 2.309 0 3.404.6-.247-.847-.977-2.178-2.061-2.06.365-.848.365-1.331 0-1.814-.13.6-.495.848-1.095.966.247.848-.118 1.696-.73 2.426m-9.459.73c0-.365 0-.73.13-1.095-.495-.118-.848-.118-1.213-.248.483-.365 1.084-.483 1.696-.235-.483 1.814.365 3.145 2.297 3.274.612-.848 1.095-1.095 1.696-.365-2.662-.247-.719 2.544.612 1.578.365-.494 1.46-.977 1.213-1.708-2.06-1.448-1.943.73-2.308-3.027h-.236c-.247.73-.848 1.214-1.46.613-.236-.247-.365-.495-.73-.495 1.46-1.083 3.156.495 3.038-2.179 1.579 1.944 1.696-.235 3.275-.235-.13 1.578-.365 1.448-1.696 1.33.483.366 2.179 2.062 1.083 2.18-.365-1.096-1.083-2.062-2.296-2.297-.978.966-.495 1.931-.366 3.027.848-.247 1.579-.848 2.415-.73.247.848-1.084 1.33-.353 2.179 1.33.247 2.791.247 2.426-1.697-.495-.235-.848-.482-1.343 0 0-.718.73-.848 1.343-.718 1.213-1.343.848-3.039-.495-4.134.365-.483.73-.848 1.343-.966-.247.483-.73.613-.73.966.247.365.6.73.848 1.095.73-.365.848-1.448.365-2.544-.848.247-2.426.966-2.426.966-.73-.236-.483.13-.366.483-2.426.495-4.852 1.095-6.784 2.674-.365.235-.494.117-.612-.366-.236-.365-.365.248-.365.366 0 0-1.45.365-2.062.848.366.73.978 1.825 2.062 1.46m57.83 23.521c-.718.118-.847.365-.718 1.084-.73 1.578-.73 3.64-2.061 4.97 2.78-.73 2.179-1.814 2.78-3.993-.118 2.91 0 2.78 1.095 4.841-2.179 1.46-5.7.248-6.784 3.157.365.365.718 0 1.201.118-.235.365-.353.73-.836 1.095.118-.247.118-.483.235-.6-.848-.248-1.448 1.566-2.06 2.178 5.7-1.213-.731-2.791 10.552-4.122 1.932-.978-1.943-2.426 2.062-4.853.353-1.33.6-2.791 1.33-4.004.118-.365-.117-.966-.482-1.214-1.826 1.096-2.674-.848-6.314 1.343m-44.733 12.85c.483.118 1.095.236 1.696 0-.848-1.33-1.578-2.673-2.426-4.122-1.45 1.814-3.875.718-5.454-.365-1.213-.966 1.46-2.427.6-5.454 1.214 1.932-.965 3.628 2.427 4.724-.966-1.461-.848-3.393-1.213-5.089 0-.247-.235-.612 0-.848.13-.365.13-.977-.353-.977-3.887-2.18-3.039-1.084-6.796-1.696-.966 1.578.977 3.027.73 4.605-.247.73.848.73.848 1.46.235 1.214.118 2.792-1.213 3.275-.73.365-.118 1.213.483 1.448-1.213 2.191-.236 2.427 1.578 3.522 0-.848 0-1.578.365-2.308 2.544 1.696-1.213 1.943 3.757 4.004-.482-.848-.482-1.696-.612-2.544.495.118.978.236 1.343.365.483 2.297 1.814 2.544 4.004 2.297-.73-.718-.977-1.814-1.578-2.544.6.247 1.213-.247 1.814.247m52.26-7.762c.118 0 .235.118.235.236.13 0 .13 0 .248-.118 0-.118 1.33-1.814 1.213-1.931-.118 0-.247-.13-.365-.248s-.366-.118-.483 0c0 .248-1.46 1.814-1.096 2.061.118-.117.248-.117.248 0m15.877-12.614c-.966.247-1.331 1.095-1.696 1.943-2.309-3.64-6.667-6.065-7.397-10.553.483-3.51 5.218-2.662 4.24.978 2.427-1.343 1.213-3.758-.966-4.123 2.427.236 3.875 2.309 5.583-1.213-1.46.483-3.769.118-4.487 0 3.027-.365 4.723-.365 4.723-4.24-1.095 2.297-4.005 2.297-6.066 3.027.13-.966-.235-1.696-.966-1.943.848 5.582-9.823 3.757 1.944 15.888-1.46-.848-3.157-.483-4.488-1.46 1.084 2.91 2.91 2.426 5.336 3.392-2.544 0-3.392 2.556-1.46 3.64-.484-1.932 2.19-3.275 3.52-1.697 3.028 3.887-2.543 9.34-7.396-.483 0 .483-.365.966-.848.849l-.612 1.578c1.095.365-.601 2.544-.719 3.274-.247.365-.612.483-.977.365l-.483 1.084c.73.612-1.096 2.426-1.331 2.91-.247.364-.613.494-.848.246l-.247.366.117.117c1.214 1.46 1.826 2.544 1.46 4.123.967-.848 1.461-3.275.613-4.606.966.966 2.18 1.579 2.78 2.91.483 2.179.13 4.37-1.33 6.183-.602.6-.484.966-.602 1.814-.365 1.213-1.943 1.343-2.426 2.426-.365.978-1.095 1.696-1.33 2.674 1.695-.247 1.448-2.674 3.026-3.157-.612.966-1.33 1.944-1.696 3.027 1.331-.365 3.875-.718 3.392-2.544-.365-.848.483-1.448.483-2.296 1.095-.365.848-.848 1.331-1.579.247.483.247.966.247 1.45-.118-.237-.247-.484-.365-.602-.73.966-.118 2.062-.247 3.157 3.64-3.274-1.213-3.274 2.674-10.671.848-1.46-2.545-1.331-2.792-4.617-.235-1.449.978-2.544 1.331-3.993 1.46 2.662 6.678 2.544 5.948 5.936 1.084-.73.966-2.179.6-3.274 4.853-1.944.731-6.902 2.427-10.306m-12.603 8.374c0-.247 1.084-2.06.848-2.19-.247 0-.483-.118-.483-.236-.247-.118-.977 1.932-1.095 2.061.365-.247.848.118.73.365 0 .118 0 .118 0 0m1.084-5.218c0 .118 0 .118.118.236.247-.118.494-.118.612.13.247-.13.118-.73.247-.966-.247-.248-.494-.613-.86-.848zm-28.727 34.31c3.627-.73.365-4.97-4.005-3.274-.365 1.696-.73 3.274-2.179 4.605 2.78.13 5.571 0 8.245-1.213 1.33-.848 1.33-3.627 2.78-5.206-1.697-.247-.966 5.336-4.841 5.088m-13.463-3.156c-4.37-1.696-7.632 2.556-4.004 3.286-3.875.118-3.145-5.347-4.841-5.1 1.448 1.578 1.448 4.37 2.78 5.218 2.673 1.083 5.453 1.33 8.244 1.213-1.449-1.331-1.814-2.91-2.179-4.617m23.404-43.768c-.13-.118-.13-.365 0-.483-.248 0-.495 1.696-.613 1.826.118.117.247.235.365.365.118 0 .483.118.483-.13l.365-1.578a.336.336 0 0 1-.6 0m19.999 9.705H113l-.612-1.696c.247-.365.483-.977 0-1.213-.6-.247-2.297-2.179-2.791-.978-.236.13-1.567.13-1.697.366-.6-.966-1.213-2.062-1.578-3.275.247-1.33 4.005-3.145 4.005-3.145s-1.096-1.46-1.46-2.308c-.236.365-.354.247-.72.365 2.062-3.64 2.427-8.48-.246-11.884-.236-.6-.118-1.331-.366-1.932-.482-.612-.848-1.825-1.578-1.943 0 1.095-.118 2.179.365 3.156.613.719-.718 1.331-1.213.719.73-.118.978-.236.613-.719-3.393-.73-5.336 1.567-8.493 1.932-.235 0-.482.13-.718.365-1.943 2.674 2.415.848 2.91 2.674-.731.6-.849.235-1.579 0-.966 0-1.943.365-.73 1.201-.73 1.213-.73 1.578-2.309 1.708.73.966.495 2.297.73 3.392-1.083.247-1.813.73-1.931 1.932-.495.13-1.096-.118-1.343.365-.73-.6-1.449-.719-2.297-.719a86.263 86.263 0 0 0-2.426-1.578c.236-.73.365-1.578.6-2.179.366-.247 1.461-.977 1.697-1.095-.118-.248-.719-1.46-.848-1.826 1.943-6.902 2.673-7.267 3.64-7.385v-.247l-3.64-1.213-.118.247c.966.73 1.213 1.814.848 3.145-.966-.483-1.578-1.331-1.449-2.18l-.247-.117-1.213 4.122h.247c.483-.73 1.33-1.095 2.297-.977-1.084 3.64-6.302 2.556-5.336-.6.613-1.214 1.944-.484 1.343.847 2.91-.966 1.213-5.218-1.343-2.673.848-1.697 1.343-3.027.247-4.606-1.33.86-1.696 2.427-1.46 4.488-1.567-3.758-4.488.118-2.179 2.06-.365-2.779 3.039-.965.73 1.344-2.179 1.566-4.852-.248-4.97-3.04 1.213.119 2.179.849 2.426 1.826h.236l.13-4.734h-.248c-.247.965-1.213 1.696-2.544 1.825.118-1.46.966-2.556 1.932-2.791v-.248H72.86v.248c1.096.235 1.944 1.33 1.944 2.791-1.331 0-2.309-.86-2.544-1.825h-.248l.13 4.734h.235c.118-.977 1.096-1.707 2.427-1.825-.118 2.791-2.792 4.487-4.97 3.039-2.31-2.191 1.095-4.005.73-1.343 2.296-1.943-.483-5.819-2.191-2.061.247-2.061-.118-3.628-1.449-4.488-.966 1.579-.6 2.91.236 4.606-2.415-2.415-4.111 1.707-1.331 2.673-.601-1.33.612-2.179 1.33-.848.978 3.027-4.24 4.24-5.323.6.966-.117 1.814.248 2.297.978h.247l-1.213-4.122-.248.118c.13.848-.482 1.814-1.448 2.179-.365-1.331-.13-2.415.848-3.145l-.118-.247-3.64 1.213v.247c.966.118 1.696.483 3.64 7.385-.13.365-.73 1.46-.86 1.826.247.118 1.46.848 1.708 1.095.118.6.353 1.331.483 2.061-4.97 2.297-3.887 3.875-7.644 3.392-.365.848-.601 1.579-1.449 2.062-.13-1.214-.73-2.18-1.46-3.04-.366-.364-.849 0-1.331.13-1.096 2.297-1.697.236-3.64 1.45.118 1.095.247 2.06.848 3.038-1.33-.13-2.426-.495-3.392-1.095-4.005 4.487-8.245 8.857-11.766 13.945-1.814 2.426-6.785.966-5.454-2.309.613-2.426 4.123-1.931 3.875.483 1.826-1.931.613-3.875-2.05-3.51 2.415-1.095 3.994.966 6.184-1.825-1.696 0-3.156-.483-4.852-.118 2.179-1.33 5.088.612 6.914-2.91-1.579.119-3.04.849-4.735 1.096 9.94-9.458.365-9.94 1.578-13.945-.73.6-1.213 1.33-.848 2.179-2.19-.966-5.453-.601-6.43-3.392-.236 3.875 1.46 3.51 4.369 4.37-1.331-.13-2.674-.13-3.875-.613.235 1.696 1.566 2.061 3.145 1.943-1.45.848-1.214 3.027.365 3.758-.966-5.583 7.396-3.64 3.521 1.448-1.825 2.674-4.37 4.617-6.43 6.914-.366-.73-.849-1.449-1.814-1.33 1.566 1.943-.248 3.874-.613 5.935-.6 2.427 1.46 4.488 3.757 4.735-.848 1.084-.965 2.061-.235 2.91.718-3.522 5.818-2.792 6.301-6.55.118-.482.236-.847.848-.965-2.308 2.662 3.275 8.115-1.943 8.728-.719 0-.966.848-.483 1.33-2.179-.117-2.791.73-3.027 2.792a81.43 81.43 0 0 0 2.662-.73c-.966 2.426-3.027-.118-2.662 4.24a15.99 15.99 0 0 0 2.426-1.331c.719 2.426-3.887 1.33-.365 5.335.236-.73 1.213-2.178 1.696-2.544-.483 1.214-.365 2.662 1.084 3.157.13-.365.13-.613.13-.978h.117c.248.848.248 1.944.966 2.427.247.117.365.247.495.483.118.482.6.612.966.612.483.118.6-.495.965-.73.13.6.849.73 1.214 1.33.247-3.144-3.875-2.06-2.91-4.122.366 1.331 1.579.978 2.427 1.579.365.483 1.095.965 1.578.235.365.248.73.613 1.084.86-.848-3.769-2.78-1.46-3.993-3.404.848 0 1.814 1.343 2.662.495.483.483.848 1.083 1.213 1.696.118-1.213-.236-2.19-1.213-2.792-1.084-.6-2.544.483-3.392-.848-1.214-1.578-1.214-3.757-.601-5.453.6-1.33 2.297-1.943 3.027-3.156-.247 1.213-.118 3.156 1.213 3.51-.365-2.18 1.213-4.123 1.449-6.172.365-.495.365-.978 0-1.46-.6-1.096-.848-2.31-1.567-3.393-1.095-1.578-2.426-1.578-.247-3.274-1.33 2.179-.247 1.33.966 3.392.247-.73 1.213-1.579 0-1.579-1.932-.965 2.556-3.51 3.64-3.639.965-.118 2.426 0 3.274-.966-.483-.966-.966-1.095-.118-2.061-.613-.365-1.096-.73-1.096-1.449-.483.236-.965.354-1.578.483.483-.612 1.943-1.696 2.18-.483 0 .719.73.848 1.342.966-.365.6-1.096 1.213-.483 1.814.483.483.718 1.343 1.33 1.46.119-.612.366-1.33.484-1.943 1.46 1.578-1.449 2.426 2.544 3.757-.118-.848-.236-1.578-.118-2.426 1.943 1.578-.848 2.674 3.64 3.157-.484-.613-.613-1.214-.849-1.944.719.13 1.331.848 1.814 1.331.483.73.848 1.095 1.814.365 0 .13 0 .248.13.365.483.365.235.848.235 1.213h.13c.6-.6.6-1.33.483-2.06-.483-1.45-2.18-.236-2.91-1.815.849.601 1.697.966 2.662.483.495.483.73.848.978 1.579.483-1.579-.13-3.157-1.708-2.674-.483.247-.718.13-1.201-.365.718.247 1.33-.118 1.814-.483.118.13.118.247.247.247.483 0 .718.365 1.083.601.13-1.331-1.213-2.415-2.544-2.061-.365 1.696-1.696.73-2.791.483-1.696-.966-2.662-2.91-4.122-4.24.13-1.814-1.45-3.393-3.275-3.275 1.708-.718 3.64.73 3.757 2.426.13.73.495 1.214.978 1.697 5.7-11.39 24.004-14.429 34.557-7.15.848.848 1.814 1.46 2.78 2.309.365-1.096.13-2.427 1.826-1.708l.365-.236c-.365-.966.353-1.943 1.33-2.06v.73c-.364.117-.73.482-.73.965.366-.118.613.365.483.6.366.13.73.13.978-.117.235 0 .483 0 .848.118-.365.86-1.696 1.213-2.426.495.118.235-.483 2.178-.483 2.296-.13.248-.365.483-.613.483.13.248.248.365.365.495.483-.247 1.096-.247 1.096-.86.118-.353-.13-2.05.365-1.932.235.601-.247 1.45.235 2.062 1.579-.366.848-1.696 2.674-2.062.719-.117 2.297-.365 2.662.366-1.578-.483-3.64 0-4.005 1.813-1.696.366-3.027 1.579-4.84 1.579-1.461.117-1.826 1.814-1.826 2.909-.236 1.33-.365 2.662-.848 4.005-.236.482 0 .965.118 1.448.494.248.977 2.191.977 2.792 0 1.213 2.062 1.578 2.91 2.426.247-1.578-2.662-1.095-2.309-3.274.483 1.46 1.696 1.696 2.91 2.426-.354-1.46-.484-3.887-2.545-3.522-.718-1.083.365-1.083 0-2.426.613.13.848.365.966.73-.118 0-.353-.118-.6-.235.117.965.847 1.083 1.46 1.696-.13-1.46-.247-2.427-1.579-3.157-.73-.73.118-2.426.118-3.392 0-.247 1.826-1.213 2.18-1.095 1.342.247 2.909 0 4.251.365 1.331.483.236-2.544 2.427-.966-1.579-.483-.613 1.213-1.708 1.33-.848 0-1.449-.117-2.297-.117 2.91 6.301 9.21 4.476 10.907 10.176 1.46-1.33.494-1.213 0-2.661 3.274 2.179-3.027 4.723-.73 8.61-.119-.483 1.342-2.191 1.46-2.556.235-.354.73-.483 1.095-.118l.483-.966c-.848-.483.73-2.544.848-3.157.118-.365.483-.482.848-.365l.483-1.213c-.848-.235-.247-2.297-.247-2.78-1.201-1.095-2.18-2.426-3.027-3.639l.612-.118c-.13.236 0 .6.236.719.365.13 1.943 1.696 2.426 1.33l.247.613c-.365.118-.494.6-.494.966.247.13.494.365.612.495 0-.13 0-.73.118-.86.247.247.483.247.73 0 .248.13 0 1.46 0 1.578.248.247.483.495.613.73-.613-.117.118-2.426-.978-2.544M96.63 25.582c.247 0 .365 0 .6-.117-.353-.248 0-.73.366-.366.848.601-.719 1.696-.966.483m-32.98 6.066-1.695-1.095.966-1.826 2.544.86zm5.702-1.46c-2.674.612-3.275-2.427-.613-2.91 2.792-.6 3.404 2.427.613 2.91m6.183-.248L72.86 28.01l2.674-1.944 2.662 1.944zm8.48-.848c-.353 1.944-4.605 1.096-4.24-.848.365-1.814 4.606-1.083 4.24.848m1.579.495 2.544-.86.977 1.826-1.696 1.095zm20.612-8.857c.483.612.73 1.095.73 1.825-.483-.13-.613-.612-.73-1.825m-2.18 3.521c-.612.483-1.212 1.084-1.943.236-.118 0-.247 0-.483.13.966-1.579.966-1.343 2.427-.366m-5.583 5.69c.483.129.848.364 1.343 0-.495 0-.613-.236-.73-.601-.248-1.45 2.178-.966 3.026-.848 2.18 1.33 6.066.482 4.735-2.792 1.084.613.719 2.426-.13 3.157-2.06 1.083-3.992.235-6.054 2.426-.365-.978-1.46-.978-1.943.118h-.848c0-.483.483-.966.6-1.46m7.88 9.587a1.652 1.652 0 0 0-.235.365c-1.696-1.944-7.515-4.252-10.07-3.887v-.483l.977-.6-.848-.73c0-.119-.483-3.393-.483-3.393h1.449s-.483.6-.483 1.084c.118 0 .118.13.247.247.236-.118.6-.73.6-.73l.119 1.943s-.365-.612-.719-.612c0 .117 0 .117-.13.247.366 1.331 2.31 1.331 2.31.236-.13-.601-.731-.483-.731.13-1.095-.849.365-2.192.966-.849-.118-.73 0-1.213.612-1.578.365.483.365.966-.118 1.696 1.331-1.213 1.814.848.601 1.095.612-1.095-1.095-.73-.483.365.6.848 1.932.719 2.426-.247 0 0 0-.118-.13-.118-.482-.13-1.2.365-1.2.365l.6-1.825s.236.73.73.966c.118-.118.118-.118.236-.118.13-.483-.365-1.213-.365-1.213l2.19.848s-.848.247-1.213.612c0 .118.118.118.118.236.483.13 1.213-.236 1.213-.236l-.848 1.696s-.247-.73-.612-.966l-.118.118c-.365.966.612 2.061 1.578 1.696 1.213-.365.248-1.814-.118-.6-.612-.978 1.084-2.191 1.214-.495.235-.848.482-1.213 1.083-1.331.13.73-.118.966-.73 1.578 1.343-.612 1.46 1.331.13 1.213.482-.494 0-.965-.366-.494-.848.86.73 2.073 1.814 1.46v-.235c-.235-.248-.966-.248-.966-.248l1.46-1.095s-.129.612 0 .978h.366c.353-.366.353-1.096.353-1.096l1.096 1.331s-2.674 1.213-3.157 1.578l-.73-.117zm5.701 5.453c-.365 0-.6.247-.483.6h-.118l-1.578-1.083c-.118-.13-.118-.247-.118-.365.236 0 .6-.118.6-.483.119.118 1.815.966 1.697 1.331M0 0h5.206v216.543H0Zm0 0"/>
</svg>
