<svg xmlns="http://www.w3.org/2000/svg" width="330" height="282">
  <path fill="#00bcb5" d="M0 281.28h5.184V0H0zm0 0"/>
  <path d="M236.715 271.458c.182 4.578 4.229 6.018 8.382 6.018 3.199 0 7.534-.713 7.534-4.639 0-8.003-20.373-2.592-20.373-14.582 0-6.26 6.155-8.853 11.627-8.853 7.003 0 12.293 2.168 12.778 9.762h-5.123c-.303-3.986-3.911-5.244-7.23-5.244-3.063 0-6.625.833-6.625 3.971 0 3.623 5.427 4.35 10.186 5.427 5.124 1.137 10.187 2.895 10.187 8.852 0 7.474-6.928 9.838-13.264 9.838-6.988 0-12.9-2.834-13.203-10.55zm-35.274-21.343h4.82v4.941h.121c2.168-3.85 5.61-5.669 10.126-5.669 8.186 0 10.717 4.715 10.717 11.4v20.494h-5.123v-21.1c0-3.851-2.41-6.261-6.321-6.261-6.2 0-9.217 4.153-9.217 9.762v17.599h-5.123zm-19.736 27.36c5.35 0 9.701-4.213 9.701-11.747s-4.35-11.808-9.701-11.808c-5.366 0-9.717 4.274-9.717 11.808s4.35 11.748 9.717 11.748m0-28.074c9.883 0 15.113 7.17 15.113 16.326 0 9.095-5.23 16.28-15.113 16.28-9.884 0-15.129-7.185-15.129-16.28 0-9.156 5.245-16.326 15.129-16.326m-24.982.713h5.109v31.166h-5.109zm5.124-5.594h-5.124v-6.275h5.124zm-31.014 26.937c.182 4.578 4.229 6.018 8.382 6.018 3.199 0 7.534-.713 7.534-4.639 0-8.003-20.373-2.592-20.373-14.582 0-6.26 6.155-8.853 11.627-8.853 7.003 0 12.308 2.168 12.778 9.762h-5.108c-.303-3.986-3.926-5.244-7.246-5.244-3.062 0-6.624.833-6.624 3.971 0 3.623 5.427 4.35 10.186 5.427 5.124 1.137 10.187 2.895 10.187 8.852 0 7.474-6.927 9.838-13.264 9.838-6.988 0-12.9-2.834-13.203-10.55zm-35.274-21.343h4.82v4.941h.122c2.167-3.85 5.608-5.669 10.125-5.669 8.201 0 10.717 4.715 10.717 11.4v20.494h-5.108v-21.1c0-3.851-2.41-6.261-6.336-6.261-6.2 0-9.217 4.153-9.217 9.762v17.599H95.56zm-9.64 12.597c-.304-4.881-3.851-8.792-8.975-8.792-5.305 0-8.625 3.971-8.928 8.792zm4.94 8.685c-1.379 6.928-6.26 10.611-13.323 10.611-9.93 0-14.643-6.942-14.932-16.401 0-9.398 6.14-16.205 14.644-16.205 11.02 0 14.4 10.293 14.097 17.842H68.016c-.182 5.411 2.895 10.232 9.701 10.232 4.29 0 7.186-1.986 8.08-6.079zm-56.434-12.536h11.217c6.503.06 9.398-2.774 9.398-7.897 0-5.124-2.895-7.898-9.398-7.898H34.425zm-5.715-20.615h18.857c8.625 0 13.203 4.699 13.203 12.718s-4.578 12.778-13.203 12.718H34.425v17.599H28.71zm253.768-55.738c0-2.47-1.88-4.578-4.941-4.578-2.41 0-4.942 1.44-4.942 4.578 0 2.592 2.289 5.124 4.153 7.473 2.471-1.622 5.73-3.729 5.73-7.473m-7.412 13.142c-4.048 2.229-7.473 4.639-7.473 9.702 0 4.335 4.032 7.291 8.185 7.291 3.926 0 7.064-1.986 9.171-5.123zm12.703 15.432c-2.577 4.032-7.458 6.078-12.173 6.078-11.626 0-13.43-8.246-13.43-11.748 0-6.684 4.578-10.125 10.065-13.02-2.41-3.366-4.76-5.776-4.76-10.126 0-4.639 3.426-8.853 9.702-8.853 5.366 0 10.429 2.956 10.429 8.807 0 5.17-3.926 8.731-8.08 11.142l7.777 9.458a23.044 23.044 0 0 0 1.379-6.684h4.881c-.485 5.184-1.076 6.684-2.895 10.595l8.382 9.717h-6.684zm-70.26-37.669h5.124v25.496l14.218-13.627h6.867l-12.354 11.339 13.263 19.827h-6.503l-10.671-16.28-4.82 4.456v11.824h-5.124zm-19.373 11.869h4.82v6.579h.122c2.47-5.063 5.912-7.473 11.46-7.307v5.427c-8.262 0-11.278 4.639-11.278 12.597v13.87h-5.124zm-19.645 27.361c5.351 0 9.701-4.214 9.701-11.748 0-7.533-4.35-11.808-9.701-11.808-5.366 0-9.717 4.275-9.717 11.808 0 7.534 4.35 11.748 9.717 11.748m0-28.073c9.883 0 15.128 7.17 15.128 16.325 0 9.095-5.245 16.28-15.128 16.28s-15.128-7.185-15.128-16.28c0-9.155 5.245-16.325 15.128-16.325m-26.163 31.878h-5.958l-9.838-36.168h-.106l-9.959 36.168h-5.957l-11.035-43.035h5.85l8.429 35.804h.121l9.656-35.804h6.2l9.52 35.804h.12l8.747-35.804h5.73zm-75.52-31.166h4.82v6.579h.121c2.471-5.063 5.912-7.473 11.46-7.307v5.427c-8.261 0-11.278 4.639-11.278 12.597v13.87h-5.123zm-19.645 27.361c5.366 0 9.701-4.214 9.701-11.748 0-7.533-4.335-11.808-9.701-11.808-5.366 0-9.702 4.275-9.702 11.808 0 7.534 4.336 11.748 9.702 11.748m0-28.073c9.883 0 15.128 7.17 15.128 16.325 0 9.095-5.245 16.28-15.128 16.28-9.884 0-15.129-7.185-15.129-16.28 0-9.155 5.245-16.325 15.129-16.325m-27.195 5.23h-5.245v-4.518h5.245v-4.638c0-5.063 3.017-7.716 8.625-7.716.97 0 2.35.182 3.305.485v4.457c-.894-.304-1.986-.425-2.88-.425-2.47 0-3.926.788-3.926 3.502v4.335h6.033v4.517h-6.033v26.649h-5.124zM323.8 120.45h6.2v4.516h-6.2v19.343c0 2.41.652 2.774 3.85 2.774H330v4.517h-3.91c-5.306 0-7.413-1.076-7.413-6.806v-19.828h-5.306v-4.517h5.306v-9.337h5.123zm-38.957 0h4.82v4.94h.121c2.168-3.85 5.609-5.668 10.126-5.668 8.201 0 10.732 4.699 10.732 11.399V151.6h-5.123v-21.086c0-3.85-2.41-6.275-6.336-6.275-6.2 0-9.217 4.168-9.217 9.762V151.6h-5.123zm-9.64 12.596c-.304-4.881-3.851-8.807-8.975-8.807-5.305 0-8.625 3.987-8.928 8.807zm4.94 8.686c-1.379 6.927-6.26 10.596-13.324 10.596-9.928 0-14.643-6.928-14.93-16.387 0-9.398 6.139-16.22 14.642-16.22 11.02 0 14.401 10.308 14.098 17.842H257.3c-.182 5.427 2.895 10.247 9.701 10.247 4.29 0 7.186-1.985 8.08-6.078zm-76.52-21.283h4.821v4.578h.121c2.35-3.547 5.654-5.305 10.065-5.305 3.85 0 7.292 1.455 8.55 5.305 2.107-3.38 5.73-5.305 9.762-5.305 6.215 0 10.368 2.592 10.368 9.05V151.6h-5.123V131.18c0-3.865-1.016-6.942-6.033-6.942-4.987 0-8.125 3.138-8.125 7.958V151.6h-5.124V131.18c0-4.047-1.273-6.942-5.851-6.942-6.018 0-8.307 5.548-8.307 7.958V151.6h-5.123zm-10.034 0h6.215v4.517h-6.215v19.343c0 2.41.667 2.774 3.865 2.774h2.35v4.517h-3.926c-5.306 0-7.413-1.076-7.413-6.806v-19.828h-5.29v-4.517h5.29v-9.337h5.124zm-28.089 0h4.82v6.564h.122c2.47-5.063 5.911-7.473 11.444-7.291v5.426c-8.246 0-11.262 4.639-11.262 12.597V151.6H165.5zm-11.793 15.068c-3.972 2.956-15.553.06-15.553 7.715 0 3.38 2.896 4.578 6.033 4.578 6.746 0 9.52-4.153 9.52-7.048zm8.322 15.977c-.91.53-2.168.834-3.684.834-2.652 0-4.335-1.44-4.335-4.82-2.835 3.38-6.624 4.82-10.975 4.82-5.654 0-10.292-2.471-10.292-8.732 0-7.048 5.245-8.625 10.535-9.58 5.609-1.152 10.49-.667 10.49-4.578 0-4.532-3.745-5.184-6.928-5.184-4.335 0-7.534 1.319-7.776 5.897h-5.124c.303-7.716 6.215-10.43 13.203-10.43 5.594 0 11.688 1.274 11.688 8.565v16.038c0 2.41 0 3.486 1.621 3.486.486 0 1.031-.12 1.577-.303zm-47.158-27.24c-6.943 0-9.535 5.957-9.535 11.748 0 6.078 2.79 11.808 9.838 11.808 6.988 0 9.338-5.972 9.338-12.05 0-5.852-3.017-11.506-9.641-11.506m-14.461-3.805h5.123v4.214h.106c1.698-3.426 5.609-4.941 9.944-4.941 9.596 0 14.355 7.594 14.355 16.401 0 8.853-4.714 16.205-14.234 16.205-3.122 0-7.836-1.198-10.065-4.882h-.106v16.099h-5.123zm-9.732 12.597c-.303-4.881-3.85-8.807-8.974-8.807-5.305 0-8.625 3.987-8.928 8.807zm4.942 8.686c-1.38 6.927-6.26 10.596-13.31 10.596-9.943 0-14.658-6.928-14.96-16.387 0-9.398 6.153-16.22 14.657-16.22 11.02 0 14.4 10.308 14.098 17.842h-23.33c-.166 5.427 2.896 10.247 9.717 10.247 4.275 0 7.17-1.985 8.065-6.078zm-61.195 5.048h9.535c3.91 0 14.46-1.077 14.46-16.932 0-10.248-3.804-16.447-14.34-16.447h-9.655zm-5.715-38.2h14.765c13.263 0 20.676 6.685 20.676 20.494 0 14.401-6.337 22.526-20.676 22.526H28.71zm81.037-29.817s-.47 2.653-.44 2.88l-.803-.151c-.015.015.485-2.32.622-2.82a1.63 1.63 0 0 0-.925.091l-.015-.015.318-.667 2.168.394.136.727c-.182-.166-.758-.379-1.06-.44m-1.896.153c-.075.606-.363 1.849-.242 2.425l-.804-.106c.349-.894.592-2.425.53-3.38l.804.106a3.358 3.358 0 0 0-.288.955m-2.122 2.016c-2.046.379-2.046-3.062-.394-3.547 2.046-.425 2.046 3.077.394 3.547m-1.758-2.714c-.106.38-.394.652-.864.804.212.667.333.894.682 1.637l-.016.015-.53-.09c-.121-.061-.789-1.016-1-1.532-.107.425-.228.97-.183 1.35l-.91-.137c.168-.273.88-3.077.85-3.365.788.09 2.213.242 1.97 1.319m-3.956 1.576c-.485.167-1.167-.015-1.668-.121l.683-3.426c2.213-.152 3.137 2.744.985 3.547m-3.168-.288c-.243-.045-1.592-2.789-1.592-2.789s-.318 2.122-.394 2.274l-.621-.09.697-3.336.682.091c0 .09 1.061 2.35 1.061 2.35s.364-1.835.394-2.001l.516.151zm-2.79-2.152c-.727 2.455-3.562 1.106-2.728-1.076.728-2.396 3.562-1.137 2.729 1.076M91.087 74.7c-.122.106-.546 3.108-.516 3.396l-.818-.152c.151-.258.348-2.35.348-2.35l-1.395 2.153-.803-2.426s-.333 1.744-.348 2.29l-.789-.091c.243-.425.743-3.502.743-3.502l.819.152c.03.167.636 2.258.636 2.258s1.092-1.834 1.168-1.925l.955.182zm19.887 2.107c-1 0-1.955-.015-2.425-.045-5.275-.516-10.52-2.032-15.795-2.865-1.531-.243-2.774-.47-3.85-.47-2.244 0-3.76.97-5.563 4.82-.774 1.455 1.803 2.85 2.364 2.91-2.107-1.803-1.38-2.334.303-2.334 2.304 0 6.397 1.016 7.2 1.122 4.821.773 9.717 2.152 14.629 2.683.182.016.333.016.5.016 3.607 0 3.44-3.942 5.927-5.897-.44.045-1.91.06-3.29.06m-17.946-1.334c-1.259-.348-1.744 2.243-.683 2.683 1.274.349 1.744-2.228.683-2.683m9.656 1.91-.38 1.319c1.031.197 1.47-1.152.38-1.319m3.137.47c-1.197-.303-1.591 2.198-.59 2.607 1.227.288 1.59-2.198.59-2.607m-6.17-1.076c-.166.667-.439 1.925-.515 2.622 1.577.333 2.062-2.32.516-2.622m-38.64-1.94.607 3.046-.697.121-.622-3.031c-.44.075-.682.075-1.258.333l-.015-.682 3.016-.394.213.576c-.273-.106-1.243.03-1.243.03M58.799 78.4l-2.091.485c.045-.318-.667-3.244-.85-3.517l2.214-.515-.167.743a2.572 2.572 0 0 0-1.076 0l.257 1.076 1.213-.288.197.515c-.242-.03-.97.152-1.303.228l.257 1.106c.607-.136 1.107-.333 1.486-.606h.015zm-6.078 1.091c-1.531.046-1.758-2.152-2.122-3.228l.742-.137c.364.94.258 3.138 1.835 2.85 1.137-.516.227-2.32.106-3.199l.727-.106c.273 1.456.94 3.972-1.288 3.82m-2.153.334-2.107.47c.046-.319-.636-3.26-.818-3.532l2.228-.485-.182.742c-.318-.09-.667-.09-1.076-.015l.242 1.076 1.228-.273.197.516c-.242-.031-.985.151-1.319.197l.258 1.122c.606-.137 1.091-.334 1.486-.607l.015.016zm-3.941.849c.045-1.031-.288-2.668-.773-3.593l1.03-.227c-.045 1.046.289 2.683.759 3.607zm-1.03-.622c-.44 1.03-1.744 1.273-2.775 1.455.06-.333-.56-3.335-.758-3.592 1.774-.758 4.29-.031 3.532 2.137m16.887-6.654c-8.02.015-16.023 3.425-24.042 3.425-.97 0-1.925-.045-2.895-.151 2.486 1.955 2.32 5.896 5.927 5.896.167 0 .333 0 .5-.015 4.912-.53 9.808-1.91 14.643-2.683.819-.121 4.836-1.107 7.17-1.107.85 0 1.47.121 1.668.47.257.455-1.334 1.804-1.35 1.85 0 .015 0 .03.016.03.152 0 1.046-.515 1.698-.94 2.622-1.88-2.865-6.775-3.335-6.775m-18.22 4.91c-.318-.197-.728-.257-1.198-.181.106.727.364 2.046.576 2.743 1.334-.182 1.728-1.85.622-2.562m31.636-5.957c1-.879 1.682-1.197 2.986-1.5-.364.803-.698 1.56-1.061 2.364-.652-.288-1.274-.56-1.925-.864M75.64 53.01h14.173c1.152 10.838-5.2 14.461-14.173 18.236zm20.934-5.806c-.334-.697-1.092-4.623-2.183-3.759 5.002 9.353 1.667 21.662-7.034 27.589-2.561 1.546-5.73 4.092-8.746 2.395 1.955-7.595 11.293-4.396 13.324-18.873-.258-.12-.348-.197-.576-.227a25.356 25.356 0 0 1-1.546 5.82c.803-2.152.288-8.897.44-9.261-.091-.121-.167-.152-.455-.5.06.818 0 1.106.015 2.198H75.641V37.79h13.9v8.352c0 .046.061.44.091.576.197-.303.213-.288.349-.379v-8.974H60.8l-.031 7.55h.44V37.79H75.2v14.794H61.71c-.046.031 0-.242-.046-.197 0-.045-.09.228-.09.197h-.38c0-.697.016-1.121.016-1.136l-.44-.016c-.303 1.107.622 10.384 2.137 12.006-3.046-2.956-4.001-8.201-3.44-12.142 0 0-.273-.213-.592-.5-.955 5.563 1.152 11.05 5.048 15.021.348.364.712-.015 1.137-.12-.09-.092-.273-.228-.41-.41l.41.41-.228-.607c-3.062-2.334-3.562-9.02-3.622-12.081H75.2s0 18.539-.015 18.584c-2.97-.152-4.987-3.38-7.867-3.41 4.123 2.44 11.687 8.337 16.447 5.76l.076.075c-.5.637-2.274 1.82-3.062 1.516-1.289-.788-3.305.637-2.38 2.092.121.167.197.318.06.546-5.169-.485-9.807-3.563-14.142-6.2-.046.045-.046.031-.076.076 1.652 2.243 7.61 5.047 7.61 5.047v3.35s.378.243.62.41v-3.608c1.562.53 4.73 1.516 4.73 1.516l.016 2.274.591-.395-.031-1.697.849-.228c.53-.151.879-.652.803-1.197a.644.644 0 0 1-.348-.743c.136-.652.924-.667 1.258-.273.637.288 1.273-.485 1.91-.667.894-.545 2-1.03 2.425-2.061.076-.258.213-.41.44-.546 1.804-1.03 3.562-2.168 5.032-3.653 6.322-5.336 8.535-14.507 6.428-22.374M83.296 56.54c-.076-.06-.228 0-.258.045.016.349-.349.243-.455.47.06.152.167.258.319.243.197-.016.182.227.348.242.834-.379 1.819-.287 2.531-.94-.272-.227-.333-.53-.394-.848-.47.03-.94-.046-1.349.182-.045.227.106.348.212.53-.333.137-.636.213-.954.076m-.955-10.778c-.622-.03-1.092-.075-.925.667.031.182.106.713.212.85a.137.137 0 0 1-.015.181c-.258.152-1.213-.242-1.092-.56 0-.273-.272-.334-.348-.152-.045.09-.106.09-.212-.016-.167-.258-.425.09-.318.273a.134.134 0 0 1-.106.182c-.258.106-.243.455.12.47.804.363 1.486.758 2.41.621h-.015c1.016-.075.485-.272.455-.97-.182-.758 1.107-1.243-.167-1.546m1.896-1.41.348.713s.728.318.819.41c.409.303.348 1.121-.031 1.03-.607-.242-.955-1.091-1.38-1.622-.106-.09-.394-.955-.591-.727-2.486.56.455 1.197 0 2.122-.09.12-.364.773-.258.864.213.258.682.455.94.773.394.394.031.864-.47.485-.288-.212-.621.09-.333.38.015.06-.167.136-.197.166-.303.41.182.38.455.182.136-.076-.016.349.227.288.455-.106 1.167-.333 1.288-1.046.288-.652-.363-.546-.53-1.122-.167-.227-.182-1.091.182-.773.318.425.773.652 1.167.288.38-.348.031-1.197-.152-1.576-.363-.758-.773-1.486-.758-2.38.516-.591 1.092.47 1.456-1.198-1.183.091-2.335.88-1.759 2.198.364.743.288.682-.424.546m-2.546.5c.137-.137.56-.546.606-.637.046-.09.06-.09.349-.12.818-.122 1.228-.44 1.455-1.32.121-.272-.031-.833-.197-.97-.06-.045-.091-.12-.046-.151.152-.031.47-.152.516-.334-.09-.167-.288-.03-.576-.12-.212-.107-.773-.274-1-.153-.167.198-1.122.213-.956.5.046.107.106.35.106.35l.44.044v.319s-.303.06-.41.09c-.257.38.622.41.85.106.151-.182.409-.197.394 0-.121.258-.546.38-.789.5-.363.061-.454.774-.742 1.016-.804.152-1.092.121-1.88-.515-.288-.333-.515-.076-.288.182-.152.045-.88-.364-.546.333l.046.076c-.364.515.182.333.485.5.636.258 1.349.455 2.183.303m-2.243-3.197c.242.151.424.848.56.94.273.363.834 1.318 1.395 1.121v-.015c.167-.076.333-.546.333-.622 0-.015-.09-.106-.197-.182-.53-.455-.849-.91-.849-1.319-.03-.136.288-.318.273-.454-.015-.47-.41.06-.576-.016-.076-.137-.364-.53-.546-.333-.12.045.016.333-.075.394-.031.06-.06.06-.182.06-.425 0-.485.258-.137.425M63.56 49.553a1.198 1.198 0 0 1-.182-.227c-.015.197.091.44.06.636-.03.152-.075.394-.12.53.258.259.394.274.682.183-.045-.394-.137-.849-.44-1.122m6.155.985c-.046.243.182.349.227.546-.288.197-.606.197-.91.243-.166-.167-.242-.455-.515-.364-.167.031-.076.197-.197.273-.318-.031-.318-.031-.364.288.091.06.198.12.288.182-.227 1.121 2.835-.046 3.29-.38-.152-.257-.349-.424-.394-.727-.137-.485-1.046-.076-1.425-.06m-5.29-1.926c-.5.895-.35 1.698.227 2.456 1.091.031 1.53-1.455 1.349-2.35.121-.075.227-.151.333-.227-.03-.121-.06-.212-.09-.333-.198 0-.364-.016-.546-.016-.394-.5-.622-.515-1.092-.06-.318-.121-.318-.121-.53.167a.805.805 0 0 0 .348.363m8.883 1.32c-.318.15-.742.302-.985-.077.546-.227 1.228-.166 1.607-.697.288-.333.257-1.015-.273-1.197-1.395-.394-2.88.318-4.29.44-2.653.712-.758-.577-2.85-.562.743 2.153 3.002.773 4.578.607-.12.257-.379.348-.485.576.561-.106 1.289.106 1.698-.318.212-.592 1.622-.667 1.288.136-1.318 1.289-5.457.09-7.306.91-.273.849-.758 1.41-1.577 1.637-.651-.41-.955.06-1.606-.137-.076-.06-.137-.136-.197-.197-.031 0-.046-.015-.061-.031-.015-.015-.045-.031-.06-.045v.03c.015.395-.076.774-.228 1.122.849.334 1.789-.075 2.638-.303.348-.106.545-.454.91-.454.894.075 1.409-.683 2.182-.895.955-.182 1.91-.333 2.88-.318 1.107 1.516 1.319.227 2.32.743-.032.151-.061.288-.091.454.09.031.182.061.257.091-.106.38.455.591.53.106.016-.045-.015-.12.077-.136.59-.319-.319-1.895-.956-1.486m-9.428-3.835c-.031-.394-.137-.864-.455-1.137-.348-.363-.455-.849-.09-1.228-.183-.182-.425-.03-.592-.272-.227-.258-.364.03-.41.303-.62.09-.272.288-.12.621.197.591.94 1.97 1.667 1.713m5.73-.152c-.046.258.182.364.212.561-.288.197-.591.197-.91.243-.166-.167-.227-.455-.515-.38-.152.046-.076.213-.197.288-.318-.03-.318-.03-.364.288.106.06.197.121.303.167-.242 1.137 2.82-.03 3.275-.379-.152-.242-.334-.424-.394-.712-.122-.485-1.031-.091-1.41-.076m-5.306-1.925c-.5.894-.348 1.713.228 2.456 1.091.045 1.53-1.44 1.364-2.335.106-.09.212-.151.318-.242-.03-.106-.045-.212-.076-.318-.197-.016-.379-.016-.545-.016-.394-.515-.637-.53-1.107-.06-.318-.121-.318-.121-.53.151a.681.681 0 0 0 .348.364m8.898 1.334c-.318.152-.743.303-1-.076.56-.227 1.243-.182 1.622-.697.288-.333.257-1.03-.288-1.213-1.395-.394-2.865.319-4.275.44-2.653.728-.773-.56-2.865-.56.743 2.152 3.017.772 4.578.62-.106.243-.364.35-.47.577.561-.106 1.289.106 1.698-.334.212-.59 1.622-.651 1.288.152-1.318 1.289-5.472.076-7.321.91-.273.833-.758 1.394-1.577 1.637-.56-.349-.849-.076-1.334-.091.016.152.06.303.106.455.046.167.06.318.076.485.546-.06 1.107-.273 1.637-.41.349-.12.546-.454.91-.454.91.06 1.41-.682 2.182-.91.955-.167 1.91-.318 2.896-.303 1.106 1.516 1.303.228 2.304.743-.031.152-.046.288-.076.455.09.03.182.06.258.075-.106.394.455.607.53.121.016-.045-.015-.12.076-.136.591-.318-.318-1.895-.955-1.486m-9.186-4.153c-.03-.394-.12-.85-.424-1.122-.349-.364-.47-.849-.106-1.228-.182-.167-.41-.03-.591-.273-.213-.242-.349.046-.41.303-.606.091-.257.288-.12.622.212.576.94 1.94 1.652 1.698m5.699-.152c-.06.258.167.364.212.56-.288.183-.591.198-.91.228-.151-.152-.227-.455-.5-.363-.167.045-.075.212-.197.272-.318-.03-.318-.03-.363.288.09.06.197.121.288.182-.228 1.107 2.804-.045 3.259-.379-.152-.242-.334-.424-.395-.712-.12-.485-1.03-.091-1.394-.076m-5.275-1.91c-.485.894-.349 1.698.242 2.44 1.076.046 1.516-1.44 1.334-2.319.121-.09.228-.152.333-.227-.03-.121-.06-.228-.09-.334-.197 0-.38-.015-.546-.015-.379-.5-.622-.515-1.076-.06-.318-.122-.318-.122-.546.151.09.167.182.288.349.364m-2.274 3.259c.136.016.273-.137.41 0-.016.076-.016.137-.032.227.864.364 1.82-.06 2.668-.287.349-.106.546-.455.91-.44.894.06 1.41-.682 2.167-.894.94-.182 1.895-.334 2.865-.319 1.107 1.516 1.304.228 2.29.743-.032.137-.061.288-.092.44.106.03.182.06.258.09-.09.38.47.592.546.122.015-.06-.016-.137.06-.137.591-.333-.318-1.88-.94-1.486-.318.152-.742.304-.985-.075.546-.228 1.228-.167 1.607-.682.273-.334.242-1.031-.288-1.213-1.38-.38-2.85.318-4.245.44-2.637.712-.757-.561-2.85-.546.759 2.137 3.002.758 4.548.606-.106.258-.363.349-.47.576.546-.106 1.274.091 1.683-.333.212-.576 1.607-.652 1.288.152-1.318 1.273-5.442.075-7.26.894-.273.834-.758 1.395-1.562 1.622-.652-.41-.955.06-1.607-.121-.182-.197-.363-.425-.651-.212v.303c-.304-.091-.652.348-.319.53m14.113 17.084c.349.545.455 1.424 1.077 1.743.272 0 .712.257.879-.076-.182-.652-1-1.03-.88-1.789.046-.182-.03-.348-.166-.5-.318.091-.985-.621-.743.228-.197.06-.303.197-.167.394m1.895-2.91c-.045-.85-1.03-1.395-.727-2.26.075-.151.045-.333-.121-.47-.288.076-.288.076-.5-.06-.364-.182-.425.228-.395.485-.06.031-.136.076-.227.121.257.728 1.015 2.562 1.97 2.183m0 10.172c-.318-.622-.803-1.183-1.046-1.82.288-.409.167-.909-.363-.59-.137-.258-.334-.319-.576-.243-.076.167-.106.333.075.47.016 0 0 .045 0 .075-.06.016-.12.031-.182.06-.12.334.213.531.334.79.363.59.91 2 1.758 1.257m3.638-5.199c-.212 0-.257.273-.12.394.151.152.287-.015.439.031.015.091.015.167.015.228.85.06 2.138-.713 2.592-1.395a38.301 38.301 0 0 0-.53-.818c-.455.151-.985.136-1.258.545l.47.516c-.319.166-.667.454-1.016.182-.137-.121-.53-.076-.424.182 0 .03-.016.075-.016.12-.06.016-.106.016-.152.016M83.1 65c-.47.106-.94.152-1.228.622.121.167.227.318.348.47-.227.576-.803.485-1.334.515.046.182.076.273.106.394-.227.121-.318.333-.272.606.06.031.136.046.212.076.136-.182.41-.379.47-.03.985-.319 1.864-.91 2.319-1.82-.273-.212-.5-.47-.621-.834m3.607-3.88c-1.591-.53-4.092 2.926-5.153 1.91-.258-.56-1.046-.5-1.531-.348.59.44.924 1.38 1.819 1.076 1.03-.197 1.834-1.03 2.713-1.41.031.304-.273.425-.41.698.607-.182 1.168-.348 1.608-.743-.076-1.667 2.319-.5.015.53.41.016.697.198.97-.136.53-.47.561-1.152-.03-1.576m-6.367-2.623c-.167-.09-.364-.09-.546-.075-.303-.789-.833-.485-1.273-.031-.637-.243-.546.333-.197.651-.334.789-.106 1.956.743 2.305.879-.38 1.121-1.456 1.076-2.32.273-.045.5-.348.197-.53m-2.289 7.428c.834 2 2.092-.546 1.774-1.622.576-.485.409-.758-.273-.803-.258-.53-.788-.592-1.152-.137-.121.152-.318.106-.485.121-.364.167-.167.546.151.637-.166.606-.257 1.212-.015 1.804m.212-11.308c-.288.803.016 1.88.758 2.319.864-.38 1.41-1.5 1.107-2.44.212-.183.454-.258.394-.561-.137-.319-.652-.076-.788-.455-.319-.44-.743-.076-1 .212-.198.031-.395-.076-.577.016-.197.348.318.56.106.91m8.034 8.548c-1.773-.227-1.5 1-2.38.713.152-.198.591-.304.455-.607-1.304.576-2.668.986-3.972 1.562-.666.697-.44 2.107-1.94 2.228-.045.727-1.06 1.213-1.698.894-.257.243-.136.303-.105.516-.213.197-.5.651-.046.636.152-.03.258-.242.41-.167 0 .091-.016.182-.032.288.121 0 .288.046.334-.015.197-.258.5-.046.727-.243.758-.515 1.85-.985 1.79-2.061 1.348-.592 2.136-2.774 3.895-2.001.879.47 1.106-.94 1.895-.97.212.515.318.47.606.303.485.379.41-.228.591-.5.031-.258-.242-.577-.53-.577m-10.004-5.532c.166.06.106.258.182.364.894.06 1.788-.182 2.698-.288.667 0 .652-.606 1.137-.682 1.197.06 1.94-.985 3.062-1.152.894-.258 2.107-.591 2.91.03.182.213.47.259.758.213.38-.076.834-.152 1.03.288-.06.06-.136.137-.211.227.03.076.075.167.12.273.183-.015.213.137.289.258.106.167.333.167.379 0 .045-.212.257-.106.333-.288.031-.56-.09-1.228-.637-1.516-.272-.242-1.349.273-1.379-.258.803.182 2.334-.848 1.288-1.53-1.788-.41-3.744.44-5.532.651-.713.152-.364-1-1.926-.682 1 2.092 3.184.607 4.866.591.016.182-.318.182-.227.41.485-.152 1.319.106 1.607-.38.151-.59 1.41-.454 1.03.243-.94.591-2.35.318-3.456.44-1.364.12-2.834.151-4.108.621-.257.788-.606 1.607-1.515 1.789-.637-.622-1.562.12-2.244-.516-.212.046-.258.182-.348.349-.334.137-.455.318-.106.546m9.383 1.682c1.046-.031 3.456-1.167 1.697-2.107-.97-.167-1.955.303-2.895.53-3.79 1.516-1.561-.333-3.926-.136.788 2.016 2.804.97 4.305.5.046.227-.227.273-.197.5.515-.106 1-.212 1.47-.303.213-.985 2.016-1 1.183 0-2.077.895-4.533.728-6.7 1.35-1.456 3.804-3.987 1.212-3.957 2.303-.576.06-.56.607.016.561.015 1.107 2.82-.182 3.335-.515.12-.273.242-.515.363-.773.85.41 1.455-.804 2.183-1.031.743-.137 1.698-.864 2.335-.197.697.773 1.743-.41 2.35.379-.228.591.075.333.181.712-.015.334.546.334.561-.015 0-.152.015-.243.167-.303.303-.47-.364-.985-.591-1.395-.516-.485-1.365.455-1.88-.06M47.128 20.812c-.319.349-.85-.151-.516-.485.318-.333.85.167.516.485m-.955 2.062-.228.106c-.197-.41-.515-1.198-.53-1.88 0-.167.242-.167.242-.015 0 .47.182 1.106.516 1.788m2.698-.696-.303.03c-.788-.636-1.743-.924-2.668-.757-.016-.091-.031-.167-.045-.258 1.06-.167 2.167.197 3.016.985m-.849-1.152c-.318.333-.849-.167-.515-.5.318-.334.849.166.515.5m-1.789-.197c-.318.348-.849-.167-.515-.5.303-.334.834.166.515.5m3.335 1.182c-.318.333-.849-.167-.53-.5.318-.334.849.167.53.5m-.727-.606c-.319.348-.85-.167-.516-.5.303-.334.85.166.516.5m-6.822 1.546c.47.015.47-.728.016-.728-.47 0-.485.728-.016.728m2.092.788.228-.076c-.152-.424-.486-1.212-.97-1.698-.107-.12-.289.046-.167.152.333.349.651.91.909 1.622m-2.35 1.41.243-.197c.09-1 .56-1.895 1.334-2.441a1.9 1.9 0 0 1-.152-.212c-.879.636-1.38 1.682-1.425 2.85M82.993 39.23h5.002v11.672H77.126V39.23zm6.048 11.672c.015-.227-.243-.394-.455-.318v.045c-.394 1.789-.212-5.563-.242-5.29l.363.152v-.85l-.363.152v-5.426c.06-.273.485-.046.242.136v.046c.5.151.652-.637.121-.652l.334-.576-.091-.076-.591.333c-.016-.5-.85-.379-.698.106h.06c.168-.227.425.167.137.213l-5.002.015.167-.348h-.91l.152.348h-4.987c-.303-.045-.06-.455.137-.227h.045c.167-.485-.682-.607-.682-.106l-.607-.334-.075.076.333.576c-.546.016-.394.804.106.652v-.046c.394-1.788.212 5.533.243 5.276l-.364-.137v.849l.364-.152c-.031-.121.151 7.034-.243 5.29v-.045c-.5-.152-.652.637-.106.652l-.333.576.075.076s.592-.334.607-.319c0 .5.849.364.682-.106h-.045c-.076.106-.288.046-.288-.09 0-.076.06-.121.136-.137h5.003l-.152.333h.91l-.168-.333h5.003c.075.016.136.06.136.137 0 .136-.197.197-.288.09h-.045c-.167.47.682.592.682.106.016-.015.606.319.606.319l.076-.076-.333-.576a.34.34 0 0 0 .348-.334M77.9 45.551v.106c.016-.213.349-.06.182.075l.06.06c.32.032.364-.454.032-.484l.394-.182v-.121l-.394-.167v-.016c.333-.015.288-.515-.031-.47l-.06.046c.166.136-.167.288-.183.076v.12-4.304h.334v-.319h3.714c.212.046.03.319-.091.167l-.06.06c-.046.319.515.334.515.016l.197.394h.12l.183-.394c0 .318.546.303.515-.015l-.045-.06c-.137.151-.318-.122-.106-.168h3.714v.319h.333c-.03-.076.137 5.29-.167 4.108l-.06-.046c-.318-.045-.38.455-.046.47v.016l-.394.166v.122l.394.182c-.333.015-.272.515.046.485l.06-.06c.303-1.214.137 4.259.167 4.107h-.333v.318h-3.714c-.212-.015-.045-.318.106-.167l.045-.045c.046-.318-.5-.349-.5-.031h-.016l-.197-.394h-.12l-.183.394c-.03-.318-.545-.288-.515.031l.06.045c.137-.151.303.152.091.167h-3.714v-.318H77.9zm5.154-5.579zm4.169 4.624zm-5.17 5.563zm4.836.333h.682V39.654H77.55v10.838zM80.37 37.153c.243-.985.591-2.668 1.137-3.502l-1.061-.363c.015 1.06-.56 2.713-.91 3.729.41.045.41.045.834.136m-5.806-1.986c-.015-.652.076-1.819-.212-2.395h1.38c-.228.622-.622 3.441.545 3.305.47.015.925-.318.925-.789-.031-.682.076-1.94-.212-2.516h1.38c-.334 1.061-.334 2.926 0 4.002h-1.168c.015-.09.031-.212.031-.394-1.182.834-2.79.424-2.668-1.213m-2.941 1.107c1.546-.607.197-3.002-1.167-2.44-1.531.59-.213 3 1.167 2.44m2.35.606.015.031c-.622.485-1.41.288-2.077-.06-1.91 1.076-3.987-1.456-2.456-3.078 1.638-1.94 4.851.258 3.305 2.395.5.395.91.622 1.213.713m-9.02.545h1.273c-.485-.773-.864-1.395-.864-1.395.44-.257 1.38-.636 1.804-.606l-1-.773-3.093 1.85.349 1.182.015.015c.258-.5.622-.894 1.046-1.122.091.167.258.47.47.85m-4.608 5.668c-1.85-.121-2.229-3.32 0-2.835v-.788c-2.895-.167-2.85 4.442 0 4.335zm-.819 1.213c-.667-.53-1.516.409-2.183.56-1.152.076-.242-1.364.455-1.47l.016-.015-.561-.41c-1.046.531-1.85 2.805-.152 2.85.364.016 1.273-.621 1.577-.682.788-.152.545.91.06 1.167.243-.015.485-.045.712.016.44-.622.728-1.531.076-2.016m24.77 28.058 2.227-1.273c-.288-.228-2.016-3.047-2.076-3.396L82.34 68.91l.09.88h.016c.333-.425.803-.804 1.41-1.153l.652 1.076c-.334.167-1.077.622-1.35.667l.395.47 1.227-.712.622 1.03c-.41.228-.804.349-1.167.364zm8.821-7.822.38-.742-3.199-2.138-.348.667c.12.167 2.198 1.38 2.198 1.38s-3.426.454-3.593.727l3.198 2.183.364-.53c-.152-.106-1.91-1.244-1.91-1.244s2.804-.333 2.91-.303m1.622-3.183.713-2.41c-.364.03-3.593-.91-3.88-1.122l-.668 2.274.667.576.016-.016c-.046-.515.03-1.106.212-1.758l1.228.348c-.121.364-.334 1.168-.5 1.395l.606.076.394-1.32 1.167.334c-.136.44-.333.789-.576 1.046zm-6.821 8.64c2.486-1.091 1.94-3.562-.88-2.425-1.182-.333.319-1.531 1.092-1.273l.016-.016-.576-.697c-.895.379-2.304 1.561-1.546 2.577.515.667 1.56-.046 2.258-.031 1.137.197-.09 1.394-.803 1.319v.015M58.36 52.418l.06-.88c-1.167.228-3.031.228-4.198 0l-.061.864c1.167-.212 3.047-.212 4.199.016m.394 14.203.682.94c.728-.894 2.244-1.986 3.32-2.395l-.682-.94c-.273.424-.864.849-1.319 1.167l-1.046-1.455c.44-.333 1.03-.758 1.531-.864l-.697-.955c-.728.894-2.229 1.986-3.305 2.395l.682.955c.258-.44.85-.864 1.304-1.182l1.061 1.455c-.455.333-1.03.758-1.53.879m-2.502-6.548c.864-1.577 3.729-.637 2.547 1.152-.895 1.515-3.714.651-2.547-1.152m-.227 2.091c1.955 1.895 5.062-1.121 3.016-3.062-1.97-1.91-5.108 1.137-3.016 3.062M54.57 56.95l.228.88 4.062-.501-.197-.804c-.197-.045-2.744.425-2.744.425s2.41-2.804 2.365-3.138l-4.123.455.09.712c.198-.03 2.426-.333 2.426-.333s-2.016 2.259-2.107 2.304m52.646 5.851c-.106.121-.834 2.198-1.077 2.107a.502.502 0 0 0-.515-.212c-.121-.046-.167-.212-.106-.333.137-.152.819-2.274 1.137-2.123.09.197.333.334.53.273.061.076.076.182.032.288m-1.986 7.23c.075-.515-.607-.803-.88-.363.076-.197-.181-2.183.183-2.183.166.106.363.137.53.016.106.015.197.12.197.257v2.153c0 .045 0 .09-.03.121m1.076 3.744c-.637 3.653-5.336.031-1.971-1.5.167.348.697.363.849 0a1.564 1.564 0 0 1 1.122 1.5m.485-12.233c-1.031-.636-1.592 2.198-1.971 2.683-.182.425-.031.864.348 1l-.757 1.577c-.395-.075-.758.243-.758.713.151.606-.455 3.274.621 3.289v.743c-2.607.47-2.213 4.578.47 4.502 2.668.076 3.077-4.002.485-4.487v-.712c.41.06.773-.243.773-.713-.152-.606.41-3.168-.545-3.29l.576-1.197c.97.53 1.546-2.243 1.925-2.713.167-.394.03-.834-.303-.97l.424-.91c-.121-.152-.364-.53-.606-.924zm.606-1.531h.015c-.09-.137-.167-.288-.242-.41a.651.651 0 0 0 .227.41M75.368 3.228c-.121 1.031-.667 1.82-1.319 1.94v.258h1.289c-.061.046-.106.106-.152.167-2.32.515-2.562 4.047-.349 4.881-.864-.834-.197-2.44 1.016-2.395 1.228-.045 1.88 1.561 1.03 2.395 2.199-.834 1.971-4.366-.348-4.881a.857.857 0 0 0-.167-.167h1.304V5.17c-.667-.122-1.198-.91-1.334-1.94 1.03.136 1.819.666 1.94 1.333h.258V.94h-.258c-.12.667-.91 1.198-1.94 1.334.137-1.03.667-1.819 1.334-1.94V.075h-3.623v.258c.652.121 1.198.91 1.319 1.94-1.016-.136-1.804-.667-1.925-1.334h-.258v3.623h.258c.12-.667.91-1.197 1.925-1.334m1.122 6.746c.894-1.668-2.168-1.668-1.274 0 .38-.228.91-.228 1.274 0m-1.198 1.682a1.253 1.253 0 0 1 1.137 0c1.137-1.773-2.289-1.773-1.137 0m.56 1.956c1.047.015 1.047-1.622 0-1.607-1.03-.015-1.03 1.622 0 1.607m0 2c1.047.016 1.047-1.606 0-1.59-1.03-.016-1.03 1.606 0 1.59m0 2.002c1.047.015 1.047-1.607 0-1.592-1.03-.015-1.03 1.607 0 1.592m-2.243.015h.986c0-1.895-.182-5.427-1.365-8.004-.257-.576-1.167-.166-.894.41.819 1.788 1.273 4.472 1.273 7.594m3.517 0h.986c0-3.122.454-5.806 1.273-7.594.273-.576-.637-1-.895-.41-1.182 2.577-1.364 6.11-1.364 8.004m-7.973-6.851c.955 0 .955-1.501 0-1.486-.955-.015-.955 1.5 0 1.486m-6.276 4.532c.955.015.955-1.486 0-1.47-.97-.016-.97 1.485 0 1.47m8.11-5.2c.955.016.955-1.5 0-1.485-.955-.015-.955 1.5 0 1.486m-10.414 8.367c.955.016.955-1.485 0-1.47-.955-.016-.955 1.485 0 1.47m1.076-1.637c.955 0 .955-1.5 0-1.486-.97-.015-.97 1.501 0 1.486m5.76-5.2c.956.016.956-1.485 0-1.485-.954 0-.954 1.5 0 1.486m-7.73 8.58c.955.015.955-1.501 0-1.486-.955-.016-.955 1.5 0 1.485m4.578-6.29c.955.015.955-1.486 0-1.486-.97 0-.97 1.5 0 1.485m1.5-1.227c.97.015.97-1.486 0-1.486-.955 0-.955 1.5 0 1.486m23.572 3.395c-.016.955 1.5.955 1.485 0 .016-.955-1.5-.955-1.485 0m-.485-.788c.955.015.955-1.486 0-1.47-.955-.016-.955 1.485 0 1.47m1.561 2.425c-.015.97 1.486.97 1.47 0 .016-.955-1.485-.955-1.47 0m.894 1.743c-.015.955 1.486.955 1.47 0 .016-.954-1.485-.954-1.47 0m-3.835-5.548c.955.016.955-1.485 0-1.485s-.955 1.5 0 1.485m-3.153-2.288c.955.015.955-1.486 0-1.486s-.955 1.5 0 1.486m-3.577-1.531c.955.015.955-1.501 0-1.486-.97-.015-.97 1.5 0 1.486m1.834.667c.955 0 .955-1.501 0-1.486-.955-.015-.955 1.5 0 1.486m3.38 1.925c.955.015.955-1.486 0-1.486s-.955 1.5 0 1.486m-24.587 7.215 1.334-.424c2.077-3.76 5.548-6.564 9.641-7.595-.09-.348-.197-.682-.303-1-4.669 1.212-8.55 4.563-10.671 9.02m27.664-.425 1.334.424c-2.123-4.456-6.003-7.807-10.672-9.02a9.663 9.663 0 0 0-.318 1.001c4.108 1.031 7.564 3.835 9.656 7.595m-26.71 52.781c.516.986 3.547 3.654 4.366 2.396-1.47-.758-3.987-2.593-3.017-4.942-2.182-1.334-.257-3.471 1.44-1.652 1.804-1.122 3.805-.319 5.594.91.637-1.38-2.47-2.335-3.198-2.745-.91-.303-3.79.349-4.76.395a1.214 1.214 0 0 0-1.061 1.318c.136.713.12 3.76.636 4.32m3.35-.621c2.35.015 2.047-3.729-.272-3.335 1.076.591 2.016 2.122.333 2.577-.637.121-1.273-.56-1.743-.894.015.91.758 1.652 1.682 1.652m.273-1.561c.606-.728-1.53-1.683-1.85-2.092-.242-.152-.56-.121-.727.106-.606.697 1.486 1.667 1.774 2.046.257.197.621.182.803-.06m13.127 10.55c-.788.076-1.197.621-1.622 1.167-.363-.227-.864-.47-1.318-.47-.243 0-.485.076-.683.243 1.456.576.925 2.774-.485 2.774-1.41 0-1.925-2.198-.47-2.774a1.115 1.115 0 0 0-.697-.243c-.455 0-.94.243-1.319.47-.409-.546-.833-1.091-1.622-1.167.44 4.032 2.274 6.033 4.108 6.033 1.835 0 3.669-2 4.108-6.033m-.667.864c-.56 3.198-2.076 4.639-3.44 4.639-1.35 0-2.88-1.44-3.442-4.639.167.167.334.38.531.622l.303.394.41-.258c.181-.106.348-.197.515-.258a2.056 2.056 0 0 0-.167 1.258c.182.955.94 1.622 1.85 1.638.909-.016 1.667-.683 1.848-1.638.091-.454.016-.894-.151-1.258.151.06.333.152.5.258l.424.258.288-.394c.198-.243.364-.455.53-.622m-7.654-8.655c.197-.895-1.197-1.168-1.364-.288-.197.894 1.198 1.167 1.364.288m4.76 2.364c.197-.894-1.197-1.167-1.364-.288-.197.895 1.197 1.168 1.364.288m-1.016 4.275c-.151.728.97.955 1.107.227.167-.712-.97-.94-1.107-.227m.167-22.556c-.53-.045-1.091-.152-1.606-.197-1 .88.12 1.38.879 1.304.636.166 1.5-.683.727-1.107m-8.322 2.35a209.781 209.781 0 0 1 3.26 4.229c.166.03.454.09.454.09l-3.88-5.168s-.076.53.166.849m4.79 4.199-4.774-6.337s-.091.303-.122.44c.349.47 4.563 6.048 4.563 6.048zm-.47 2.531c-.075-.03-.151-.045-.257-.076-.121.334-.334.97-.016 1.183l1.546.667 2.001-1.47.53-8.004-.59.045c-.152.016-1.243 9.232-1.804 8.701.121-.606 1.44-8.7 1.44-8.7s-.394-.046-.591-.077c-.031.182-.076.425-.076.425l-2.198-2.88-.288.12 2.35 3.108-.152.546c-.212-.137-2.486-3.29-2.713-3.593l-.455-.03 3.062 3.986-.167.546-3.441-4.517h-.424l3.713 4.896-.197.697-4.077-5.548-.546.015 4.517 5.958-.167.546-4.987-6.504-.09.5s4.653 6.11 4.926 6.504c-.243.742-.046.818.273 1.44.182.682-.303 1.773-1.122 1.516m-5.35-2.865c.56.318 1.167.667 1.743 1-1.395 1.683 1.091 2.41.955.758.924.395 4.578 1.516 3.122-.651-4.79.151-7.23-4.881-4.577-8.717 1.606.728 7.26-2.016 6.79.789.304.303.38.333 1.062.333 1.637-3.76-4.002-2.637-6.033-2.198-1.804.53-3.472-2.107-5.048-.667-.637.561-.228 1.82.636 1.85.758.03.97-1.016.288-1.35 1.501-.5.773 1.88.243 2.502-1.713-.88-1.986 1.864-.303 1.136.076.5.106.986-.016 1.456-1.849-.395-1.349 2.243.031 1.182.394.38.576.97.622 1.516-1.85.273-.364 2.637.485 1.06M45.885 24.618c-.016-.363.242-1.06.242-1.06-.364.136-1.107.439-1.47.575 0 0 .667.333.894.622-.303.106-.606.151-1.03-.046l.575 1.137c.121-.5.38-.803.576-.834.607.955-.924 2.001-1.591 1.183-.182-.349.045-.713.44-.425-.061-.712-.683-.697-.865-.182.016-.727-.167-1.152-.924-1.364-.198.713.045 1.152.773 1.455-.41-.045-.85.349-.303.864.015-.454.394-.515.59-.197.334.834-.651 1.167-1.47.303.182-.06.38-.03.637.031l-.773-.985c.031.348 0 .591-.06.743-.167-.182-.228-.364-.288-.728l-.592.516c.561.348 1.198.909 1.97 2.016 1.032-1 5.17-2.744 6.777-2.699-.197-1.334-.121-2.167.045-2.82l-.788.032c.212.318.288.485.303.743-.167-.076-.348-.228-.56-.516l.105 1.243c.152-.212.273-.363.455-.44-.016 1.183-.955 1.623-1.289.789-.06-.364.243-.591.561-.273.06-.743-.545-.727-.803-.41.303-.727.182-1.212-.455-1.59-.394.666-.227 1.106.273 1.621-.485-.242-.94.167-.5.728.09-.485.515-.38.606.015.076 1.046-1.758 1.334-1.955.228.166-.106.56-.076 1 .212l-.379-1.228c-.167.44-.424.606-.727.743m-4.35-.896c.469.015.469-.713.015-.713-.47-.015-.485.713-.016.713m1.122-1.41c.47.016.485-.712.015-.712-.47-.016-.485.712-.015.712m-1.5 3.198c.469.016.484-.712.015-.712-.455-.015-.47.712-.016.712m.076-.94c.47.016.485-.712.015-.712-.454-.015-.47.713-.015.713m2.061-4.942v.015l-.712.046.38.94.5-.592.09.046.076 1.258c.136 1.107 1.819.424 1.137-.455l-.804-.97c.016-.015.031-.06.046-.09l.773.09-.38-.955-.56.455c-.031-.016-.06-.031-.091-.031l-.06-.925c-.228.09-.698.288-.925.38l.576.697-.046.09m2.092 3.76c.303-.273-.151-.727-.454-.455-.303.288.151.758.454.455m-.394-.834c.288-.272-.167-.742-.455-.454-.303.288.152.758.455.454m54.737-9.762c.152-.576-.651-1.334-1.243-1.106.076.636.743 1.197 1.243 1.106m-7.245 31.954c.56-.318 1.137-.56 1.637-.97-.121-.167-.212-.288-.334-.47-.485.47-1.606.622-1.303 1.44m3.153-1.258c.272.485.56.97.833 1.425 1.077 0 .167-.91-.09-1.288-.152-.167-.455-.167-.683-.228-.015.031-.045.06-.06.091m5.411-29.24c-.409-.895-.636-1.016-1.516-.925.364.894.895 1.228 1.516.925m-.576.545c.303 1.061.713 1.289 1.804 1.122-.348-.864-.91-1.213-1.804-1.122m-2.258 12.552c-1.198-.546-2.153.151-3.35-.106.348 1.652 2.304.454 3.35.106m3.41-10.884c-.06 1.046.819 1.652 2.274 1.576-.379-1.06-1.137-1.637-2.274-1.576m3.866 3.668c.03-.03.06-.076.09-.121-.848-1.228-1.227-1.485-2.743-1.485.03 1.485 1.561 1.485 2.653 1.606M90.298 42.49c.289-.804 1.82-2.759 1.001-3.38-.378.227-1.182.136-1.106.727v2.623c.03.015.076.015.106.03m-4.669-5.503c.333-.03.637-.045.94-.075.318-1.198-.364-1.334-1.198-1.986-.333 1-1.227 1.485-1.728 2.334.819-.045 1.289-.318 1.744-.955.09.243.166.47.242.682m9.459 9.05c-2.031 2.486-2.046 2.85 1.046 3.91-.031-.272-.06-.454-.076-.666-.606-.182-1.197-.41-1.743-.773.394-.485.758-.925 1.137-1.395-.106-.318-.228-.652-.364-1.076m1.273 7.291c-.576-.06-1.106-.09-1.728-.137.016.304.046.531.06.774.35.075.637.151.956.227.09 1.804-.895 1.834-2.244 1.091-.394 2.274 3.274 2.047 2.956-1.955m7.564-31.135c.698 0 1.683.44 2.244.045.015-2.183-2.638-1.895-4.154-1.94.455.818 1.031 1.622 1.91 1.894m5.806 2.714c.637 1.5 1.637 1.137 2.304 2.122-.56-.182-1.046-.333-1.516-.5-.03 1.607 1.986 1.773 3.093 2.395-.182-2.592-1.44-3.577-3.881-4.017m.41 8.246c-.046.016-.076.016-.122.031-.333 1.455.698 2.744 1.334 3.987 1.092-1.97 1.046-4.2-.712-5.745-.546 1.046.212 2.031.47 3.016-.031.016-.06.031-.106.046-.288-.44-.576-.88-.864-1.334m.409-9.536c0 .046-.016.076-.016.121-.47-.03-.925-.045-1.394-.075.515 1.652 2.425.864 3.638 1.607-.698-1.32-1.198-2.623-2.805-2.88.167-.789-.045-1.532-.53-1.835 0 .698-.288 1.213-.91 1.47-.318 1.365 1.107 1.304 2.016 1.592M50.114 36.26c-1.455.09-1.243-1.744-1.683-2.774-.257.303-.485.56-.712.818.303 1.03.59 2.047.924 3.138.243-.167.44-.318.667-.47 1.016.712 1.956.212 2.29-.91.302.076.575.213.803-.015-.485-.985-.94-1.94-1.41-2.91-.303.06-.576-.349-.925-.031.334.91 1.531 2.743.046 3.153m60.725-8.064c-.53 1.016 1 1.44 1.015 2.395-.409-.318-.743-.59-1.121-.894-.486 1.88 1.728 2.47 2.41 3.956.879-2.728.409-4.396-2.304-5.457M61.498 70.987c.621-.576-.228-.91-.561-1.365-5.518-5.138-7.58-11.823-7.094-19.25-.137-.061-.303-.153-.576-.289-.925 7.883 2.107 15.826 8.23 20.904M43.096 36.88c.334.819.834 1.758 1.668 2.107-.425-1.607.652-3.001 1.167-4.456 0 3.334-1.895 5.153 2.683 6.381-1.213-1.97-.41-4.35-1.182-6.381-.743-.41-1.562-.516-2.062-1.137-.136-.288-.394-.394-.652-.455-.864-.182-1.652-.47-2.092-1.182-.636.197-1.015.166-1.591-.076-.046.712.56 1.425 1.364 1.152-.637.94-.288 1.773-.06 2.744.47-.955 1.167-1.547 1.955-2.032-.606 1.031-1.683 2.062-1.197 3.335m8.988-6.624c.228 1.106-.09 2.031-.818 2.895 1.091 1.94 2.94 3.426 3.744 5.518 1.819-3.38-.121-4.517-2.622-6.382 1.606.576 3.213 1.122 4.108 2.653.197-2.91-1.092-4.366-3.911-4.82 0-.032.015-.076.015-.107 1.182-.06 2.35-.06 3.456.667-.288-.91-1.03-2.243-2.092-2.122.38-.803.38-1.334-.015-1.819-.167.561-.53.91-1.107.925.121 1.016-.212 1.85-.758 2.592m-9.595.743c.031-.38.06-.743.076-1.152-.425-.076-.834-.152-1.274-.228.531-.394 1.153-.485 1.668-.288-.44 1.85.348 3.168 2.334 3.26.607-.895 1.152-1.031 1.744-.395-2.623-.273-.683 2.501.667 1.561.348-.515 1.485-.97 1.152-1.697-2.077-1.516-1.94.727-2.32-3.032-.09 0-.182-.015-.272-.015-.182.712-.895 1.258-1.456.59-.212-.227-.379-.439-.697-.484 1.425-1.137 3.107.5 3.001-2.183 1.592 2 1.728-.212 3.305-.243-.076 1.577-.394 1.456-1.758 1.365.44.333 2.137 2.03 1.152 2.182-.41-1.06-1.107-2.076-2.274-2.289-.955.94-.485 2.001-.334 3.093.834-.288 1.562-.834 2.441-.773.303.879-1.107 1.349-.303 2.213 1.349.227 2.82.227 2.395-1.683-.455-.273-.88-.44-1.35.046.032-.743.759-.88 1.32-.743 1.258-1.319.833-3.077-.5-4.154.348-.515.727-.879 1.364-1-.213.44-.667.606-.773 1.016.303.363.576.712.848 1.046.728-.319.91-1.44.41-2.593-.895.228-2.456.97-2.456.97-.758-.303-.44.076-.333.44-2.44.455-4.836 1.092-6.776 2.714-.349.257-.5.105-.622-.38-.227-.363-.333.243-.363.394 0 0-1.47.364-2.107.91.44.743 1.076 1.925 2.092 1.531m58.102 23.648c-.683.106-.85.41-.728 1.06-.758 1.653-.773 3.639-2.062 5.034 2.79-.789 2.168-1.85 2.85-3.972-.136 2.88 0 2.835 1.046 4.805-2.152 1.516-5.67.258-6.852 3.184.334.379.758 0 1.198.105-.288.334-.41.743-.849 1.031.09-.288.152-.454.212-.636-.803-.273-1.47 1.576-2.061 2.167 5.745-1.152-.697-2.834 10.641-4.168 2.001-.94-1.895-2.41 2.046-4.912.349-1.364.561-2.758 1.289-3.986.182-.41-.09-.97-.47-1.259-1.713 1.213-2.547-.742-6.26 1.547M55.677 67.5c.53.106 1.122.212 1.652-.03-.818-1.38-1.607-2.73-2.44-4.124-1.425 1.758-3.926.682-5.488-.41-1.273-.939 1.486-2.394.592-5.532 1.227 1.986-1 3.683 2.44 4.805-1-1.485-.864-3.395-1.228-5.093-.045-.288-.197-.576.046-.88.12-.393.136-.954-.41-1.015-3.85-2.198-3.077-1.137-6.821-1.637-.91 1.622 1.046 3.062.728 4.654-.273.773.91.742.894 1.5.258 1.183.137 2.835-1.213 3.305-.667.394-.136 1.258.455 1.455-1.197 2.153-.288 2.486 1.546 3.562 0-.818.016-1.546.364-2.258 2.516 1.667-1.228 1.955 3.76 3.971-.516-.833-.501-1.743-.577-2.577.47.106.925.228 1.395.334.545 2.304 1.788 2.516 4.002 2.304-.789-.788-1.016-1.804-1.592-2.608.667.213 1.319-.242 1.895.273m51.736-7.487a.489.489 0 0 0 .06.121l.016-.06zm.758-.333c.12.045.227.12.273.257.09.016.182-.03.242-.12.031-.122 1.364-1.85 1.213-1.971-.152-.046-.288-.152-.334-.303-.12-.122-.303-.182-.424 0-.045.227-1.516 1.88-1.137 2.091a.31.31 0 0 1 .167.046m15.916-12.673c-.924.273-1.303 1.046-1.652 1.925-2.32-3.623-6.73-6.124-7.397-10.55.515-3.532 5.199-2.729 4.26.955 2.424-1.304 1.257-3.73-1.047-4.169 2.501.197 3.866 2.304 5.563-1.197-1.47.546-3.713.167-4.487.045 3.093-.409 4.775-.394 4.684-4.244-1.046 2.304-3.971 2.35-6.108 3.107.136-1.03-.182-1.652-1-1.985.848 5.623-9.824 3.79 1.894 15.931-1.44-.788-3.108-.53-4.502-1.41 1.076 2.926 2.91 2.41 5.32 3.441-2.576-.015-3.38 2.486-1.47 3.7-.5-1.941 2.168-3.275 3.502-1.76 3.047 3.912-2.532 9.338-7.473-.454.03.53-.334 1.016-.864.864l-.561 1.546c1.137.425-.607 2.607-.728 3.229-.197.424-.637.546-.97.318l-.53 1.137c.681.621-1.168 2.41-1.365 2.956-.227.318-.606.424-.88.258l-.196.409c.045.06.075.09.075.09 1.259 1.471 1.835 2.608 1.486 4.184 1.016-.864 1.47-3.274.667-4.593.91.955 2.243 1.637 2.774 2.865.515 2.213.121 4.427-1.395 6.17-.636.652-.47.985-.545 1.773-.425 1.258-1.925 1.365-2.501 2.426-.395.924-1.046 1.682-1.334 2.668 1.712-.273 1.41-2.638 3.031-3.123-.667 1-1.288 1.895-1.743 3.047 1.35-.349 3.88-.713 3.456-2.607-.318-.864.53-1.44.485-2.29 1.076-.379.819-.803 1.334-1.637.228.5.243.925.212 1.47-.12-.272-.212-.439-.303-.636-.758 1.031-.12 2.016-.227 3.108 3.714-3.32-1.228-3.29 2.638-10.657.879-1.47-2.532-1.303-2.774-4.623-.243-1.425 1.015-2.607 1.288-3.972 1.47 2.638 6.655 2.547 5.957 5.927 1.031-.788.986-2.228.576-3.32 5.351-1.924 1.137-6.836 2.85-10.322m-12.612 8.474c.016-.197 1.137-2.047.85-2.198a.52.52 0 0 1-.531-.258c-.258-.121-.97 1.88-1.092 2.016.349-.227.804.137.682.546.031-.031.076-.06.091-.106m1.107-5.29c0 .09.03.166.076.227.212-.182.515-.106.667.09.227-.06.151-.772.197-.94a6.965 6.965 0 0 0-.834-.803zM83.66 84.69c3.592-.712.409-4.987-4.017-3.244-.395 1.698-.743 3.305-2.168 4.578 2.835.121 5.609-.06 8.261-1.182 1.319-.804 1.319-3.669 2.744-5.215-1.622-.318-.864 5.23-4.82 5.063m-13.476-3.183c-4.411-1.743-7.625 2.531-4.017 3.244-3.957.167-3.184-5.382-4.82-5.063 1.424 1.546 1.424 4.41 2.743 5.214 2.668 1.122 5.427 1.304 8.277 1.183-1.44-1.274-1.79-2.88-2.183-4.578m23.48-43.93a.411.411 0 0 1-.03-.5c-.198-.03-.516 1.728-.577 1.82.121.12.243.242.349.363.166.045.44.152.5-.09l.394-1.547c-.182.167-.485.182-.637-.045m18.843 7.579c-.333-.031-.606.273-.5.636-.031-.015-.06-.015-.09-.045l-1.562-1.061a.242.242 0 0 1-.076-.318c.288-.016.606-.167.561-.53.121.15 1.804 1.06 1.667 1.318m-5.73-5.412c-.09.106-.287.364-.287.364-1.728-1.986-7.564-4.244-10.08-3.88 0 0 .03-.288.045-.455l-.031.015.97-.606-.819-.682c0-.091-.53-3.41-.53-3.41l1.44-.046s-.516.606-.53 1.091a.583.583 0 0 1 .196.228c.288-.122.607-.713.607-.713l.136 1.955s-.41-.56-.697-.666c-.031.075-.06.151-.106.197.41 1.303 2.32 1.38 2.32.257-.061-.576-.698-.47-.668.137-1.046-.834.364-2.153.94-.819-.076-.773 0-1.197.591-1.576.394.5.334.955-.09 1.698 1.288-1.183 1.773.833.56 1.121.591-1.06-1.091-.712-.47.395.561.864 1.94.727 2.41-.213a.496.496 0 0 1-.06-.182c-.485-.09-1.197.318-1.197.318l.667-1.803s.272.773.682 1.015a.536.536 0 0 1 .257-.136c.076-.485-.409-1.228-.409-1.228l2.228.864s-.879.212-1.152.621a.725.725 0 0 1 .091.273c.455.09 1.213-.288 1.213-.288l-.804 1.759s-.227-.774-.636-1.031a.509.509 0 0 1-.182.09c-.319 1.016.606 2.017 1.622 1.759 1.212-.38.242-1.758-.091-.591-.652-1.031 1.122-2.153 1.213-.44.212-.834.5-1.212 1.136-1.303.167.666-.09 1.03-.682 1.53 1.38-.575 1.44 1.334.106 1.228.455-.424.046-.91-.394-.545-.803.833.682 2.016 1.85 1.425 0-.076.015-.137.045-.213-.288-.197-.97-.212-.97-.212l1.425-1.061s-.167.637-.031.97a.582.582 0 0 1 .318.045c.303-.318.318-1.136.318-1.136l1.061 1.318s-2.668 1.228-3.138 1.592l-.742-.076.363 1.046zm-7.852-9.64c.44.166.864.394 1.32-.046-.44 0-.562-.303-.698-.591-.197-1.47 2.198-.955 3.092-.849 2.244 1.364 6.079.5 4.745-2.759 1.046.637.682 2.426-.106 3.123-2.077 1.122-4.047.273-6.124 2.486-.318-1.016-1.516-.955-1.94.152-.394.03-.5.015-.88.045-.075-.591.41-1 .592-1.561m5.563-5.64c-.667.456-1.258 1.123-1.94.213-.167.031-.288.06-.455.09 1.015-1.56.924-1.288 2.395-.302m2.258-3.562c.5.545.713 1.136.713 1.819-.485-.167-.682-.683-.713-1.82M86.04 29.727l2.516-.895.91 1.85-1.744 1.121zm-1.622-.44c-.318 1.925-4.623 1.092-4.214-.818.318-1.91 4.623-1.092 4.214.818m-8.565.834-2.683-1.895 2.683-1.895 2.699 1.895zm-6.17.242c-2.728.546-3.304-2.455-.56-2.955 2.729-.561 3.305 2.455.56 2.955m-5.699 1.44-1.743-1.121.925-1.85 2.516.895zm33.152-6.048c.212-.015.394-.03.637-.06-.425-.303-.016-.728.333-.425.834.637-.834 1.698-.97.485M113.81 47.31l-.242-.046-.607-1.667c.288-.364.44-.955-.015-1.258-.607-.243-2.304-2.183-2.805-.925-.212.076-1.56.152-1.667.41-.637-1.031-1.182-2.108-1.592-3.32.273-1.395 3.972-3.138 3.972-3.138s-1.046-1.516-1.47-2.365c-.183.41-.35.243-.758.425 2.046-3.669 2.485-8.474-.228-11.93-.288-.591-.152-1.38-.424-1.97-.485-.622-.804-1.85-1.637-1.987 0 1.092-.122 2.153.409 3.153.56.713-.758 1.304-1.183.743.789-.09.925-.242.652-.682-3.395-.773-5.29 1.622-8.534 2.001-.288-.015-.546.09-.712.348-1.986 2.699 2.486.864 2.88 2.653-.743.607-.85.197-1.546.031-1.016.031-2.001.349-.728 1.198-.773 1.212-.743 1.637-2.304 1.743.682.955.53 2.334.712 3.426-1.121.212-1.88.743-1.895 1.94-.5.106-1.045-.152-1.394.394-.713-.59-1.516-.697-2.35-.712-.409-.303-1.41-1.016-2.47-1.562.212-.788.409-1.53.606-2.228.303-.197 1.425-.91 1.728-1.091-.152-.303-.743-1.5-.91-1.82 2.001-6.896 2.653-7.29 3.669-7.427l.06-.197-3.714-1.182-.06.242c.925.667 1.243 1.804.803 3.123-.985-.425-1.546-1.364-1.44-2.198-.015-.016-.242-.076-.242-.076l-1.243 4.123s.182.046.197.06c.485-.712 1.334-1.106 2.32-.94-1.138 3.639-6.307 2.502-5.382-.59.652-1.274 1.91-.455 1.303.879 2.896-1.016 1.183-5.184-1.288-2.698.819-1.668 1.288-2.987.258-4.608-1.334.848-1.668 2.41-1.425 4.471-1.637-3.744-4.472.106-2.168 2.062-.424-2.774 3.001-.94.697 1.288-2.213 1.562-4.926-.227-5.002-2.986 1.273.106 2.244.864 2.38 1.819h.227l.152-4.7-.273-.015c-.212.955-1.243 1.759-2.546 1.79.075-1.456.924-2.593 1.985-2.775v-.273H73.14v.273c1.076.182 1.91 1.319 2 2.774-1.303-.03-2.349-.834-2.546-1.789l-.288.016.152 4.699h.242c.137-.955 1.107-1.713 2.38-1.819-.075 2.759-2.789 4.548-5.002 2.986-2.32-2.228 1.107-4.062.682-1.288 2.32-1.956-.53-5.79-2.168-2.062.258-2.061-.075-3.623-1.41-4.472-1.03 1.622-.56 2.941.258 4.609-2.486-2.486-4.183 1.697-1.288 2.698-.606-1.334.637-2.153 1.304-.88.924 3.108-4.245 4.23-5.382.592.97-.167 1.834.227 2.32.94.015-.016.197-.06.197-.06l-1.243-4.124s-.228.06-.243.076c.106.834-.455 1.773-1.455 2.198-.425-1.32-.121-2.456.818-3.123l-.06-.242-3.714 1.182.06.197c1.016.137 1.668.53 3.669 7.428-.167.318-.758 1.5-.91 1.819.288.182 1.425.91 1.729 1.091.182.637.363 1.304.545 2.016h.031c-.015.016-.015.031-.03 0-4.988 2.335-3.851 3.911-7.686 3.471-.349.789-.667 1.577-1.455 2.108-.137-1.213-.682-2.153-1.395-3.017-.364-.41-.849.045-1.38.09-1.03 2.275-1.758.213-3.592 1.41.076 1.046.243 2.108.819 3.078-1.365-.091-2.486-.455-3.396-1.107-4.077 4.563-8.337 8.928-11.823 13.946-1.865 2.456-6.837 1.03-5.533-2.365.606-2.47 4.183-1.94 3.956.516 1.774-1.971.637-3.926-2.077-3.487 2.486-1.076 3.972.955 6.215-1.834-1.713.045-3.168-.5-4.866-.106 2.153-1.288 5.109.622 6.958-2.926-1.607.167-3.047.834-4.714 1.077 9.959-9.474.38-9.944 1.592-14.052-.774.667-1.228 1.319-.864 2.213-2.229-.94-5.533-.667-6.428-3.365-.227 3.85 1.47 3.577 4.381 4.365-1.349-.151-2.668-.166-3.926-.636.258 1.728 1.577 2.092 3.108 1.94-1.501.834-1.168 2.986.379 3.729-.986-5.578 7.367-3.668 3.562 1.455-1.774 2.638-4.335 4.608-6.503 6.912-.394-.712-.819-1.41-1.758-1.318 1.637 1.895-.213 3.956-.652 5.912-.637 2.41 1.5 4.471 3.79 4.76-.91 1.076-.986 2.03-.289 2.91.698-3.547 5.836-2.744 6.322-6.58.09-.454.303-.802.803-1.015-2.32 2.623 3.259 8.17-1.97 8.823-.759.015-.94.803-.516 1.364-2.168-.106-2.774.712-3.092 2.759.955-.258 1.834-.485 2.728-.713-.94 2.471-3.077-.152-2.728 4.245a30.15 30.15 0 0 0 2.5-1.35c.774 2.456-3.925 1.395-.393 5.321.212-.727 1.167-2.228 1.637-2.562-.44 1.228-.334 2.668 1.06 3.214.061-.318.122-.622.183-.91h.106c.197.819.242 1.956 1.03 2.426.258.106.41.257.486.53.151.455.576.576.985.637.515.106.652-.485 1.03-.712.107.636.88.742 1.259 1.303.288-3.213-3.956-2.046-2.986-4.153.378 1.288 1.576 1 2.425 1.53.318.531 1.122.986 1.531.228.38.303.743.576 1.091.834-.833-3.805-2.804-1.455-4.032-3.441.864.03 1.789 1.319 2.714.44.5.515.894 1.121 1.273 1.728.152-1.213-.303-2.138-1.258-2.805-1.076-.667-2.547.5-3.471-.818-1.259-1.547-1.213-3.73-.561-5.533.59-1.38 2.273-1.895 3.046-3.214-.212 1.152-.105 3.168 1.213 3.547-.318-2.152 1.198-4.092 1.516-6.17.394-.53.424-.939.06-1.5-.651-1.076-.833-2.35-1.56-3.41-1.107-1.562-2.487-1.607-.213-3.26-1.38 2.153-.258 1.365.94 3.38.227-.666 1.243-1.56-.031-1.56-2.001-.986 2.622-3.548 3.653-3.608 1.03-.091 2.47.03 3.259-.986-.485-.924-.97-1.06-.137-2.016-.56-.333-1.046-.727-1.152-1.47-.53.197-1 .364-1.56.546.514-.561 2-1.728 2.152-.44.03.712.742.849 1.303 1.03-.41.577-1.076 1.183-.455 1.865.425.455.683 1.304 1.35 1.41.182-.667.348-1.304.53-1.97 1.455 1.546-1.47 2.394 2.547 3.774-.152-.834-.273-1.637-.182-2.486 1.94 1.607-.819 2.622 3.638 3.153-.5-.591-.622-1.243-.804-1.895.743.121 1.35.834 1.835 1.364.454.698.788 1.077 1.849.394.045.122.045.288.136.364.47.364.288.788.273 1.273h.137c.621-.636.652-1.349.47-2.137-.44-1.47-2.244-.303-2.865-1.804.849.576 1.698.91 2.622.425.53.5.743.864 1 1.561.425-1.592-.06-3.214-1.743-2.744-.515.197-.742.152-1.258-.303.773.273 1.289-.136 1.789-.485.106.137.167.288.242.303.47.016.774.303 1.077.652.151-1.35-1.198-2.456-2.562-2.107-.333 1.667-1.743.728-2.85.5-1.728-1.015-2.622-2.94-4.153-4.199.151-1.88-1.41-3.365-3.274-3.259 1.682-.727 3.683.713 3.82 2.471.06.728.5 1.182.954 1.713 5.7-11.46 24.102-14.461 34.683-7.185h-.015c.91.834 1.88 1.5 2.819 2.365.364-1.092.152-2.395 1.774-1.728l.318-.213c-.334-.924.348-1.97 1.319-2.031v.712c-.425.076-.758.486-.683.925.319-.06.622.364.44.652.318.167.743.09.97-.152.273.016.546.046.819.06-.364.895-1.653 1.198-2.38.546h-.016c.152.198-.485 2.138-.5 2.365a.628.628 0 0 1-.621.47c.106.182.197.349.303.515.47-.257 1.121-.242 1.06-.894.076-.379-.151-2.092.38-1.925.212.637-.197 1.395.288 2.031 1.516-.379.849-1.758 2.698-2.122.743-.06 2.289-.41 2.683.318-1.607-.424-3.699.016-4.062 1.865-1.683.394-3.093 1.591-4.866 1.591-1.425.076-1.804 1.774-1.88 2.956-.227 1.334-.303 2.729-.894 3.972-.303.47-.06 1.03.106 1.47.545.288.94 2.168 1.015 2.85-.015 1.228 2.107 1.637 2.971 2.41.228-1.546-2.698-1.106-2.273-3.259.515 1.425 1.652 1.713 2.895 2.425-.394-1.455-.5-3.85-2.532-3.547-.773-1.091.364-1.152 0-2.44.576.182.85.379 1 .743-.166-.06-.332-.106-.575-.182.06.91.864 1.121 1.47 1.758-.106-1.5-.242-2.44-1.637-3.168-.788-.728.121-2.395.076-3.396-.031-.288 1.864-1.227 2.152-1.137 1.395.182 2.865-.045 4.214.304 1.35.424.198-2.502 2.38-.955-1.591-.47-.621 1.243-1.758 1.334-.804.015-1.486-.061-2.304-.091C99.68 49.78 106.047 47.9 107.79 53.6c1.47-1.289.47-1.274.06-2.623 3.305 2.198-3.077 4.76-.682 8.625-.152-.44 1.349-2.243 1.53-2.622.259-.394.729-.425 1.032-.137l.485-.985c-.895-.5.712-2.577.833-3.168.167-.364.546-.53.834-.38l.455-1.242c-.849-.228-.212-2.274-.288-2.835-1.182-1.076-2.152-2.41-3.062-3.653l.56-.09a.72.72 0 0 0 .289.742c.394.167 1.955 1.667 2.44 1.303l.243.667c-.394.106-.455.652-.47 1.031.212.167.44.334.652.53.015-.136 0-.742.12-.833.183.243.516.243.728.045.182.091-.045 1.425-.03 1.592.227.243.454.5.651.773-.09-.606.667-2.925-.363-3.032"/>
</svg>
