<svg xmlns="http://www.w3.org/2000/svg" width="350" height="282">
  <path fill="#cf102d" d="M0 281.02h6.046V.15H0Z"/>
  <path d="M261.439 254.664c-.55-1.292-1.291-2.405-2.226-3.34a10.84 10.84 0 0 0-3.311-2.239c-1.278-.55-2.68-.824-4.219-.824-1.58 0-3.009.274-4.273.824-1.235.53-2.351 1.3-3.284 2.267a11.059 11.059 0 0 0-2.158 3.353 12.837 12.837 0 0 0-.934 4.068h21.381a12.568 12.568 0 0 0-.976-4.11m1.47 23.897c-2.775 2.102-6.279 3.16-10.497 3.16-2.982 0-5.552-.48-7.737-1.429-2.185-.962-4.026-2.308-5.51-4.04-1.484-1.717-2.597-3.792-3.339-6.183-.756-2.405-1.168-5.016-1.264-7.846 0-2.831.426-5.414 1.292-7.778.865-2.35 2.074-4.383 3.64-6.115a16.614 16.614 0 0 1 5.539-4.026c2.13-.962 4.465-1.443 7.021-1.443 3.298 0 6.046.687 8.231 2.048 2.185 1.374 3.93 3.119 5.25 5.221a20.76 20.76 0 0 1 2.748 6.912c.494 2.487.7 4.865.604 7.132h-27.853c-.041 1.621.151 3.174.577 4.63.44 1.47 1.127 2.763 2.089 3.89.962 1.126 2.185 2.033 3.669 2.693 1.484.673 3.242 1.016 5.249 1.016 2.597 0 4.713-.604 6.376-1.8 1.649-1.195 2.748-3.023 3.27-5.469h6.046c-.81 4.178-2.61 7.31-5.4 9.427m-41.21-28.362c-1.539-1.292-3.6-1.937-6.197-1.937-2.212 0-4.054.412-5.538 1.223-1.484.81-2.68 1.896-3.559 3.242-.893 1.347-1.525 2.886-1.91 4.645a25.17 25.17 0 0 0-.577 5.428c0 1.731.206 3.407.619 5.029.398 1.635 1.044 3.092 1.896 4.356.865 1.278 1.992 2.295 3.38 3.064 1.402.77 3.05 1.154 4.974 1.154 3.023 0 5.387-.797 7.09-2.377 1.705-1.58 2.749-3.82 3.12-6.692h6.266c-.673 4.604-2.391 8.162-5.14 10.65-2.761 2.5-6.512 3.737-11.267 3.737-2.83 0-5.331-.453-7.516-1.36-2.185-.907-4.013-2.213-5.47-3.889-1.47-1.676-2.569-3.683-3.31-6.005-.743-2.336-1.114-4.892-1.114-7.667 0-2.79.357-5.387 1.072-7.805.728-2.432 1.814-4.535 3.27-6.335 1.47-1.8 3.298-3.215 5.51-4.246 2.213-1.03 4.769-1.553 7.696-1.553 2.116 0 4.094.261 5.95.756 1.84.509 3.476 1.292 4.891 2.336 1.416 1.058 2.57 2.391 3.49 3.999.907 1.607 1.485 3.517 1.718 5.73h-6.335c-.467-2.364-1.484-4.177-3.009-5.483m-54.91-6.472v5.909h.138c2.542-4.521 6.568-6.775 12.092-6.775 2.446 0 4.48.344 6.115 1.017 1.635.66 2.955 1.608 3.958 2.803 1.003 1.196 1.717 2.625 2.13 4.274.398 1.663.604 3.49.604 5.51v24.473h-6.115V255.75c0-2.309-.673-4.123-2.02-5.47-1.332-1.346-3.188-2.02-5.537-2.02-1.87 0-3.49.289-4.85.866-1.375.577-2.516 1.388-3.422 2.446a10.612 10.612 0 0 0-2.048 3.71c-.467 1.416-.687 2.955-.687 4.631v21.024h-6.115v-37.211zm-20.048 17.987c-.77.577-1.772 1.003-3.023 1.264a52.53 52.53 0 0 1-3.916.646 154.49 154.49 0 0 0-4.15.564c-1.388.22-2.638.563-3.737 1.044-1.1.467-2.006 1.154-2.694 2.034-.7.893-1.044 2.088-1.044 3.627 0 .99.206 1.842.619 2.542.398.687.934 1.25 1.58 1.677a6.724 6.724 0 0 0 2.267.934c.866.193 1.773.289 2.735.289 2.006 0 3.737-.275 5.18-.825 1.443-.55 2.61-1.25 3.518-2.075.92-.838 1.594-1.745 2.02-2.734.426-.976.645-1.897.645-2.748zm9.935 19.073c-1.058.618-2.514.934-4.397.934-1.58 0-2.844-.44-3.779-1.333-.934-.88-1.401-2.336-1.401-4.342-1.677 2.006-3.628 3.463-5.868 4.342-2.226.893-4.63 1.333-7.228 1.333a19.315 19.315 0 0 1-4.782-.577c-1.511-.37-2.816-.976-3.93-1.8-1.099-.81-1.978-1.883-2.624-3.202-.646-1.319-.962-2.913-.962-4.782 0-2.102.357-3.833 1.072-5.18.714-1.347 1.663-2.432 2.844-3.27 1.182-.839 2.515-1.47 4.026-1.91 1.53-.43 3.08-.788 4.645-1.072a51.659 51.659 0 0 1 4.782-.756c1.511-.179 2.844-.412 3.999-.728 1.154-.302 2.06-.77 2.734-1.36.673-.605 1.003-1.485 1.003-2.639 0-1.333-.247-2.418-.756-3.23-.494-.81-1.14-1.442-1.937-1.868a7.608 7.608 0 0 0-2.666-.866 19.018 19.018 0 0 0-2.913-.22c-2.597 0-4.74.495-6.472 1.47-1.731.99-2.666 2.845-2.803 5.58h-6.129c.096-2.295.577-4.246 1.443-5.826a11.086 11.086 0 0 1 3.449-3.848c1.443-.99 3.092-1.69 4.933-2.13 1.855-.426 3.834-.646 5.936-.646 1.677 0 3.353.124 5.002.358 1.663.247 3.16.742 4.493 1.484a8.511 8.511 0 0 1 3.243 3.119c.825 1.333 1.223 3.078 1.223 5.235v19.1c0 1.443.083 2.501.248 3.16.178.674.742 1.018 1.703 1.018.523 0 1.155-.096 1.87-.289zm-65.504-37.06v5.909h.138c2.542-4.521 6.568-6.775 12.092-6.775 2.446 0 4.48.344 6.115 1.017 1.635.66 2.954 1.608 3.957 2.803 1.003 1.196 1.718 2.625 2.116 4.274.413 1.663.619 3.49.619 5.51v24.473h-6.115V255.75c0-2.309-.673-4.123-2.02-5.47-1.333-1.346-3.188-2.02-5.538-2.02-1.868 0-3.49.289-4.85.866-1.374.577-2.515 1.388-3.422 2.446-.92 1.058-1.594 2.295-2.047 3.71-.467 1.416-.687 2.955-.687 4.631v21.024H85.4v-37.211ZM77.72 280.937h-6.115v-37.211h6.115zm-6.115-51.392h6.115v7.49h-6.115zm-4.535 0v5.758H40.152v16.338h23.607v5.757H40.152v23.539h-6.843v-51.392ZM350 168.122v5.4h-7.407v23.113c0 .715.055 1.292.18 1.718.109.44.343.77.686 1.003.33.247.797.398 1.388.48.605.07 1.388.097 2.35.097H350v5.4h-4.672c-1.594 0-2.94-.11-4.067-.33-1.127-.206-2.048-.604-2.735-1.181-.7-.577-1.223-1.388-1.553-2.446-.33-1.058-.508-2.446-.508-4.177v-23.676h-6.32v-5.4h6.32v-11.145h6.129v11.144zm-35.177 0v7.847h.151c1.484-3.023 3.312-5.25 5.469-6.692 2.157-1.43 4.892-2.103 8.203-2.006v6.472c-2.446 0-4.534.343-6.266 1.016-1.731.66-3.119 1.65-4.177 2.941-1.058 1.292-1.814 2.872-2.295 4.713-.48 1.855-.728 3.971-.728 6.362v16.558h-6.115v-37.21zm-40.056 24.652c.605 1.759 1.43 3.215 2.487 4.397a10.824 10.824 0 0 0 3.71 2.693c1.416.633 2.914.935 4.494.935 1.58 0 3.078-.302 4.493-.935a10.824 10.824 0 0 0 3.71-2.693c1.058-1.182 1.883-2.638 2.488-4.397.59-1.745.893-3.751.893-6.005 0-2.253-.302-4.26-.893-6.018-.605-1.746-1.43-3.216-2.488-4.411a10.425 10.425 0 0 0-3.71-2.735 10.895 10.895 0 0 0-4.493-.948c-1.58 0-3.078.316-4.493.948a10.426 10.426 0 0 0-3.71 2.735c-1.059 1.195-1.883 2.665-2.488 4.41-.59 1.76-.893 3.766-.893 6.02 0 2.253.302 4.259.893 6.004m-6.224-13.672c.77-2.378 1.923-4.439 3.462-6.184 1.526-1.759 3.422-3.133 5.675-4.136 2.254-1.017 4.851-1.511 7.778-1.511 2.968 0 5.579.494 7.805 1.511 2.24 1.003 4.122 2.377 5.647 4.136 1.54 1.745 2.694 3.806 3.463 6.184.77 2.377 1.155 4.933 1.155 7.667 0 2.735-.385 5.277-1.155 7.626-.77 2.35-1.924 4.398-3.463 6.156-1.525 1.746-3.407 3.12-5.647 4.095-2.226.99-4.837 1.484-7.805 1.484-2.927 0-5.524-.494-7.778-1.484-2.253-.975-4.15-2.35-5.675-4.095-1.539-1.758-2.693-3.806-3.462-6.156-.77-2.35-1.155-4.891-1.155-7.626 0-2.734.385-5.29 1.155-7.667m-12.148 2.24c-.453-1.663-1.14-3.134-2.088-4.425-.935-1.306-2.13-2.336-3.587-3.106-1.47-.77-3.188-1.14-5.152-1.14-2.062 0-3.807.398-5.25 1.209-1.442.824-2.624 1.896-3.531 3.215-.907 1.32-1.567 2.817-1.979 4.494-.4 1.674-.603 3.39-.604 5.111 0 1.814.206 3.587.645 5.277.426 1.718 1.113 3.215 2.048 4.507.934 1.292 2.143 2.336 3.628 3.133 1.497.783 3.297 1.182 5.4 1.182 2.116 0 3.875-.399 5.29-1.223a9.8 9.8 0 0 0 3.422-3.243c.865-1.333 1.484-2.872 1.868-4.603.385-1.718.578-3.49.578-5.318 0-1.732-.234-3.422-.688-5.07m-21.985-13.206v5.03h.151c1.003-2.062 2.583-3.56 4.74-4.494 2.172-.934 4.535-1.401 7.132-1.401 2.872 0 5.387.522 7.517 1.58 2.143 1.058 3.916 2.473 5.331 4.273 1.416 1.8 2.474 3.875 3.202 6.239.714 2.35 1.072 4.837 1.072 7.475s-.344 5.139-1.045 7.489c-.687 2.35-1.745 4.397-3.16 6.156-1.415 1.745-3.188 3.119-5.332 4.136-2.13 1.003-4.617 1.511-7.447 1.511-.907 0-1.924-.096-3.05-.288a17.421 17.421 0 0 1-3.354-.935 12.837 12.837 0 0 1-3.119-1.772 9.804 9.804 0 0 1-2.487-2.762h-.151v19.141h-6.115v-51.378zm-44.838-.014h7.847l8.918 13.027 9.289-13.027h7.337l-12.806 17.136 14.387 20.075h-7.847l-10.36-15.403-10.361 15.403h-7.42l13.96-19.567zm-4.04-14.167v5.758h-28.636v16.338h26.7v5.758h-26.7v17.767h28.856v5.757h-35.699v-51.378zm-95.212 0v25.614l26.054-25.614h8.849l-21.656 20.722 22.522 30.656h-8.63l-18.578-25.97-8.56 7.983v17.987h-6.83v-51.378zm-21.243 47.6c-3.504 3.284-8.492 4.933-14.964 4.933-6.624 0-11.79-1.567-15.514-4.714-3.71-3.146-5.565-8.148-5.565-15.005v-32.814h6.829v32.814c0 4.603 1.223 8.094 3.669 10.47 2.446 2.378 5.977 3.56 10.58 3.56 4.37 0 7.682-1.182 9.963-3.56 2.28-2.376 3.421-5.867 3.421-10.47v-32.814h6.844v32.814c0 6.568-1.76 11.502-5.263 14.786M50.95 25.99c-.414.287.016.94.43.653.43-.27-.016-.923-.43-.653m-1.178.59c.033-.176-.223-.208-.254-.049-.16.733 0 1.624.11 2.101l.271-.063c-.19-.78-.238-1.496-.127-1.99m.191.16c-.016.094-.032.174-.032.27 1.018.047 1.957.573 2.642 1.432l.334.033c-.716-1.019-1.799-1.671-2.945-1.735m1.88-.32c-.414.271.016.924.43.638.429-.271-.017-.924-.43-.637m-1.847-.62c-.414.27.016.922.43.652.43-.287-.016-.94-.43-.653m3.231 2.006c-.414.27.016.939.446.652.414-.27-.033-.923-.446-.652m-.605-.796c-.43.27.017.923.43.636.414-.27-.033-.923-.43-.636m-6.94-.08c-.477-.11-.668.653-.174.764.493.127.668-.652.175-.764m1.48.033c-.095-.144-.318-.016-.223.127.27.446.478 1.114.589 1.91l.255-.016c-.064-.494-.223-1.385-.621-2.022m-.287.32c-1.066.46-1.83 1.448-2.148 2.657l.302-.143c.334-1.035 1.035-1.862 1.958-2.26a1.265 1.265 0 0 0-.112-.255m6.288 1.894c.143.382.19.573.143.844-.16-.111-.318-.318-.478-.669l-.175 1.337c.223-.207.366-.334.59-.365-.287 1.241-1.386 1.48-1.545.525.016-.398.398-.557.653-.144.239-.78-.398-.907-.748-.636.493-.685.477-1.21-.096-1.767-.589.605-.509 1.114-.095 1.783-.462-.382-1.035-.048-.7.636.223-.477.636-.27.636.16-.159 1.114-2.164.986-2.117-.223.207-.08.605.063 1.003.461l-.111-1.368c-.286.413-.589.525-.94.604.064-.381.51-1.066.51-1.066-.43.063-1.273.207-1.687.27 0 0 .637.51.812.86-.35.033-.685.016-1.098-.286l.35 1.337c.238-.51.588-.764.795-.749.43 1.13-1.432 1.879-1.941.876-.128-.414.207-.748.557-.35.095-.764-.542-.891-.86-.398.191-.748.096-1.258-.652-1.656-.382.717-.223 1.226.461 1.72-.414-.144-.97.175-.51.843.112-.478.526-.446.67-.08.143.971-.972 1.083-1.624-.016.207-.016.398.048.652.175l-.588-1.21c-.033.367-.112.622-.223.78-.128-.254-.144-.445-.144-.843l-.732.398c.51.51 1.05 1.242 1.608 2.579 1.32-.812 6.08-1.672 7.751-1.258.111-1.448.382-2.324.7-2.96zm-8.166-1.528c-.493-.127-.668.653-.175.748.478.128.669-.652.175-.748m1.512-1.225c-.493-.127-.668.652-.175.748.478.127.669-.637.175-.748m-2.323 3.024c-.478-.127-.669.637-.176.748.494.127.669-.653.176-.748m.302-.97c-.493-.128-.669.652-.175.747.477.127.668-.652.175-.748m3.756-3.517.08-.08.796.255-.192-1.083-.684.35-.095-.047.143-.987c-.255.048-.796.127-1.05.175l.445.876c-.032.032-.047.063-.063.095l-.78-.111.175 1.066.684-.493a.344.344 0 0 0 .08.063s-.207 1.337-.207 1.353c-.127 1.194 1.814.86 1.305-.223zm.334 3.406c-.381.223-.016.827.366.589.382-.223.016-.828-.366-.59m-.223-.97c-.381.223-.016.827.366.589.382-.223 0-.828-.366-.59m40.556-25.37c.366 0 .636.286.636.637 0 .35-.27.636-.636.636a.625.625 0 0 1-.621-.636c0-.35.27-.637.62-.637m-.907 1.194c.096.143.207.27.35.35-.206.796-.668 1.385-1.241 1.496v.255h1.29a.762.762 0 0 0-.16.16 2.583 2.583 0 0 0-1.894 2.482c0 1.05.637 1.958 1.56 2.356a1.413 1.413 0 0 1-.398-.971c0-.653.461-1.21 1.082-1.369-.7.033-1.321.16-1.767.35-.016-.127-.032-.255-.032-.366 0-.175.016-.35.063-.51.414-.159.987-.27 1.624-.317 0-.669.032-1.306.079-1.815h.716c.048.51.08 1.146.08 1.815.636.047 1.21.159 1.623.318.048.16.064.334.064.51 0 .11-.016.238-.033.365-.446-.191-1.066-.318-1.767-.35.621.16 1.083.716 1.083 1.369 0 .382-.16.716-.398.97a2.566 2.566 0 0 0 1.56-2.355c0-1.194-.812-2.18-1.895-2.483a.761.761 0 0 0-.159-.16h1.29v-.254c-.574-.111-1.035-.7-1.242-1.496a1.05 1.05 0 0 0 .35-.35c.796.207 1.385.684 1.48 1.241h.27V.86h-.27c-.095.557-.684 1.019-1.48 1.226a1.22 1.22 0 0 0-.35-.35c.207-.796.668-1.385 1.241-1.48V0H87.11v.255c.573.095 1.035.684 1.242 1.48a1.22 1.22 0 0 0-.35.35c-.796-.207-1.385-.669-1.48-1.226h-.271v3.597h.27c.096-.557.685-1.034 1.48-1.241m.908 5.332c-.43 0-.78.35-.78.796 0 .175.048.35.16.477a1.221 1.221 0 0 1 1.257 0 .722.722 0 0 0 .16-.477.788.788 0 0 0-.797-.796m0 1.592c-.43 0-.78.35-.78.795 0 .207.08.414.223.558.175-.08.366-.144.557-.144.207 0 .398.064.573.144a.795.795 0 0 0 .223-.558.788.788 0 0 0-.796-.795m0 1.703c-.43 0-.78.35-.78.796a.788.788 0 1 0 1.576 0 .788.788 0 0 0-.796-.796m0 1.99c-.43 0-.78.35-.78.795a.788.788 0 1 0 1.576 0 .788.788 0 0 0-.796-.796m0 1.99c-.43 0-.78.35-.78.796a.788.788 0 1 0 1.576 0 .788.788 0 0 0-.796-.796m-2.228 1.607h.97c0-1.878-.175-5.395-1.336-7.958a.492.492 0 0 0-.446-.27.912.912 0 0 0-.207.032.497.497 0 0 0-.239.653c.812 1.767 1.258 4.44 1.258 7.544m3.501 0h.971c0-3.104.446-5.778 1.258-7.545a.497.497 0 0 0-.24-.653.911.911 0 0 0-.206-.032.475.475 0 0 0-.446.27c-1.162 2.563-1.337 6.08-1.337 7.959M72.848 19.99a.734.734 0 0 0 .748-.732.74.74 0 0 0-1.48 0 .73.73 0 0 0 .732.732m7.672-8.515a.72.72 0 0 0 .732-.733.73.73 0 0 0-.732-.732.74.74 0 0 0-.732.732.73.73 0 0 0 .732.733m-1.624 1.05a.73.73 0 0 0 .733-.732.74.74 0 0 0-.733-.732.74.74 0 0 0-.732.732.73.73 0 0 0 .732.732m-1.512 1.226a.744.744 0 0 0 .748-.732.734.734 0 0 0-.748-.733.73.73 0 0 0-.732.733.74.74 0 0 0 .732.732m-3.644 4.52a.73.73 0 0 0 .732-.732.72.72 0 0 0-.732-.732.73.73 0 0 0-.733.732.74.74 0 0 0 .733.732m10.345-8.324a.73.73 0 0 0 .732-.733.74.74 0 0 0-.732-.732.73.73 0 0 0-.732.732.72.72 0 0 0 .732.733m-9.279 6.685a.73.73 0 0 0 .732-.733.74.74 0 0 0-.732-.732.73.73 0 0 0-.732.732.72.72 0 0 0 .732.733m7.449-6.017a.74.74 0 0 0 .732-.732.74.74 0 0 0-.732-.732.74.74 0 0 0-.732.732.74.74 0 0 0 .732.732m-6.24 4.505a.734.734 0 0 0 .749-.733.74.74 0 0 0-1.48 0 .73.73 0 0 0 .732.733m24.431-1.37a.74.74 0 0 0 .733-.731.73.73 0 0 0-.733-.733.734.734 0 0 0-.748.733c0 .398.334.732.748.732m1.353 1.369a.734.734 0 0 0 .748-.733.74.74 0 0 0-1.48 0 .73.73 0 0 0 .732.733m1.56 2.419a.73.73 0 0 0 .732.732.74.74 0 0 0 .732-.732.73.73 0 0 0-.732-.732.72.72 0 0 0-.732.732m.876 1.719a.74.74 0 0 0 1.48 0 .74.74 0 0 0-1.48 0m-5.3-6.733a.73.73 0 0 0 .732-.732.74.74 0 0 0-.733-.732.74.74 0 0 0-.732.732.73.73 0 0 0 .732.732m3.359 3.374a.73.73 0 0 0 .732.733.72.72 0 0 0 .732-.733.73.73 0 0 0-.732-.732.74.74 0 0 0-.732.732m-6.717-5.284a.74.74 0 0 0 .732-.732.74.74 0 0 0-.732-.732.73.73 0 0 0-.732.732.73.73 0 0 0 .732.732m-1.83-.668a.72.72 0 0 0 .732-.733.73.73 0 0 0-.732-.732.74.74 0 0 0-.733.732.73.73 0 0 0 .733.733m3.565 1.528a.73.73 0 0 0 .732-.733.74.74 0 0 0-.732-.732.73.73 0 0 0-.732.732.72.72 0 0 0 .732.733m-22.793 8.228 1.337-.43c2.054-3.74 5.492-6.51 9.566-7.544-.095-.35-.19-.668-.302-.987-4.648 1.194-8.5 4.52-10.6 8.961m27.455-.43 1.337.43c-2.1-4.44-5.952-7.767-10.6-8.96-.111.318-.207.636-.302 1.002 4.074 1.019 7.512 3.788 9.566 7.529m-18.941-3.948c-.557.892-1.067 1.146-1.862 1.226-.876.08-1.863.207-2.913.923-1.05.732-1.56 1.99-1.735 2.372-.239.573.175.605.302.223 1.035-2.77 3.072-2.945 4.298-2.897 1.735.063 1.894-.685 2.292-1.449.525-1.018 1.67-1.32 2.276-1.32.557 0 .477-.43 0-.43-1.05 0-2.085.477-2.658 1.352m16.537 2.15c-1.05-.717-2.037-.844-2.913-.924-.796-.08-1.305-.334-1.862-1.226-.573-.875-1.607-1.352-2.642-1.352-.493 0-.573.43-.033.43.621 0 1.767.286 2.292 1.32.398.764.557 1.496 2.292 1.449 1.226-.048 3.263.127 4.298 2.897.127.381.54.35.302-.223-.175-.382-.684-1.64-1.735-2.372m-3.5 14.214c-.43.254-1.64.398-2.866.525 1.146.445 2.085 1.162 2.292 1.576.096-.382-.127-.796-.381-1.02.668.32 1.082.32 1.591.256-.382-.35-.748-.605-1.496-.637.334-.08.748-.318.86-.7m4.154 3.708c.175-.35.032-.7-.16-.987.573.462.971.541 1.48.605-.286-.43-.588-.764-1.305-.955.334 0 .796-.08.987-.414-.477.144-1.687-.047-2.913-.207 1.02.685 1.799 1.496 1.91 1.958m-22.187-1.623c.207-.287.382-.733.239-1.099-.175.462-1.035 1.353-1.91 2.229 1.162-.382 2.164-.494 2.737-.366-.159-.366-.557-.398-.89-.414.7-.175 1.018-.446 1.384-.796-.51-.048-.955-.016-1.56.446m5.046-1.417c.27-.223.54-.62.477-1.019-.27.414-1.305 1.083-2.356 1.735 1.226-.11 2.388.127 2.754.414-.08-.382-.446-.668-.78-.748.732 0 1.098-.191 1.528-.477-.493-.144-.939-.207-1.623.095m6.08-.589c.318-.143.668-.477.684-.875-.35.35-1.512.764-2.674 1.162 1.21.175 2.292.652 2.579 1.018.016-.398-.287-.748-.59-.907.717.16 1.115.064 1.592-.111-.43-.255-.86-.43-1.591-.287m14.945-7.497c-.127.43-.557.685-.955.558-.382-.128-.589-.573-.445-1.02.143-.429.573-.684.97-.556.382.127.573.573.43 1.018m-1.687 6.112-1.719 1.099-1.687-2.054 2.499-.89zm-1.194 3.98a.615.615 0 0 1-.095.97c.302.446 0 .749-.541.605-.016.048-.048.064-.048.096-.016.033-.033.064-.048.111-.032-.016-.063-.032-.11-.047-.303.35-.653.684-1.226.652-.064-.048-.176-.111-.27-.19-.463.35-.813.795-1.481.843v-.462c-.653.382-1.242.828-1.99.971-.047-.143-.08-.27-.127-.398-.748.286-1.385.78-2.292.764.016-.191.048-.334.064-.478-.685.223-1.37.78-2.18.59-.144-.208.11-.271.047-.43-.685.207-1.4.652-2.244.43.032-.144.047-.255.08-.415-.86.128-1.624.558-2.532.319.048-.16.112-.287.176-.494-.86.175-1.656.525-2.515.16.143-.128.254-.223.366-.335-.685-.222-1.608.255-2.372-.11.096-.128.16-.24.239-.335-.493-.35-1.242.191-1.846-.08.127-.159.207-.286.302-.413-.684-.096-1.512.223-2.212-.127-.017-.127-.017-.223-.033-.35h-.493a.314.314 0 0 1 .079-.048c.095-.064.191-.111.286-.16a.035.035 0 0 0-.032-.032l-.016-.016c-.033-.017-.048-.033-.064-.033.748-.08 1.385.525 2.149.398-.111-.382-.62-.334-.748-.78 6.016-2.037 13.497-2.514 19.211.335-.175.143-.366.318-.557.477.493-.143 1.241-.095 1.512-.541-.525-.382-.987-.94-1.576-1.226-.016.127-.047.255-.08.414-.795-.127-1.177-.716-1.861-1.066-.017.175-.033.302-.048.445-.685.017-1.098-.509-1.687-.684-.048.095-.111.191-.16.286-.636-.047-1.177-.302-1.687-.636-.047.111-.095.19-.159.318-.748.08-1.369-.302-2.053-.541.016.16.032.254.047.398-.811-.064-1.56-.16-2.292-.462-.032.144-.032.24-.047.334-.717.24-1.353-.19-2.038-.222.048.159.08.27.128.398-.621.254-1.194.032-1.783-.033.016.127.033.223.048.318-.764.319-1.433-.111-2.18-.032.063.127.126.238.206.381-.62.223-1.194.128-1.783.064.017.127.017.239.017.35-.526.27-1.035.08-1.608.048.127.19.175.27.27.43-.27.493-1.352.445-1.32.795-.033 0-.064-.016-.08-.016-.033-.016-.111-.016-.016-.016h-.08c-.095-.017-.207 0-.302 0h-.016c-.16.127-.478.175-.748.127-.111-.064-.27-.605-.048-.78-1.241.461-1.257-.812-.175-1.082-1.767.254.62-1.576.51-.605.859-1.37 1.973-1.433 1.527-.637 1.321-1.416 2.038-1.4 1.465-.398 1.416-1.4 2.292-1.4 1.639-.382 1.56-1.496 2.801-1.385 2.244-.445 1.767-1.37 2.42-1.067 1.894-.303 1.687-1.257 2.881-.812 1.942-.032 2.515-1.37 2.929-.733 2.212-.08 2.308-1.082 2.834-.51 2.133.048 2.626-.828 3.2-.191 2.038.35 2.578-.7 2.944-.08 2.053.445 2.26-.572 2.77.017 1.735.51 1.926-.414 2.53.127 1.735.62 2.387 0 2.69.685 1.543 1.147m-25.832-3.98.923-1.846 2.499.891-1.687 2.054zm6.828-3.262c1.162-.223 2.228.254 2.372 1.066.16.812-.653 1.64-1.799 1.862-1.162.223-2.228-.254-2.371-1.05-.16-.812.652-1.656 1.798-1.878m6.701-1.067 2.658 1.878-2.674 1.894-2.658-1.894zm0-5.348c.446 0 .812.366.812.828a.819.819 0 1 1-1.64 0c0-.462.366-.828.828-.828m4.313 7.481c.144-.812 1.21-1.29 2.372-1.066 1.146.222 1.958 1.066 1.799 1.878-.144.796-1.21 1.273-2.372 1.05-1.146-.223-1.958-1.05-1.799-1.862m-18.558-3.358c-.398.127-.828-.128-.971-.558-.127-.445.063-.89.461-1.018.382-.127.812.127.955.557.128.446-.063.891-.445 1.019m27.599-4.791-.064.238c.78.558 1.115 1.433.955 2.483a1.14 1.14 0 0 0-.62.367c-.685-.494-1.05-1.242-.971-1.927-.017-.016-.24-.079-.24-.079l-1.225 4.09s.176.048.191.064c.414-.605 1.083-.97 1.879-.97.016.11.047.222.095.333a.51.51 0 0 0 .08.16c-.733 1.352-1.528 2.053-3.136 1.766-1.91-.35-2.403-1.957-1.958-2.801.318-.62.653-.7 1.019-.573.382.127.605.653.27 1.448.717-.143 1.465-1.098 1.544-1.941.08-.844-.636-1.417-1.241-1.48-.573-.048-1.098.127-1.576.732.812-1.656 1.05-2.69.127-4.06-1.241.78-1.544 1.879-1.289 3.932-.573-1.814-2.101-1.91-2.785-.812-.669 1.099.175 2.404.636 2.85-.238-.86.127-1.497.892-1.337.78.175.795 1.798-.207 2.626-1.003.827-2.531.7-3.518-.048-.828-.605-1.194-1.29-1.385-2.53.112-.096.223-.208.303-.335 1.082.207 1.878.892 1.99 1.735.032 0 .238.016.238.016l.16-4.679h-.287c-.175.812-.955 1.512-2.006 1.703a1.41 1.41 0 0 0-.43-.541c.24-1.13.972-1.99 1.895-2.149v-.254h-5.396v.254c.923.16 1.655 1.019 1.894 2.149a1.582 1.582 0 0 0-.43.541c-1.05-.191-1.83-.891-2.005-1.703h-.287l.16 4.68s.207-.017.223-.017c.127-.843.923-1.528 2.005-1.735.08.127.191.239.302.334-.19 1.242-.557 1.926-1.384 2.531-.987.748-2.515.875-3.518.048-1.003-.828-.987-2.451-.207-2.626.764-.16 1.114.477.891 1.337.478-.446 1.306-1.751.637-2.85-.684-1.098-2.212-1.002-2.785.812.254-2.053-.048-3.151-1.29-3.931-.923 1.369-.684 2.403.128 4.059-.478-.605-1.003-.78-1.576-.733-.605.064-1.321.637-1.242 1.48.08.844.828 1.8 1.544 1.942-.334-.795-.095-1.32.27-1.448.367-.127.701-.048 1.02.573.445.844-.048 2.451-1.958 2.801-1.608.287-2.404-.414-3.136-1.766a.481.481 0 0 0 .08-.16c.047-.111.08-.223.095-.334.796 0 1.464.366 1.878.971a1.3 1.3 0 0 1 .191-.064l-1.225-4.09s-.223.064-.239.08c.08.684-.286 1.432-.97 1.925a1.086 1.086 0 0 0-.622-.366c-.159-1.05.176-1.925.955-2.483l-.063-.238-3.677 1.177.048.192c.573.079 1.034.238 1.671 1.591a1.51 1.51 0 0 0-.318.446c-.144.302-.16.652-.048.987.191.557.685.939 1.242.939h.047c.303.907.653 2.021 1.05 3.406l-.668 1.353-.222.461 1.718 1.083c.096.366.192.732.287 1.114l-.525.286a1.77 1.77 0 0 0-.653 2.42c.239.43 5.523 3.39 12.988 3.374 3.374.127 7.178-.398 10.393-1.4 1.194-.51 3.423-1.927 3.438-1.974a1.77 1.77 0 0 0-.652-2.42l-.525-.286c.095-.382.19-.748.302-1.114l1.273-.812.43-.27-.223-.462-.668-1.353a85.05 85.05 0 0 1 1.05-3.406h.048c.557 0 1.05-.382 1.241-.94a1.321 1.321 0 0 0-.047-.986c-.064-.175-.191-.318-.319-.446.637-1.353 1.099-1.512 1.672-1.591l.047-.191zm12.878 84.426c-.811-.303-1.973.398-2.944 1.225-.955.812-1.194.462-2.642-.095-1.433-.541-3.136 1.687-3.136 1.687s-.43-3.629.223-5.268c.716-.844 3.104-2.292 3.374-.59.223 1.417 1.48 1.704 2.022 1.768 1.464.175 3.104-1.337 3.104-1.337s.047 1.894 0 2.61m-.017 2.817c0 .239-.047.669-.302.669h-2.515c-.684 0-1.496.27-1.846.43-.748.365-1.369.763-2.515 1.336-.398.207-.541.271-.955.446-.191.08-.414.207-.653.318.844-1.719 2.117-3.406 3.295-3.565.525-.064 1.114.51 1.608.493.875-.047 1.607-.716 2.133-1.193.843-.78 1.67-.685 1.734-.494.048.144 0 .732.017 1.56m-11.11 4.6c-.796.302-.971.318-1.13-.048-.923-2.085-2.324-5.3-3.168-7.37-.398-.986.223-1.065.446-.7.669 1.147 4.489 6.638 4.696 6.908.525.669-.287.987-.844 1.21m-1.655.43c-.112.27-.733.461-.924.525-.461.143-.509-.239-.811-1.337-.526-1.878-.987-3.772-1.449-5.65-.11-.446-.175-.892-.254-1.321-.096-.414.175-.478.334-.128.27.462 2.785 6.638 2.976 7.147.111.286.207.573.127.764m-2.785 1.146c-.16.048-.334 0-.366-.62-.048-1.163-.16-4.808-.175-5.954-.016-.079.398 1.608.525 2.117.207.732.891 3.295.94 3.836.032.35-.367.446-.924.62m-.828-12.669c-.016-.238.176-.557.414-.89.573-.765 1.226-1.481 1.926-2.277.08-.095.16-.016.175.033.462.986.876 1.846 1.242 2.737.27.669-.111 1.21-.78 1.194-.605 0-1.226-.033-1.815-.095-.668-.048-1.13-.287-1.162-.7m-.35-8.691c-.016-.143.048-.86.271-.334.095.175 1.544 3.55 2.037 4.711.191.43.144.732-.223 1.178-.509.62-.97 1.098-1.448 1.623-.239.287-.318.16-.334-.175-.048-.732-.255-5.698-.302-7.003m-.43 27.663c-.302.032-.525 0-.59-.494-.079-.381.049-.668.51-.668.318-.08.398.286.446.605.033.302-.175.541-.366.557m-1.878-2.547c-1.226.175-1.83-.032-2.213-.812 1.322-.27 2.627-.54 3.995-.811-.016.796-.7 1.448-1.782 1.623m-2.451-2.578c-.303-1.258-2.802-10.553-2.802-11.301 0-.223.255-.557.748-.828.382-.27.494.43.573.653.59 1.799 1.13 3.629 1.688 5.443.286.908.509 1.83.78 2.738.095.286.063.493-.017.828-.063.254-.54 1.99-.668 2.292-.096.223-.303.286-.303.175m-.875 1.257c-.446.033-1.034-.032-1.48-.032-.366 0-.446-.414-.478-.764-.032-.541-.19-4.393-.223-5.746-.016-1.146-.032-2.165-.11-3.295-.017-.223-.144-1.576.047-1.576.191-.047.477 1.258.51 1.385l.954 3.868c.43 1.75.876 3.501 1.274 5.268.143.669.175.828-.494.892m-2.53-15.408c-.017-1.305-.112-3.517-.176-5.109-.095-1.846.033-1.607.303-.605.318.94 1.066 3.757 1.32 4.584.096.334.335.971.096 1.067-.35.143-.844.254-1.178.366-.223.095-.35-.017-.366-.303m-.413-11.3c-.033-.796-.096-1.513-.096-2.292-.016-.844-.032-1.067.144-.764.7 1.13 1.32 2.116 1.925 3.103.303.526-.175.494-.365.51-.366.047-.764.11-1.05.11-.494 0-.526-.047-.558-.668m1.019 4.41c.175.222 2.467 3.644 3.517 5.506.16.287-.16.494-.382.573-.413.16-.477.127-.89.27-.558.208-.813-.238-.972-.827-.19-.716-1.56-5.173-1.528-5.443.033-.318.144-.255.255-.08m3.979 6.192c.366-.255.51-.127.51-.557 0-.27-.43-.064-.24-.382l.462-1.003c.525-1.018 1.146-2.26 1.512-3.04.144-.318.144-.19.096.144-.017.143-.94 5.777-1.035 5.968-.095.207-.16.637-1.21.876-.381.095-.875.27-1.241.366-.16.032-.064-.08-.064-.08s.955-2.117 1.21-2.292m3.247-6.685c.016.446.08 5.921.08 6.892.016.43-.51.812-.844 1.114-.287.24-.891.048-.78-.334 0 0 1.29-7.401 1.417-8.085.047-.287.127-.127.127.413m-.557 11.094c.143-.54.398-.382.286.127-.143.844-1.719 9.455-2.037 10.728-.111.478-.812.653-1.449.716-.238.017-.238.017-.143-.302.955-3.2 2.467-8.277 3.342-11.269m-4.36-1.623c.143-.048.493-.033.604.016.875.286 1.624.477 2.467.86.318.143.844.254.685.954-.382 1.72-.94 3.39-1.465 5.062-.048.16-.16.541-.254.891-.064.223-.207.557-.414-.127-.35-1.21-2.101-6.987-2.197-7.258-.239-.636-.16-.97.557-1.353.24-.127.16-.063.382-.207 0 0-.255.621-.43.844-.047.063-.08.08-.11.095-.399.095-.176.318.174.223m5.094 9.263c0 .749.047 1.449.032 2.213-.016.827-.16.955-.7 1.082-.414.095-.923.318-1.178.16-.175-.096-.143-.414-.08-.717.223-1.32 1.48-8.18 1.672-9.215.032-.255.16-.7.19-.366 0 .875.08 5.427.064 6.844m-8.69 3.422c0 .366-.111.541-.366.541-.095 0-1.512.016-1.75-.239-.24-.254-.208-.541-.128-1.018.048-.303.127-.621.223-.971.414-1.385 1.544-6.017 1.83-7.131.048-.239.144-.191.112.318.032.541.016 1.178.016 1.72.016 1.686-.016 3.342.063 5.013.017.589 0 1.178 0 1.767m-2.944-.16c-.08.24-.143.414-.334.414-.319.033-.955.016-1.035-.191-.08-.239.016-.446.111-.748.223-.637 2.945-9.852 3.152-10.441.063-.191.127-1.003.636-.971.637 0 .366.573.35.764-.032.525-.334 1.655-.461 2.164-.462 1.895-.955 3.773-1.433 5.65-.175.733-.381 1.45-.589 2.181a16.55 16.55 0 0 1-.398 1.178m-2.053.255c-.143 0-.239-.016-.493-.08-.144-.047-.191-.254-.223-.413-.462-1.879-1.56-6.096-1.75-7.035-.128-.573-.32-.955.27-1.21.78-.35 1.814-.844 2.562-1.258.16-.095.43-.286.446-.398.016-.381-.414-.127-.494-.286-.254-.446-.509-.891-.78-1.369-.079-.127-.079-.175.08-.191a48.146 48.146 0 0 1 3.406 0c.685.033.637.589.525 1.035-.318 1.289-2.642 9.12-2.865 9.772-.143.446-.445 1.449-.684 1.433m-1.226-.095c-.302-.017-.636-.033-.748-.16-.016-.032-.047-.08-.079-.127-.033-.095-.048-.223-.064-.302-.095-.478-.7-5.571-.875-7.004-.033-.206.143-.254.207-.047.255.796 1.655 6.653 1.783 7.48.032.16-.112.16-.223.16m-1.417-.207a3.342 3.342 0 0 1-.477-.064c-.191-.063-.43-.095-.51-.27-.047-.112-.047-.812-.047-.971-.08-1.703-.16-3.31-.255-4.982 0-.16-.063-.748.064-.987.095-.175.207-.16.27-.16.43-.016.43.892.478 1.083.143.716.668 5.81.668 6.032.016.271.033.335-.191.319m-1.496-10.6c-.017-.51.032-.765.27-.892a.922.922 0 0 1 .35-.095c.08-.017.27.095.335.223.063.207.127.62.127.843 0 .382-.033.478-.462.573-.27.08-.573.334-.62-.652m-.208-4.569a30.268 30.268 0 0 1-.063-1.32c0-.287.334-.144.414.063.08.255.54 3.2.652 4.122.016.144.064.35-.207.335-.095-.017-.207.016-.398.016-.35.016-.286-.62-.302-1.162-.033-.605-.064-1.4-.096-2.053m-.286-6.446c-.033-.748-.064-1.704-.095-2.467v-.35c0-.366.079-.144.143-.064.27.35.86 1.29 1.146 1.75.334.542.605.94.891 1.513.176.35.017.557-.381.589a2.318 2.318 0 0 1-.335.032c-1.32.096-1.337.319-1.368-1.002m-.24 20.214c-.015.302 0 .764-.286.748-.127 0-.477-.112-.811-.24-.176-.126-.24-.206-.176-.397.35-.892.557-1.687.828-2.547.064-.175.175-.62.223-.716.16-.318.191.223.191.573.016.652.064 1.91.033 2.578m-2.006 1.894c-.493-.27-.557-.732-.207-1.193.573.19 1.162.398 1.783.604-.318.764-.86.971-1.576.59m-.525-2.15c-.08-.27.239-.732.414-1.13h.016l.652-1.336c.096-.16.526-1.05.637-1.306.048-.11.223-.557.255-.652.35-.844.43.143.35.398-.033.095-.892 3.12-1.098 3.708-.096.255-.271.796-.494.733-.223-.08-.668-.191-.732-.414m-1.528-.144c-.302-.095.033-.43.095-.589.144-.381.382-.811.573-1.161l1.512-3.215c.207-.287.287-.621.685-.526.589.127.589.462.414 1.003-.207.589-.557 1.337-.844 1.974l-.86 1.67a5.037 5.037 0 0 1-.333.526c-.271.748-.971.414-1.242.318m-1.846-.509a11.487 11.487 0 0 1-.892-.382c-.334-.143-.381-.589-.398-.86-.095-1.209-.095-1.766-.223-2.976-.032-.43-.238-.573-.557-.573-1.432 0-2.483.033-3.9 0h-2.753c-.302 0 .748-.716.86-.764 1.4-.811 5.093-2.833 6.175-3.533 1.13-.732 2.595-2.006 3.709-3.04 1.034-.955 1.703-1.72 2.228-2.244.414-.542.59-.048.51.223-.223.573-.192.557-.35.89-.303.638-.637 1.258-.924 1.895-.573 1.273-2.45 4.059-2.514 4.218-.096.19-.876-.017-.399.525.128.16 1.02.223 1.242.286.764.207 2.07.35 2.117.876.032.366-.302 1.21-.302 1.21s-1.608 3.167-2.197 4.138c-.239.382-.318.461-1.432.111m-2.802-1.019c-.557-.19-1.114-.684-2.148-1.543-.637-.542-1.767-1.783-1.258-1.8 1.687-.032 2.451.034 3.47.034.875 0 .796.254.875.78.096.572.033 1.432.08 2.02.032.606-.462.749-1.019.51m.239 5.046c-.239.11-.541-.35-.764-.605-.414-.478-.525-1.003-.812-1.878-.461-1.417-.843-3.104.048-2.547.541.334.51.287.923.589.43.366.43 1.13.462 1.273.175.955.207 1.401.238 2.34.017.478.112.716-.095.828m-3.677-3.024c-.843-.717-2.721-2.436-3.931-3.55-.207-.207-1.29-1.178-1.178-1.591.127-.335.541-.207 1.385-.223h1.448c1.146 0 1.496.604 1.783.939.033.047.08.095.095.127.398.461.685.923.987 1.878.255.828 1.48 4.202-.589 2.42M78.326 94.61c-.716.08-.685-.366-.59-.637.367-1.05.829-2.07 1.274-3.088.096-.254.207-.302.207-.047 0 .668.033 2.8.033 2.96-.016.86-.334.748-.923.812m1.098 4.79c.032.526.016 1.942.016 2.34v1.083c0 .127.016.35-.127.398-.175.063-.493-.064-.637-.111-.445-.112-.748-.176-1.178-.399-.413-.207-.063-.652.017-.843.381-.94.652-1.592 1.082-2.499.111-.223.302-.923.589-.748.239.175.223.573.239.78m-1.067 6.128c-.175.207-.35.27-.477.27-.971.048-1.672.08-2.117 0-.446-.063-.573-.254-.239-.7.111-.127.446-.605.62-.907.192-.287.367-.653.637-1.003.08-.095.096-.191.176-.223.19-.033.413.08.573.143.493.16.827.223 1.591.526.382.143-.032.668-.239 1.05-.19.35-.35.669-.525.844m1.035-.017c-.239.064-.446.176-.525.112-.144-.112.032-.318.175-.541.175-.24.063-.08.223-.319.11-.19.238-.063.238.144 0 .223.096.54-.11.605m4.663-1.385c.286.43.445.589-.127.605-.398.032-1.146 0-1.544.047-.43.048-.525-.238-.573-.748-.016-.095-.653-4.393-.748-5.3-.08-.366.207-.35.35 0 .477 1.29 2.26 4.807 2.642 5.396m-1.72-7.895c.51-.382.749.048 1.02.398.7.844 1.416 1.687 2.085 2.563.11.143.175.461.095.62-.43.924-.764 1.576-1.257 2.452-.207.366-.51.254-.748-.16-.526-.955-1.879-3.883-1.99-4.329-.048-.207-.064-.302.033-.51.111-.238.461-.795.764-1.034m2.546-1.4c.35-.128.064-.255-.541-.287-.255-.016-.08-.095.064-.223.27-.223 1.814-1.512 2.053-1.703.254-.223 1.002-.812 1.369-.7.318.08.19.35.159.525-.048.191-1.56 5.189-1.958 6.144-.111.254-.254.223-.334.127-.748-.891-1.448-1.671-2.053-2.738-.255-.461.334-.796 1.241-1.146m2.61-4.568c.526-1.257 1.02-2.467 1.529-3.676.207-.653.35-.255.35-.017.032.637.032 2.945.032 3.152 0 .223-.207.398-.414.493-.365.175-.811.382-1.32.494-.192.032-.335-.096-.176-.446m.048 11.285c-.955.302-1.544.414-2.276.605-.462.159-.414-.064-.255-.335.287-.604.446-.923.812-1.687.08-.16.19-.318.302-.223.51.35.923.732 1.449 1.194.286.239.063.414-.033.446m-1.05-2.101c-.208-.175-.144-.478.032-.907.095-.207 1.75-5.603 1.894-5.874.144-.413.318-.732.255.207-.016.176-.43 6.065-.478 6.685-.016.255 0 1.162-.286 1.019-.207-.095-1.194-.923-1.417-1.13m2.563 1.592c-.287-.033-.478.206-.382-.971.127-1.465.43-6.606.446-7.115.08-.86.238-.78.254.35 0 .223.048 5.46.08 6.749-.016.222.175 1.018-.398.986m30.177 6.908h-3.39c-.445 0-.35-.366-.334-.668.016-1.178 0-7.322 0-7.847h-.318c-.048.43-.048 1.098-.048 1.544 0 .382-2.42 2.1-3.454 1.48-.477-.286-.445-.573-.477-.987-.08-.732-.398-1.385-1.082-1.655-.971-.398-3.168.748-3.836 1.607-.669.86-.669 7.417-.287 9.184-.111.017-.19.033-.254.017-.35-.096-.637-.621-.987-1.146-.033-.048-1.783-2.388-1.862-2.515-.542-.876-1.353-2.054-1.942-2.913-.605-.891.143-.955 1.114-1.305.812-.303 1.225-.732 2.021-.748 1.035 0 .7-.35.43-.334-.764-.017-.971-.462-1.114-.764-.414-.971-1.273-2.722-1.655-3.582a13.01 13.01 0 0 1-.59-1.13c-.604-1.384-1.32-3.056-1.989-4.408-.462-.924-.907-1.8-.86-2.85.017-.445.017-1.225-.016-1.528-1.305-.365-1.48-.095-2.403.637-.478.398-1.496.334-1.799.095.191.59.892.844 1.099.908.907.318 1.289-.033 2.26-.191.27-.048.589-.112.589.095 0 .143.032.35 0 .589-.096 1.528-.573 2.897-1.083 4.33-.509 1.448-1.225 2.816-1.894 4.185-.159.366-.286.796-.557.446-.414-.573-3.629-5.619-3.788-6.35-.095-.462.462-.478.891-.59 1.146-.302 1.226-1.384 2.197-1.719.255-.127.095-.382-.414-.318-1.035.143-1.496-.78-1.91-1.432-.637-1.003-1.273-2.07-1.75-3.072-.144-.27-.112-.685-.096-1.035 0-.366.016-.334.032-.907-.461.414-1.289.318-1.75.732-.669.605-.605 2.451-2.18 1.098.222.27.397 1.146 1.511 1.13.573 0 1.019-.143 1.464-.811.319-.462.669-.51.51-.144-.033.08-.86 2.18-1.178 2.929-.414.939-.796 1.926-1.305 2.61-.175.239-.223.414-.685.525-.095.017-.557.033-.557.16 0 .143.064.08.414.143 1.035.175.478.891-.286 1.417-.033.032-1.305 1.098-1.305 1.098-.685.525-1.067.652-1.592 0-.828-1.019-1.496-2.26-2.228-3.358-.653-.987-.86-2.054-.828-3.28.033-.7-.016-1.145-.016-2.02-1.019.11-1.56.731-2.117 1.257-.653.605-.891 1.4-1.815 1.48.669.557 1.64.255 2.659-.557.318-.255.795-.334.811.382.016.302.033.573.016.891-.016.446-.047.573-.127.812-.302.955-.716 1.75-1.162 2.801-.35.796-.684 1.799-1.225 2.228-.239.176-.525.35-.891.382-.717.048-.526.366-.43.366.78.207 1.4.382 2.021.557.716.207 1.21 1.146.876 1.687a3.508 3.508 0 0 1-.207.318c-.223.287-1.322 1.497-2.674 2.738-1.194 1.082-2.61 2.165-3.47 2.738-1.13.732-4.473 2.467-5.635 3.135-.875.51-1.926 1.433-2.77 1.433-.206 0-.413-.287-.397-.796.048-1.464.095-4.361.08-7.72-.749 0-.653.78-1.48.876-.59.08-.701.27-.717.477-.064.86-.064 1.37-.08 1.72.16.032.382-.096.51-.192.843-.573.732-.302 1.448-.43.033.987-.016 4.393-.063 5.396-.017.239-.08.669-.51.669h-2.721c-.207-.017-.192.35.19.477.271.08.637.033.94.064.414.032.764.35.891.477 1.623 1.735 4.823 4.632 5.507 5.19.446.365.955.747 1.464 1.416.494.652 1.974 3.056 2.324 3.326.016 0 .033.016.033.016.86.303 1.576.876 2.387 1.274 1.274.62 2.531 1.241 3.852 1.75 1.082.414 2.085.717 3.231 1.035 1.449.398 3.04.891 4.536 1.098 1.799.255 2.738.366 4.123.382 1.942.017 3.883-.016 5.81-.19 1.607-.144 3.183-.478 4.758-.797a20.263 20.263 0 0 0 3.056-.86c.923-.35 1.751-.731 2.658-1.161.844-.398 2.308-1.369 3.12-1.83-.175-.319-.748-.446-1.178-.128-.891.526-1.05.733-2.499 1.37-1.32.604-2.578 1.193-3.979 1.543-2.053.51-3.852.844-6.319 1.194-2.546.207-5.077.223-7.512 0-2.706-.303-4.346-.732-6.924-1.464-1.114-.255-2.196-.669-3.247-1.083-1.178-.493-2.53-1.194-3.231-1.735-1.003-.796-1.305-1.894-1.257-4.234.016-.636.27-.907.62-.811.207.063.414.111.621.19.732.224 1.703.574 2.42.844a37.385 37.385 0 0 0 6.51 1.767c.668.111 1.527.255 2.53.318 0-.254.095-.43-.048-.525-.143-.095-.7-.095-.668-.51 0-.238.605-.238.811-.222.542.016.908.08 1.48.127.192.08.096 1.019.064 1.29.876.032 1.687.095 2.626.079.319 0 .892-.033.924.286.032.287-.033.223-1.337.287-.144 0-.128.19.016.19.16 0 .668.112.812.24.381.381.302.875.286 1.464-.016.939.541.875 1.257.907 1.528.064 2.706-.064 3.773-.143.493-.096.589-.398.573-.717-1.274 0-3.884.303-3.98.144-.19-.064-.159-.191-.19-.398-.017-.223.175-.207.795-.24.828-.032 1.353-.094 2.133-.126.605-.017.78-.207.78-.51-1.178 0-2.356.017-3.82.017-.175 0 .016-.7.366-.7 2.785 0 2.913-.303 4.281-.399.335-.016 1.02.207 1.02.828 0 1.56.556 1.432 1.002 1.353.095 0 .86.064.732-1.003-.033-.589-.334-1.353-.048-1.75.366-.494 1.162-.67 1.894-1.003.605-.271.366-.43.24-.764-.176-.398.047-.685.413-.796.939-.318 1.814-.669 2.722-1.019.381-.16.97-.414 1.337-.573.86-.382.89-.828 1.416.223.048.095.064.191.127.43.43-.27 1.05-.478 1.083-.732.11-1.099.827-1.815 1.448-2.579.605-.732 1.305-1.687 2.388-1.767.35-.032 6.907.033 7.433 0 .222-.35.557-.827.063-.827m-6.246 10.932c-.669-.095-1.146-.143-1.83-.254-.192-.048-.192-.176-.192-.462.685.08 1.544.255 2.228.334 0 .255-.095.382-.206.382m-32.82-1.607c-.478.525-1.098.381-1.735.286-.111-.032-.86-.223-.78-.637.033-.143.318-.19.462-.159.35.064.668.223 1.002.303.319.079.653.127 1.05.207m4.012 2.578c1.194.207 2.26.398 3.342.59 0 .508-1.241.365-1.926.254-.668-.127-1.607-.366-1.416-.844m-3.502-.254c-1.257-.255-2.515-.733-3.597-1.115 0-.86 3.645.27 3.597 1.115m7.051-.144c-1.4-.254-2.801-.525-4.297-.795-.016-.573 1.305-.303 2.276-.127 1.114.222 2.021.413 2.021.923m25.721-5.269c-.334-.318-.636-.668.096-1.146-1.162-.16-2.054-.302-3.009-.446-.732-.11-1.098-.016-1.193.7-.064.606-.112 1.226-.191 1.91.35.048.652.096.843.128 0-.669-.032-1.257.016-1.846.033-.287-.016-.748.494-.78.827.286.907.923.827 1.64-.016.222-.016.46.048.683.033.144.239.43.35.446.51.111.876.191 1.608.287-.908-.7-.35-1.162.11-1.576m-2.705-2.897c.366-.047.812-.095 1.21-.032 1.4.19 4.186.43 5.587.668-.111.27-.111.27-.255.525-1.926-.27-4.568-.636-6.494-.907-.207-.032-.207-.223-.048-.254m-1.639 5.03c2.07.302 3.963.557 5.746.812-.033.223-.064.398-.43.334-.987-.127-2.292-.287-3.263-.43-.51-.08-1.146-.16-1.671-.239-.318-.047-.382-.223-.382-.477m-3.215-2.594c0 .398-.605.668-1.528 1.082-.605.27-1.321.637-1.862.716-.366.048-.748.16-.908-.239 1.672-.636 2.77-1.098 4.107-1.735.19-.11.19.017.19.176m9.121-.494c1.273.127 2.101 0 1.687 1.067-.08.175-.302.748-.35.923-.286.86-.875.811-1.655.748.095-.907.239-1.83.318-2.738m-3.295-3.135c1.767-.382 4.441-.462 6.192-.319.016.621.016.908-.016 1.417-1.879-.27-4.41-.525-6.208-.796-.191-.016-.127-.27.033-.302m-4.935 5.268c-.223.16-1.034.541-1.289.668-1.21.573-1.369.605-2.563 1.162-.43.191-2.1.796-1.91-.032 2.086-.892 4.123-1.672 6.16-2.531.033.27 0 .557-.398.732m-.111 1.624a46.998 46.998 0 0 1-4.775 2.308c-.223.112-.637.223-.907.16-.334-.096-.43-.382-.334-.685.445-.143.732-.27 1.13-.398 1.623-.589 2.546-1.019 4.138-1.687.16-.064.828-.462 1.178-.653.016.653-.255.876-.43.955m-21.487 9.916c-.558-.063-2.308-.684-2.547-1.002 2.451.54 4.695.54 6.987.589.303.016 1.401-.033 1.687-.048.86-.033 2.086.477 2.802.51-.732.206-3.597.381-4.505.302 0 .047-2.45-.096-4.424-.35m30.257-9.391c-3.772 5.173-7.751 6.669-11.555 7.655-2.404.621-5.476.94-6.51.971 2.833-.54 5.459-1.289 7.449-2.132 2.037-.86 3.247-1.385 4.997-2.627.144-.143.382-.302.653-.19.875.365 3.868-2.436 4.966-3.677m-41.988 4.552c-1.13-.78-1.926-2.038-2.005-2.117.764.223 1.655.86 2.562 1.496 1.019.589 1.4.812 2.61 1.242 1.449.525 2.531.811 4.011 1.21 2.038.54 1.926.477 3.995.938.94.175 2.229.303 4.06.366-2.452.446-4.298.191-6.05-.111-1.225-.223-3.246-.541-4.758-1.035-2.594-.875-3.295-1.225-4.425-1.99m36.45-1.384c-.367.239-.797.525-1.147.748-1.703 1.05-3.565 1.72-5.427 2.403-.94.35-1.926.621-2.897.892-2.006.541-2.976.716-5.714.987-.987.095-2.626-.128-4.202-.51 3.502.033 6.446-.318 8.292-.732 2.563-.589 5.078-1.353 7.433-2.578.78-.414 1.592-.908 2.277-1.449.398-.414 1.13-.08 1.384.24m-35.876-2.484c.43.191 1.02.478 1.465.669.254.11.525.207.78.318 2.944 1.178 6.016 1.942 9.136 2.42 3.04.477 6.112.556 9.168.317 2.833-.223 5.188-.955 7.862-1.878a19.294 19.294 0 0 0 3.184-1.416c.509-.271 1.002-.637 1.575-.908.144.462.176.812-.334 1.114-.525.303-.875.494-1.432.749-1.369.636-2.658 1.225-4.186 1.67-1.385.399-2.34.67-3.486.876a26.41 26.41 0 0 1-4.059.446 46.95 46.95 0 0 1-7.178-.207c-2.212-.287-4.313-.716-6.542-1.305-.923-.223-2.26-.7-3.135-1.035-.844-.35-1.29-.589-2.149-.97-.255-.128-.35-.176-.557-.383-.127-.127-.16-.365-.111-.477m10.695-24.432v-.016c0 .016-.016.016-.016.033l.016-.017m-.016.017h.016v-.033h-.016zm45.318-65.897c.381 0 .843-.27.955-.573.143-.35.095-1.066-.017-1.177-.032-.033-.207-.08-.381.207-.303.477-.176.875-.223 1.082-.048.223-.334.461-.334.461m3.04-.477c.08.08.08.382-.064.525-.16.16-.35.27-.7.175.366-.159.239-.381.461-.557 0 0 .223-.19.303-.143m-1.83.62c.35.017.716-.206.811-.43.127-.27.095-.779-.016-.89-.033-.033-.175-.064-.318.159-.255.35-.144.652-.191.812-.033.175-.287.35-.287.35m-2.45 2.1c-.16.192-.382.255-.621.128-.287-.191-.08-.414.08-.605.333-.398.922-.605 1.877-.334 1.162.334-.589-.127-1.337.812m-6.366 3.087c-.16-.254-1.035.812-.908.398.35-.827.573-1.512.908-2.132.159-.287.366-.398.716-.557.286-.017-.08.748.127.875.541.43 1.178.939 1.83 1.448-.684.462-2.244.414-2.674-.032m16.41 5.984c-.047-.875-.955-1.56-1.926-1.655-.222-.033-.493-.016-.716-.08-.207-.079-.445-.238-.398-.62.573-.048 1.226-.048 1.64 0 .588.063.811.239 1.4.493-.19-.843-1.13-1.544-2.117-1.48-.207 0-.43.033-.636.033-.255.016-.717-.033-.733-.573.637-.112 1.242-.223 1.72-.223.588 0 .875.08 1.48.286-.27-.827-1.194-1.385-2.165-1.21-.207.033-.446.064-.7.112-.24.047-.621.127-.732-.318h-.017c.669-.207 1.146-.43 1.656-.494.573-.08.955-.016 1.591.111-.381-.78-1.337-1.241-2.276-.939-.207.064-.43.112-.7.207-.207.064-.573.207-.732-.27.605-.319.939-.51 1.4-.653.542-.16.987-.239 1.608-.063-.462-.733-1.464-1.035-2.356-.637-.223.095-.461.223-.716.334-.207.08-.477.095-.668-.207v-.016c.398-.287.764-.541 1.098-.685.541-.223 1.003-.302 1.655-.35-.573-.668-1.64-.636-2.515-.143-.095.048-.207.095-.35.175-.223.127-.589.207-.811-.127.811-.716 1.846-.923 2.34-.891 0-.048-.749-.446-1.37-.16a.68.68 0 0 0-.254-.573c0 .478-.7.971-1.13 1.305-.812.605-1.64 1.13-2.69 1.337-.494.096-.732.017-.86-.143-.159-.207-.032-.51.382-.525.86-.016 1.4-.653 2.022-1.098.238-.176.398-.399.795-.399-2.1-.35-3.326-1.018-4.679.637-.27-.732.048-1.114.462-1.4.43-.303.939-.462 1.384-.749.7-.461.923-1.448.51-2.021-.366.334-.207.605-.653 1.321-.366.51-.684.573-.891.478.063-.223.366-.717.461-1.003.144-.43.16-.414.223-.923 0 0 .08-.892-.27-.971-.24.302-.287.366-.494.891-.19.51-.716 1.926-1.289 1.671.16-.477.191-.525.334-.986.111-.35.16-.685.191-1.13.016-.223.048-.67-.254-.86-.128.143-.526.812-.59 1.003-.286.748-.365.875-.668 1.766-2.165-1.384-4.122-2.578-6.016-3.883-1.958-1.353-3.852-2.786-6.049-3.756.86.954 1.83 1.639 2.706 2.45.446.414.732.605 1.003.621.557.048.732.24.875.366.334.24-.175.223-.54.24.333.27.509.54.795.54 1.114.017 1.066.16 1.194.255.605.446-.382.27-.669.318.223.302.621.573.86.605.398.048.891-.095 1.114.16.541.365-.111.27-.669.317.399.382.669.733 1.194.717.62-.017.796-.144 1.226.207.732.493-.51.398-1.114.414.461.461.684.652 1.002.652.526-.016 1.226-.16 1.544.111.382.366-.302.414-1.257.398.223.59.19 1.035-.637 1.672-.62.477-1.003 1.13-1.114 1.814-.239 1.528-1.114 2.754-2.085 3.709-.94.923-1.544 1.575-1.48 3.024 0 .398.175 1.034.445 1.146.366.16.924-.033 1.37-.175.54-.176 1.05-.446 1.575-.685.111-.08.255-.047.207.223-.111.637-.255 1.29-.334 1.926-.016.095-.048.35-.048.446 0 .047.111.095.16.11.7.335 1.878-.38 2.005-1.225.127-.86 1.4-2.228 2.133-2.276 1.671-.111 3.04-.796 3.979-2.228.095-.16.127-.35.19-.525.034-.207.208-.207.224.063-.016.27-.033.557-.08.828-.19 1.114-1.066 1.655-1.926 2.228-.302.191-.7.51-.748.796-.11.987-.413 1.83-1.066 2.61-.446.526-1.194 1.337-1.719 1.64.255-.017-.095 1.018-.095 1.018.398-.254.764-.222.955.192-.064-.78 1.83-1.353 1.766-1.274-.127.637.111 1.83-.207 2.197.398 0 .573 0 .7.573.08-.43.335-.78.67-.526.97.59 1.766 1.353 2.418 1.879.207.143.112.557-.381.636.827.303 2.642-.143 2.642-.143s.19 1.05-.111 1.337c.54.414 1.257.764 1.591 1.146.398.43.716.843.876 1.512.43-.764-.08-1.846-.86-2.451-.35-.27-.7-.541-.493-1.194.477.35.891.653 1.193.987.382.43.749.86.892 1.416.43-.748-.111-1.75-.876-2.34-.35-.286-.86-.54-.636-1.209.016-.033.016-.048.032-.064.478.35.94.653 1.242.971.382.43.748.7.923 1.37.43-.765-.143-1.704-.907-2.309-.366-.27-.812-.573-.605-1.257.477.302.923.573 1.225.875.414.414.733.748.924 1.321.398-.78-.16-1.687-.955-2.244a5.025 5.025 0 0 1-.542-.477c-.063-.064-.398-.24-.207-.828.494.302.971.557 1.274.86.43.398.796.795 1.003 1.352.365-.796-.24-1.735-1.05-2.276-.176-.111-.399-.223-.558-.366-.191-.175-.541-.286-.446-.923.526.239 1.05.446 1.401.716.477.35.923.669 1.178 1.162.27-.843-.462-1.639-1.337-2.085-.191-.095-.43-.175-.621-.318-.207-.143-.398-.286-.398-.86.51.144 1.082.366 1.448.558.51.27.971.525 1.337 1.002.127-.86-.716-1.591-1.655-1.878-.191-.063-.414-.19-.62-.286-.176-.08-.43-.43-.415-.748.526.095 1.194.238 1.56.382.541.222.876.413 1.37.827.047-.875-.813-1.464-1.768-1.671-.175-.033-.381-.048-.557-.095-.19-.033-.557-.335-.51-.764.558.032 1.083.047 1.497.159.557.16.907.334 1.449.7M66.024 52.253c.445-.637 1.034-1.083 1.878-1.226.525-.095 1.034-.207 1.448.51.064.126.303.174.478.19.557-.143.939-.047 1.05.685.127.366.382.223.541.286 1.035.175 1.035 1.321.987 2.213-.063 1.193-1.432 2.132-2.165 1.416-.7-.477-1.305-.907-2.037-1.337-.51-.302-1.194-.573-1.735-.843-.811-.685-.939-1.178-.445-1.894m8.165 3.835c-.414-.588-.62-1.241-.494-2.021.096-.493.16-.987.924-1.114.127-.033.238-.207.318-.366.047-.525.254-.828.939-.7.35 0 .318-.255.414-.398.493-.844 1.48-.478 2.26-.144 1.034.414 1.416 1.91.557 2.34-.653.461-1.21.843-1.815 1.369-.445.35-.89.86-1.305 1.257-.86.493-1.337.446-1.798-.223m6.08-5.14c-.812.079-1.576-.08-2.276-.653-.43-.35-.891-.685-.605-1.496.048-.144-.063-.366-.175-.51-.494-.334-.7-.716-.191-1.305.19-.35-.096-.461-.16-.637-.573-.939.319-1.718 1.067-2.291.987-.764 2.674-.335 2.61.748.127.89.207 1.655.382 2.53.111.621.382 1.353.541 1.958.033 1.13-.27 1.56-1.194 1.655m-16.09-3.167c.302-.573.747-1.226 1.034-1.799.382-.827.668-1.56 1.003-2.403.207-1.082 2.005-1.082 2.77-.08.572.765 1.272 1.767.477 2.547-.128.16-.43.191-.319.573.335.716.048 1.035-.525 1.242-.143.127-.318.302-.318.461.08.876-.446 1.083-.971 1.321-.828.382-1.623.35-2.403.064-.876-.334-1.067-.844-.748-1.926m10.265 1.974c.399-.382.43-.59.462-1.035 0-.143.302-.255.525-.302.24-.08.573-.207.764.016.43.732 0 2.053-.796 2.244-.413.096-.604-.16-.748-.366-.127-.19-.334-.54-.207-.557m-2.18.62c.557.24.78.176 1.225-.016.144-.048.382.191.558.382.19.223.477.493.35.764-.51.764-2.022.939-2.595.239-.286-.366-.127-.669 0-.892.127-.223.366-.573.462-.477m2.34-2.705c-.176-.59-.35-.733-.78-.971-.127-.064-.096-.43-.048-.669.048-.27.095-.668.382-.748.907-.063 1.99 1.003 1.782 1.894-.095.462-.43.525-.7.557-.239.033-.668.064-.637-.063m-3.628.78c-.112.588 0 .795.286 1.193.08.127-.111.43-.255.637-.159.223-.365.573-.668.51-.844-.335-1.353-1.768-.796-2.468.287-.382.62-.302.876-.207.238.064.636.223.557.334m1.99 7.02c.97.923 1.018 1.353.604 2.005a3.833 3.833 0 0 1-.668.748c-.94-.987-.94-1.241-.43-1.814.477-.541.35-.557.493-.94m6.558-3.803c1.273-.35 1.655-.176 1.99.493.11.223.206.541.286.923-1.29.303-1.496.175-1.72-.541-.222-.653-.222-.653-.556-.875m-13.561-.86c-1.433-.398-1.878-.191-2.26.557-.127.27-.239.62-.334 1.05 1.48.35 1.703.208 1.973-.62.24-.732.398-.7.621-.987m12.765-7.672c1.4 0 1.75-.318 1.894-1.146.064-.286.064-.652.033-1.114-1.417.08-1.592.287-1.624 1.146-.032.78-.111.796-.302 1.114m-4.856 5.555c-.11.653-.652 1.003-1.177.94-.382-.064-.955-.606-.955-.956-.033-.604.398-1.114 1.162-1.066.668.033 1.114.255.97 1.082m-5.602-6.764c-1.592 0-1.974-.319-2.149-1.21-.063-.318-.063-.7-.048-1.178 1.608.08 2.085.287 1.958 1.178-.048.462-.048.62.239 1.21m4.345 4.616c-.62.11-.78.286-1.082.7-.096.127-.446.032-.7-.033-.287-.08-.685-.16-.717-.477.033-.955 1.258-1.958 2.149-1.64.461.144.477.51.493.796 0 .255-.016.7-.143.653m-1.623-6.923c.78.127 1.719.334 2.514.398 1.13.111 2.117.127 3.247.16 1.353-.176 2.085 1.655 1.21 2.8-.653.876-1.544 1.942-2.801 1.417-.223-.063-.382-.366-.812-.127-.684.62-1.178.446-1.671-.064-.191-.11-.478-.222-.653-.159-1.003.398-1.464-.063-1.958-.51-.78-.715-1.066-1.527-1.05-2.434.032-1.02.541-1.385 1.974-1.48m-21.695-7.61c-2.483.383-4.074 1.13-3.995 1.56.064.446 1.815.637 4.282.255 2.483-.398 4.074-1.13 4.01-1.576-.079-.43-1.814-.636-4.297-.238m.303 1.91c-2.085.334-4.314.302-4.41-.334-.095-.637 2.006-1.353 4.091-1.688 2.101-.334 4.314-.302 4.425.335.096.636-2.005 1.352-4.106 1.687m82.447 14.006c-.175.494-.223.828-.51 1.083-.27.238-1.209.716-1.575.875.191-.414.732-1.353.987-1.576.255-.223.875-.254 1.098-.382m-5.905-4.52c-.461.27-.78.382-.955.716-.19.318-.461 1.337-.525 1.735.366-.27 1.162-1.003 1.337-1.305.16-.302.063-.891.143-1.146m4.536 10.011c.526-.525 2.054-1.655 3.056-1.878l-.652-1.146c-.016.59-.334 1.067-.605 1.274-.143-.398-.207-.828-.033-1.194-.286.255-.843.589-1.225.748.414.111.716.239.955.605-.446.207-1.305.51-1.91-.239-.414-.477-.446-1.13.016-1.544.16-.127.414-.207.637 0 .223.207-.048.589-.24.685.447.079 1.402-.51 1.004-1.003-.319-.398-1.146-.255-1.544.016.254-.493.382-1.321-.033-1.592-.525-.365-1.05.621-1.034.971.254-.27.636-.381.78-.254.127.11.127.461-.096.7-.398.43-1.194.318-1.687-.064-.525-.413-.684-1.13-.16-1.99.271.271.653.892.653 1.322.303-.541.51-.812.955-1.273-.493.127-1.05-.144-1.369-.319.35-.286.828-.493 1.37-.413l-1.672-1.274c.223.51.08.971-.096 1.37-.254-.256-.652-.717-.652-1.226-.318.557-.541.827-.971 1.273.398-.127 1.082.08 1.417.255-.685.732-1.48.636-1.974.318-.525-.334-1.019-.987-.685-1.576.16-.302.605-.223.749-.127.159.111.222.446.016.748.398-.255 1.034-.86.557-1.29-.366-.317-.987-.016-1.385.367.144-.462-.032-1.306-.51-1.449-.604-.159-.827.86-.636 1.258.033-.191.318-.637.573-.462.27.16.175.525.08.7-.287.542-.955.605-1.512.303-.892-.478-.94-1.337-.542-1.783.43.127.637.382.86.764a5.256 5.256 0 0 1 .398-1.369c-.334.27-.764.319-1.194.27a1.78 1.78 0 0 1 1.098-.922l-1.289-.334c.048.986-.764 2.753-1.018 3.453 4.918 2.818 5.459 3.184 9.55 7.322m-19.29 9.104c-.605.016-1.417 0-.717-1.274-1.4-.063-2.26.446-3.072.287-.286-.064-.461-.096-.573-.478-.047-.143.033-.477.08-.652-.287.16-.542.175-.685.063-.398-.302-.143-.509-.016-.7.175-.255.398-.477.62-.669-.556-.381-1.113-.795-1.718-1.13l-1.05 1.003c-.494.446-1.051.86-1.656 1.098-.255.08-.446.017-.716-.286-.207-.207-.478-.478-.86-.541-.732 1.591-2.164 1.942-2.897.812-.43.143-.89.445-1.32 1.082-.287.461-.7.732-1.13.748-.319.016-.43-.033-.574-.27a3.93 3.93 0 0 0-.875.811c-.398.557-.669 1.21-.462 2.037a3.154 3.154 0 0 1-.032 1.72c-.16.509-.366 1.034-.844 1.448l.096 1.082c.143-.111.302-.223.461-.302.398-.239 1.528-.605 2.308-.478.955.16 1.878.366 2.483 1.321.446-.509.637-.716.51-1.289.907.223 1.527.971 1.973 1.353.08-.207.16-.446.35-.653.191-.254.462-.302.716-.334.621-.08.844.112 1.417.605.843-.97 1.241-1.034 3.167-.255-.111-.827.398-1.241 1.337-1.034.923.223 1.242-.191 1.91-.907.255-.287.876-.43 1.178-.669-.7-.652.223-1.098.43-1.194.923-.413 1.623-.811 2.18-1.798.223-.382.653-.51.844-.669-1.417-.318-1.878.096-2.865.112m32.853-6.208c.111.525.287 1.114.334 2.085.016.7-.08 1.767.096 2.404.398 1.4 1.56 2.737 1.56 2.737s-.94-1.941-.574-3.565c.207-.94.033-1.4-.238-1.814-.191-.287-.478-.876-1.178-1.847m-1.75 10.776c-.701-1.003-1.306-1.894-2.022-2.881-.478-.685-.923-1.21-1.369-1.942-.796-1.321-1.257-1.671-1.735-3.804-.223-1.035-.143-2.133.048-3.12.175-.891.589-1.241 1.162-1.225.493.016.78.254 1.082.652.207.255.557.733.398 1.48-.127.653 1.146 1.417 1.178 2.834.366-2.547-.302-4.139-1.655-5.285.286-.032.605-.047.86.033 1.48.51 1.543 2.626 1.48 3.98-.064 1.24-.176 2.832-.08 3.405.063.573.223 2.133 1.846 3.168-.891-1.337-1.273-1.783-1.146-3.884.127-1.91.064-2.451-.032-3.374-.127-1.385-.478-1.974-.637-2.308-.16-.334-.477-.653-.477-.653.032.017.62.319 1.002 1.067.382.732.669 1.416.685 2.499 0 .875 0 1.798-.033 2.435-.063 1.607.239 2.403.923 3.374.59.828 1.783 1.64 2.197 1.862-1.751-2.276-2.292-3.23-2.404-4.822-.08-1.162.08-2.197-.095-3.295-.334-2.18-1.114-4.043-2.945-4.998-.27-.143-.843-.286-1.655-.35.446-.143 1.862-.382 3.374.86.717.589 1.035 1.607 1.576 2.148 1.353 1.353 1.608 1.974 2.212 3.104-.047-.064-1.002-3.422-2.594-5.157-.891-.955-2.403-1.4-2.435-1.416-2.467-.764-4.743.986-5.332 3.294a10.187 10.187 0 0 0-.287 2.833c.033 1.242.335 2.229 1.05 3.645.94 1.894 1.56 2.706 2.834 4.457.923 1.273 1.862 2.467 2.674 3.82.51.86.923 1.464 1.13 2.77.318 2.02-.891 2.482-2.18 2.244-2.07-.382-3.088-1.942-4.123-3.534-.923-1.432-1.703-2.976-2.53-4.472-.16-.271-.319-.558-.478-.828-.144-.255-2.276-3.295-3.74-6.128-3.932 1.496-10.665 4.09-10.537 4.234 1.448 1.528 2.562 1.591 3.852 2.849.827.828 1.13.923 1.926 1.926.254.286.62.636.811.955.43.7.716 1.21 1.05 1.973.096.207.399 1.003-.032.955-.286 0-.51-.557-.605-.811-.302-.812-.525-1.258-1.273-1.544-.875-.334-1.894-.653-2.77-.94-1.623-.525-3.215-.62-4.886-.032-.62.255-1.13.875-1.21.971-1.146 1.305-1.13 3.39.223 4.839 1.019 1.082 1.847 1.623 2.674 2.849.446.668.812 1.766.955 2.96-.875.16-1.528.334-2.196.382-.557.048-1.162.016-1.687-.144-1.274-.365-2.356.048-3.2.876-.748.732-1.257 1.703-1.878 2.594 1.926.462 3.184-.032 3.661-.35.907-.636 1.942-.907 2.992-1.05 1.624-.239 3.28-.334 4.918-.525.812-.096.876-.828.78-1.37-.11-.556-.557-1.686-.7-2.498-.048-.43-.111-.907.064-1.242.286-.54 1.098-.589 1.798-.222.43.206.844.398 1.321.588.51.207.907.112 1.082-.62.367-1.544.335-2.085 1.162-3.836.144-.287.414-1.496.526-2.038.08-.334.493-.334.477.017-.063.652-.111 1.257-.286 1.878-.176.637-.541 1.194-.7 1.83-.51 1.974-.542 3.04-.67 4.568-.143 1.56.367 3.104 1.274 4.266 1.019 1.29 2.404 2.34 4.09 2.817 1.322.366 2.58.892 3.073 2.324.573 1.735 1.337 3.47 1.21 5.316-.017.43-.048.589-.144.907.541.637 1.05 1.258 1.369 2.038.047-.033.095-.048.143-.08.35-.159.764-.493.86-.843.175-.526.222-1.162.159-1.72-.175-1.416-.462-2.8-.653-4.217-.095-.796-.047-1.608-.127-2.404-.095-.955-.063-2.005-1.273-2.403-.398-.127-.764-.366-1.114-.605-1.274-.843-1.735-3.629-.732-4.854.955-1.146 1.193-2.579 1.623-3.932.255-.78.573-1.05 1.21-.525.907.764 2.801.94 3.963.669.97-.207 1.735-.717 2.196-1.83.542-1.306.127-3.184-.652-4.648-.669-1.242-1.05-1.64-1.847-2.786m-4.375 36.305c-.127.207-.43.478-.637.462-.254 0-.652-.207-.732-.43-.334-.891-.493-1.83-.78-2.753-.095-.653.207-.908.669-1.115.637-.27 1.146.08 1.32.557.383 1.051.797 2.165.16 3.28m-2.801 1.973c-.366.637-1.608.605-1.687-.223-.048-.653-.064-.684-.16-1.337-.27-1.703-.398-3.47-1.289-4.998-.891-1.528-1.719-2.658-3.294-4.234-2.77-2.785-5.746-3.565-9.423-3.835-1.321-.096-2.658.063-3.995.063-.462 0-.907-.254-.923-.78 0-.238.032-.509.461-.748.7-.382 1.258-.54 2.292-.652.748-.08 1.783-.064 2.547-.064 3.629-.032 6.605 1.433 8.563 2.77 1.592 1.066 3.39 3.278 4.457 4.806 1.4 1.99 1.926 3.231 2.594 5.46.334 1.082.462 2.737-.143 3.772m-21.552-16.649c-.318.08-.907.16-1.034-.207-.223-.477.143-.828.366-.955.986-.541 1.99-1.05 3.024-1.416 1.56-.542 3.183-.749 4.838-.558.621.08 1.067.526 1.067 1.162-.016.764-.541.86-1.13.876h-1.146c-1.194.016-2.706.08-3.995.461-.7.207-1.305.494-1.99.637M63.38 91.423c-.318.43-.604.477-.907.477-.51-.016-1.05-.159-1.512-.35-2.196-.955-4.425-.907-6.669-.398-1.337.303-2.706.732-3.931 1.385-1.019.541-1.862 1.241-2.674 2.005-.605.542-.955.876-1.465 1.321-.127.128-.461.335-.764 0-.175-.143-.286-.302-.032-.78.286-.572.414-.875.716-1.225.971-1.098 1.671-1.958 3.056-2.865 1.13-.748 1.703-1.146 2.976-1.592.987-.334 2.754-.62 3.82-.652 1.863-.08 3.74.032 5.492.732.62.255 1.13.525 1.67.923.383.287.447.716.224 1.019m64.366-4.09c-.541.27-1.098-.303-1.464-.685-.462-.446-.637-1.353-.462-1.655.366-.653.796-.812 1.56-.255 1.226.828 1.019 2.26.366 2.594m11.523 14.437c-.238-1.051-.732-2.308-1.002-3.423-.127-.525.016-.843.461-1.082-.318-.796-.811-1.4-1.369-2.037-.016.063-.032.143-.063.223-.08.223-.446.318-.62.095-1.736-3.581-4.394-5.841-7.657-7.926.526-2.181-.366-3.486-2.403-4.17-1.05-.08-1.592.827-1.671.954-.446.844-.08 2.006.318 2.674.541.94 1.56 1.385 2.451 1.353.43-.032.891.303 1.29.541 1.75 1.083 3.39 2.308 4.758 3.836.717.78 1.162 1.497 1.72 2.404.143.207.381.891.016 1.082-.462.27-.764-.095-1.306-.7-.7-.828-1.32-1.433-2.005-2.133-.684-.716-1.337-1.464-2.085-2.117-.844-.716-2.308-1.623-3.136-2.037-1.353-.669-1.735-.812-3.024-1.449-.223-.095-.525-.381-.51-.557.128-1.082-.524-1.878-1.018-2.706-.175-.286-.557-.461-.891-.652-.62-.366-.478.35-.716.525-.16.127-.414.223-.637.223-2.515-.016-4.775.51-7.099 1.703-.445.223-.843.684-1.305.478-.35-.16-.51-.796-.796-1.226-.54-.844-.7-1.4-1.289-2.228-.732-1.05-1.719-2.213-2.594-2.945-2.404-2.053-5.094-3.597-8.5-3.613-1.973 0-3.788.398-5.618 1.019-.494.159-.94.461-1.417.668-.19.08-.51.096-.637 0-.11-.095-.11-.445-.032-.636a.62.62 0 0 1 .063-.144c-1.018.127-2.021-.239-2.944-.684-.048.334-.048.318-.144.7-.047.27-.509.541-.7.318-.255-.318-.414-.525-.764-.955-.843-.987-1.671-1.464-2.753-1.957-1.735-.796-3.295-1.274-5.508-1.337-.08 0-.143 0-.222-.017-.335.334-.685.653-.987 1.035 1.13-.127 2.324-.016 3.454.19 1.273.224 2.196.638 3.278 1.418.7.509 1.226 1.066 1.608 1.734.382.637.239.876.175.94-.207.206-.557.398-1.32.095-1.067-.366-1.45-.557-2.388-.86-2.15-.7-4.33-.811-6.526-.477-2.053.334-4.09 1.385-5.682 2.69-1.353 1.114-2.324 2.308-3.597 3.533-.24.239-.605.557-.892.541-.875-.032-1.194-.668-.716-1.384a33.764 33.764 0 0 1 2.276-2.945c.62-.716.875-.97 1.655-1.56.303-.223 1.083-.78 1.433-.939a95.17 95.17 0 0 0-.844-.605c-.987.812-2.037 1.544-2.944 2.42-1.083 1.05-1.942 2.292-2.96 3.39-.59.652-.462.573-1.29.637-.286.89-1.13 2.817-.716 2.992 1.257.51 2.1.636 3.342 0 .398-.207.876-.287 1.337-.35.318-.048.462-.033.59-.287.843-1.798 1.448-2.276 2.737-3.66 1.146-1.242 2.61-2.308 4.027-2.945.939-.446 2.578-.78 3.597-.812 1.942-.08 3.995-.302 5.507 1.37.175.19.27.46.207.827-.064.254-.43.27-.653.254-.78-.032-1.48-.127-2.355-.175-1.321-.063-2.69-.063-3.948.255-1.91.477-3.9 1.528-5.364 3.056-1.018 1.066-1.766 1.798-2.435 3.263-.334.732-.557 1.512-.875 2.228-.382.923-1.035 1.098-1.799.493-1.862-1.448-3.995-2.037-6.287-2.148-.987-.048-1.99-.064-2.944.047-1.608.191-2.372.287-3.868.748-1.496.462-3.597 1.688-5.077 3.216-1.05 1.098-1.512 1.496-2.372 2.674-.684.923.048 2.594 1.146 2.705 1.066.08 1.528-.716 2.149-1.32.366-.35.62-.733 1.034-1.13.59-.606 1.337-1.13 2.07-1.545 1.161-.652 1.91-.97 3.23-1.305 1.099-.27 2.404-.35 3.534-.302 1.369.048 2.435.175 3.358 1.194.414.445.51 1.002.35 1.448-.11.334-.923.064-1.257-.08-1.671-.7-3.406-.89-5.173-.668-.716.095-1.464.318-2.085.669-.86.477-1.735 1.066-2.356 1.83-.78.955-1.862 2.308-1.56 2.467.16.095.59-.239.765-.398.78-.748 1.48-1.576 2.292-2.26 1.846-1.528 3.58-1.544 6.08-1.003 1.034.223 2.037.86 3.024 1.226.891.318 1.591-.096 1.544-.876-.08-1.719 1.018-3.151 2.721-3.31.637-.064 1.306.19 1.958.35.748.207 1.21-.033 1.385-.764.143-.637.016-.924-.048-1.385-.047-.382-.111-.732-.143-1.098-.111-1.242.636-2.34 1.623-3.518.732-.891 2.133-1.91 3.12-2.499 1.91-1.146 4.01-1.544 6.207-1.05.987.223 1.942.557 2.897.86 1.417.429 2.42-.16 2.722-1.481a.776.776 0 0 1 .16-.35c.572-.7 1.288-.62 1.989.191.86 1.019 2.42 1.082 3.23.127.526-.636.908-1.496 1.577-1.862 1.305-.716 2.705-1.385 4.154-1.671 2.021-.398 4.456-.318 6.398.54 1.21.542 1.783.765 3.152 1.815 2.228 1.751 3.979 3.948 4.775 6.749.318 1.13.207 1.432.127 2.34-.048.589-.717 1.034-1.178.875-.223-.095-.398-.302-.398-.7-.016-1.958-.844-2.913-1.767-4.266a14.927 14.927 0 0 0-2.387-2.738c-1.21-1.082-2.26-1.973-4.903-2.769-1.162-.334-1.814-.286-3.072-.239-1.623.064-2.992.446-4.058 1.64-.557.636-.573 1.798-.048 2.196.478.35 1.114.525 1.799.207.636-.318.732-.939.652-1.56-.08-.668.16-1.018.796-1.21 2.196-.652 4.282-.27 6.144.94 1.448.939 2.737 2.069 3.756 3.533.7 1.019 1.496 1.846 1.846 3.231.096.382-.032.987-.095 1.4-.143.94.255 2.054 1.512 1.847.844-.143 1.623-.366 1.958-1.146.207-.461.318-.796.62-1.416.399 1.13.669 1.575 1.847 1.782.032.017.143.334.16.382.333.875 1.4 1.448 2.498.955 1.162-.525 2.403-.51 3.629-.573 2.913-.111 5.412.796 7.64 2.674 1.21 1.035 2.149 2.197 3.056 3.438a9.746 9.746 0 0 1 1.735 4.584c.08.828.143 1.321-.732 1.655-.733.287-.987 1.114-.86 1.735.111.637.541 1.305 1.417 1.305.589 0 1.177.033 1.75.127 1.401.223 2.595-.493 2.913-1.798.127-.51.35-.7.923-.573 1.321.318 1.703-.111 1.942-1.305.111-.541-.095-1.05-.27-1.815m-8.577-40.936c-.048-.159-.971-2.355-1.099-3.215-.175-1.305-.063-2.515.176-3.74.032-.16.095-.382.032-.462-1.194-1.178-2.18-2.324-3.597-3.485-.7-.573-1.91-1.385-4.743-3.025-1.608-.811-2.467.017-3.438 1.178-.637.78-1.162 1.656-1.75 2.483-.144-.318-.128-.477.032-.78.207-.445.589-.907.08-1.48-.749-.828-1.401-1.719-2.086-2.61-.382-.51-1.337-2.483-1.591-3.31-.366-.749-1.115-1.035-1.894-1.13-1.067-.128-2.165-.144-3.216-.367-.939-.175-1.83-.62-2.77-.812-.492-.127-1.05-.032-1.575.064-.477.08-.939.334-1.416.43-.462.08-.78.19-.844.748-.048.318-.286.7-.541.875-1.258.844-2.149 1.847-2.403 3.454 1.098.207 1.034-.414 1.496-.97v1.13c1.67-.017 3.263-1.099 2.61-2.627.063-.033.16-.111.207-.08.653.287 1.21.255 1.783-.27.222-.207.7-.207 1.05-.16 1.448.176 2.85.462 4.059 1.37 1.082.795 1.973 1.687 2.403 3.008.748 2.18 1.512 4.36 2.356 6.51.143.365.445.732 1.178.684.557-.033 1.082-.127 1.607-.191.334 0 .16.35.111.51-.143.333-.78.54-1.193.54-2.133 0-4.25.748-6.415.287-.493-.111-1.21.016-1.575.318-.844.716-1.624 1.496-2.42 2.26.605.334 1.162.748 1.72 1.13 1.161-1.018 2.912-1.225 4.551-.843.86.207 1.974.461 2.77.684 1.162.35 1.814.589 2.944 1.05.733.303 1.433.7 2.085 1.163.605.398 1.194.413 1.815 0 .891-.59 1.735-1.02 2.69-1.48.637-.303.939.254.62.381-.604.414-.78.541-1.511 1.035-.303.223-.637.398-.908.636-.843.764-1.432.7-2.26.541-.541-.095-.987-.604-1.528-.732-.51-.047-.557.24-.223.541.541.59 1.099 1.13 1.608 1.735.684.828 1.703.94 2.61 1.258.43.143.844.382 1.29.461.636.127 1.305.287 1.91.176 1.495-.287 2.912-.685 4.201-1.688.987-.78 1.019-1.734 1.05-2.69 0-.254-.015-.35-.047-.493m-44.36-1.734c1.384-.064 1.877-1.178 3.087-1.751.175-.08.35-.191.398-.303-1.369-.016.923-1.56.907-2.467-.684.255-.43-.477-.35-.732.319-.907.319-.97.637-1.655.048-.144.382-.812.35-1.067-.223.144-.43.144-.637.144-.032 0 .399-2.451.35-2.817-.238.095-.748.238-.7-.176.08-1.034.334-1.496.637-2.18-.191.063-.923.08-.637-.764.111-.35.525-1.178.446-1.703-1.067.366-.478-.796-.191-1.242.159-.223.35-.445.827-.732-.35 0-.684 0-1.034.144-.525.207-.716.318-1.194.604-1.082.653-1.082.669-1.974-.238-.875.923-1.257 1.83-1.878 2.721-.223.287-.589.064-.923-.54-.43.62-.446 1.798-.62 2.641-.112.59-.382.573-.446.59-.112.016-.207.047-.414-.208-.144.318-.127.334-.191.653-.111.573-.096 1.082-.127 1.623-.017.462-.16 1.321-.7 1.48.46.366.684.94.811 1.608.127.7.191.971-.318 1.194-.27.111-.557.127-.844.08-.016.238.127.731.287 1.066.381.748.732 1.973.27 2.546.7-.127 1.37.223 1.99.892.223.207.493.525.54.827.335.127.67.176 1.004.24.095-.271.302-.478.636-.478M113.04 73.66c-.047-.414.24-.891.748-1.21-1.13-.493-2.18-.62-3.326-.684-.541-.048-.748-.398-.43-.923.111-.191.191-.223.51-.557a7.322 7.322 0 0 0-2.5-.191c-.35.032-.525 0-.636-.16-.111-.159-.144-.334.063-.62-.223-.08-.843.11-1.146.143-1.002.16-2.037-.207-3.024.27-.19.096-.7.208-.891-.206-.016-.048-.064-.207-.033-.303-.11-.016-.398.08-.493.112-.78.318-1.528.43-2.356.079a.455.455 0 0 0-.254-.033c-.287.017-.637.191-.955.24-.51.047-1.035-.08-1.528-.017a1.35 1.35 0 0 0-.764.318c-.144.127-.366.191-.446.334-.525.907-1.369 1.178-2.228 1.353l.095.669a2.81 2.81 0 0 1 .398-.08c.669-.08 1.305-.207 1.56.685.063.222.43.318.605.525.127.143.254.35.254.525 0 .111-.238.286-.381.318-.7.191-1.401.35-2.101.541.016.271.047.542.08.812.222-.08.445-.16.684-.223.652-.239 1.337-.445 2.037-.557.493-.08.923-.111 1.544-.127 1.098-.016 1.512.302 2.228.955.16.16.366.366.748.589-.032-.286.064-.414.303-.573.11-.064.716.016.923.127.557.27 1.862 1.114 2.1 1.258 0-.446.319-.399.494-.43 1.226-.017 5.173 3.199 6.414 5.73.462-.621.51-1.05-.509-2.245-.684-.827-1.241-1.368-1.926-2.18-.143-.175-.589-.541-.366-.907.191-.35.462-.319.717-.287.334.033.477.144.748.318.302-.286.302-.493.175-.89.605.238.955.381 1.83.286-.175-.287-.127-.414.223-.51.923-.207 1.75 0 2.785.334-.238-1.273-.955-2.037-1.973-2.61m-20.166 1.37c-.414.112-.796.32-1.178.51-.573.255-1.257-.032-.987-.668.366-.557.653-1.178 1.115-1.656.445-.461.986-.78 1.623-.939l-.095-.668c-.43.08-.892.16-1.305.27-.526.144-.605-.238-.526-.62.207-1.035.653-1.926 1.465-2.547l-.096-1.082a4.21 4.21 0 0 1-1.798.86c-.127-.637-.796-1.529.318-1.624-.414-.366-.876-.653-1.162-1.067-.286-.414-.414-.923-.589-1.4-.557-1.433.286-3.82 1.655-4.6.255-.144.669-.255.908-.16.238.096.366.494.573.812.223-.445.366-1.018.764-1.194.27-.143.604-.302.875-.445-.175-.366-.318-.748-.541-1.098-.16.127-.398.222-.669.286a14.75 14.75 0 0 0-2.18.764c-.127.048-.494.255-.669.318-1.273.844-1.496.812-1.957.86.875.732.127 1.575-.446 1.91-.462.27-1.114.095-1.433-.127-.222-.16-.413-.303-.62-.621-.287-.462-.382-1.098-.223-1.528-.334-.08-.669-.111-1.003-.239a.48.48 0 0 1 0 .302c-.095.271-.302.271-.461.303a3.29 3.29 0 0 1-.971 0c-.764-.064-1.21-.35-.812-1.385-2.244 1.655-5.014 1.019-6.35-.637.079.526.397 1.48.62 1.83.51.813 1.162 1.29 1.974 1.959.175-.637 1.13-.892 1.941-.59.255.096 1.417.478 1.926.7.175.08.462.16.446.51-.033.303-.35.366-.541.414-.27.08-.541.143-.828.207.366.302.685.653.971 1.035a9.042 9.042 0 0 1 2.451 0c.844.127.971.27 1.258.684.365.525.11.987.095 1.4 0 .176.063.685.08.67.493-.86.938-.797 1.464.206.254.51.509 1.019.7 1.544.239.716.318 1.13-.398 1.783-.35.318-.494.54-.605.923 1.448-.907 1.257 1.623 1.257 1.942-.016.97-.811 1.432-1.257 2.148-.143.255-.239.335-.35.764.764-.557.844 0 .764.653-.033.175-.048.286-.063.382.923.445 1.925.812 2.944.684.334-.812.94-1.32 1.815-1.735.366-.175.732-.302 1.098-.43-.033-.27-.064-.54-.096-.811-.286.063-.588.143-.89.239m12.366-21.105c.223-.366.144-.605.494-.78-.144-.08-.7-.144-.526-.287.255-.207.064-.477.366-.684-.716-.334-1.05-2.053-.907-2.165-.223-.063-.796-.573-.891-.907-.08-.286.08-.812.35-.987-.398-.047-.621-.414-.43-.796-.064-.047-.127-.11-.207-.159-.048.08-.096.143-.144.223-.238.35-.477.446-.907.302-.286-.111-.923-.095-.78-.286-.159-.016-.35 0-.589.063-.365.112-1.496-.254-1.162-.366-.557-.159-1.05-.063-1.607.319 0 .016-.033-.033-.064-.048-.11-.08-.175-.27-.175-.27s-.86.398-1.162.716c-.334.382-.86 1.48-1.05 1.114-.207.35-.239.828-.35 1.241-.048.176-.27.764-.366.414-.239.191-.27.605-.255.94.016.222.111.46.016.62-.318.557-.032.987.255 1.432.255.382.064.955.732 1.178.59.191.494.908.096 1.449-.494.668-1.099.716-1.91.477.159.541.063.844-.176 1.035.223.35.366.732.542 1.098.939-.477 1.814-1.019 2.594-1.767.382-.366.812-.239 1.162.16.175.175.318.398.51.557.397.286.827.557 1.098.732-.08-.525 1.703-.016 2.196-.016-.398-.287.955-.51 1.576-.764-.59-.78.843-.605 1.21-1.083-.382-.032-.574-.127-.414-.35.381-.334.732-.636.955-.812-.335-.159-.064-.62-.096-.89.191-.017.382-.176.573-.176.064-.207.144-.27.16-.478zm6.255-.35c-.016-.255-.477-.828-.159-1.05.16-.112-.08-.383-.127-.59-.033-.127-.27-.43-.303-.557-.047-.239.08-.302.017-.557-.144-.525-.573-1.066-.733-1.512-.175-.493-.079-.875-.238-1.13-.048-.08-.494-.382-.526-.446-.286-.461-.159-.62-.398-.955-.318-.445-.78-.668-1.066-.955-.27-.286-.366-.636-.669-.843-.079-.048-.413-.064-.493-.144-.589-.716-1.29-.605-1.607-.159a68.238 68.238 0 0 0-1.704 2.483c.08.048.144.111.207.16.033-.033.048-.064.08-.112.446-.541.907-1.082 1.4-1.592.176-.175.605-.493.908-.318.19.095.239.318.16.494-.256.54-.813 1.05-1.242 1.56.413-.303.78-.685 1.353-1.067.27-.191.525-.43.732-.255.286.255-1.592 1.847-1.99 2.292.414-.143 1.767-1.305 2.101-1.432.334-.127.494-.096.62.047.08.064.16.287.017.462-.382.637-2.53 1.878-2.897 2.26 1.751-1.034 3.375-1.767 3.709-1.273.16.16.016.477-.239.652-.334.192-1.75.94-2.244 1.226.557-.143 1.99-.796 2.403-.812.287-.016.605-.11.844.287.111.302-.366.605-.669.748-.27.127-.827.27-1.337.445.637-.032 1.672-.127 2.117-.143.048.048.287-.095.334.127.112.382-.509.446-.716.51-.605.159-2.69.62-2.658.716.7-.096 1.417-.239 2.117-.287.43-.016 1.544-.063 1.623.24.112.301-.016.636-.398.636-.827-.017-1.782.143-2.737.254.97 0 1.719.08 2.435.048.398-.033.955.033 1.066.414.033.127-.032.461-.223.477-2.498.192-2.865 0-4.408 0-.017.207-.096.271-.16.478.557-.016 1.13-.016 1.703-.016 1.146-.017 1.815.143 2.96.127.67 0 1.051-.526 1.035-.94m-29.86 9.376c-.875.192-1.75.382-2.61.605-.795.191-1.368.191-1.846-.684-.366-.685-.7-.669-.7-.669s-.033.319-.494.382a4.76 4.76 0 0 1-.923-.08c-.589-.126-1.416-.27-2.005-.238.334.286-.048.637-.27.668-.892.144-2.022.207-2.945.303.557.286.652 1.178-.112 1.384-.573.144-1.464.144-1.973.526.732.493.19.97.032 1.114-.27.239-.525.446-1.002.62-.478.192-1.067.414-1.178.733.97.223-.207 1.257-.541 1.623-.382.43-.605.51-.7 1.019.588-.016 1.289.143.938.684-.35.605-.923 1.576-1.066 1.926-.127.303-.286.605-.43.892 1.337-.748 1.83-1.099 2.96-.271.255.191.383.223.67.16.35-.08.652-.224.938-.414.621-.462 1.035-.35 1.258.398 1.13-1.115 2.164-1.512 2.721-.892.399-.461.796-.939 1.178-1.4.573-.685 1.21-.78 1.449.159.238-.493.381-.764.573-1.114.27-.478.477-1.13.875-1.21.175-.032.366-.08.525.239.08-.239.08-.589.096-.748.047-.653.08-1.305.127-1.974.223.478.286.923.334 1.735 0 .716.127 1.512-.414 2.372-.16-.573-.318-1.21-.605-.892-.652.748-1.034 1.894-1.655 3.088-.016-.334-.191-1.607-.62-1.464-.51.175-1.226 1.369-1.847 2.196-.27-.509-.398-.636-.891-.477-.255.08-.573.239-.748.398-.542.525-.669 1.337-.812 2.037-.096.43-.318.907-.637 1.194-.16.127-.302.255-.446.366.271.19.558.398.844.605.732-.366 1.242-.685 1.926-.987.923-.414 2.435-.891 2.005.175.478-.033.876-.366 1.067-.557.652-.684 1.019-1.417 1.75-1.544.16-.033.335-.048.494-.063.302-.382.653-.7.987-1.035-.144-.033-.43-.27-.382-.653.033-.223.175-.7.207-.86.127-.54.541-.986 1.48-.747-.032-.525-.063-.955-.095-1.385-.08-.923.462-1.05 1.194-1.035-.144-.62-.27-1.21-.43-1.798-.064-.255-.127-.525-.255-.764-.51-.971-.493-1.13.318-1.64a6.985 6.985 0 0 1 2.659-.97 5.992 5.992 0 0 0-.971-1.035M60.277 43.323c-.35-.907-1.082-.78-1.671-1.225-.176-.127-.43-.525-.573-.764a.89.89 0 0 0 .175.97c.334.335.796.558 1.146.876.477.462.398 1.003 1.178 1.4-1.083.526-1.751-.986-2.467-.7.238 1.385 1.83 1.146 2.467 2.245-.764-.255-1.194-.127-1.926-.16-.303 0-.876-.126-1.13-.286-.732-.43-.653-.732-.494-1.289.24-.812.669-1.178.43-2.085a4.13 4.13 0 0 1-.063-.764c0-.764.86-1.926.175-2.833.334.239.748.557.78 1.066.08.844.19 1.528 1.05 1.878 1.258.526 1.003 1.608.923 1.672m-1.417 6.97c-.413-.365-.955-1.432-.764-1.782.557 0 1.21.955 1.767 1.576.573.62 1.512.812 1.83 1.687-.047-1.178-.365-1.942-1.161-2.594-.414-.334-1.019-.732-1.528-1.05.127-.08.19-.048.461-.048.255 0 .685.238.892.334.43.223.573 0 1.034.413.096-.095-.493-1.002-.796-1.273a3.087 3.087 0 0 0-1.082-.62c-.637-.192-1.528-.16-2.07-.382-.493-.223-.636-.319-1.177-.733-.286 1.21-.589 1.64-1.464 2.356-.35.27-.51.414-.7.255-.176-.144-.192-.303-.208-.462-.016-.207-.047-.414-.063-.62-.541.318-1.05.716-1.608.986v.017c.24.7.207 1.241.048 1.91-.239 1.082-.063 2.069.111 3.087.127.653 1.353 1.863 1.4 2.324.192-.557-.46-1.782-.508-2.149-.08-.604-.176-.923-.176-1.496.017-.589.191-1.607.27-1.607.24.207.622 1.034.574 1.926-.048.86.255 1.432.7 1.973.255.303.685.287.812.923.175-.557.111-.875.033-1.21-.192-.763.016-.938.063-1.766.033-.653.033-.653-.111-1.305-.111-.446-.033-1.035.16-1.258.238.08.556.924.556 1.37 0 .413.048 1.257.27 1.702.303.637 1.163 1.178 1.115 1.672.414-1.321.27-2.483-.175-3.884-.175-.51-.478-1.146-.446-1.799.51.191.971 1.703 1.162 2.26.143.414.127.414.382.733.318.366.605.636 1.034.827.78.35 1.035.828 1.37 1.512.079-.334.047-.875-.208-1.575-.414-1.114-.891-1.433-1.798-2.229m-6.335-8.293c-.255.127-.255.127-.526.334-.175.255-.11.685 0 1.067.16.557 0 .97-.445 1.066-.366.064-.732 0-.94-.477-.238-.541-.302-.987-.159-1.385a7.865 7.865 0 0 1-1.21.016c-.254-.016-.604 0-.795-.223-.27-.286-.557-.939-.207-1.146.366-.238 1.353-.302 1.623-.318-.254-.716-.907-.764-1.13-1.21a2.2 2.2 0 0 1-.19-1.575c-.048 0-.637.127-.86.143-.669.064-.987-.35-1.099-.86-.079-.35-.35-.875-.7-1.13.08-.222.334-.286.557-.302.366-.047.382-.016.764.017.303.032.653.016.94-.064.429-.127.493-.207.78-.461.19.334.222.636.159 1.21-.064.588-.096 1.288.047 1.861.175.717.573.908 1.29.764.732-.127.732-.445.716-.955-.111-1.273-1.035-1.67-.525-3.151.381.334.907.255 1.607.127.43-.08.86-.446 1.464-.175-.381.573-.223.748-.302 1.29-.16 1.097-1.241 1.24-1.958 1.177.573.732.541 1.194.398 1.767-.19.7-.413.54-.477 1.241.398-.143 1.512-.668 1.767-.382.334.7.398 1.258-.59 1.735m1.194 3.916c0-.207-.032-.573.223-.828.27.08.621.366.685.78.095.525.095 1.273-.111 1.48 1.034-.557 1.066-1.576.843-2.387-.207-.653-.78-.987-.668-1.544.875-.127 1.114.987 1.162 1.528.302-.462.445-1.194.302-1.72-.096-.413-.7-.827-.446-1.432.27 0 .43.24.62.51.16.223.32.54.415.891.19-.62.08-1.162-.127-1.64-.207-.493-.526-.556-.637-1.384.43-.191.446.35.955.51.048-.558.08-.749-.43-1.481.16-.16.494-.033.7.191.033-.525-.493-1.21-.795-1.48.207-.111.43 0 .62.095.08-.477-.238-.907-.525-1.13-.334-.27-.589-.223-.86-.477-.27-.255-.684-.812-.747-1.21.286-.033.684-.08 1.018-.223.541-.255.828-.525 1.146-1.019.366-.525.51-1.193-.095-1.782a1.59 1.59 0 0 0-1.624-.398c-.604.19-.955.843-1.703.477-.095.35-.286.414-.35.43-.19.111-.684.143-1.146.095-.414-.063-2.148.033-2.578.08-.892.111-4.377 1.448-4.282.62-.175.828-1.289-.365-2.483.7a1.83 1.83 0 0 0-.54 2.086c.365.86 1.24 1.146 2.339.939-.016.366-.096.637-.414.955-.255.255-.62.477-.828 1.082-.207.796-.175 2.26.542 2.913-.096-.828-.096-1.21.143-1.735.16-.414.525-.716.748-.716-.175.605-.286 1.48-.286 2.212 0 .78 0 1.242.43 1.958.016-.875.318-2.006.795-2.07.478.797-.095 1.481-.207 2.181-.127.748.302 1.115.812 1.37-.16-.367-.048-.765.032-1.083.08-.366.446-1.464 1.067-1.194-.62 1.226-.605 1.99-.302 2.929.175.605.78 1.353 1.21 1.432-.319-.398-.526-1.193-.526-1.64 0-.763.127-1.654.462-1.877.175.175.398.461.318 1.066-.08.669-.144.891.047 1.528.192.573.526.971.844 1.305-.239-1.353-.063-2.849.541-3.151-.08 1.05-.16 1.862.175 2.499.335.636.573 1.416.573 1.973.287.207.605.366.828.637.033-.111.064-.255.095-.446.112-.795-.525-1.878-.477-2.308.43-.032.828.828 1.003 1.322.557-.271 1.066-.669 1.607-.987a43.14 43.14 0 0 1-.11-1.433m-2.947 3.215c0 .255-.048.462-.16.589-.668-.127-1.002-.7-1.209-1.13-.86.127-1.194-.096-1.894-.653-.414-.35-.891-1.082-1.162-1.75-.43.032-1.146-.51-1.56-.987-.748-.78-.652-1.544-1.32-2.515-.16 1.83-1.45 3.12-.606 4.902.319-.7.526-1.321.955-1.862-.016 1.114-.016 1.32.111 2.244.08.525.287 1.162.605 1.417-.11-.637-.047-.892.112-1.306.19-.573.381-.78.764-1.002.143.35.11.54.079.923-.033.35-.063.668.048 1.13.19.78.414 1.194.62 1.719a3.52 3.52 0 0 1 .176-1.512c.127-.398.286-.573.589-.796.509.875.43 1.4.493 2.228.08.78.573 1.067.7 1.592.334-.716-.27-1.91.748-2.594-.175 1.034-.159 1.75.176 2.578.19.462.7.844.86 1.512.126-.955-.367-1.99.142-2.992.478.477.303.891.446 1.385.191.716.573 1.098.366 1.798.987-.43.525-2.196.541-3.215 0-.653.096-.605.207-1.066-.223-.255-.54-.43-.827-.637m-3.008 10.346c.047.493 1.098 2.626 1.862.923.764-1.687 2.244 1.655 5.205 1.655 2.944 0 4.122-.907 4.997-.764.876.144 1.385.78 1.02 1.846-.717 2.117-2.134 3.343-5.253 6.367a28.72 28.72 0 0 0-1.974 2.88c-.27.574-.255.988.016 1.067.223.08.462-.032.7-.334.542-.716.669-1.687 1.64-2.26.605-.35 3.279-1.417 3.279-1.417s1.48-.493 2.244.335c.78.811 1.21 3.438 1.098 4.6-.111 1.145-.54 3.39-3.008 5.093-2.467 1.687-1.369 3.167-.764 3.82.605.668 3.788.334 3.788.334s1.273.048 1.958 1.13c.382.589.382 1.385.382 1.385s-1.401.986-2.467.875c-1.83-.191-2.627-.987-4.155-.923-1.544.048-4.058.048-4.058.048s-1.37-.176-.987-1.417c.605-1.942 1.4-4.01 1.194-5.22-.128-.765-1.417-.685-1.894-.51-.494.191-.908.446-1.624.08-.286-.144-.302-.828-.398-1.306-.207-1.018-.207-2.323.191-3.692.207-.7.207-.669.318-.908.255-.509-.398-1.082-.891-.079-.684 1.417-.716 2.579-.732 3.454-.048 1.75 1.098 5.332.875 6.971-.207 1.64-.652 2.738-1.846 3.948-1.21 1.21-5.046 5.81-5.046 5.81s-1.528 1.814-.54 3.82c.684 1.4 2.212 1.145 2.896 1.161.589 0 .94-.255 1.83.478.796.652.94 1.639.191 1.75-3.804.637-5.38-.063-7.385-1.241-2.005-1.178-1.64-4.33-1.64-4.33s-.079-1.56 2.372-3.342c.605-.955 1.162-2.276.717-3.104-.414-.764-1.29-2.371-1.29-2.371s-.811-3.565-.7-4.982c.095-1.433-.063-3.613 1.082-5.921 1.162-2.292 3.486-5.11 4.41-7.433.938-2.308 2.068-5.093 2.387-8.277m-3.677 45.776a11.835 11.835 0 0 1-.287-2.705c-.016-.78.43-.908 1.258-.908.684 0 .843.319.684.669-.636 1.337-.381 2.626.176 3.804-.764.78-1.656 0-1.83-.86m-5.285-10.568c-.398 1.814-.366 2.594-.287 3.39.223-.27.43-.43.637-.414-.207.557-.255.987-.223 1.433.207-.318.382-.494.685-.59-.096.558-.128.94-.048 1.56.255-.556.493-1.098.78-.89.27.175 0 0 .254.159.24.143-.238.907-.318 1.114-.08.191.287.541.732.652-.413 1.592-.795 2.881-.461 4.298.127.51.334 1.019 1.003 1.385a8.427 8.427 0 0 1-.144-3.04c.08-.637.398-1.242.669-1.815.159-.318.525-.191.7.191.223.541.223 1.735.239 2.324.063 1.974.334 3.024 2.244 3.98.764.365 1.353.158 1.767-.192.286-.239.78-.78.477-1.257-.446-.7-.255-.812.382-.733.78.096 1.369-.381 1.671-1.018.16-.287.207-1.21-.382-1.13-1.56.19-1.623-.605-1.862-1.13-.223-.526-.111-2.42.494-2.467.334-.033.493-.414.365-.892-3.708.033-7.464-1.687-9.374-4.918m4.281-36.879c-.525-1.32-.827-2.005-2.164-2.77-.924-.508-1.576-.62-2.659-.779-1.719-.255-2.594.111-3.215.446-.636.318-1.146.748-1.719 1.957-.445.955-.398 1.815-.366 2.674.223-1.066.59-1.925 1.29-2.626.636-.636 1.384-1.082 1.703-1.178 1.066-.302 1.703-.032 1.703-.032-.764.16-1.258.302-1.799.668-.939.637-1.83 1.862-2.053 2.802 0 0 .86-1.465 2.324-2.117 1.13-.59 2.196-.637 3.12-.478-.287.095-.653.27-1.067.573-.668.494-1.178 1.4-1.687 2.388-.764 1.464-1.337 2.276-1.958 2.849.494-.16 2.133-1.083 2.817-2.085.669-.987 1.258-2.324 1.48-2.579.208-.27.924-.668 1.37-.525.445.127.795.461.811.477.398.446.892 1.321.716 2.834-.286 2.419-1.241 4.392-3.358 7.974-2.021 3.422-3.167 4.711-3.98 6.573-1.145 2.579-.954 5.969 1.784 6.685 1.305.414 3.183-.382 3.183-.382s.541-.413.525.796l.287-4.361s-.478 1.894-2.07 2.006c-1.591.11-2.307-.303-2.467-1.433-.159-1.146.542-3.104 1.099-4.043.54-.923 4.233-7.003 4.377-7.337.143-.318 1.528-2.738 1.862-4.41.334-1.67.62-3.246.111-4.567m-11.03 5.746s.828-.51 1.226-2.515c.413-2.02 2.753-3.215 3.501-3.326-.668.764-1.257 1.687-1.862 2.801-.86 1.576-2.228 2.738-2.865 3.04m12.924-13.768c.111.7.51 1.385.732 1.8.303.572.24 1.83-.159 3.07-.175.542-.732 1.227-.716 1.768-.111-.303.047.223-.239-.971-.318-1.274.334-1.926.43-2.913.063-.7-.096-2.037-.048-2.754m2.165 8.452c-.844-.573-1.242-2.085-.955-2.865.557-1.512.398-1.655.334-3.199 0-.27.048-.907.239-1.337-.016 1.353.923 1.783.923 3.072 0 .557.032 1.432-.287 2.18-.43.987-.35 1.863-.254 2.15m1.528-5.158c-.016.525.78 1.083.843 1.942.048.573-.063 1.05-.19 1.576-.16.636.19 1.018-.128 1.83-.175.43-.35.844-.302 1.464-.223-.302-1.098-1.862-.78-3.135.255-1.019.27-1.64.286-2.77.017-.365.127-.636.27-.907m-5.41-4.998c-.064.764.365 1.194.747 1.942.462.892.494 2.18.033 3.279-.16.414-.398.844-.732 1.305-.557-2.276-1.29-4.552-.048-6.526m9.278 12.574a2.27 2.27 0 0 1-.573-2.18c.303-1.162.24-2.021-.254-2.579-.207-.238-.366-.398-.637-.509.27 1.512.398 2.817-.62 4.09.095-.46-.446-1.368-.366-2.514.063-.971.398-1.974.063-2.42.382.271 1.353.43 1.75.51.924.127 1.163.557 1.481 1.305.111.239.493.493.62.764.176-.43.383-.764.446-.987.128-.366.064-.716-.032-1.114.493.064.732 1.019.923 1.226.191.207.318.365.669.381.143-.413.11-.732.159-1.13.063-.509.27-.923.08-1.496.286.033.588.414.747.764.192.478.128.844.446 1.13.334-.223.51-.605.589-.827.27-.733.446-1.337.493-2.229.382.318.605.334.987.653.478.382.748 1.13 1.083 1.353 1.05.716 2.164 1.273 3.262 1.766 1.401.637 2.722 1.067 4.919 1.56.923.127 1.56.176 2.403-.047.382-.112 1.242-.144 1.432-.144.192 0 .669.127 1.162.255.796.207 1.035 1.066 1.035 1.767-.78.525-1.48.54-2.69.827-.955.223-1.83.318-2.562 1.098-.176.176-.366.478-.7.478.063-.16.047-.334-.08-.525a1.038 1.038 0 0 0-.494-.287c-.302.303-.366.908-.78.764.048-.286-.35-.398-.668-.366-.318.033-.462.35-.812.303.16-.366-.286-.717-.605-.876-.095.08-.461.78-.875.828.191-.446-.239-1.082-.653-1.194-.11.366-.318 1.05-.875 1.194.191-.43.048-1.496-.653-1.592-.032.621-.175 1.003-.636 1.305.207-1.67-1.21-2.196-2.531-2.594-.541-.16-.541-.191-1.066-.382-.271-.11-.573-.207-.955-.19-.096.413.27 1.24.652 1.623-.716-.096-1.178-.382-1.496-.748-.255-.319-.286-.59-.525-1.162-.478 1.21.175 1.575.652 2.324-1.91 0-1.99-2.245-1.99-2.356-.238.27-.333.477-.445.843-.032.446.08 1.115.478 1.544-.287-.032-.892-.398-1.003-.78-.16-.461-.111-.238-.16-.716-.032-.382-.016-1.32-.175-1.703-.143.255-.366.653-.35 1.114.16 1.003-.445 1.305-.27 1.878m49.373-9.406c-.222-.096.144-.541.319-.637.175-.095.811-.127.811-.127s-.175.302-.223.605c-.032.286-.684.255-.907.16m-.063 2.912c-.223-.096.143-.542.318-.637.175-.095.812-.127.812-.127s-.191.302-.223.589c-.033.302-.685.27-.907.175m-1.847.127c-.223-.095.144-.557.319-.653.175-.08.811-.11.811-.11s-.19.286-.223.588c-.032.302-.684.27-.907.175m1.767-1.623c-.223-.096.144-.542.318-.637.176-.095.812-.111.812-.111s-.191.286-.223.589c-.032.302-.684.254-.907.159m-3.995.557c-.223-.096.144-.542.318-.637.176-.095.812-.127.812-.127s-.191.302-.223.605c-.048.286-.684.254-.907.159m2.133-.382c-.223-.096.143-.557.318-.653.175-.095.812-.111.812-.111s-.191.286-.223.589c-.033.302-.684.255-.907.175m-2.18-1.258c-.255-.11.159-.636.365-.748.207-.111.94-.127.94-.127s-.208.334-.255.685c-.033.334-.796.302-1.05.19m2.26-1.878c-.271-.111.159-.636.365-.732.207-.111.94-.143.94-.143s-.208.334-.255.684c-.033.334-.796.302-1.05.191m-.144 1.608c-.254-.111.16-.637.366-.748.207-.112.955-.127.955-.127s-.223.334-.27.684c-.033.334-.78.286-1.05.191m-2.165-1.258c-.255-.11.175-.62.366-.732.207-.111.954-.143.954-.143s-.222.35-.254.684c-.048.35-.796.303-1.067.191"/>
</svg>
