<svg xmlns="http://www.w3.org/2000/svg" width="350" height="229">
  <path fill="#003479" d="M0 0h4.204v228.29H0z"/>
  <path d="m92.362 38.389-.19-.02-.497-1.355c.232-.299.36-.782-.007-1.027-.49-.19-1.864-1.769-2.272-.748-.177.061-1.265.122-1.353.326a12.257 12.257 0 0 1-1.293-2.687c.21-1.136 3.218-2.55 3.218-2.55s-.857-1.225-1.198-1.92c-.15.34-.292.191-.619.348 1.674-2.966 2.028-6.871-.183-9.674-.225-.49-.123-1.13-.347-1.605-.381-.504-.647-1.504-1.327-1.606 0 .884-.095 1.742.334 2.565.455.571-.62 1.054-.953.598.64-.074.748-.204.524-.564-2.762-.62-4.3 1.32-6.932 1.626-.231 0-.436.081-.572.292-1.619 2.184 2.02.694 2.334 2.143-.606.503-.694.17-1.259.027-.823.034-1.612.286-.592.98-.625.98-.591 1.326-1.864 1.408.551.776.436 1.898.579 2.782-.905.17-1.517.606-1.538 1.572-.408.088-.843-.123-1.136.32-.571-.47-1.224-.558-1.905-.572-.326-.245-1.136-.83-2.006-1.272.17-.64.333-1.245.49-1.803.251-.163 1.163-.741 1.4-.89-.122-.246-.605-1.219-.734-1.484 1.626-5.592 2.157-5.905 2.973-6.027l.04-.157-3.006-.966-.055.198c.762.55 1.007 1.469.66 2.537-.802-.347-1.258-1.109-1.177-1.79a3.85 3.85 0 0 1-.197-.054l-1.007 3.34.164.048c.394-.571 1.081-.89 1.884-.762-.932 2.96-5.116 2.034-4.368-.476.531-1.034 1.545-.374 1.062.714 2.347-.823.966-4.204-1.048-2.19.667-1.36 1.04-2.429.211-3.748-1.082.693-1.36 1.952-1.15 3.632-1.326-3.034-3.64.089-1.762 1.674-.34-2.252 2.436-.762.558 1.047-1.789 1.273-3.993-.19-4.061-2.428 1.034.088 1.823.707 1.932 1.476h.19l.13-3.816-.232-.014c-.163.776-1 1.429-2.06 1.449.074-1.177.747-2.095 1.618-2.245v-.218h-4.408v.218c.87.15 1.551 1.068 1.619 2.245-1.061-.02-1.905-.673-2.061-1.449-.02 0-.232.014-.232.014l.13 3.816H59c.109-.769.898-1.38 1.932-1.476-.061 2.238-2.265 3.694-4.061 2.428-1.878-1.816.898-3.299.558-1.047 1.884-1.585-.436-4.701-1.762-1.674.21-1.68-.068-2.932-1.15-3.632-.837 1.313-.456 2.38.211 3.748-2.014-2.014-3.395 1.367-1.048 2.19-.49-1.088.524-1.748 1.062-.714.748 2.517-3.443 3.436-4.368.476.796-.136 1.49.19 1.885.762.013 0 .163-.047.163-.047l-1.007-3.34s-.184.054-.197.054c.088.68-.374 1.442-1.177 1.789-.347-1.075-.102-1.986.66-2.537l-.055-.198-3.007.966.041.157c.823.122 1.354.435 2.973 6.027-.136.272-.612 1.231-.735 1.483.232.15 1.157.735 1.402.891.143.51.285 1.062.442 1.64 0 0 .014 0 .02-.007-.006.02-.013.027-.02.007-4.048 1.891-3.13 3.177-6.245 2.81-.279.646-.538 1.285-1.17 1.72-.116-.986-.558-1.755-1.136-2.449-.286-.333-.68.034-1.11.068-.843 1.844-1.428.177-2.918 1.143.062.858.19 1.715.66 2.504-1.109-.082-2.02-.374-2.755-.898-3.313 3.7-6.769 7.245-9.599 11.313-1.51 2-5.55.837-4.49-1.918.49-2.007 3.388-1.579 3.205.415 1.435-1.592.51-3.184-1.68-2.824 2.013-.87 3.217.776 5.033-1.49-1.387.035-2.557-.408-3.938-.088 1.748-1.048 4.15.51 5.64-2.38-1.3.135-2.477.68-3.824.883 8.075-7.7.306-8.081 1.292-11.408-.632.538-.993 1.075-.7 1.79-1.81-.756-4.49-.531-5.225-2.729-.177 3.13 1.197 2.905 3.558 3.551-1.088-.129-2.17-.136-3.19-.517.21 1.402 1.272 1.701 2.53 1.565-1.224.68-.945 2.429.3 3.027-.796-4.53 5.986-2.973 2.89 1.184-1.435 2.143-3.516 3.735-5.265 5.606-.326-.572-.673-1.143-1.435-1.062 1.333 1.538-.17 3.211-.524 4.796-.517 1.96 1.218 3.626 3.075 3.858-.742.877-.796 1.653-.231 2.374.558-2.878 4.734-2.232 5.129-5.347.068-.368.245-.653.653-.823-1.884 2.129 2.64 6.626-1.605 7.156-.606.02-.755.653-.422 1.109-1.755-.088-2.238.578-2.51 2.231.775-.197 1.496-.387 2.224-.571-.762 2.007-2.496-.116-2.21 3.449.707-.34 1.373-.7 2.026-1.102.626 2-3.183 1.136-.32 4.326.184-.598.946-1.816 1.334-2.088-.354 1.007-.272 2.17.857 2.62.055-.266.102-.504.143-.742h.095c.164.666.184 1.591.83 1.972a.62.62 0 0 1 .402.429c.115.374.462.47.796.517.421.088.53-.388.836-.585.089.53.715.612 1.014 1.061.231-2.598-3.211-1.653-2.422-3.367.306 1.047 1.286.816 1.966 1.245.266.435.912.796 1.238.19.32.238.613.456.891.674-.673-3.089-2.272-1.177-3.278-2.796.7.034 1.449 1.075 2.21.36.409.422.722.912 1.028 1.408.122-.986-.245-1.741-1.02-2.285-.878-.538-2.062.415-2.81-.653-1.02-1.266-.994-3.034-.463-4.497.49-1.123 1.85-1.544 2.476-2.606-.177.94-.088 2.579.98 2.878-.259-1.748.98-3.32 1.231-5.007.327-.428.34-.762.048-1.218-.53-.864-.674-1.911-1.259-2.768-.904-1.272-2.02-1.306-.177-2.647-1.122 1.742-.204 1.11.762 2.749.177-.551 1.007-1.272-.027-1.272-1.633-.803 2.123-2.878 2.966-2.932.837-.068 2.007.027 2.64-.796-.395-.755-.783-.858-.11-1.64-.455-.265-.856-.585-.938-1.184-.435.15-.816.286-1.265.443.408-.463 1.619-1.402 1.748-.36.027.584.606.686 1.055.836-.327.476-.878.959-.375 1.517.347.367.565 1.054 1.102 1.143.143-.544.286-1.061.429-1.599 1.184 1.245-1.19 1.939 2.068 3.055-.116-.674-.224-1.32-.136-2.02 1.571 1.312-.673 2.135 2.939 2.564-.402-.476-.497-1.007-.646-1.544.605.102 1.088.673 1.483 1.108.374.565.646.878 1.496.327.041.102.048.238.123.292.38.293.231.647.217 1.028h.102c.504-.51.538-1.089.381-1.728-.347-1.198-1.81-.245-2.326-1.47.687.47 1.374.742 2.136.354.422.401.599.694.81 1.259.346-1.293-.055-2.606-1.416-2.218-.421.15-.598.116-1.027-.252.633.218 1.048-.102 1.456-.394.088.115.136.238.197.245.381.02.633.251.871.537.13-1.102-.973-1.993-2.075-1.714-.272 1.353-1.415.585-2.313.408-1.401-.817-2.136-2.388-3.374-3.408.122-1.517-1.143-2.728-2.66-2.64 1.367-.599 2.993.578 3.102 2.007.055.585.408.952.776 1.388 4.626-9.307 19.565-11.735 28.136-5.83.728.666 1.524 1.217 2.28 1.918.292-.891.122-1.946 1.448-1.408l.245-.17c-.272-.749.293-1.599 1.082-1.653v.585a.674.674 0 0 0-.558.748c.265-.054.503.293.36.517.245.143.6.082.79-.116.217.014.442.034.66.055-.3.714-1.347.96-1.94.435.116.157-.394 1.742-.414 1.925a.503.503 0 0 1-.504.375c.096.156.17.285.259.421.374-.21.898-.197.85-.728.068-.299-.122-1.687.306-1.564.177.524-.156 1.136.238 1.66 1.239-.306.694-1.429 2.198-1.721.598-.055 1.85-.34 2.177.251-1.313-.353-3.007.007-3.293 1.504-1.367.32-2.51 1.292-3.96 1.292-1.156.062-1.462 1.45-1.51 2.402-.19 1.088-.251 2.217-.734 3.231-.238.388-.04.83.095 1.19.442.232.755 1.77.823 2.314 0 1 1.715 1.333 2.409 1.959.197-1.252-2.177-.898-1.844-2.647.422 1.157 1.34 1.395 2.354 1.966-.313-1.17-.408-3.122-2.048-2.877-.633-.878.293-.925 0-1.973.47.15.694.313.816.599a15.3 15.3 0 0 0-.476-.15c.055.742.694.918 1.19 1.429-.08-1.218-.19-1.98-1.319-2.572-.64-.585.095-1.939.054-2.748-.02-.238 1.51-1 1.749-.932 1.136.15 2.326-.034 3.428.251 1.096.347.157-2.034 1.926-.782-1.286-.38-.504 1.02-1.429 1.095-.646.007-1.197-.054-1.87-.074 2.326 5.183 7.496 3.666 8.91 8.285 1.191-1.047.382-1.034.049-2.129 2.687 1.79-2.497 3.864-.552 7-.122-.353 1.096-1.823 1.232-2.122.224-.327.598-.354.843-.109l.388-.803c-.721-.394.585-2.088.68-2.571.136-.293.443-.429.687-.306l.361-1.007c-.68-.184-.17-1.844-.224-2.3-.96-.864-1.749-1.952-2.49-2.959l.462-.075a.567.567 0 0 0 .225.606c.333.13 1.592 1.347 1.986 1.061l.198.537c-.32.089-.375.538-.381.837.17.143.353.28.517.429.02-.109 0-.599.102-.674a.39.39 0 0 0 .585.041c.156.082-.041 1.15-.02 1.286.183.204.36.408.53.626-.068-.49.537-2.374-.3-2.463zM78.838 20.905c.177-.02.32-.034.517-.054-.34-.245-.007-.585.272-.347.674.524-.673 1.374-.789.401zM51.94 25.803l-1.415-.898.748-1.51 2.041.728zm4.619-1.17c-2.218.45-2.687-1.986-.463-2.394 2.218-.45 2.687 1.986.463 2.394zm5.007-.19-2.184-1.538 2.184-1.544 2.184 1.537zm6.952-.674c-.258 1.558-3.755.885-3.415-.66.259-1.558 3.755-.884 3.415.66zm1.306.354 2.041-.728.749 1.51-1.415.898zm16.81-7.157c.402.443.579.926.579 1.477-.388-.137-.558-.558-.579-1.477zm-1.836 2.885c-.538.367-1.028.911-1.572.177l-.36.074c.816-1.265.748-1.047 1.938-.251zm-4.51 4.585c.36.13.7.32 1.067-.041-.347 0-.455-.245-.558-.483-.17-1.19 1.776-.769 2.504-.687 1.823 1.109 4.932.401 3.85-2.238.844.524.551 1.966-.088 2.53-1.687.912-3.286.225-4.973 2.014-.258-.816-1.224-.769-1.571.13-.32.02-.402.013-.708.033-.054-.476.327-.816.483-1.258zm6.367 7.816-.232.293c-1.4-1.606-6.143-3.442-8.183-3.143 0 0 .027-.238.04-.367h-.013l.775-.49-.666-.551c0-.075-.429-2.776-.429-2.776l1.17-.034s-.422.49-.435.878a.52.52 0 0 1 .163.197c.238-.102.49-.585.49-.585l.109 1.592s-.327-.456-.565-.544a.325.325 0 0 1-.088.156c.34 1.055 1.884 1.123 1.884.218-.054-.47-.571-.395-.544.102-.844-.674.3-1.742.769-.667-.062-.619-.007-.973.476-1.279.32.402.272.783-.068 1.388 1.04-.966 1.435.673.462.912.476-.858-.89-.592-.387.312.462.701 1.578.6 1.966-.163a.646.646 0 0 1-.062-.143c-.387-.074-.972.259-.972.259l.544-1.47s.224.626.55.824a.537.537 0 0 1 .212-.116c.06-.388-.327-.993-.327-.993l1.803.694s-.714.183-.939.503a.387.387 0 0 1 .075.225c.374.074.986-.232.986-.232l-.646 1.429s-.19-.626-.524-.83a.395.395 0 0 1-.143.068c-.258.83.497 1.633 1.313 1.429.994-.307.204-1.436-.06-.483-.538-.83.91-1.749.979-.354.177-.667.415-.973.925-1.055.136.545-.075.837-.558 1.245 1.116-.47 1.163 1.075.089.993.374-.346.047-.741-.32-.435-.646.674.558 1.633 1.503 1.157 0-.062.014-.116.041-.17-.231-.164-.79-.184-.79-.184l1.157-.857s-.136.517-.027.789c.082-.014.17 0 .252.027.245-.252.265-.918.265-.918l.864 1.074s-2.163 1-2.544 1.286l-.599-.061.3.844h-.02zm4.66 4.402a.381.381 0 0 0-.408.503.143.143 0 0 1-.075-.027l-1.266-.864c-.081-.054-.108-.17-.06-.265.237-.007.496-.136.462-.422.095.122 1.462.85 1.347 1.068z"/>
  <path d="M76.022 30.497c-.095-.115-.123-.279-.034-.401-.157-.034-.408 1.394-.463 1.476.102.102.198.197.28.3.135.04.36.115.407-.082l.327-1.259c-.15.136-.395.15-.517-.034zM56.967 66.15c-3.578-1.414-6.184 2.055-3.258 2.64-3.211.143-2.592-4.374-3.912-4.108 1.163 1.251 1.156 3.578 2.231 4.224 2.157.918 4.395 1.068 6.708.96-1.163-1.035-1.45-2.334-1.762-3.715zM67.9 68.736c2.918-.578.333-4.054-3.26-2.633-.319 1.381-.598 2.68-1.761 3.715 2.306.109 4.55-.041 6.707-.96 1.068-.646 1.068-2.972 2.232-4.224-1.327-.265-.708 4.245-3.912 4.109zM91.376 40.735c0 .069.02.137.061.177.163-.136.422-.081.538.082.183-.054.122-.633.163-.769a7.631 7.631 0 0 0-.674-.653l-.095 1.163zM90.471 45.028c.02-.163.919-1.66.687-1.79a.388.388 0 0 1-.422-.21c-.217-.088-.789 1.537-.89 1.64.285-.177.652.115.55.449a.29.29 0 0 0 .075-.082z"/>
  <path d="M100.71 38.15c-.749.225-1.062.85-1.34 1.558-1.885-2.939-5.463-4.966-6.008-8.558.422-2.87 4.225-2.217 3.456.776 1.973-1.061 1.02-3.034-.837-3.388 2.02.163 3.13 1.87 4.51-.973-1.197.436-3.013.13-3.646.034 2.517-.34 3.885-.32 3.81-3.442-.857 1.87-3.231 1.905-4.952 2.51.108-.83-.15-1.34-.817-1.612.68 4.565-7.973 3.075 1.538 12.932-1.17-.64-2.524-.428-3.653-1.143.877 2.374 2.367 1.966 4.313 2.79-2.089-.014-2.735 2.027-1.191 3.006-.401-1.571 1.755-2.66 2.837-1.428 2.47 3.17-2.048 7.578-6.062-.374.028.442-.278.836-.707.7l-.449 1.259c.918.34-.49 2.115-.585 2.626-.157.34-.517.442-.782.258l-.443.919c.558.51-.938 1.952-1.108 2.4-.177.26-.483.348-.701.212l-.163.333c.034.041.054.068.06.068 1.014 1.198 1.477 2.123 1.205 3.402.823-.708 1.19-2.66.53-3.728.742.775 1.824 1.333 2.252 2.326.429 1.803.102 3.592-1.122 5.014-.517.524-.381.796-.45 1.435-.346 1.014-1.564 1.102-2.02 1.96-.32.755-.85 1.374-1.081 2.163 1.38-.218 1.143-2.143 2.449-2.53-.53.809-1.041 1.543-1.408 2.475 1.088-.285 3.15-.578 2.802-2.115-.258-.708.429-1.177.395-1.857.864-.313.667-.66 1.075-1.334.19.408.204.749.177 1.198-.11-.225-.17-.361-.252-.517-.612.83-.102 1.632-.184 2.523 3.014-2.7-.986-2.68 2.136-8.653.721-1.19-2.047-1.054-2.251-3.748-.19-1.164.83-2.116 1.047-3.225 1.204 2.143 5.409 2.068 4.837 4.803.844-.64.81-1.81.476-2.687 4.34-1.565.912-5.551 2.313-8.381z"/>
  <path d="M87.798 48.43a.37.37 0 0 1 .217.21c.068.014.15-.027.198-.095.034-.102 1.102-1.503.98-1.599-.123-.04-.225-.115-.266-.244-.102-.096-.252-.143-.347 0-.04.176-1.231 1.523-.925 1.693a.3.3 0 0 1 .15.035zM87.172 48.708s.034.062.054.089l.02-.04-.074-.055zM45.191 54.783c.436.082.919.164 1.34-.027-.653-1.115-1.299-2.21-1.966-3.354-1.163 1.436-3.19.558-4.462-.32-1.034-.761 1.197-1.952.483-4.496.993 1.605-.81 2.993 1.98 3.891-.81-1.204-.701-2.748-1-4.122-.035-.238-.15-.477.04-.715.095-.326.116-.775-.333-.823-3.123-1.789-2.49-.918-5.53-1.34-.742 1.32.836 2.49.591 3.782-.224.633.735.606.721 1.218.211.96.109 2.306-.986 2.674-.544.326-.11 1.02.367 1.183-.966 1.742-.224 2.02 1.252 2.898.007-.673.02-1.258.3-1.83 2.04 1.354-1 1.585 3.047 3.225-.408-.68-.402-1.415-.463-2.095l1.136.265c.436 1.87 1.45 2.034 3.238 1.87-.639-.632-.823-1.462-1.285-2.122.537.184 1.075-.183 1.537.232zM81.634 44.355c-.558.088-.68.32-.578.864-.62 1.333-.633 2.952-1.687 4.074 2.265-.639 1.769-1.496 2.32-3.224-.116 2.34.006 2.306.857 3.905-1.749 1.231-4.606.197-5.565 2.585.265.306.612 0 .966.081-.231.28-.32.6-.687.844.082-.231.13-.374.177-.517-.653-.218-1.19 1.279-1.68 1.762 4.666-.939-.565-2.313 8.64-3.381 1.625-.769-1.538-1.966 1.652-3.987.286-1.102.456-2.244 1.055-3.238.143-.326-.082-.789-.381-1.02-1.402.986-2.061-.606-5.089 1.258zM34.49 25.157l.062-.939-1.034-.177c.421-.32.938-.394 1.353-.238-.353 1.51.28 2.572 1.892 2.653.49-.734.932-.843 1.415-.326-2.13-.218-.551 2.027.537 1.265.293-.415 1.204-.782.939-1.374-1.687-1.231-1.572.585-1.885-2.463-.068 0-.15-.013-.217-.02-.157.578-.728 1.027-1.19.483-.164-.184-.3-.354-.565-.395 1.156-.925 2.53.408 2.449-1.762 1.285 1.613 1.401-.177 2.673-.204-.061 1.28-.32 1.184-1.422 1.11.36.271 1.735 1.645.932 1.775-.333-.857-.898-1.694-1.843-1.864-.769.768-.395 1.626-.272 2.51.68-.231 1.265-.674 1.986-.62.238.708-.891 1.096-.252 1.797 1.096.177 2.293.184 1.94-1.368-.361-.21-.715-.36-1.082.034.02-.605.612-.707 1.068-.591 1.013-1.082.673-2.504-.415-3.375.285-.421.591-.714 1.115-.823-.177.368-.544.497-.632.83.245.3.469.578.694.85.585-.258.734-1.176.32-2.108-.722.183-1.987.782-1.987.782-.62-.238-.354.068-.265.367-1.987.368-3.933.885-5.504 2.198-.279.204-.415.081-.503-.32-.19-.286-.273.21-.3.333 0 0-1.19.293-1.714.735.367.605.884 1.558 1.707 1.238z"/>
  <path d="M42.273 24.558c.184.898-.075 1.647-.66 2.354.884 1.578 2.374 2.776 3.034 4.483 1.476-2.755-.102-3.673-2.13-5.184 1.3.47 2.613.912 3.334 2.15.157-2.36-.89-3.537-3.184-3.905.007-.034.014-.061.02-.095.953-.048 1.906-.04 2.797.544-.238-.734-.83-1.816-1.694-1.72.313-.647.306-1.083-.007-1.47-.15.455-.435.734-.905.755.102.816-.17 1.496-.612 2.102zM34.98 29.933c.272.66.68 1.421 1.347 1.7-.347-1.3.53-2.435.939-3.612.007 2.707-1.53 4.177 2.184 5.177-.993-1.599-.334-3.53-.96-5.17-.598-.34-1.272-.429-1.673-.932-.109-.238-.313-.32-.53-.368-.701-.15-1.34-.38-1.694-.966-.51.164-.824.143-1.286-.054-.041.578.449 1.163 1.102.939-.517.762-.231 1.435-.041 2.218.374-.783.939-1.252 1.578-1.647-.49.83-1.353 1.667-.959 2.708zM49.913 57.613c.503-.469-.184-.741-.45-1.102-4.483-4.177-6.156-9.599-5.761-15.626-.11-.054-.245-.122-.47-.231-.755 6.388 1.714 12.837 6.68 16.96zM89.96 22.885c-.428.823.804 1.163.824 1.939-.326-.259-.605-.477-.912-.728-.387 1.524 1.409 2.013 1.96 3.21.72-2.217.333-3.564-1.864-4.421zM40.674 29.436c-1.19.075-1.013-1.422-1.36-2.259-.218.245-.395.45-.585.667.245.83.49 1.66.755 2.544.197-.143.36-.258.537-.387.83.585 1.585.183 1.864-.735.245.061.47.17.646-.014l-1.142-2.367c-.239.047-.463-.286-.749-.02.266.741 1.245 2.217.041 2.564zM89.73 19.164l-.02.102-1.137-.062c.415 1.347 1.98.694 2.96 1.307-.565-1.075-.973-2.13-2.28-2.34.143-.64-.034-1.246-.428-1.484 0 .565-.225.973-.742 1.184-.251 1.116.905 1.055 1.647 1.293zM89.39 26.905l-.096.02c-.272 1.184.558 2.232 1.075 3.239.898-1.592.857-3.402-.571-4.667-.436.844.17 1.653.387 2.456-.027.014-.06.02-.088.034-.238-.36-.47-.721-.708-1.082zM89.063 20.211c.51 1.218 1.333.925 1.864 1.728-.45-.15-.837-.279-1.231-.401-.028 1.3 1.605 1.435 2.51 1.932-.143-2.102-1.163-2.898-3.15-3.259zM84.349 18.007c.557 0 1.36.36 1.823.034.013-1.775-2.15-1.537-3.381-1.578.367.667.836 1.32 1.558 1.537zM78.206 43.273c-.463-.034-.898-.068-1.395-.109.02.245.034.435.048.633.279.068.517.129.775.19.075 1.463-.728 1.483-1.816.871-.32 1.85 2.66 1.667 2.388-1.585zM77.172 37.368c-1.647 2.014-1.66 2.306.85 3.177-.02-.231-.04-.374-.054-.551-.49-.143-.973-.327-1.409-.626.32-.394.613-.755.919-1.136-.089-.258-.184-.524-.3-.87zM69.498 30.021c.272-.02.517-.04.755-.061.265-.987-.292-1.095-.966-1.62-.272.817-.993 1.212-1.401 1.905.66-.047 1.04-.258 1.421-.775.069.197.13.374.19.551zM73.287 34.484c.238-.647 1.476-2.245.81-2.742-.306.184-.953.102-.891.592v2.13a.633.633 0 0 1 .088.026zM85.614 16.34c.027-.034.054-.074.075-.108-.694-.994-.993-1.198-2.225-1.204.02 1.204 1.266 1.204 2.15 1.312zM82.471 13.36c-.048.851.667 1.341 1.844 1.28-.307-.857-.919-1.327-1.844-1.28zM79.709 22.198c-.966-.45-1.748.122-2.714-.089.272 1.34 1.87.368 2.714.089zM81.539 12.007c.252.857.585 1.04 1.463.912-.28-.701-.735-.987-1.463-.912ZM82.015 11.565c-.34-.728-.517-.823-1.238-.748.3.72.728.993 1.238.748zM77.614 35.293c.231.395.456.783.68 1.163.884 0 .136-.741-.068-1.054-.116-.122-.36-.122-.551-.177-.02.027-.04.048-.054.075zM75.063 36.32c.449-.258.918-.462 1.326-.789-.095-.136-.163-.238-.272-.387-.388.38-1.306.503-1.054 1.17zM80.94 10.381c.13-.462-.537-1.081-1.006-.891.06.51.598.96 1.006.891zM70.804 36.123h.007l-.007-.007zM36.51 18.306c.246-.23-.122-.605-.36-.367-.245.231.123.606.36.367zM36.837 18.987c.245-.232-.122-.606-.36-.368-.245.232.122.606.36.368z"/>
  <path d="m35.144 15.932-.586.048.307.769.415-.483s.047.027.074.034l.062 1.027c.102.898 1.47.347.925-.374l-.66-.783a.251.251 0 0 0 .034-.074l.626.068-.306-.77-.456.375s-.048-.027-.075-.034l-.054-.742c-.19.075-.565.225-.749.3l.47.578s-.027.048-.034.075zM33.47 19.946c.381.014.388-.585.007-.585-.374-.007-.381.585-.007.585zM33.409 20.701c.38.014.388-.585.007-.585-.375-.007-.381.585-.007.585zM34.62 18.11c.38.013.387-.586.007-.586-.375-.007-.381.585-.007.585zM33.708 19.252c.381.014.388-.585.007-.585-.374-.007-.381.585-.007.585zM37.246 19.98c-.02-.293.19-.864.19-.864-.292.116-.898.354-1.19.476 0 0 .55.272.734.497-.251.088-.496.13-.843-.027l.462.925c.102-.408.313-.653.47-.68.503.768-.749 1.619-1.286.959-.156-.272.027-.572.347-.347-.048-.572-.544-.572-.694-.143.014-.585-.136-.939-.748-1.116-.157.585.034.939.619 1.19-.334-.04-.694.286-.238.695 0-.368.313-.409.476-.164.265.68-.538.946-1.197.252.15-.054.299-.034.51.014l-.626-.796c.034.279.014.483-.048.605-.136-.156-.177-.292-.238-.598l-.476.421c.456.286.973.742 1.599 1.64.836-.817 4.197-2.225 5.496-2.184-.156-1.088-.095-1.769.041-2.292l-.64.02c.17.258.232.388.239.599-.13-.055-.28-.184-.45-.409l.09 1.007c.122-.177.217-.3.36-.36 0 .959-.769 1.32-1.041.64-.048-.3.204-.477.456-.212.047-.612-.442-.598-.653-.34.251-.585.15-.973-.368-1.292-.326.55-.19.904.218 1.326-.401-.204-.762.136-.401.578.075-.387.415-.299.49.014.06.85-1.43 1.088-1.592.184.136-.089.455-.055.81.17l-.3-.987c-.143.354-.347.49-.592.599zM53.001 51.246c.449.258.952.55 1.408.81-1.122 1.367.891 1.959.783.625.755.32 3.714 1.232 2.53-.537-3.884.13-5.87-3.953-3.72-7.068 1.305.598 5.897-1.64 5.516.64.238.25.313.278.857.271 1.327-3.054-3.245-2.143-4.89-1.782-1.464.435-2.81-1.708-4.103-.537-.517.455-.177 1.469.517 1.503.619.02.796-.837.245-1.102 1.204-.408.626 1.53.19 2.027-1.38-.714-1.612 1.517-.245.932.062.401.082.79-.013 1.177-1.497-.32-1.095 1.823.02.96.32.305.47.782.51 1.237-1.496.211-.299 2.136.395.85z"/>
  <path d="m57.341 53.58-.21-.069c-.103.28-.266.796-.014.973l1.258.537 1.62-1.197.435-6.49-.476.034c-.13.014-1.007 7.497-1.47 7.062.095-.497 1.17-7.055 1.17-7.055s-.32-.048-.476-.068l-.061.347-1.783-2.347-.238.109 1.912 2.51-.123.442c-.176-.115-2.02-2.673-2.204-2.911l-.374-.028 2.483 3.245-.129.436-2.79-3.66h-.353l3.014 3.973-.157.571-3.313-4.503-.435.013 3.667 4.837-.136.45-4.041-5.287-.068.408s3.762 4.953 3.993 5.273c-.19.612-.048.66.218 1.163.142.565-.245 1.442-.912 1.238z"/>
  <path d="m57.722 51.518-3.87-5.13s-.075.246-.11.348c.286.374 3.708 4.918 3.708 4.918l.272-.13zM53.845 48.117a255.653 255.653 0 0 1 2.64 3.435c.128.014.373.068.373.068l-3.156-4.19s-.055.428.143.687zM60.593 46.205c-.429-.034-.884-.122-1.3-.163-.816.707.103 1.115.708 1.061.524.136 1.218-.551.592-.898zM60.464 64.518c-.13.579.782.769.898.184.129-.578-.783-.769-.898-.184zM61.28 61.042c.157-.721-.973-.946-1.109-.224-.156.72.973.945 1.11.224zM57.416 59.124c.157-.722-.973-.946-1.109-.225-.156.721.973.946 1.11.225zM63.634 66.158c-.456 2.592-1.694 3.762-2.796 3.762-1.102 0-2.333-1.17-2.796-3.762.143.129.272.3.435.503l.238.313.334-.21a2.39 2.39 0 0 1 .415-.212c-.15.3-.198.653-.13 1.02.143.776.762 1.32 1.504 1.327.735 0 1.354-.55 1.497-1.326.068-.368.02-.721-.13-1.02.13.054.272.122.415.21l.334.211.238-.313c.156-.204.292-.374.435-.503m.544-.708c-.646.068-.98.504-1.32.946-.299-.19-.7-.374-1.067-.374a.855.855 0 0 0-.558.19c1.183.47.755 2.245-.388 2.252-1.15 0-1.572-1.79-.388-2.252a.855.855 0 0 0-.558-.19c-.374 0-.768.183-1.068.374-.34-.45-.673-.885-1.32-.946.354 3.266 1.844 4.898 3.334 4.898s2.98-1.632 3.333-4.898zM53.518 56.885c.49-.591-1.238-1.367-1.49-1.7-.204-.123-.462-.095-.598.081-.497.565 1.21 1.354 1.442 1.667.21.163.503.136.646-.054z"/>
  <path d="M53.294 58.15c1.911.008 1.666-3.026-.218-2.7.87.47 1.633 1.721.272 2.089-.51.102-1.034-.45-1.415-.722.014.742.619 1.334 1.36 1.334z"/>
  <path d="M50.58 58.654c.421.803 2.877 2.973 3.55 1.946-1.204-.606-3.238-2.11-2.456-4.014-1.761-1.082-.204-2.816 1.17-1.347 1.463-.905 3.096-.258 4.538.748.517-1.122-2-1.898-2.592-2.23-.741-.253-3.082.278-3.864.312a.995.995 0 0 0-.864 1.075c.116.571.102 3.04.517 3.497zM72.246 15.823l1.089.347c-1.721-3.626-4.871-6.34-8.66-7.32a8.098 8.098 0 0 0-.252.81c3.333.837 6.143 3.102 7.823 6.163zM49.797 16.17l1.088-.347c1.687-3.054 4.497-5.326 7.824-6.163a10.372 10.372 0 0 0-.252-.81c-3.79.973-6.939 3.694-8.66 7.32zM69.756 10.306c.776.014.776-1.21 0-1.197-.775-.014-.775 1.21 0 1.197zM67.008 8.742c.776.013.776-1.211 0-1.198-.775-.013-.775 1.211 0 1.198zM65.518 8.197c.776.014.776-1.21 0-1.197-.775-.013-.775 1.211 0 1.197zM68.43 9.45c.775.013.775-1.212 0-1.198-.776-.014-.776 1.21 0 1.197zM70.988 11.306c.775.014.775-1.21 0-1.197-.776-.014-.776 1.21 0 1.197zM74.097 15.81c-.014.775 1.21.775 1.197 0 .014-.776-1.21-.776-1.197 0zM73.376 14.402c-.014.775 1.21.775 1.197 0 .013-.776-1.211-.776-1.197 0zM72.11 12.429c.776.013.776-1.211 0-1.197-.775-.014-.775 1.21 0 1.197zM72.505 13.061c-.014.776 1.21.776 1.197 0 .014-.775-1.21-.775-1.197 0zM53.375 10.306c.776.014.776-1.21 0-1.197-.775-.014-.775 1.21 0 1.197zM52.144 11.306c.775.014.775-1.21 0-1.197-.776-.014-.776 1.21 0 1.197zM48.436 16.408c.776.014.776-1.21 0-1.197-.775-.013-.775 1.211 0 1.197zM54.709 9.45c.775.013.775-1.212 0-1.198-.776-.014-.776 1.21 0 1.197zM50.028 13.667c.776.014.776-1.211 0-1.197-.775-.014-.775 1.21 0 1.197zM49.164 15c.776.014.776-1.21 0-1.197-.775-.014-.775 1.21 0 1.197zM57.613 8.197c.776.014.776-1.21 0-1.197-.775-.013-.775 1.211 0 1.197zM51.028 12.429c.776.013.776-1.211 0-1.197-.775-.014-.775 1.21 0 1.197zM56.124 8.742c.775.013.775-1.211 0-1.198-.776-.013-.776 1.211 0 1.198zM62.6 14.306h.796c0-2.53.367-4.714 1.027-6.163.225-.47-.517-.81-.728-.333-.952 2.088-1.095 4.959-1.095 6.496zM59.736 14.306h.796c0-1.537-.143-4.408-1.095-6.496-.211-.477-.946-.136-.728.333.66 1.449 1.027 3.633 1.027 6.163zM61.566 14.3c.843.013.843-1.313 0-1.3-.844-.013-.844 1.313 0 1.3zM61.566 12.674c.843.013.843-1.313 0-1.3-.844-.013-.844 1.313 0 1.3zM61.566 11.041c.843.014.843-1.313 0-1.3-.844-.013-.844 1.314 0 1.3zM61.11 9.456c.272-.143.646-.143.918 0 .932-1.435-1.85-1.435-.918 0z"/>
  <path d="M62.083 8.089c.72-1.347-1.755-1.347-1.034 0a1.04 1.04 0 0 1 1.034 0z"/>
  <path d="M61.178 2.626c-.109.83-.537 1.47-1.082 1.571v.211h1.055a.582.582 0 0 0-.13.13c-1.877.421-2.067 3.285-.278 3.959-.701-.674-.164-1.98.823-1.946.986-.034 1.53 1.265.823 1.946 1.796-.674 1.599-3.538-.279-3.96-.04-.047-.082-.095-.13-.129h1.055v-.21c-.537-.103-.973-.742-1.081-1.572.83.109 1.469.537 1.571 1.082h.21V.762h-.21c-.102.537-.741.973-1.571 1.082.108-.83.537-1.47 1.081-1.572v-.21H60.09v.21c.537.102.972.742 1.081 1.572-.83-.11-1.47-.538-1.571-1.082h-.211v2.946h.21c.103-.538.742-.973 1.572-1.082zM87.165 48.702c-.068-.116-.13-.225-.19-.334a.449.449 0 0 0 .183.334zM86.668 49.953c-.83-.523-1.292 1.783-1.605 2.177-.15.34-.014.701.292.81l-.612 1.272c-.333-.054-.619.197-.619.578.123.497-.367 2.653.51 2.68v.6c-2.115.38-1.802 3.707.374 3.66 2.164.054 2.497-3.246.402-3.654v-.578c.326.054.619-.198.619-.579-.116-.483.333-2.557-.442-2.666l.47-.973c.795.429 1.258-1.816 1.557-2.197.143-.313.034-.674-.245-.79l.354-.734a8.59 8.59 0 0 1-.497-.755Zm-.387 9.926c-.517 2.966-4.327.027-1.6-1.225.123.286.559.3.688.007.524.156.912.64.912 1.218zm-.871-3.041c.054-.429-.497-.66-.714-.3.054-.163-.15-1.775.15-1.775.128.088.292.109.428.014.088.013.163.108.163.217v1.742c0 .04-.007.068-.02.102zm1.605-5.871c-.088.102-.68 1.79-.877 1.721-.082-.136-.266-.224-.422-.177-.088-.047-.122-.17-.075-.279.116-.115.66-1.836.919-1.714a.381.381 0 0 0 .435.218c.048.06.054.15.02.231zM44.287 46.219l.183.72 3.306-.407-.163-.654c-.17-.034-2.224.347-2.224.347s1.959-2.285 1.904-2.557l-3.333.374.068.571c.163-.02 1.96-.272 1.96-.272s-1.633 1.837-1.708 1.87zM45.463 50.457c1.6 1.53 4.11-.919 2.456-2.49-1.598-1.544-4.15.918-2.456 2.49zm.19-1.708c.702-1.272 3.035-.51 2.069.932-.728 1.232-3.014.538-2.068-.932zM47.688 54.062l.558.769c.592-.728 1.81-1.612 2.687-1.946l-.558-.768c-.218.353-.694.7-1.061.959l-.857-1.184c.36-.272.836-.612 1.245-.707l-.558-.77c-.592.729-1.81 1.613-2.687 1.947l.558.768c.217-.353.687-.694 1.054-.952l.857 1.184c-.36.272-.837.612-1.238.707zM47.368 42.538l.048-.707c-.946.177-2.47.177-3.408-.007l-.048.707c.946-.176 2.463-.176 3.408.007zM71.355 56.81c2.02-.884 1.572-2.89-.714-1.972-.96-.272.252-1.245.884-1.027l.014-.014-.483-.565c-.721.313-1.864 1.28-1.252 2.102.422.538 1.272-.034 1.83-.027.925.17-.068 1.13-.64 1.075v.014M76.9 49.797l.57-1.946c-.292.02-2.918-.741-3.149-.918l-.544 1.85.544.463h.007c-.04-.436.014-.912.17-1.442l.993.292c-.102.293-.272.946-.408 1.123l.497.074.32-1.074.952.279c-.116.353-.272.639-.47.836l.51.47zM75.573 52.389l.306-.606-2.592-1.734-.286.544c.096.13 1.79 1.122 1.79 1.122s-2.783.368-2.919.579l2.592 1.775.3-.435c-.13-.082-1.552-1.007-1.552-1.007s2.28-.259 2.354-.238zM68.416 58.736l1.803-1.041c-.231-.177-1.633-2.47-1.687-2.748l-1.708.986.075.7h.014c.272-.333.653-.646 1.143-.931l.53.87c-.279.143-.87.51-1.095.545l.313.38 1-.578.51.83c-.333.184-.653.286-.945.3l.047.68zM48.314 35.96c-.538-.422-1.231.333-1.776.456-.938.054-.197-1.116.374-1.198v-.013l-.449-.334c-.85.429-1.496 2.273-.122 2.313.293.014 1.034-.503 1.279-.557.646-.123.442.741.054.952.19-.007.395-.034.579.014.36-.504.585-1.239.068-1.633zM48.98 34.973c-1.503-.095-1.816-2.693 0-2.306v-.632c-2.353-.143-2.32 3.598 0 3.517v-.585zM52.715 30.375h1.041c-.394-.62-.707-1.13-.707-1.13.36-.21 1.129-.517 1.47-.496l-.817-.62-2.51 1.497.285.966h.014c.204-.394.51-.714.843-.904.075.136.211.387.381.687zM60.042 29.94v.013c-.497.401-1.13.238-1.667-.048-1.558.878-3.245-1.177-1.993-2.496 1.32-1.572 3.932.21 2.674 1.945.415.313.741.51.993.585zm-1.912-.504c1.259-.49.17-2.429-.945-1.973-1.245.476-.17 2.436.945 1.973zM60.511 28.545c-.013-.538.068-1.49-.163-1.953h1.116c-.177.504-.504 2.803.449 2.687.374 0 .748-.251.741-.646-.013-.55.075-1.564-.163-2.04h1.116c-.259.863-.259 2.38 0 3.244h-.946c.02-.068.034-.17.034-.32-.966.688-2.265.348-2.177-.972zM65.233 30.15c.197-.802.476-2.163.918-2.837l-.864-.292c.007.857-.449 2.197-.742 3.02q.334.041.688.11zM70.518 40.974h.558v-8.79h-8.122v8.79h7.571zm-3.102-.259zm-.816 0zm4.197-4.517zm-3.394-3.755zm-4.177 4.524v.088c.013-.163.279-.047.15.068l.04.041c.266.034.306-.367.034-.388l.327-.15v-.095l-.327-.143c.272-.027.232-.428-.034-.394l-.04.04c.135.116-.137.232-.15.069v.102-3.497h.279v-.258h3.006c.17.027.028.258-.081.136l-.041.04c-.034.266.415.28.415.02l.156.32h.103l.156-.32c0 .266.442.246.415-.02l-.04-.04c-.11.122-.253-.11-.082-.136h3.013v.258h.28c-.035-.061.108 4.286-.144 3.327l-.04-.041c-.266-.034-.307.374-.035.388l-.326.15v.095l.326.142c-.272.02-.23.429.034.395l.041-.04c.252-.987.116 3.455.143 3.333h-.279v.258h-3.007c-.17-.027-.034-.258.075-.136l.041-.04c.034-.26-.401-.287-.415-.028h-.007l-.15-.313h-.102l-.15.313c-.013-.259-.441-.231-.407.027l.04.041c.116-.122.252.116.075.136h-3.007v-.258h-.278v-3.483z"/>
  <path d="M72.274 41.314c0-.184-.198-.32-.375-.259v.041c-.32 1.449-.163-4.517-.19-4.3l.292.123v-.694l-.292.123v-4.395c.04-.218.388-.034.197.109v.04c.408.13.524-.516.089-.523l.272-.47-.062-.06s-.483.265-.49.265c0-.402-.686-.307-.557.088h.04c.144-.177.354.136.123.184h-4.054l.122-.272h-.735l.13.272h-4.055c-.245-.034-.04-.36.109-.184h.04c.137-.388-.55-.49-.557-.088 0 0-.483-.266-.49-.266l-.068.061.272.47c-.435.007-.313.653.089.524v-.041c.32-1.45.163 4.49.19 4.286l-.286-.116v.694l.286-.116c-.027-.102.123 5.708-.19 4.293v-.041c-.409-.13-.524.517-.089.524l-.272.47.068.06s.483-.265.49-.265c0 .402.694.306.558-.088h-.041c-.061.095-.231.047-.225-.068 0-.062.048-.11.11-.116h4.06l-.129.279h.735l-.13-.279h4.055a.118.118 0 0 1 .11.116c0 .115-.164.163-.225.068h-.041c-.13.387.55.49.558.088 0 0 .483.265.49.265l.068-.06-.273-.47a.28.28 0 0 0 .286-.272zm-4.912-9.47h4.061v9.47H62.6V31.844zM70.79 37.055zM70.79 36.096zM63.233 37.055zM63.233 36.096zM33.899 20.402l.197-.164c.075-.81.456-1.53 1.082-1.98a1.514 1.514 0 0 0-.13-.162c-.7.51-1.115 1.36-1.15 2.299zM35.803 19.259l.19-.061c-.122-.347-.394-.987-.788-1.381-.089-.089-.232.04-.143.129.272.272.537.741.741 1.313zM34.103 18.62c.38.013.387-.586.007-.586-.375-.006-.381.585-.007.585zM39.64 17.368c-.258.279-.687-.13-.422-.402.259-.272.688.136.422.402zM40.225 17.857c-.258.28-.687-.129-.422-.4.259-.273.688.135.422.4zM37.525 16.905c-.259.279-.688-.13-.422-.401.258-.272.687.136.422.401zM38.98 17.055c-.258.279-.687-.13-.421-.402.258-.272.687.136.421.402zM39.667 17.994l-.251.027c-.633-.51-1.415-.749-2.17-.62a2.095 2.095 0 0 1-.028-.203c.858-.143 1.756.156 2.45.789zM37.47 18.558l-.177.089c-.156-.334-.428-.966-.435-1.531 0-.13.197-.136.197-.014 0 .388.15.905.415 1.45zM38.252 16.898c-.258.28-.687-.129-.421-.401.258-.272.687.136.421.401zM69.539 48.137c.843-.014 2.796-.939 1.38-1.708-.795-.136-1.584.252-2.353.436-3.082 1.224-1.272-.272-3.19-.109.646 1.633 2.272.79 3.496.408.04.177-.19.225-.156.402.408-.089.802-.164 1.19-.245.17-.803 1.633-.81.96-.007-1.688.735-3.674.598-5.443 1.102-1.177 3.088-3.231.986-3.21 1.87-.463.042-.457.49.02.45.006.898 2.285-.143 2.707-.422l.293-.62c.693.334 1.176-.659 1.775-.836.599-.122 1.374-.7 1.884-.163.565.626 1.415-.327 1.912.306-.19.49.061.272.143.578-.007.272.449.272.456 0 0-.122.013-.197.129-.245.252-.387-.286-.81-.476-1.129-.415-.401-1.102.36-1.524-.061z"/>
  <path d="M61.92 46.776c.136.048.088.211.15.293.727.048 1.448-.143 2.183-.231.544 0 .524-.483.925-.551.966.047 1.572-.803 2.483-.94.728-.203 1.714-.475 2.36.035.157.17.382.204.613.163.306-.054.674-.122.837.238-.055.055-.102.109-.177.184.034.068.068.143.102.224.15-.006.17.11.231.211.082.136.272.136.306 0 .041-.17.218-.088.272-.231.028-.449-.068-1-.517-1.225-.217-.204-1.088.218-1.108-.21.646.142 1.884-.694 1.034-1.239-1.443-.34-3.028.361-4.49.524-.578.13-.286-.81-1.558-.558.816 1.708 2.585.497 3.96.483.006.157-.26.143-.198.334.401-.123 1.075.088 1.306-.306.122-.483 1.15-.375.844.19-.77.49-1.912.265-2.81.367-1.102.096-2.306.116-3.333.504-.204.64-.49 1.3-1.225 1.449-.517-.504-1.265.088-1.816-.415-.184.034-.218.143-.286.279-.272.102-.36.258-.082.442zM70.042 51.266c-1.442-.183-1.224.81-1.932.572.13-.157.483-.245.368-.483-1.055.462-2.17.789-3.225 1.265-.537.572-.36 1.7-1.571 1.81-.041.591-.871.986-1.381.728-.205.19-.116.244-.089.421-.17.157-.415.524-.034.517.116-.027.211-.204.333-.143-.006.075-.02.15-.027.239.102 0 .232.034.266-.014.163-.21.4-.034.591-.204.62-.415 1.504-.803 1.456-1.667 1.095-.483 1.728-2.258 3.164-1.633.707.381.897-.761 1.53-.789.177.415.265.381.49.245.401.306.326-.177.483-.401.02-.218-.204-.476-.429-.47z"/>
  <path d="M63.518 44.32c-.231.654.007 1.524.612 1.892.694-.313 1.143-1.225.898-1.987.164-.143.375-.21.313-.442-.108-.265-.523-.068-.632-.374-.259-.36-.613-.068-.823.177-.164.02-.32-.061-.463.013-.15.28.272.45.095.728zM63.341 53.504c.68 1.626 1.701-.442 1.443-1.32.469-.387.34-.612-.225-.652-.197-.429-.633-.47-.925-.11-.102.13-.259.082-.395.096-.292.136-.129.456.123.524-.136.49-.211.98-.02 1.462zM65.205 47.477c-.129-.075-.299-.082-.442-.068-.238-.633-.68-.394-1.027-.014-.524-.21-.45.266-.17.517-.265.64-.082 1.592.599 1.871.72-.3.918-1.177.877-1.877.225-.034.408-.286.163-.429zM70.369 49.6c-1.293-.436-3.32 2.374-4.177 1.55-.211-.448-.85-.4-1.252-.278.483.347.748 1.115 1.483.864.83-.164 1.483-.83 2.197-1.143.02.238-.224.347-.326.571.49-.156.932-.292 1.3-.605-.062-1.36 1.884-.408.013.428.333.007.564.157.782-.115.429-.381.45-.932-.027-1.28zM67.437 52.75c-.381.095-.755.129-.994.516.096.13.184.245.28.381-.184.47-.647.388-1.082.408.04.15.061.232.088.327-.184.095-.258.265-.218.497.048.013.11.034.164.054.122-.15.34-.306.394-.02.796-.259 1.504-.742 1.878-1.483-.225-.177-.415-.381-.517-.68z"/>
  <path d="M66.396 49.953c-.17 0-.204.218-.089.313.116.13.225-.013.354.027 0 .069.007.13.014.191.694.04 1.741-.578 2.109-1.136-.15-.231-.286-.442-.429-.667-.374.123-.803.116-1.027.45.136.142.252.271.38.407-.25.143-.543.381-.822.15-.11-.102-.429-.054-.347.143.013.027 0 .068-.014.109-.048 0-.088.013-.122.013zM63.45 54.171c-.258-.503-.66-.96-.85-1.483.231-.32.13-.735-.3-.47-.108-.217-.265-.258-.462-.203-.054.136-.089.272.061.38.007 0 0 .041 0 .062-.047.013-.095.034-.136.047-.109.273.163.436.265.654.3.476.742 1.612 1.429 1.02zM63.45 45.92c-.04-.695-.837-1.137-.598-1.838a.312.312 0 0 0-.089-.387q-.231.061-.408-.048c-.3-.15-.34.184-.32.395-.061.027-.115.054-.197.088.21.592.83 2.089 1.605 1.782zM61.906 48.266c.292.45.374 1.164.878 1.422.23 0 .578.21.714-.061-.143-.538-.81-.844-.714-1.456.034-.143-.02-.279-.143-.408-.259.075-.79-.504-.599.184-.156.054-.252.163-.143.32zM50.457 34.416c.109.006.217-.123.333 0-.014.06-.02.115-.034.177.7.306 1.476-.041 2.177-.232.279-.088.435-.36.742-.36.72.054 1.129-.551 1.748-.728.769-.143 1.544-.266 2.326-.252.898 1.225 1.062.184 1.864.599-.02.115-.047.238-.068.36.082.027.15.048.211.075-.081.306.374.483.436.095.006-.047-.014-.109.054-.115.476-.259-.258-1.524-.762-1.198-.258.123-.599.245-.803-.068.45-.183 1-.136 1.3-.557.224-.28.204-.83-.225-.98-1.122-.313-2.313.258-3.456.354-2.136.578-.612-.456-2.306-.45.606 1.735 2.429.62 3.687.49-.088.205-.299.28-.38.463.448-.088 1.033.082 1.367-.265.17-.476 1.3-.53 1.034.115-1.068 1.041-4.408.068-5.891.735-.225.68-.62 1.13-1.266 1.313-.53-.326-.768.048-1.3-.102-.149-.163-.298-.347-.53-.17v.245c-.251-.075-.53.279-.265.435z"/>
  <path d="M52.3 31.77c-.394.72-.279 1.374.19 1.979.878.034 1.232-1.163 1.09-1.891l.265-.184a5.105 5.105 0 0 1-.068-.265c-.157 0-.307-.014-.443-.02-.32-.409-.51-.416-.884-.048q-.259-.095-.429.129c.062.13.15.231.28.293zM56.58 33.32c-.041.204.142.286.176.45-.231.149-.49.163-.741.19-.13-.13-.184-.368-.415-.3-.13.035-.055.17-.157.225q-.251-.02-.292.238c.075.048.156.095.238.143-.19.905 2.279-.034 2.64-.306-.123-.204-.273-.34-.32-.578-.102-.395-.837-.075-1.136-.062zM51.96 33.43c-.027-.32-.102-.688-.354-.906-.278-.285-.374-.687-.088-.993-.143-.136-.333-.027-.476-.217-.177-.205-.286.034-.327.244-.503.075-.21.239-.102.504.17.462.762 1.578 1.34 1.367zM59.41 36.81c-.26.123-.606.245-.81-.068.449-.183 1.007-.136 1.313-.558.231-.279.21-.836-.232-.986-1.136-.313-2.333.258-3.483.36-2.15.586-.619-.462-2.32-.455.613 1.748 2.45.626 3.722.496-.089.204-.3.286-.388.47.449-.089 1.04.081 1.381-.266.177-.483 1.313-.537 1.048.116-1.075 1.048-4.443.068-5.94.742-.224.68-.618 1.136-1.278 1.326-.456-.279-.7-.054-1.089-.068.014.13.055.252.089.374.034.13.047.259.054.388.45-.048.912-.224 1.334-.34.278-.089.435-.367.741-.36.728.054 1.143-.559 1.769-.735.769-.15 1.55-.272 2.34-.252.905 1.238 1.068.184 1.878.605-.02.123-.048.238-.068.368.081.027.15.047.21.075-.081.306.375.483.436.095.007-.048-.014-.11.054-.116.483-.265-.258-1.537-.768-1.204z"/>
  <path d="M52.185 35.729c-.395.727-.28 1.38.19 1.993.885.034 1.245-1.177 1.102-1.905.095-.061.177-.122.272-.184a5.105 5.105 0 0 1-.068-.265c-.163 0-.306-.014-.442-.02-.32-.409-.51-.422-.891-.048q-.259-.095-.435.13c.06.135.15.23.285.299zM56.49 37.293c-.04.204.15.293.178.45-.238.156-.49.162-.742.197-.136-.137-.183-.375-.415-.3-.129.034-.06.17-.156.225q-.259-.02-.293.238c.075.047.164.095.238.143-.19.911 2.293-.034 2.667-.306-.122-.205-.279-.347-.32-.586-.102-.4-.843-.074-1.15-.06zM51.838 37.402c-.027-.32-.11-.694-.36-.918-.287-.293-.375-.694-.09-1-.142-.136-.333-.028-.475-.218-.184-.204-.286.034-.334.252-.51.075-.217.238-.102.51.17.47.769 1.585 1.354 1.38zM59.498 40.531c-.259.123-.606.245-.81-.068.45-.183 1.007-.136 1.313-.557.231-.28.211-.837-.231-.987-1.13-.313-2.334.259-3.476.36-2.15.586-.613-.462-2.32-.448.612 1.748 2.442.626 3.714.496-.088.204-.3.286-.388.47.45-.089 1.041.081 1.375-.266.176-.483 1.313-.537 1.04.116-1.074 1.048-4.435.068-5.932.742-.224.68-.619 1.136-1.272 1.32-.537-.334-.775.047-1.313-.103-.054-.054-.102-.115-.163-.163-.014 0-.027-.014-.04-.027a.275.275 0 0 0-.062-.034v.027c.007.313-.068.619-.19.905.693.272 1.455-.061 2.142-.245.28-.089.436-.368.742-.36.728.054 1.143-.559 1.762-.735.769-.15 1.55-.266 2.34-.252.905 1.231 1.068.184 1.878.605-.02.123-.048.238-.068.36.081.028.15.049.21.076-.081.306.375.483.436.095.007-.048-.014-.109.054-.116.483-.265-.258-1.537-.768-1.204z"/>
  <path d="M52.28 39.45c-.395.728-.279 1.38.19 1.993.885.034 1.239-1.17 1.096-1.898.088-.061.177-.122.272-.184a5.105 5.105 0 0 1-.068-.265c-.164 0-.306-.014-.442-.02-.32-.409-.51-.422-.892-.048q-.258-.095-.435.13c.061.135.15.23.286.299zM56.586 41.014c-.04.204.15.293.177.45-.238.156-.49.163-.742.197-.129-.136-.183-.374-.414-.3-.13.034-.062.17-.157.225q-.258-.02-.292.238c.074.048.163.095.238.143-.19.911 2.292-.034 2.66-.306-.123-.204-.28-.347-.32-.579-.102-.4-.844-.074-1.143-.06zM51.58 40.212a.82.82 0 0 1-.137-.177c-.013.163.068.354.041.51-.02.122-.061.313-.095.435.204.198.326.225.55.143-.026-.32-.108-.694-.36-.911zM64.477 33.803c.198.123.34.687.456.77.218.292.68 1.067 1.136.904v-.014c.136-.054.266-.442.272-.496a.74.74 0 0 0-.163-.15c-.422-.367-.68-.735-.687-1.075-.02-.109.245-.258.225-.36-.007-.388-.334.047-.456-.014-.068-.109-.306-.429-.456-.272-.088.04.02.272-.048.326-.034.041-.054.055-.156.048-.34 0-.388.21-.109.333z"/>
  <path d="M66.294 36.409c.115-.116.456-.45.496-.517.034-.075.048-.082.286-.102.66-.095 1-.368 1.184-1.075.088-.21-.027-.674-.163-.776-.055-.034-.075-.108-.041-.129.122-.02.38-.115.422-.265-.069-.136-.245-.034-.477-.109-.17-.082-.626-.218-.816-.116-.13.157-.905.177-.762.409l.088.278.354.041v.259s-.245.054-.333.075c-.211.306.503.333.687.095.13-.15.327-.17.32 0-.096.204-.436.306-.633.401-.3.048-.374.633-.605.83-.647.123-.878.102-1.524-.415-.232-.272-.422-.068-.245.143-.116.04-.708-.3-.442.272l.04.055c-.292.421.143.279.388.408.524.21 1.096.367 1.769.251z"/>
  <path d="m68.369 36 .272.572s.592.265.673.34c.334.245.28.912-.02.837-.49-.197-.782-.891-1.123-1.32-.088-.068-.326-.768-.476-.592-2.02.45.368.973 0 1.722-.068.108-.3.632-.204.707.17.21.551.36.748.626.327.32.034.694-.374.394-.231-.176-.503.075-.272.313.014.048-.143.11-.17.13-.238.333.157.313.367.15.116-.055 0 .292.198.23.367-.081.939-.265 1.04-.843.232-.53-.299-.442-.435-.905-.13-.19-.143-.884.143-.632.265.333.626.53.952.23.307-.285.028-.979-.129-1.285-.292-.612-.632-1.197-.605-1.925.408-.483.884.38 1.177-.973-.96.068-1.898.708-1.422 1.783.292.605.224.557-.34.442z"/>
  <path d="M66.831 37.144c-.503-.028-.89-.068-.748.537.027.143.082.585.17.687.034.055.027.116-.014.157-.204.115-.98-.198-.884-.463 0-.218-.218-.272-.286-.116-.034.068-.088.068-.17-.02-.143-.204-.34.075-.258.224.034.062 0 .13-.082.143-.21.089-.197.374.095.388.647.3 1.204.605 1.953.503h-.014c.816-.06.395-.217.36-.782-.142-.612.905-1.014-.122-1.252zM67.6 45.885c-.054-.047-.184 0-.204.041 0 .279-.286.197-.374.388.054.115.143.204.265.197.156-.013.143.177.286.19.673-.306 1.476-.23 2.047-.755-.217-.183-.265-.435-.313-.693-.387.027-.768-.028-1.102.156-.034.177.089.272.177.429-.279.115-.524.177-.782.06z"/>
  <path d="M78.376 38.314c-.266-.572-.878-3.756-1.776-3.062 4.068 7.6 1.354 17.586-5.707 22.395-2.075 1.252-4.64 3.327-7.096 1.946 1.585-6.163 9.164-3.558 10.81-15.306-.204-.102-.279-.164-.463-.198a20.442 20.442 0 0 1-1.265 4.735c.66-1.748.238-7.225.36-7.524-.068-.088-.142-.122-.367-.401.041.66 0 .905 0 1.775H61.37v-12H72.66v6.769c0 .034.041.36.068.476.164-.245.177-.238.28-.32V30.32H49.326l-.02 6.13h.347v-5.783h11.36v12H50.056s0-.19-.027-.156c0-.034-.075.19-.075.156h-.306c0-.557 0-.904.007-.918l-.347-.013c-.252.897.497 8.428 1.728 9.748-2.47-2.395-3.252-6.653-2.79-9.857 0 0-.23-.177-.482-.409-.776 4.518.932 8.973 4.095 12.205.28.292.578-.02.919-.109-.068-.075-.218-.19-.32-.333.122.129.238.245.32.333l-.177-.483c-2.483-1.898-2.892-7.327-2.946-9.81h11.36s-.006 15.048-.013 15.082c-2.415-.115-4.054-2.741-6.38-2.769 3.353 1.987 9.482 6.776 13.353 4.68.027.035.027.028.055.069-.409.51-1.844 1.476-2.484 1.224-1.054-.632-2.68.524-1.932 1.701.096.136.157.259.041.442-4.183-.394-7.952-2.891-11.476-5.034-.034.04-.027.027-.061.068C53.47 60.307 58.3 62.58 58.3 62.58v2.715l.51.34v-2.939c1.266.435 3.837 1.238 3.837 1.238v1.83l.497-.313-.027-1.374.687-.19a.899.899 0 0 0 .653-.973.519.519 0 0 1-.286-.599c.102-.537.749-.544 1.014-.224.524.23 1.04-.395 1.558-.545.728-.442 1.626-.83 1.966-1.673a.692.692 0 0 1 .354-.435c1.469-.837 2.89-1.756 4.095-2.96 5.13-4.333 6.918-11.782 5.21-18.157zM61.389 43.02h11.504c.938 8.79-4.211 11.735-11.504 14.796zm.204 15.701c.816-.72 1.381-.98 2.429-1.224-.293.653-.565 1.272-.858 1.925-.523-.231-1.04-.463-1.571-.7zM35.933 63.56c-.266-.164-.592-.212-.973-.15.081.584.292 1.66.462 2.224 1.082-.157 1.409-1.51.51-2.075z"/>
  <path d="M50.715 59.566c-6.51.007-13 2.789-19.51 2.789-.783 0-1.565-.04-2.347-.13 2.02 1.593 1.877 4.79 4.81 4.79.129 0 .258 0 .4-.02 3.987-.43 7.953-1.552 11.878-2.177.674-.102 3.926-.898 5.83-.898.688 0 1.198.102 1.347.38.205.375-1.088 1.463-1.095 1.51 0 .014 0 .021.02.021.123 0 .844-.415 1.375-.769 2.122-1.523-2.327-5.496-2.708-5.496zm-13.714 5.401c-.354.844-1.415 1.034-2.238 1.184.04-.259-.463-2.694-.62-2.918 1.436-.613 3.484-.02 2.865 1.734zm.843.51c.041-.843-.238-2.17-.619-2.925l.83-.177c-.04.844.238 2.17.62 2.926zm3.198-.693-1.708.374c.034-.259-.517-2.647-.66-2.864l1.796-.395-.15.606a1.787 1.787 0 0 0-.87 0l.197.87.993-.217.164.421c-.198-.034-.796.116-1.069.164l.211.905c.49-.11.892-.273 1.211-.49h.007l-.13.64zm1.748-.266c-1.245.027-1.422-1.748-1.714-2.619l.605-.115c.286.761.211 2.544 1.49 2.312.925-.414.177-1.884.082-2.591l.591-.082c.225 1.177.756 3.218-1.047 3.102zm4.939-.884-1.7.394c.033-.258-.538-2.64-.688-2.857l1.796-.415-.143.606c-.252-.068-.537-.068-.87 0l.203.864.994-.232.163.422c-.197-.027-.796.123-1.068.177l.218.905c.49-.116.89-.28 1.21-.497h.007l-.122.64zm1.789-2.905.49 2.476-.572.102-.503-2.462c-.347.061-.544.061-1.02.272l-.014-.551 2.456-.32.17.47c-.225-.082-1.007.02-1.007.02zM80.88 62.314c-.137.544-.355 1.565-.423 2.123 1.28.272 1.674-1.871.422-2.123zM85.886 63.178c-.98-.238-1.293 1.796-.483 2.123 1 .238 1.3-1.783.483-2.123zM83.335 62.797l-.3 1.082c.83.156 1.191-.946.3-1.082zM75.505 61.253c-1.02-.279-1.415 1.83-.558 2.184 1.04.279 1.415-1.817.558-2.184z"/>
  <path d="M90.077 62.341c-.817 0-1.592-.013-1.966-.047-4.293-.415-8.545-1.647-12.824-2.327-1.238-.197-2.245-.38-3.122-.38-1.817 0-3.055.788-4.517 3.91-.626 1.191 1.469 2.32 1.925 2.368-1.721-1.47-1.123-1.905.238-1.905 1.87 0 5.19.83 5.844.912 3.925.626 7.89 1.748 11.877 2.177.143.014.272.02.402.02 2.932 0 2.796-3.197 4.81-4.789-.361.034-1.545.055-2.66.055zm-16.15-1.72c-.096.088-.45 2.523-.422 2.761l-.653-.13c.115-.21.272-1.91.272-1.91L72 63.09l-.66-1.973s-.265 1.415-.278 1.87l-.647-.088c.204-.333.613-2.837.613-2.837l.666.123c.02.136.524 1.83.524 1.83s.884-1.483.939-1.558l.782.143zm2.408 2.156c-.592 2-2.891.905-2.211-.878.585-1.939 2.891-.911 2.21.878zm2.272 1.748c-.204-.04-1.293-2.258-1.293-2.258s-.265 1.72-.333 1.843l-.497-.068.565-2.707.551.074c0 .068.87 1.898.87 1.898s.287-1.483.314-1.612l.422.116-.599 2.72zm2.565.238c-.388.136-.946-.02-1.347-.095l.544-2.782c1.81-.123 2.558 2.224.803 2.884zm3.21-1.286c-.081.313-.312.531-.693.653.17.552.265.728.55 1.327v.014l-.441-.068c-.089-.055-.64-.824-.803-1.245-.095.347-.197.782-.157 1.095l-.741-.116c.136-.217.72-2.496.694-2.734.646.081 1.802.197 1.598 1.074zm1.43 2.205c-1.654.312-1.654-2.483-.327-2.878 1.66-.347 1.666 2.497.326 2.878zm1.727-1.633c-.061.496-.292 1.503-.204 1.973l-.646-.096c.285-.727.483-1.966.435-2.741l.646.095a2.67 2.67 0 0 0-.23.776zm1.53-.123s-.38 2.143-.353 2.327l-.646-.116s.394-1.877.496-2.292a1.31 1.31 0 0 0-.748.075l.259-.545 1.748.313.122.592c-.15-.143-.619-.306-.87-.354zM232.916 202.405c8.02 0 12.28 5.824 12.28 13.26 0 7.435-4.26 13.203-12.28 13.203s-12.28-5.823-12.28-13.204 4.26-13.259 12.28-13.259zm0 22.797c4.354 0 7.878-3.422 7.878-9.538s-3.524-9.585-7.878-9.585-7.878 3.476-7.878 9.585c0 6.109 3.524 9.538 7.878 9.538zm-26.048-22.205h3.912v5.334h.095c2.007-4.11 4.796-6.069 9.292-5.919v4.402c-6.7 0-9.15 3.768-9.15 10.224v11.252h-4.156v-25.286zm-3.742 17.266c-1.122 5.626-5.088 8.605-10.81 8.605-8.068 0-11.884-5.626-12.129-13.306 0-7.633 4.987-13.157 11.885-13.157 8.952 0 11.687 8.368 11.442 14.477h-18.932c-.15 4.401 2.347 8.313 7.878 8.313 3.469 0 5.823-1.612 6.55-4.939h4.11zm-4.006-7.048c-.245-3.96-3.13-7.143-7.286-7.143-4.157 0-6.994 3.225-7.239 7.143h14.531zm-47.886 11.157 21.715-27.096h-20.055v-3.912h25.531v3.912l-21.667 27.096h22.252v3.911h-27.783v-3.911zm-20.197-21.375h5.04v3.667h-5.04v15.7c0 1.96.537 2.253 3.129 2.253h1.905v3.666h-3.177c-4.306 0-6.014-.877-6.014-5.53v-16.096h-4.306v-3.667h4.306v-7.585h4.157v7.585zm-9.266 17.266c-1.122 5.626-5.088 8.605-10.81 8.605-8.068 0-11.884-5.626-12.13-13.306 0-7.633 4.987-13.157 11.885-13.157 8.953 0 11.688 8.368 11.443 14.477h-18.933c-.15 4.401 2.347 8.313 7.878 8.313 3.47 0 5.823-1.612 6.551-4.939h4.11zm-4.014-7.048c-.245-3.96-3.129-7.143-7.285-7.143-4.157 0-6.994 3.225-7.239 7.143h14.531zm-51.069-19.858h4.94l18.387 28.32h.096v-28.32h4.401v34.926h-5.088l-18.246-28.027h-.095v28.027h-4.401v-34.925ZM41.885 223.93c-2.102 3.278-6.068 4.938-9.878 4.938-9.442 0-10.905-6.7-10.905-9.537 0-5.429 3.715-8.218 8.17-10.565-1.959-2.742-3.863-4.694-3.863-8.218 0-3.769 2.789-7.19 7.877-7.19 4.354 0 8.463 2.394 8.463 7.143 0 4.204-3.177 7.095-6.558 9.047l6.313 7.68c.633-1.761 1.027-3.57 1.123-5.428h3.959c-.395 4.204-.878 5.429-2.347 8.606l6.796 7.877h-5.429l-3.714-4.353zm-10.32-12.525c-3.279 1.81-6.068 3.77-6.068 7.878 0 3.524 3.28 5.919 6.653 5.919 3.177 0 5.721-1.613 7.436-4.157l-8.02-9.633zm6.02-10.66c0-2.006-1.516-3.714-4.013-3.714-1.96 0-4.014 1.17-4.014 3.714 0 2.102 1.858 4.157 3.375 6.069 2.006-1.32 4.646-3.035 4.646-6.069zm301.408-21.708c-1.96 4.892-3.62 6.749-7.34 6.749-.98 0-1.96-.095-2.885-.442v-3.817c.783.245 1.613.585 2.45.585 1.714 0 2.639-.782 3.421-2.299l1.714-4.306-10.027-25.144h4.694l7.388 20.688h.095l7.096-20.688H350l-11.007 28.66zm-19.409-28.66h5.041v3.667h-5.04v15.7c0 1.96.537 2.253 3.129 2.253h1.905v3.666h-3.177c-4.307 0-6.014-.877-6.014-5.53v-16.096h-4.306v-3.667h4.306v-7.585h4.156v7.585zm-11.027-4.551H304.4v-5.089h4.157zm-4.157 4.551h4.157v25.286H304.4zm-15.714 0h3.912v5.334h.095c2.007-4.11 4.796-6.069 9.292-5.919v4.401c-6.7 0-9.15 3.77-9.15 10.225v11.252h-4.156v-25.286zm-4.98 25.286h-3.911v-4.013h-.096c-1.762 3.129-4.55 4.598-8.217 4.598-6.654 0-8.708-3.816-8.708-9.245V150.37h4.156v17.116c0 3.13 1.96 5.089 5.137 5.089 5.04 0 7.483-3.374 7.483-7.926V150.37h4.156v25.286zm-28.837-17.17c-.633-3.177-2.79-5.041-6.259-5.041-6.013 0-7.877 4.796-7.877 9.878 0 4.694 2.102 9.245 7.387 9.245 4.062 0 6.409-2.3 6.946-6.164h4.259c-.932 6.211-4.742 9.83-11.15 9.83-7.728 0-11.837-5.333-11.837-12.911 0-7.579 3.912-13.552 11.932-13.552 5.769 0 10.272 2.688 10.905 8.708h-4.306zm-21.157 9.15c-1.122 5.626-5.089 8.605-10.81 8.605-8.068 0-11.884-5.626-12.13-13.306 0-7.633 4.987-13.157 11.885-13.157 8.953 0 11.688 8.368 11.443 14.477h-18.933c-.15 4.401 2.347 8.313 7.878 8.313 3.47 0 5.823-1.612 6.551-4.94h4.11zm-4.014-7.048c-.245-3.96-3.129-7.143-7.286-7.143-4.156 0-6.993 3.225-7.238 7.143h14.531zm-27.32-9.633c-.537-5.04-3.816-7.143-8.66-7.143-3.96 0-7.823 1.422-7.823 5.966 0 8.606 22.354 2.544 22.354 16.286 0 7.436-7.286 10.422-13.647 10.422-7.823 0-14.428-3.864-14.428-12.327h4.401c0 5.871 4.891 8.416 10.177 8.416 4.204 0 8.85-1.32 8.85-6.361 0-9.585-22.354-3.28-22.354-16.096 0-7.04 6.259-10.224 12.667-10.224 7.143 0 12.62 3.374 12.865 11.054h-4.402zm-48.035 28.075c-1.96 4.892-3.619 6.749-7.34 6.749-.98 0-1.96-.095-2.885-.442v-3.817c.783.245 1.613.585 2.443.585 1.714 0 2.64-.782 3.422-2.299l1.714-4.306-10.028-25.144h4.694l7.388 20.688h.095l7.096-20.688h4.401l-11.007 28.66zm-15.177-5.523c0 8.265-3.714 12.422-11.742 12.422-4.741 0-10.224-1.96-10.47-7.436h4.157c.15 2.987 3.864 4.109 6.551 4.109 5.429 0 7.579-3.912 7.579-9.585v-1.667h-.095c-1.422 3.082-4.647 4.599-7.878 4.599-7.53 0-11.3-5.919-11.3-12.817 0-5.966 2.885-13.354 11.688-13.354 3.177 0 6.013 1.422 7.53 4.204h.048v-3.619h3.912v23.137zm-4.109-11.007c0-4.45-1.96-9.048-7.19-9.048-5.232 0-7.484 4.354-7.484 9.197 0 4.551 1.66 9.64 7.143 9.64s7.531-5.041 7.531-9.783zm-32.871-12.13h3.911v5.334h.096c2.006-4.11 4.796-6.069 9.292-5.919v4.401c-6.7 0-9.15 3.77-9.15 10.225v11.252h-4.156v-25.286zm-3.742 17.266c-1.122 5.626-5.088 8.605-10.81 8.605-8.068 0-11.884-5.626-12.13-13.306 0-7.633 4.987-13.157 11.885-13.157 8.953 0 11.688 8.368 11.443 14.477H79.9c-.15 4.401 2.346 8.313 7.877 8.313 3.47 0 5.823-1.612 6.551-4.94h4.11zm-4.007-7.048c-.245-3.96-3.13-7.143-7.286-7.143s-6.993 3.225-7.238 7.143h14.531Zm-43.524-10.218h3.911v4.014h.095c1.762-3.13 4.552-4.599 8.218-4.599 6.653 0 8.708 3.816 8.708 9.245v16.633h-4.157v-17.123c0-3.129-1.959-5.088-5.136-5.088-5.04 0-7.483 3.374-7.483 7.925v14.286h-4.156v-25.286zm-27.613-9.64h24.116v3.912h-19.47v11.102h18.15v3.912h-18.15v12.082H47.56v3.911h-24.26v-34.925Zm301.468-42.98h3.912v5.333h.095c2.007-4.108 4.796-6.068 9.293-5.918v4.401c-6.701 0-9.15 3.77-9.15 10.225v11.252h-4.157V97.764Zm-15.946-.585c8.02 0 12.28 5.823 12.28 13.252s-4.26 13.204-12.28 13.204-12.279-5.823-12.279-13.204 4.259-13.252 12.28-13.252zm0 22.79c4.354 0 7.878-3.422 7.878-9.538s-3.524-9.585-7.878-9.585-7.877 3.476-7.877 9.585c0 6.109 3.523 9.538 7.877 9.538zm-22.068-18.538h-4.252v-3.667h4.252v-3.769c0-4.109 2.449-6.258 6.993-6.258.783 0 1.905.15 2.687.387v3.62c-.734-.245-1.612-.34-2.347-.34-2.006 0-3.177.632-3.177 2.836v3.524h4.892v3.667h-4.892v21.62h-4.156zm-23.967-3.667h5.041v3.667h-5.04v15.7c0 1.96.537 2.252 3.129 2.252h1.905v3.667h-3.177c-4.307 0-6.014-.877-6.014-5.53v-16.096h-4.306V97.75h4.306v-7.585h4.156v7.585zm-31.612 0h3.911v4.014h.095c1.762-3.13 4.552-4.599 8.218-4.599 6.653 0 8.708 3.816 8.708 9.245v16.633h-4.157v-17.123c0-3.13-1.959-5.088-5.136-5.088-5.04 0-7.483 3.374-7.483 7.925v14.286h-4.156V97.764Zm-3.81 17.266c-1.123 5.626-5.089 8.605-10.81 8.605-8.068 0-11.884-5.626-12.13-13.306 0-7.633 4.987-13.157 11.885-13.157 8.953 0 11.688 8.36 11.443 14.477H208.82c-.15 4.401 2.347 8.313 7.878 8.313 3.47 0 5.823-1.613 6.551-4.94h4.11zm-4.007-7.041c-.245-3.96-3.13-7.143-7.286-7.143s-6.993 3.224-7.238 7.143h14.53zm-58.103-10.225h3.912v3.714h.095c1.905-2.884 4.598-4.306 8.17-4.306 3.13 0 5.918 1.17 6.946 4.306 1.714-2.741 4.646-4.306 7.925-4.306 5.04 0 8.415 2.102 8.415 7.334v18.537h-4.156v-16.578c0-3.13-.83-5.626-4.892-5.626-4.061 0-6.605 2.544-6.605 6.456v15.748h-4.157v-16.578c0-3.28-1.027-5.626-4.741-5.626-4.892 0-6.749 4.497-6.749 6.456v15.748h-4.156V97.75Zm-8.136 0h5.04v3.667h-5.04v15.7c0 1.96.537 2.252 3.129 2.252h1.905v3.667h-3.177c-4.306 0-6.014-.877-6.014-5.53v-16.096h-4.306V97.75h4.306v-7.585h4.157v7.585zm-22.803 0h3.911v5.333h.095c2.007-4.108 4.796-6.068 9.293-5.918v4.401c-6.7 0-9.15 3.77-9.15 10.225v11.252h-4.156V97.764Zm-2.817 25.191c-.735.442-1.762.687-2.986.687-2.15 0-3.524-1.17-3.524-3.912-2.3 2.742-5.381 3.912-8.905 3.912-4.599 0-8.368-2.007-8.368-7.089 0-5.72 4.259-6.993 8.558-7.775 4.551-.932 8.51-.538 8.51-3.715 0-3.666-3.033-4.204-5.625-4.204-3.524 0-6.116 1.075-6.313 4.796h-4.157c.245-6.258 5.041-8.462 10.715-8.462 4.55 0 9.49 1.027 9.49 6.945v13.014c0 1.96 0 2.837 1.32 2.837.394 0 .83-.095 1.272-.245v3.231zm-6.748-12.966c-3.232 2.394-12.62.047-12.62 6.258 0 2.742 2.347 3.722 4.892 3.722 5.476 0 7.728-3.375 7.728-5.722zM81.485 97.757h4.156v3.422h.095c1.368-2.79 4.551-4.014 8.069-4.014 7.775 0 11.64 6.164 11.64 13.307 0 7.143-3.817 13.156-11.545 13.156-2.544 0-6.36-.98-8.17-3.959h-.096v13.061h-4.156V97.757Zm11.741 3.082c-5.626 0-7.728 4.843-7.728 9.537 0 4.94 2.252 9.586 7.973 9.586s7.579-4.844 7.579-9.783c0-4.939-2.45-9.34-7.824-9.34zm-15.619 14.184c-1.123 5.626-5.089 8.605-10.81 8.605-8.068 0-11.884-5.626-12.13-13.306 0-7.633 4.987-13.157 11.885-13.157 8.953 0 11.688 8.36 11.443 14.477H59.062c-.15 4.401 2.347 8.313 7.878 8.313 3.47 0 5.823-1.613 6.551-4.94h4.11zm-4.007-7.041c-.245-3.96-3.13-7.143-7.286-7.143s-6.993 3.224-7.238 7.143h14.53ZM23.3 88.117h11.986c10.763 0 16.776 5.429 16.776 16.633 0 11.205-5.136 18.293-16.776 18.293H23.3Zm4.646 31.015h7.728c3.177 0 11.742-.878 11.742-13.742 0-8.313-3.082-13.354-11.64-13.354h-7.823v27.096z"/>
</svg>
