<svg width="760" height="401" viewBox="0 0 760 401" fill="none" xmlns="http://www.w3.org/2000/svg">
  <path d="M32.0034 392.261C42.3011 392.316 49.0888 392.428 58.0589 392.428C67.029 392.428 78.1814 392.316 86.0229 392.207C93.8603 392.095 98.391 391.987 104.739 391.266C111.087 390.546 119.26 389.218 122.459 387.885C125.658 386.553 123.895 385.225 123.397 383.563C122.899 381.902 123.675 379.907 127.869 375.252C132.064 370.597 139.682 363.285 144.046 359.35C148.407 355.416 149.51 354.862 153.319 354.808C157.128 354.754 163.642 355.195 171.977 356.194C180.312 357.194 190.473 358.743 198.696 359.517C206.924 360.291 213.218 360.291 220.117 359.958C227.017 359.625 234.527 358.963 239.937 359.017C245.347 359.071 248.658 359.85 252.911 361.453C257.164 363.06 262.35 365.496 267.154 368.602C271.959 371.705 276.373 375.473 278.253 377.967C280.128 380.461 279.468 381.681 277.149 381.902C274.83 382.123 270.855 381.348 265.889 380.515C260.922 379.683 254.956 378.8 248.442 378.408C241.929 378.021 234.863 378.129 228.789 378.354C222.715 378.575 217.636 378.908 213.164 379.129C208.691 379.349 204.829 379.462 201.24 379.795C197.651 380.128 194.34 380.682 190.253 381.402C186.167 382.123 181.308 383.009 174.022 383.617C166.737 384.225 157.02 384.558 147.303 385.254C137.586 385.945 127.869 386.998 120.115 387.165C112.356 387.331 106.56 386.611 101.067 385.837C95.5738 385.062 90.3835 384.229 86.7946 383.068C83.2058 381.906 81.2184 380.407 78.4842 376.002C75.7501 371.596 72.2732 364.285 68.1035 355.64C63.9338 346.996 59.0754 337.024 56.5362 329.212C53.997 321.401 53.7772 315.751 54.2709 308.768C54.7688 301.785 55.9802 293.474 57.5278 286.995C59.0754 280.512 60.9507 275.857 64.7055 270.207C68.4603 264.556 74.0905 257.907 79.2269 253.251C84.3592 248.596 88.9977 245.94 94.242 243.999C99.4863 242.059 105.34 240.843 109.257 242.226C113.178 243.612 115.165 247.601 117.26 254.026C119.36 260.455 121.567 269.316 123.501 274.691C125.434 280.067 127.089 281.949 129.682 281.949C132.276 281.949 135.81 280.067 139.287 277.406C142.764 274.745 146.187 271.31 148.726 269.149C151.265 266.988 152.921 266.101 155.074 265.381C157.227 264.66 159.879 264.107 162.638 263.166C165.397 262.225 168.268 260.892 170.587 260.009C172.906 259.122 174.674 258.681 177.321 258.456C179.972 258.236 183.503 258.236 186.926 257.957C190.349 257.678 193.66 257.124 195.153 255.075C196.643 253.027 196.311 249.479 196.091 246.21C195.871 242.942 195.759 239.948 195.705 237.4C195.651 234.851 195.651 232.744 196.311 231.445C196.975 230.142 198.298 229.647 200.09 229.255C201.883 228.868 204.148 228.589 205.061 227.785C205.974 226.982 205.53 225.653 205.061 224.1C204.592 222.547 204.094 220.778 204.314 218.95C204.534 217.122 205.472 215.236 205.833 213.437C206.189 211.638 205.97 209.918 206.135 207.174C206.301 204.43 206.853 200.666 206.355 194.57C205.857 188.474 204.314 180.055 201.331 173.072C198.348 166.09 193.933 160.552 189.075 157.004C184.216 153.456 178.918 151.908 172.126 151.021C165.335 150.134 157.053 149.913 149.988 151.241C142.922 152.57 137.068 155.451 132.761 159.332C128.454 163.208 125.695 168.084 124.314 174.9C122.932 181.717 122.932 190.469 123.542 198.114C124.148 205.759 125.363 212.296 125.944 216.814C126.525 221.327 126.467 223.821 126.774 225.179C127.077 226.536 127.741 226.757 129.039 226.34C130.338 225.924 132.267 224.871 133.429 224.096C134.587 223.322 134.977 222.822 136.188 223.126C137.404 223.43 139.445 224.538 141.432 225.258C143.42 225.978 145.353 226.311 146.872 225.479C148.39 224.646 149.494 222.651 149.328 220.49C149.162 218.329 147.726 216.002 146.594 212.625C145.461 209.244 144.635 204.813 142.731 202.403C140.827 199.992 137.844 199.604 135.997 200.241C134.147 200.879 133.429 202.54 133.097 204.48C132.765 206.421 132.819 208.636 133.483 210.851C134.147 213.066 135.416 215.285 134.782 218.579C134.147 221.877 131.608 226.253 129.371 228.581C127.135 230.908 125.202 231.183 123.712 231.903C122.223 232.624 121.173 233.785 120.372 234.868C119.571 235.946 119.02 236.946 118.742 237.999C118.464 239.053 118.464 240.16 119.347 243.429C120.231 246.698 121.999 252.127 123.488 257.282C124.978 262.433 126.193 267.309 127.243 270.469C128.293 273.625 129.176 275.066 130.06 275.345C130.944 275.624 131.827 274.737 133.346 273.213C134.865 271.689 137.018 269.528 139.777 267.588C142.536 265.647 145.905 263.932 147.614 262.628C149.324 261.325 149.382 260.438 147.946 258.669C146.511 256.895 143.586 254.238 140.935 250.578C138.283 246.922 135.91 242.267 134.753 239.136C133.595 236.005 133.649 234.398 134.475 233.427C135.304 232.457 136.902 232.124 139.528 232.457C142.15 232.79 145.793 233.785 149.66 236.059C153.522 238.332 157.609 241.876 161.779 244.811C165.949 247.747 170.197 250.074 176.852 253.98C183.503 257.886 192.56 263.37 198.244 270.048C203.932 276.723 206.247 284.593 208.293 292.071C210.334 299.549 212.102 306.644 213.981 313.236C215.861 319.827 217.844 325.923 219.669 330.716C221.491 335.508 223.146 338.998 226.237 342.433C229.328 345.868 233.855 349.249 236.286 351.298C238.713 353.346 239.045 354.067 237.941 354.704C236.838 355.341 234.299 355.894 230.627 356.173C226.955 356.452 222.155 356.452 217.433 356.477C212.712 356.506 208.077 356.561 203.41 356.311C198.746 356.061 194.054 355.507 191.568 354.179C189.083 352.851 188.809 350.744 189.195 346.838C189.581 342.932 190.631 337.224 191.763 331.02C192.896 324.815 194.112 318.112 194.991 312.32C195.875 306.528 196.427 301.656 195.983 299.104C195.543 296.555 194.108 296.335 192.946 297.996C191.788 299.658 190.905 303.205 189.689 311.541C188.473 319.881 186.93 333.01 185.743 340.796C184.557 348.583 183.727 351.019 181.852 352.322C179.976 353.625 177.047 353.792 175.558 351.518C174.068 349.245 174.01 344.535 174.039 335.646C174.068 326.752 174.176 313.677 173.873 306.116C173.57 298.554 172.852 296.501 172.243 294.424C171.637 292.346 171.139 290.239 170.143 288.69C169.147 287.137 167.658 286.142 165.231 284.48C162.804 282.819 159.435 280.491 157.061 278.247C154.688 276.003 153.307 273.842 152.892 272.401C152.477 270.96 153.029 270.24 154.547 269.436C156.066 268.633 158.551 267.746 161.667 266.859C164.787 265.972 168.542 265.085 170.388 265.86C172.238 266.634 172.18 269.074 172.043 271.897C171.906 274.724 171.687 277.935 171.297 279.958C170.911 281.982 170.359 282.811 167.625 283.31C164.891 283.81 159.978 283.976 157.385 285.609C154.792 287.245 154.514 290.347 154.348 293.229C154.182 296.11 154.128 298.771 153.742 307.856C153.356 316.942 152.639 332.456 151.892 340.434C151.145 348.412 150.373 348.858 148.606 349.132C146.838 349.411 144.079 349.52 141.32 349.103C138.561 348.687 135.798 347.746 132.736 346.472C129.67 345.197 126.305 343.59 123.214 342.649C120.123 341.708 117.306 341.429 114.962 341.071C112.614 340.713 110.738 340.267 109.606 337.94C108.473 335.612 108.087 331.403 107.838 326.165C107.589 320.931 107.481 314.668 106.457 306.553C105.436 298.437 103.502 288.465 100.494 282.036C97.4865 275.607 93.3997 272.73 89.9229 271.064C86.4461 269.403 83.575 268.957 80.7039 269.403C77.8328 269.844 74.9618 271.177 69.6055 275.332C64.2492 279.488 56.4117 286.471 51.6612 289.96C46.9148 293.449 45.2552 293.449 41.9983 292.342C38.7413 291.234 33.8829 289.019 27.7009 288.852C21.519 288.686 14.0093 290.572 9.09696 292.841C4.18458 295.115 1.8653 297.771 1.20146 300.599C0.53763 303.426 1.5334 306.415 3.90661 308.189C6.27982 309.963 10.0346 310.517 15.1669 309.463C20.2992 308.41 26.8172 305.753 30.8458 306.803C34.8745 307.856 36.422 312.62 37.6916 320.431C38.9612 328.242 39.957 339.102 40.7287 349.216C41.5004 359.325 42.0521 368.69 42.1642 374.036C42.2762 379.383 41.9443 380.711 40.0648 384.313C38.1895 387.914 34.7666 393.785 34.833 396.717C34.8994 399.648 38.4592 399.632 61.5357 399.54C84.6123 399.448 127.206 399.278 148.531 399.228C169.857 399.178 169.911 399.253 169.222 397.683C168.533 396.113 167.098 392.899 166.874 391.291C166.654 389.684 167.645 389.684 171.346 390.738C175.043 391.791 181.449 393.894 190.946 395.78C200.443 397.662 213.027 399.328 229.37 399.823C245.712 400.323 265.806 399.656 280.821 399.157C295.836 398.657 305.773 398.324 311.793 397.912C317.809 397.495 319.908 396.996 321.232 396.001C322.555 395.001 323.107 393.506 323.385 392.345C323.663 391.183 323.663 390.35 320.074 389.297C316.486 388.243 309.308 386.969 303.79 385.974C298.267 384.975 294.405 384.259 291.919 383.95C289.434 383.646 288.331 383.755 280.02 383.98C271.71 384.2 256.197 384.533 245.21 384.729C234.224 384.925 227.764 384.979 224.507 385.587C221.25 386.195 221.196 387.361 221.167 388.522C221.138 389.684 221.138 390.85 222.549 391.679C223.955 392.511 226.772 393.007 238.282 393.036C249.791 393.065 269.996 392.62 281.979 392.149C293.957 391.679 297.711 391.179 302.873 389.322C308.034 387.465 314.606 384.25 318.112 381.594C321.618 378.933 322.058 376.83 322.365 369.931C322.667 363.031 322.833 351.343 322.394 341.038C321.954 330.732 320.904 321.813 319.386 318.295C317.867 314.776 315.88 316.658 313.175 319.819C310.47 322.975 307.047 327.41 303.018 329.904C298.989 332.398 294.351 332.952 288.335 332.506C282.319 332.065 274.921 330.624 266.86 327.963C258.798 325.303 250.077 321.426 244.223 317.383C238.373 313.34 235.39 309.126 231.527 306.303C227.665 303.476 222.914 302.035 220.043 300.265C217.172 298.492 216.18 296.389 216.234 293.283C216.288 290.181 217.392 286.079 219.711 280.429C222.03 274.779 225.561 267.575 231.249 251.786C236.937 235.996 244.775 211.617 249.965 197.489C255.156 183.361 257.695 179.481 259.184 176.378C260.674 173.276 261.118 170.949 262.441 167.543C263.765 164.137 265.976 159.648 268.681 154.801C271.386 149.955 274.589 144.746 277.016 139.095C279.444 133.445 281.103 127.349 282.647 121.807C284.194 116.265 285.626 111.281 287.725 106.738C289.824 102.195 292.583 98.094 296.421 93.6345C300.259 89.175 305.171 84.3533 309.532 81.3886C313.892 78.424 317.701 77.3164 321.29 76.875C324.879 76.4336 328.248 76.6543 331.227 77.2081C334.21 77.7619 336.803 78.6488 339.894 80.56C342.985 82.4712 346.574 85.4067 350.051 88.1507C353.527 90.8947 356.896 93.443 359.738 96.6574C362.58 99.8719 364.9 103.748 366.281 108.737C367.663 113.725 368.103 119.817 368.323 127.853C368.543 135.885 368.543 145.862 368.601 153.727C368.655 161.593 368.767 167.355 369.264 173.231C369.762 179.102 370.646 185.089 370.26 191.847C369.874 198.605 368.219 206.142 366.173 212.238C364.132 218.333 361.701 222.984 359.548 226.699C357.394 230.413 355.519 233.182 354.357 236.559C353.2 239.94 352.756 243.929 351.706 246.531C350.656 249.133 349.001 250.353 347.897 248.305C346.794 246.256 346.242 240.935 344.694 235.172C343.147 229.409 340.608 223.205 339.064 217.222C337.517 211.238 336.965 205.475 337.575 200.712C338.18 195.949 339.948 192.18 341.935 189.52C343.923 186.859 346.13 185.31 348.781 183.149C351.432 180.988 354.523 178.219 357.174 173.451C359.826 168.688 362.033 161.926 362.917 154.781C363.8 147.635 363.356 140.099 362.971 135.169C362.585 130.239 362.253 127.911 361.095 123.839C359.938 119.767 357.95 113.95 355.602 109.794C353.254 105.639 350.548 103.145 348.644 101.567C346.74 99.9885 345.636 99.3223 344.474 99.822C343.317 100.322 342.101 101.983 341.354 104.644C340.608 107.304 340.334 110.96 338.869 115.503C337.405 120.046 334.758 125.475 331.969 128.719C329.181 131.959 326.256 133.012 324.157 134.482C322.057 135.952 320.788 137.834 319.742 139.108C318.693 140.382 317.867 141.048 316.539 141.406C315.216 141.764 313.395 141.823 312.15 142.984C310.909 144.146 310.245 146.42 309.914 148.385C309.582 150.35 309.582 152.016 309.943 154.672C310.299 157.333 311.017 160.989 313.229 165.973C315.436 170.961 319.137 177.274 321.456 182.733C323.775 188.191 324.713 192.788 325.182 197.552C325.651 202.315 325.651 207.249 325.377 211.846C325.099 216.443 324.547 220.711 323.443 222.818C322.34 224.925 320.684 224.866 318.033 222.818C315.382 220.769 311.739 216.722 308.511 212.512C305.283 208.303 302.466 203.927 299.732 198.355C296.998 192.788 294.351 186.026 292.94 180.292C291.534 174.559 291.368 169.85 290.401 167.493C289.434 165.136 287.667 165.136 286.343 166.552C285.02 167.963 284.136 170.791 284.219 174.834C284.302 178.877 285.352 184.14 286.675 188.27C287.999 192.397 289.6 195.391 289.795 197.135C289.99 198.88 288.775 199.38 287.119 198.409C285.464 197.439 283.364 195.003 281.929 192.426C280.493 189.849 279.722 187.134 278.506 186.497C277.29 185.86 275.635 187.3 274.091 189.407C272.544 191.514 271.108 194.283 271 198.409C270.888 202.536 272.104 208.024 272.876 213.312C273.647 218.604 273.979 223.701 274.199 230.071C274.419 236.442 274.531 244.087 274.863 250.628C275.195 257.165 275.747 262.595 275.693 267.858C275.639 273.121 274.975 278.218 273.042 281.82C271.108 285.421 267.909 287.528 264.76 286.862C261.615 286.196 258.52 282.761 256.259 278.164C253.994 273.567 252.562 267.804 251.289 260.434C250.019 253.064 248.915 244.091 248.53 235.78C248.144 227.469 248.476 219.824 250.297 213.562C252.118 207.299 255.429 202.423 257.973 198.047C260.512 193.671 262.279 189.79 263.823 185.635C265.37 181.479 266.694 177.049 268.818 172.281C270.942 167.518 273.867 162.421 277.211 157.433C280.551 152.445 284.306 147.569 287.065 142.06C289.824 136.547 291.592 130.397 292.944 126.296C294.297 122.194 295.234 120.146 297.774 116.044C300.313 111.943 304.454 105.793 308.262 101.167C312.071 96.5409 315.548 93.4388 318.971 91.361C322.394 89.2833 325.763 88.2298 327.721 88.1216C329.679 88.0091 330.231 88.8419 330.758 89.8954C331.281 90.9488 331.779 92.223 332.081 95.0752C332.384 97.9274 332.496 102.362 332.11 106.601C331.725 110.84 330.841 114.883 328.8 118.459C326.758 122.032 323.555 125.134 321.348 127.907C319.141 130.676 317.925 133.116 316.627 136.993C315.328 140.869 313.95 146.191 313.59 150.679C313.233 155.168 313.892 158.824 315.494 161.676C317.095 164.528 319.635 166.581 322.12 168.546C324.605 170.512 327.032 172.398 329.878 173.839C332.72 175.279 335.977 176.274 338.712 176.774C341.446 177.274 343.653 177.274 345.752 176.72C347.852 176.166 349.839 175.059 351.66 171.844C353.482 168.63 355.137 163.312 356.324 159.906C357.51 156.5 358.228 155.001 360.821 151.874C363.414 148.743 367.887 143.98 371.393 142.955C374.899 141.931 377.438 144.646 378.459 148.189C379.479 151.737 378.981 156.113 378.347 160.127C377.712 164.145 376.94 167.801 376.164 170.349C375.393 172.898 374.617 174.338 372.936 177.053C371.252 179.768 368.659 183.757 367.223 187.221C365.788 190.685 365.514 193.621 364.518 197.331C363.522 201.041 361.813 205.53 359.44 211.43C357.067 217.33 354.029 224.646 350.304 230.296C346.578 235.946 342.159 239.935 338.463 240.797C334.762 241.655 331.783 239.386 328.248 237.058C324.713 234.731 320.63 232.349 316.378 228.472C312.125 224.596 307.71 219.22 304.976 216.143C302.242 213.066 301.197 212.292 300.006 211.85C298.819 211.409 297.496 211.297 294.318 211.63C291.144 211.963 286.119 212.737 282.862 213.874C279.605 215.011 278.116 216.505 277.452 218.084C276.788 219.662 276.954 221.323 277.73 223.68C278.502 226.036 279.883 229.08 282.862 233.79C285.845 238.499 290.426 244.87 296.085 251.573C301.744 258.277 308.478 265.314 313.697 269.803C318.913 274.291 322.614 276.232 327.638 279.167C332.662 282.103 339.01 286.038 344.972 288.669C350.934 291.301 356.511 292.629 362.39 293.462C368.269 294.294 374.451 294.623 379.641 294.486C384.831 294.349 389.026 293.737 392.586 293.682C396.146 293.628 399.071 294.124 401.556 296.039C404.041 297.95 406.082 301.273 409.149 303.934C412.215 306.594 416.297 308.589 418.645 309.226C420.994 309.863 421.6 309.143 422.014 306.953C422.429 304.762 422.649 301.107 423.255 297.975C423.861 294.844 424.857 292.242 425.628 289.36C426.4 286.479 426.952 283.323 427.035 281.27C427.118 279.221 426.732 278.276 424.881 277.697C423.031 277.114 419.72 276.894 415.579 276.203C411.439 275.511 406.468 274.345 400.012 273.267C393.553 272.189 385.603 271.189 379.778 270.357C373.953 269.524 370.256 268.862 366.086 267.975C361.917 267.088 357.282 265.98 353.635 264.652C349.993 263.324 347.341 261.771 345.134 259.501C342.927 257.228 341.159 254.238 339.612 251.994C338.064 249.75 336.741 248.255 334.314 248.284C331.882 248.313 328.352 249.862 326.198 252.469C324.045 255.075 323.273 258.731 322.721 264.048C322.17 269.366 321.838 276.348 321.726 281.582C321.614 286.816 321.726 290.31 321.726 293.995C321.726 297.68 321.614 301.556 320.842 307.044C320.07 312.528 318.635 319.619 317.971 324.495C317.307 329.371 317.419 332.031 317.585 337.902C317.751 343.773 317.971 352.863 319.46 359.954C320.95 367.045 323.713 372.142 326.086 375.523C328.459 378.904 330.447 380.565 337.512 382.447C344.578 384.329 356.726 386.436 364.178 385.495C371.629 384.554 374.393 380.565 375.994 376.518C377.596 372.475 378.035 368.373 379.583 365.492C381.131 362.611 383.778 360.949 387.586 360.117C391.395 359.284 396.366 359.284 400.726 359.284C405.087 359.284 408.842 359.284 410.551 360.837C412.26 362.39 411.932 365.492 410.717 367.653C409.501 369.814 407.406 371.034 403.485 371.421C399.564 371.809 393.822 371.367 389.52 370.922C385.213 370.48 382.342 370.035 380.189 367.374C378.035 364.713 376.6 359.838 376.268 355.794C375.936 351.751 376.708 348.537 378.201 344.548C379.691 340.559 381.898 335.796 383.334 330.861C384.769 325.931 385.433 320.835 385.985 316.454C386.537 312.078 386.981 308.422 389.96 300.386C392.943 292.354 398.461 279.942 400.448 271.464C402.435 262.986 400.888 258.444 398.681 254.734C396.473 251.02 393.602 248.142 389.018 247.143C384.437 246.144 378.143 247.031 373.227 249.25C368.314 251.465 364.779 255.013 360.141 263.378C355.502 271.743 349.76 284.93 345.951 296.73C342.143 308.531 340.263 318.949 337.699 329.446C335.131 339.947 331.874 350.527 330.248 356.956C328.617 363.385 328.617 365.654 329.061 368.065C329.501 370.476 330.385 373.024 332.899 375.186C335.409 377.347 339.55 379.12 343.773 380.007C347.997 380.894 352.303 380.894 358.183 381.144C364.062 381.394 371.513 381.894 381.01 383.859C390.507 385.824 402.045 389.259 410.601 391.395C419.156 393.527 424.732 394.36 435.001 394.635C445.269 394.914 460.231 394.635 480.382 394.497C500.534 394.36 525.871 394.36 538.957 394.277C552.043 394.194 552.869 394.027 553.781 393.361C554.694 392.695 555.686 391.533 557.287 390.95C558.889 390.367 561.096 390.367 562.752 389.951C564.407 389.534 565.511 388.706 566.394 386.653C567.278 384.604 567.942 381.336 569.763 372.221C571.585 363.106 574.568 348.146 577.85 331.386C581.136 314.627 584.724 296.064 586.38 286.067C588.035 276.065 587.761 274.624 586.38 273.713C584.998 272.797 582.517 272.409 575.339 272.326C568.162 272.243 556.292 272.463 532.335 272.576C508.375 272.688 472.325 272.688 453.667 273.654C435.009 274.624 433.739 276.565 432.549 279.363C431.362 282.161 430.258 285.817 427.827 297.842C425.4 309.863 421.645 330.253 418.691 345.102C415.737 359.95 413.584 369.256 411.016 374.078C408.447 378.9 405.468 379.229 401.494 379.287C397.519 379.341 392.548 379.12 388.798 378.679C385.043 378.238 382.504 377.571 379.579 375.023C376.654 372.475 373.339 368.04 371.132 364.385C368.924 360.729 367.821 357.847 367.929 354.191C368.036 350.536 369.364 346.101 370.8 342.279C372.235 338.456 373.783 335.242 375.052 330.753C376.322 326.264 377.318 320.502 378.143 316.017C378.973 311.529 379.633 308.314 380.848 303.384C382.064 298.454 383.832 291.804 384.711 284.988C385.595 278.172 385.595 271.193 385.317 266.426C385.039 261.662 384.487 259.114 386.308 255.537C388.13 251.965 392.324 247.364 397.681 244.399C403.037 241.434 409.551 240.106 414.795 238.445C420.04 236.783 424.014 234.789 427.271 233.069C430.528 231.354 433.067 229.913 435.109 227.032C437.15 224.15 438.697 219.828 439.967 214.619C441.237 209.41 442.232 203.319 441.456 198.276C440.685 193.234 438.146 189.245 435.826 188.083C433.507 186.921 431.412 188.583 430.196 191.851C428.981 195.12 428.649 199.996 429.093 203.46C429.532 206.924 430.748 208.973 432.433 212.379C434.117 215.785 436.27 220.553 437.096 224.954C437.926 229.359 437.428 233.402 439.137 238.195C440.847 242.988 444.767 248.53 448.742 252.823C452.717 257.115 456.745 260.163 461.301 261.717C465.857 263.27 470.935 263.324 475.984 261.079C481.038 258.835 486.058 254.292 489.456 249.471C492.85 244.649 494.617 239.552 496.136 235.372C497.654 231.187 498.924 227.919 500.994 224.542C503.065 221.161 505.936 217.671 508.28 212.325C510.628 206.979 512.449 199.775 512.835 193.042C513.221 186.309 512.171 180.051 510.736 175.616C509.3 171.186 507.479 168.58 504.413 165.199C501.351 161.818 497.044 157.662 491.717 155.255C486.39 152.844 480.042 152.178 474.246 152.207C468.45 152.236 463.205 152.957 458.289 154.672C453.376 156.388 448.792 159.103 445.896 162.096C442.996 165.09 441.784 168.359 441.067 171.265C440.349 174.172 440.129 176.724 440.266 179.214C440.403 181.708 440.901 184.144 441.589 186.526C442.278 188.907 443.162 191.235 442.527 194.062C441.892 196.89 439.739 200.212 438.581 202.486C437.424 204.759 437.258 205.975 436.345 211.463C435.432 216.947 433.777 226.699 433.034 233.569C432.287 240.439 432.453 244.428 433.117 247.584C433.781 250.741 434.938 253.068 437.839 256.008C440.739 258.943 445.373 262.491 449.24 264.735C453.103 266.98 456.198 267.921 459.948 268.141C463.703 268.362 468.118 267.867 472.175 267.2C476.233 266.534 479.934 265.705 483.382 263.903C486.834 262.104 490.033 259.331 492.572 256.283C495.111 253.235 496.99 249.912 498.505 248.471C500.023 247.031 501.181 247.472 503.446 249.246C505.711 251.02 509.076 254.122 512.142 257.17C515.209 260.218 517.968 263.207 520.673 265.148C523.378 267.088 526.029 267.975 529.701 268.416C533.373 268.858 538.065 268.858 540.716 268.195C543.368 267.529 543.973 266.201 544.193 263.986C544.413 261.771 544.247 258.669 544.716 256.062C545.185 253.46 546.288 251.353 547.118 249.221C547.948 247.089 548.5 244.928 549.438 242.821C550.375 240.714 551.703 238.665 552.089 235.755C552.475 232.844 551.923 229.08 550.736 226.503C549.55 223.925 547.728 222.543 545.932 220.519C544.139 218.496 542.372 215.839 539.667 214.257C536.962 212.679 533.319 212.179 529.618 211.846C525.921 211.513 522.166 211.346 519.403 211.792C516.644 212.233 514.877 213.287 513.304 214.286C511.732 215.285 510.35 216.226 508.944 218.329C507.537 220.436 506.102 223.705 504.749 226.253C503.396 228.801 502.127 230.629 501.355 231.712C500.583 232.79 500.305 233.123 500.364 233.569C500.417 234.01 500.803 234.568 502.102 235.343C503.401 236.117 505.608 237.117 508.201 238.582C510.794 240.052 513.777 241.988 516.233 244.316C518.689 246.643 520.623 249.358 523.191 251.186C525.759 253.014 528.962 253.955 531.443 254.426C533.929 254.896 535.696 254.896 537.269 254.48C538.841 254.063 540.223 253.235 541.243 252.069C542.264 250.907 542.928 249.408 543.343 247.443C543.758 245.478 543.923 243.037 544.006 234.701C544.089 226.361 544.089 212.125 544.089 199.604C544.089 187.084 544.09 176.279 543.509 170.158C542.928 164.037 541.77 162.596 537.024 159.298C532.277 156.001 523.938 150.85 514.47 144.891C505.002 138.937 494.401 132.175 488.107 128.602C481.813 125.03 479.826 124.643 477.976 125.113C476.125 125.584 474.416 126.912 473.449 128.686C472.482 130.46 472.263 132.675 472.209 136.139C472.155 139.603 472.263 144.313 472.565 146.665C472.868 149.022 473.366 149.022 473.752 148.772C474.138 148.522 474.416 148.023 474.69 146.89C474.964 145.758 475.242 143.98 475.378 141.848C475.515 139.716 475.515 137.222 475.764 133.12C476.013 129.019 476.511 123.314 477.2 119.6C477.889 115.886 478.772 114.171 481.643 109.241C484.514 104.311 489.373 96.1661 494.783 91.2611C500.193 86.3561 506.155 84.6947 511.844 84.195C517.532 83.6954 522.942 84.3616 526.805 84.0826C530.668 83.8037 532.987 82.5878 535.032 81.9757C537.074 81.3678 538.841 81.3678 540.555 84.4699C542.264 87.5719 543.923 93.7761 546.243 97.8233C548.562 101.871 551.541 103.753 555.354 104.527C559.163 105.302 563.801 104.968 568.767 103.42C573.738 101.866 579.036 99.0975 584.002 94.8878C588.973 90.6782 593.607 85.0237 596.537 79.9854C599.462 74.943 600.677 70.5126 601.341 65.5244C602.005 60.5361 602.113 54.9982 600.789 50.7302C599.466 46.4623 596.702 43.4726 593.338 41.8112C589.969 40.1499 585.994 39.8168 580.53 40.6495C575.066 41.4823 568.108 43.4768 562.976 44.9716C557.843 46.4664 554.528 47.4658 551.989 49.073C549.45 50.6802 547.682 52.8954 546.413 54.6692C545.143 56.443 544.372 57.7713 543.542 56.8302C542.712 55.8892 541.832 52.6747 541.72 49.6268C541.608 46.5789 542.272 43.6975 543.156 42.0902C544.04 40.483 545.143 40.1499 546.081 39.0423C547.019 37.9347 547.79 36.0485 549.587 31.589C551.379 27.1295 554.196 20.0926 557.868 14.5797C561.54 9.06675 566.067 5.07779 571.589 2.9459C577.111 0.814005 583.625 0.535028 589.421 1.61763C595.217 2.69606 600.295 5.13608 603.913 8.07159C607.531 11.0071 609.685 14.4423 611.062 18.2938C612.444 22.1454 613.049 26.4092 613.215 31.285C613.381 36.1609 613.103 41.6447 612.552 46.5206C612 51.3964 611.17 55.6602 609.627 59.595C608.079 63.5299 605.818 67.1316 605.266 70.2586C604.714 73.3899 605.872 76.0506 606.701 79.0943C607.531 82.1423 608.025 85.5774 607.639 88.6254C607.253 91.6733 605.984 94.334 604.739 95.4125C603.498 96.4909 602.283 95.9954 600.959 94.4131C599.636 92.835 598.2 90.1743 597.922 87.93C597.644 85.6857 598.528 83.8578 600.105 78.6488C601.681 73.4398 603.942 64.854 604.992 57.7879C606.042 50.7219 605.876 45.184 603.752 41.0826C601.627 36.9812 597.541 34.3247 591.359 32.9922C585.177 31.664 576.895 31.664 570.104 33.3795C563.312 35.095 558.013 38.5301 553.653 44.3512C549.292 50.1681 545.869 58.3667 544.322 64.4085C542.774 70.446 543.106 74.3267 542.72 78.2616C542.334 82.1964 541.231 86.1854 540.21 89.8954C539.19 93.6095 538.252 97.0405 537.534 100.671C536.816 104.302 536.318 108.125 536.016 111.697C535.713 115.27 535.601 118.597 535.738 121.557C535.875 124.522 536.26 127.124 537.227 129.839C538.194 132.554 539.737 135.381 541.505 140.116C543.272 144.854 545.259 151.499 546.5 155.488C547.741 159.477 548.238 160.806 548.927 159.448C549.616 158.091 550.5 154.048 553.346 148.477C556.188 142.909 560.992 135.818 565.104 130.36C569.216 124.901 572.638 121.078 575.924 117.756C579.21 114.433 582.355 111.606 585.363 109.249C588.371 106.892 591.243 105.01 593.093 103.045C594.943 101.079 595.769 99.0267 597.839 98.6936C599.91 98.3605 603.221 99.747 606.809 101.129C610.398 102.516 614.261 103.898 618.733 106.476C623.206 109.053 628.284 112.822 632.562 116.34C636.84 119.858 640.321 123.127 642.308 128.003C644.295 132.879 644.793 139.362 644.49 146.649C644.187 153.935 643.084 162.022 643.192 167.23C643.304 172.439 644.627 174.767 648.216 180.03C651.805 185.293 657.655 193.492 661.962 201.636C666.268 209.781 669.027 217.871 671.898 224.354C674.769 230.837 677.748 235.713 679.682 241.143C681.615 246.573 682.499 252.556 682.553 256.712C682.607 260.867 681.835 263.195 678.91 264.968C675.985 266.742 670.907 267.958 667.65 270.065C664.393 272.172 662.957 275.162 660.858 277.377C658.759 279.592 656 281.033 652.909 281.811C649.818 282.586 646.395 282.698 642.806 281.203C639.217 279.709 635.462 276.606 631.434 273.5C627.405 270.398 623.098 267.296 620.007 263.582C616.916 259.868 615.037 255.55 614.045 248.621C613.049 241.697 612.942 232.166 610.568 225.295C608.195 218.425 603.557 214.215 599.308 211.834C595.055 209.452 591.193 208.898 588.434 209.618C585.675 210.339 584.019 212.333 583.189 215.548C582.36 218.762 582.36 223.193 582.36 227.735C582.36 232.278 582.359 236.933 584.401 244.745C586.442 252.556 590.529 263.528 596.545 269.457C602.561 275.386 610.51 276.273 616.087 276.107C621.663 275.94 624.866 274.72 630.384 274.333C635.906 273.946 643.743 274.387 649.266 273.725C654.788 273.059 657.987 271.289 660.692 268.241C663.397 265.193 665.604 260.871 666.82 256.716C668.036 252.56 668.256 248.571 667.538 241.922C666.82 235.272 665.165 225.966 660.414 214.94C655.668 203.914 647.826 191.173 642.582 183.47C637.337 175.766 634.686 173.11 630.877 171.448C627.069 169.787 622.098 169.121 617.132 169.175C612.162 169.229 607.195 170.008 601.619 172.664C596.043 175.325 589.861 179.868 585.056 186.293C580.252 192.717 576.829 201.028 575.12 208.565C573.41 216.102 573.41 222.86 574.402 230.005C575.397 237.15 577.385 244.686 579.426 250.145C581.467 255.604 583.567 258.981 585.911 262.558C588.259 266.13 590.852 269.898 594.163 273.638C597.474 277.377 601.507 281.091 604.984 285.384C608.461 289.677 611.39 294.553 614.369 299.566C617.352 304.579 620.385 309.734 623.202 315.468C626.019 321.201 628.612 327.518 630.243 330.899C631.873 334.28 632.533 334.721 633.363 333.447C634.193 332.173 635.184 329.179 636.4 323.029C637.615 316.879 639.051 307.573 640.706 301.311C642.362 295.048 644.241 291.838 647.166 291.451C650.091 291.063 654.066 293.499 657.547 295.44C661.024 297.38 664.007 298.821 665.994 297.101C667.982 295.385 668.978 290.51 669.749 286.521C670.521 282.532 671.073 279.43 674.11 276.494C677.147 273.558 682.665 270.785 688.465 269.57C694.261 268.35 700.335 268.683 707.733 271.177C715.131 273.671 723.852 278.322 729.897 283.423C735.942 288.519 739.311 294.061 742.841 301.931C746.376 309.796 750.073 319.994 752.807 328.854C755.541 337.719 757.305 345.256 758.247 351.626C759.184 357.997 759.296 363.206 758.301 367.749C757.305 372.292 755.21 376.172 752.421 378.388C749.633 380.603 746.157 381.161 740.029 381.269C733.901 381.381 725.121 381.044 713.998 380.878C702.875 380.711 689.403 380.711 679.632 380.711C669.861 380.711 663.787 380.711 658.377 380.378C652.967 380.045 648.22 379.379 645.515 377.609C642.81 375.835 642.146 372.954 642.698 369.964C643.25 366.97 645.017 363.868 648.22 361.986C651.423 360.104 656.058 359.438 662.464 359.438C668.87 359.438 677.039 360.104 685.54 359.992C694.041 359.879 702.874 358.992 711.102 358.497C719.329 357.997 726.947 357.889 731.253 356.723C735.56 355.561 736.552 353.342 736.942 350.96C737.328 348.579 737.108 346.03 735.838 343.811C734.568 341.596 732.249 339.71 730.262 337.94C728.275 336.166 726.619 334.505 725.291 332.785C723.968 331.07 722.972 329.296 721.263 325.748C719.553 322.201 717.122 316.883 714.803 311.841C712.484 306.798 710.276 302.035 708.563 297.934C706.853 293.832 705.638 290.397 704.862 289.456C704.09 288.515 703.758 290.064 704.476 294.053C705.194 298.042 706.961 304.471 708.891 310.729C710.824 316.992 712.919 323.083 713.749 329.954C714.579 336.824 714.135 344.469 713.143 348.57C712.147 352.672 710.604 353.225 705.746 353.334C700.887 353.446 692.718 353.113 683.109 352.892C673.504 352.672 662.464 352.559 655.066 353.725C647.668 354.887 643.914 357.327 641.486 360.208C639.059 363.09 637.952 366.412 635.47 368.961C632.985 371.509 629.123 373.283 624.318 374.336C619.514 375.39 613.775 375.723 609.523 373.782C605.27 371.842 602.511 367.632 599.806 360.595C597.101 353.558 594.45 343.699 592.188 338.49C589.923 333.281 588.048 332.727 586.944 334.888C585.84 337.049 585.509 341.925 584.845 346.967C584.181 352.01 583.189 357.219 581.862 361.815C580.538 366.412 578.879 370.401 577.418 373.341C575.954 376.276 574.684 378.163 573.717 379.658C572.75 381.152 572.091 382.26 572.394 383.205" stroke="white" stroke-width="1.5" stroke-miterlimit="2.61"/>
</svg>
