<svg width="723" height="432" viewBox="0 0 723 432" fill="none" xmlns="http://www.w3.org/2000/svg">
<rect width="723" height="432" fill="#F3F2F1"/>
<mask id="mask0_11_55" style="mask-type:alpha" maskUnits="userSpaceOnUse" x="0" y="0" width="723" height="432">
<rect width="723" height="432" fill="#F3F2F1"/>
</mask>
<g mask="url(#mask0_11_55)">
<path fill-rule="evenodd" clip-rule="evenodd" d="M413.101 98.5502C413.265 98.1394 413.71 97.9158 414.138 98.0295C445.106 106.263 469.744 121.51 486.651 138.341C503.53 155.145 512.796 173.626 512.796 188.348C512.796 200.035 509.199 211.569 504.733 221.216C500.266 230.864 494.902 238.682 491.303 242.95C491.047 243.255 490.616 243.347 490.256 243.175L378.642 189.65L369.788 211.844L481.268 267.296C481.506 267.415 481.677 267.635 481.733 267.894C481.789 268.154 481.724 268.425 481.555 268.631C472.926 279.184 450.479 299.359 421.883 307.253V344.804C429.565 342.071 441.112 337.244 452.161 331.142C463.713 324.763 474.58 317.067 480.004 309.008V285.796C480.004 285.314 480.395 284.923 480.878 284.923H630V286.669H481.753V309.272C481.753 309.443 481.702 309.61 481.608 309.753C475.984 318.27 464.694 326.217 453.007 332.671C441.286 339.143 429.022 344.19 421.295 346.862C421.027 346.954 420.732 346.912 420.502 346.748C420.271 346.584 420.134 346.319 420.134 346.036V307.718C415.957 308.788 411.654 309.591 407.248 310.061V351.352C407.248 351.755 406.972 352.106 406.579 352.201C384.182 357.608 347.984 362.294 312.116 358.788C276.273 355.283 240.57 343.575 219.419 316.004C219.255 315.791 219.199 315.513 219.267 315.253C219.335 314.992 219.52 314.778 219.767 314.671L258.7 297.929C235.306 289.056 214.863 275.914 202.386 256.978L201.918 257.159V288.454C201.918 288.936 201.526 289.327 201.043 289.327H68V287.58H200.169V256.562C200.169 256.201 200.391 255.878 200.727 255.748L201.422 255.478C193.897 243.47 189.526 229.19 189.526 212.267C189.526 189.187 197.54 171.323 210.576 157.661C223.593 144.02 241.578 134.607 261.481 128.316C301.276 115.738 348.974 115.568 380.753 119.267C381.025 119.299 381.267 119.456 381.406 119.692C381.545 119.928 381.565 120.215 381.46 120.468L357.828 177.73L377.711 187.265L413.101 98.5502ZM379.291 188.023L490.398 241.305C493.888 237.053 498.921 229.608 503.146 220.483C507.549 210.972 511.047 199.695 511.047 188.348C511.047 174.279 502.13 156.217 485.417 139.579C468.866 123.103 444.761 108.119 414.437 99.9183L379.291 188.023ZM377.062 188.892L356.326 178.948C355.908 178.747 355.719 178.256 355.896 177.828L379.403 120.871C347.774 117.326 301.01 117.654 262.008 129.981C242.275 136.219 224.588 145.509 211.842 158.867C199.115 172.204 191.274 189.636 191.274 212.267C191.274 228.937 195.605 243.003 203.086 254.832L342.196 200.823C342.415 200.738 342.658 200.744 342.872 200.84C343.085 200.936 343.251 201.114 343.333 201.333L362.593 253.251L379.419 246.015C379.75 245.873 380.134 245.947 380.387 246.203L421.63 287.839C421.792 288.003 421.883 288.224 421.883 288.454V305.439C449.044 297.794 470.577 278.904 479.5 268.368L368.289 213.049C367.881 212.846 367.698 212.366 367.866 211.944L377.062 188.892ZM420.134 305.914V288.813L379.563 247.855L363.201 254.891L384.576 312.512C384.672 312.77 384.64 313.058 384.491 313.289C384.342 313.52 384.093 313.667 383.819 313.687C351.521 315.98 303.051 313.7 262.616 299.365C262.1 299.182 261.586 298.997 261.072 298.81L221.497 315.829C242.294 342.197 277.019 353.601 312.286 357.049C347.568 360.499 383.205 355.966 405.5 350.663V309.272C405.5 308.822 405.841 308.446 406.289 308.403C411.03 307.942 415.656 307.084 420.134 305.914ZM263.426 297.798C303.03 311.785 350.446 314.167 382.531 312.025L361.593 255.583L263.426 297.798ZM360.984 253.943L342.002 202.772L204.057 256.328C216.592 275.161 237.245 288.178 261.02 296.931L360.984 253.943Z" fill="#666666"/>
<path d="M384 182.711L424.102 90C544.844 114.927 539.177 209.825 490.793 240L384 182.711Z" fill="#33A291" fill-opacity="0.43"/>
<path d="M189 256.777L334.82 213L368 324.194C268.109 331.899 207.046 282.46 189 256.777Z" fill="#D53880" fill-opacity="0.5"/>
</g>
</svg>
