<svg width="723" height="432" viewBox="0 0 723 432" fill="none" xmlns="http://www.w3.org/2000/svg">
<rect width="723" height="432" fill="#F3F2F1"/>
<mask id="mask0_11_56" style="mask-type:alpha" maskUnits="userSpaceOnUse" x="0" y="0" width="723" height="432">
<rect width="723" height="432" fill="#F3F2F1"/>
</mask>
<g mask="url(#mask0_11_56)">
<path d="M583 166.644C583 205.92 542.504 239.488 485.338 252.967C478.005 254.697 540.519 310.099 462.565 257.133C451.915 258.544 440.852 259.288 429.5 259.288C344.724 259.288 276 217.81 276 166.644C276 115.478 344.724 74 429.5 74C514.276 74 583 115.478 583 166.644Z" fill="#D53880" fill-opacity="0.5"/>
<path d="M430 275.278C412.516 306.785 375.799 337.899 307.61 329.54C292.157 327.646 275.716 324.967 259.528 321.33C250.945 319.402 243.137 319.694 239.421 321.33C173.2 390.367 217.785 323.414 210.572 308.317C173.038 294.5 152 274.692 152 243.771C152 207.013 165.987 163.253 251.66 151C209.698 196.51 260.84 280.311 430 275.278Z" fill="#359BB7" fill-opacity="0.5"/>
<path fill-rule="evenodd" clip-rule="evenodd" d="M306.765 95.1061C334.826 77.1052 373.54 66 416.256 66C458.973 66 497.686 77.1052 525.747 95.1061C553.799 113.101 571.306 138.066 571.306 165.774C571.306 201.598 542.068 232.813 498.525 250.373L515.038 296.933C515.161 297.279 515.053 297.665 514.769 297.898C514.485 298.131 514.085 298.161 513.769 297.974L453.994 262.574C441.913 264.515 429.272 265.548 416.256 265.548C379.744 265.548 346.157 257.434 319.647 243.837C324.59 246.962 331.505 250.697 340.721 254.353C363.129 263.244 399.157 271.675 453.518 269.701C453.742 269.693 453.96 269.771 454.128 269.918L514.545 323.053H630.126C630.609 323.053 631 323.443 631 323.925C631 324.407 630.609 324.797 630.126 324.797H514.215C514.002 324.797 513.796 324.72 513.637 324.579L453.234 271.457C398.854 273.39 362.687 264.946 340.075 255.974C328.746 251.479 320.825 246.854 315.725 243.341C313.176 241.585 311.332 240.106 310.121 239.062C309.515 238.54 309.068 238.126 308.769 237.841C308.62 237.698 308.508 237.587 308.432 237.51C308.394 237.472 308.365 237.443 308.345 237.422L308.321 237.397L308.312 237.388C308.311 237.387 308.311 237.387 308.947 236.788L308.311 237.387C308.009 237.068 307.992 236.575 308.27 236.236C308.549 235.897 309.036 235.816 309.409 236.048C337.007 253.212 374.685 263.804 416.256 263.804C429.292 263.804 441.945 262.761 454.027 260.801C454.229 260.769 454.437 260.808 454.613 260.912L512.586 295.245L496.796 250.724C496.778 250.713 496.76 250.701 496.742 250.69C496.467 250.513 496.314 250.197 496.346 249.872C496.378 249.547 496.589 249.267 496.893 249.147C540.684 231.779 569.558 200.826 569.558 165.774C569.558 138.86 552.551 114.374 524.802 96.5735C497.063 78.7789 458.688 67.7443 416.256 67.7443C373.824 67.7443 335.45 78.7789 307.71 96.5735C279.961 114.374 262.954 138.86 262.954 165.774C262.954 180.093 268.156 193.467 276.483 206.072C287.564 222.845 294.23 237.56 297.311 250.299C297.438 250.381 297.566 250.463 297.694 250.545C329.601 271.013 371.705 282.31 416.255 282.31C419.064 282.31 421.871 282.264 424.673 282.173C425.023 282.162 425.346 282.36 425.494 282.677C425.641 282.994 425.586 283.368 425.352 283.628C398.502 313.471 348.368 333.452 291.077 333.452C278.061 333.452 265.42 332.42 253.339 330.478L193.564 365.878C193.248 366.065 192.848 366.035 192.564 365.802C192.279 365.569 192.172 365.183 192.295 364.837L206.496 324.797H93.8739C93.3912 324.797 93 324.407 93 323.925C93 323.443 93.3912 323.053 93.8739 323.053H207.732C208.016 323.053 208.282 323.19 208.446 323.421C208.61 323.653 208.651 323.949 208.556 324.216L194.747 363.149L252.72 328.816C252.896 328.712 253.104 328.673 253.306 328.705C265.388 330.665 278.041 331.708 291.077 331.708C347.043 331.708 395.908 312.516 422.661 283.976C420.528 284.028 418.392 284.055 416.255 284.055C371.94 284.055 329.954 272.949 297.858 252.718C300.702 266.247 299.399 277.461 295 286.464C286.283 304.304 265.622 313.036 242.23 313.961C218.806 314.888 192.387 308.013 171.76 294.337C151.121 280.653 136.204 260.099 136.028 233.684C135.877 210.835 147.785 189.846 167.721 173.104C187.656 156.363 215.664 143.821 247.884 137.826C248.189 137.769 248.502 137.878 248.705 138.112C248.908 138.346 248.972 138.67 248.872 138.963C245.915 147.663 244.423 156.624 244.423 165.775C244.423 182.623 249.469 198.835 259.448 213.969C268.088 227.073 280.083 238.808 295.149 248.878C291.954 236.828 285.516 222.915 275.024 207.033C266.571 194.237 261.206 180.533 261.206 165.774C261.206 138.066 278.713 113.101 306.765 95.1061ZM295.772 251.381C279.794 240.97 267.079 228.715 257.988 214.928C247.836 199.531 242.675 182.989 242.675 165.775C242.675 156.926 244.042 148.251 246.75 139.816C215.379 145.871 188.207 158.179 168.846 174.439C149.188 190.948 137.629 211.482 137.776 233.672C137.947 259.355 152.43 279.427 172.727 292.884C193.036 306.349 219.09 313.131 242.161 312.218C265.264 311.304 285.121 302.702 293.429 285.7C297.797 276.759 299.03 265.378 295.772 251.381Z" fill="#666666"/>
</g>
</svg>
